<svg width="16" height="16" version="1" xmlns="http://www.w3.org/2000/svg">
 <defs>
  <style type="text/css">.ColorScheme-Text {
            color:#31363b;
        }
        .ColorScheme-Background {
        color:#eff0f1;
        }</style>
 </defs>
 <path class="ColorScheme-Text" d="m7.7495 0c-1.9484-0.0012-1.2929 1.8793-2.134 2.5765-0.332 0.27517-0.71603 0.49685-1.1203 0.6468-1.0244 0.37994-2.3241-1.1277-3.2984 0.5599l-0.125 0.2168-0.12549 0.2168c-0.97517 1.6868 0.98122 2.0594 1.1644 3.1364 0.072303 0.4251 0.072283 0.8685 0 1.2936-0.18314 1.0771-2.1383 1.4488-1.1639 3.1364l0.25 0.43359c0.97321 1.6879 2.2741 0.18005 3.2984 0.5599 0.4043 0.14993 0.78831 0.37165 1.1203 0.6468 0.84122 0.69714 0.18577 2.5765 2.1345 2.5765h0.5c1.9484 0.0012 1.2934-1.8793 2.1345-2.5765 0.332-0.27517 0.71603-0.49685 1.1203-0.6468 1.0244-0.37994 2.3241 1.1272 3.2984-0.56039l0.125-0.21631 0.125-0.2168c0.97517-1.6868-0.98073-2.0594-1.1639-3.1364-0.0723-0.4251-0.07228-0.8685 0-1.2936 0.18314-1.0771 2.1383-1.4493 1.1639-3.1369l-0.125-0.21631-0.125-0.2168c-0.97321-1.6879-2.2741-0.18005-3.2984-0.5599-0.4043-0.14993-0.78831-0.37165-1.1203-0.6468-0.84122-0.69714-0.18577-2.5765-2.1345-2.5765h-0.25z" fill="#474747"/>
 <path class="ColorScheme-Text" d="m7.7495 0c-1.9484-0.0012-1.2929 1.8793-2.134 2.5765-0.332 0.27517-0.71603 0.49685-1.1203 0.6468-1.0244 0.37994-2.3241-1.1277-3.2984 0.5599l-0.125 0.2168-0.12549 0.2168c-0.97517 1.6868 0.98122 2.0594 1.1644 3.1364 0.072303 0.4251 0.072283 0.8685 0 1.2936-0.18314 1.0771-2.1383 1.4488-1.1639 3.1364l0.25 0.43359c0.97321 1.6879 2.2741 0.18005 3.2984 0.5599 0.4043 0.14993 0.78831 0.37165 1.1203 0.6468 0.84122 0.69714 0.18577 2.5765 2.1345 2.5765h0.5c1.9484 0.0012 1.2934-1.8793 2.1345-2.5765 0.332-0.27517 0.71603-0.49685 1.1203-0.6468 1.0244-0.37994 2.3241 1.1272 3.2984-0.56039l0.125-0.21631 0.125-0.2168c0.97517-1.6868-0.98073-2.0594-1.1639-3.1364-0.0723-0.4251-0.07228-0.8685 0-1.2936 0.18314-1.0771 2.1383-1.4493 1.1639-3.1369l-0.125-0.21631-0.125-0.2168c-0.97321-1.6879-2.2741-0.18005-3.2984-0.5599-0.4043-0.14993-0.78831-0.37165-1.1203-0.6468-0.84122-0.69714-0.18577-2.5765-2.1345-2.5765h-0.25z" fill="currentColor" opacity=".12"/>
 <path d="m7.75 0c-1.9484-0.0012-1.2937 1.879-2.1348 2.5762-0.332 0.27517-0.71487 0.49653-1.1191 0.64648-1.0244 0.37994-2.3245-1.1271-3.2988 0.56055l-0.25 0.43359c-0.25819 0.4466-0.30768 0.79979-0.24219 1.0996 0.037667-0.18054 0.11432-0.37843 0.24219-0.59961l0.25-0.43359c0.9743-1.6876 2.2744-0.18061 3.2988-0.56055 0.40427-0.14995 0.78714-0.37131 1.1191-0.64648 0.8411-0.6972 0.18637-2.5774 2.1348-2.5762h0.5c1.9487 0 1.2935 1.879 2.1348 2.5762 0.33199 0.27515 0.71484 0.49655 1.1191 0.64648 1.0243 0.37985 2.3256-1.1274 3.2988 0.56055l0.25 0.43359c0.12788 0.22147 0.2046 0.41888 0.24219 0.59961 0.065478-0.29989 0.015799-0.65279-0.24219-1.0996l-0.25-0.43359c-0.97321-1.6879-2.2745-0.1807-3.2988-0.56055-0.4043-0.14993-0.78715-0.37133-1.1191-0.64648-0.84122-0.69714-0.18604-2.5762-2.1348-2.5762h-0.5zm-5.5957 8.25c-0.0085643 0.13299-0.020763 0.26589-0.042969 0.39648-0.15912 0.93585-1.6555 1.3405-1.4062 2.5371 0.18183-0.83264 1.2716-1.2452 1.4062-2.0371 0.050077-0.29451 0.062278-0.59658 0.042969-0.89648zm11.691 0c-0.019307 0.29988-0.007117 0.602 0.042969 0.89648 0.13477 0.79244 1.2257 1.2052 1.4062 2.0391 0.2513-1.1975-1.247-1.6029-1.4062-2.5391-0.022215-0.13061-0.034407-0.26348-0.042969-0.39648z" fill="#fff" opacity=".1"/>
 <path class="ColorScheme-Background" d="m10 4.5469v2.4531l-2 1.5-2-1.5v-2.4512c-1.2237 0.70807-1.9982 2.0149-2 3.4512 0 1.4802 0.80486 2.7711 2 3.4629v2.9375c0 0.8864 0.71321 1.5996 1.5996 1.5996h0.80078c0.8864 0 1.5996-0.71321 1.5996-1.5996v-2.9375c1.1951-0.69175 2-1.9827 2-3.4629-7.23e-4 -1.4373-0.77557-2.7444-2-3.4531z" fill="#e5e5e5"/>
 <g fill="currentColor">
  <path class="ColorScheme-Background" d="m10 4.5469v2.4531l-2 1.5-2-1.5v-2.4512c-1.2237 0.70807-1.9982 2.0149-2 3.4512 0 1.4802 0.80486 2.7711 2 3.4629v2.9375c0 0.8864 0.71321 1.5996 1.5996 1.5996h0.80078c0.8864 0 1.5996-0.71321 1.5996-1.5996v-2.9375c1.1951-0.69175 2-1.9827 2-3.4629-7.23e-4 -1.4373-0.77557-2.7444-2-3.4531z" opacity=".1"/>
  <path d="m7 11.873v2.3262c0 0.4432 0.446 0.80078 1 0.80078s1-0.35758 1-0.80078v-2.3262c-0.31957 0.0827-0.65453 0.12695-1 0.12695s-0.68043-0.04425-1-0.12695z" opacity=".5"/>
  <path d="m6 11.463v2.9375c0 0.8864 0.71321 1.5996 1.5996 1.5996h0.80078c0.8864 0 1.5996-0.71321 1.5996-1.5996v-2.9375c-0.30959 0.17919-0.64531 0.31837-1 0.41016v2.3262c0 0.4432-0.446 0.80078-1 0.80078s-1-0.35758-1-0.80078v-2.3262c-0.35469-0.091788-0.69041-0.23096-1-0.41016z" opacity=".2"/>
  <path class="ColorScheme-Text" d="m7 11.873v2.3262c0 0.4432 0.446 0.80078 1 0.80078s1-0.35758 1-0.80078v-2.3262c-0.31957 0.0827-0.65453 0.12695-1 0.12695s-0.68043-0.04425-1-0.12695z" opacity=".1"/>
 </g>
 <path d="m10 4.5469v2.4531l-2 1.5-2-1.5v-2.4512c-1.0707 0.61956-1.7967 1.6979-1.9629 2.9199-0.010643 0.078265-0.019404 0.15696-0.025391 0.23633-0.0011769 0.015601-9.589e-4 0.031235-0.0019532 0.046875-0.00523 0.082264-0.0096613 0.16482-0.0097656 0.24805 0 0.081349 0.0030193 0.16205 0.0078125 0.24219 0.0017452 0.029538 0.0054352 0.058532 0.0078125 0.087891 0.0043529 0.053157 0.0092113 0.10566 0.015625 0.1582 0.0036133 0.029938 0.0074528 0.060118 0.011719 0.089844 0.024196 0.16671 0.057443 0.33088 0.10156 0.49023 0.023532 0.084997 0.049216 0.16934 0.078125 0.25195 0.318 0.90879 0.95568 1.667 1.7773 2.1426v0.003906c0.58771 0.33854 1.2704 0.5332 2 0.5332s1.4123-0.19466 2-0.5332v-0.003906c0.82166-0.47558 1.4593-1.2338 1.7773-2.1426 0.028909-0.082618 0.054592-0.16696 0.078125-0.25195 0.044119-0.15936 0.077366-0.32353 0.10156-0.49023 0.004266-0.029726 0.008106-0.059906 0.011719-0.089844 0.006414-0.052545 0.011272-0.10505 0.015625-0.1582 0.002377-0.029358 0.006067-0.058352 0.007813-0.087891 0.004793-0.080138 0.007812-0.16084 0.007812-0.24219-4.2e-5 -0.083283-0.004589-0.16573-0.009766-0.24805-3.94e-4 -0.0065168 4.26e-4 -0.013023 0-0.019531-8.91e-4 -0.013145-0.002886-0.025945-0.003906-0.039062-0.004435-0.057018-0.008777-0.11347-0.015625-0.16992-0.003527-0.029965-0.007538-0.060089-0.011719-0.089844-0.17466-1.2082-0.89795-2.2726-1.959-2.8867z" fill="#fff" opacity=".1"/>
</svg>
