<?xml version="1.0" encoding="UTF-8" standalone="no"?>
<svg
   width="22"
   height="22"
   version="1"
   id="svg1214"
   sodipodi:docname="22.svg"
   inkscape:version="1.1.1 (3bf5ae0d25, 2021-09-20, custom)"
   xmlns:inkscape="http://www.inkscape.org/namespaces/inkscape"
   xmlns:sodipodi="http://sodipodi.sourceforge.net/DTD/sodipodi-0.dtd"
   xmlns:xlink="http://www.w3.org/1999/xlink"
   xmlns="http://www.w3.org/2000/svg"
   xmlns:svg="http://www.w3.org/2000/svg">
  <sodipodi:namedview
     id="namedview1216"
     pagecolor="#ffffff"
     bordercolor="#666666"
     borderopacity="1.0"
     inkscape:pageshadow="2"
     inkscape:pageopacity="0.0"
     inkscape:pagecheckerboard="0"
     showgrid="false"
     inkscape:zoom="19.220448"
     inkscape:cx="11.680269"
     inkscape:cy="12.720827"
     inkscape:window-width="1440"
     inkscape:window-height="823"
     inkscape:window-x="0"
     inkscape:window-y="768"
     inkscape:window-maximized="1"
     inkscape:current-layer="g1192" />
  <defs
     id="defs3">
    <linearGradient
       inkscape:collect="always"
       id="linearGradient1039">
      <stop
         style="stop-color:#000000;stop-opacity:0;"
         offset="0"
         id="stop1037" />
      <stop
         style="stop-color:#000000;stop-opacity:1;"
         offset="1"
         id="stop1035" />
    </linearGradient>
    <style
       type="text/css"
       id="current-color-scheme">.ColorScheme-Text {
        color:#363636;
      }</style>
    <linearGradient
       inkscape:collect="always"
       xlink:href="#linearGradient1039"
       id="linearGradient1041"
       x1="1.7793634"
       y1="1.0328686"
       x2="20.005198"
       y2="20.982571"
       gradientUnits="userSpaceOnUse" />
  </defs>
  <path
     d="m10.687 1.5c-2.4355-0.0015-1.6161 2.3491-2.6675 3.2206-0.415 0.34396-0.89504 0.62106-1.4004 0.8085-1.2805 0.47492-2.9051-1.4096-4.123 0.69987l-0.15625 0.271-0.15686 0.271c-1.219 2.1085 1.2265 2.5742 1.4555 3.9205 0.090379 0.53138 0.090354 1.0856 0 1.617-0.22892 1.3464-2.6729 1.811-1.4549 3.9205l0.3125 0.54199c1.2165 2.1099 2.8426 0.22506 4.123 0.69987 0.50537 0.18741 0.98539 0.46456 1.4004 0.8085 1.0515 0.87142 0.23221 1.7206 2.6681 1.7206h0.625c2.4355 0.0015 1.6167-0.84914 2.6681-1.7206 0.415-0.34396 0.89504-0.62106 1.4004-0.8085 1.2805-0.47492 2.9051 1.409 4.123-0.70049l0.15625-0.27039 0.15625-0.271c1.219-2.1085-1.2259-2.5742-1.4549-3.9205-0.09038-0.53138-0.09035-1.0856 0-1.617 0.22892-1.3464 2.6729-1.8116 1.4549-3.9211l-0.15625-0.27039-0.15625-0.271c-1.2165-2.1099-2.8426-0.22506-4.123-0.69987-0.50538-0.18741-0.98539-0.46456-1.4004-0.8085-1.0515-0.87142-0.23221-3.2206-2.6681-3.2206h-0.3125z"
     opacity=".2"
     id="path1186" />
  <g
     stroke-width="1.25"
     id="g1192">
    <path
       d="m10.687 1c-2.4355-0.0015-1.6161 2.3491-2.6675 3.2206-0.415 0.34396-0.89504 0.62106-1.4004 0.8085-1.2805 0.47492-2.9051-1.4096-4.123 0.69987l-0.15625 0.271-0.15686 0.271c-1.219 2.1085 1.2265 2.5742 1.4555 3.9205 0.090379 0.53138 0.090354 1.0856 0 1.617-0.22892 1.3464-2.6729 1.811-1.4549 3.9205l0.3125 0.54199c1.2165 2.1099 2.8426 0.22506 4.123 0.69987 0.50537 0.18741 0.98539 0.46456 1.4004 0.8085 1.0515 0.87142 0.23221 3.2206 2.6681 3.2206h0.625c2.4355 0.0015 1.6167-2.3491 2.6681-3.2206 0.415-0.34396 0.89504-0.62106 1.4004-0.8085 1.2805-0.47492 2.9051 1.409 4.123-0.70049l0.15625-0.27039 0.15625-0.271c1.219-2.1085-1.2259-2.5742-1.4549-3.9205-0.09038-0.53138-0.09035-1.0856 0-1.617 0.22892-1.3464 2.6729-1.8116 1.4549-3.9211l-0.15625-0.27039-0.15625-0.271c-1.2165-2.1099-2.8426-0.22506-4.123-0.69987-0.50538-0.18741-0.98539-0.46456-1.4004-0.8085-1.0515-0.87142-0.23221-3.2206-2.6681-3.2206h-0.3125z"
       id="path1188"
       style="fill:#666666;fill-opacity:1" />
    <g
       id="path1416"
       class="ColorScheme-Text"
       style="fill:none" />
    <path
       class="ColorScheme-Background"
       d="m10.687 1c-2.4355-0.0015-1.6161 2.3491-2.6675 3.2206-0.415 0.34396-0.89504 0.62106-1.4004 0.8085-1.2805 0.47492-2.9051-1.4096-4.123 0.69987l-0.15625 0.271-0.15686 0.271c-1.219 2.1085 1.2265 2.5742 1.4555 3.9205 0.090379 0.53138 0.090354 1.0856 0 1.617-0.22892 1.3464-2.6729 1.811-1.4549 3.9205l0.3125 0.54199c1.2165 2.1099 2.8426 0.22506 4.123 0.69987 0.50537 0.18741 0.98539 0.46456 1.4004 0.8085 1.0515 0.87142 0.23221 3.2206 2.6681 3.2206h0.625c2.4355 0.0015 1.6167-2.3491 2.6681-3.2206 0.415-0.34396 0.89504-0.62106 1.4004-0.8085 1.2805-0.47492 2.9051 1.409 4.123-0.70049l0.15625-0.27039 0.15625-0.271c1.219-2.1085-1.2259-2.5742-1.4549-3.9205-0.09038-0.53138-0.09035-1.0856 0-1.617 0.22892-1.3464 2.6729-1.8116 1.4549-3.9211l-0.15625-0.27039-0.15625-0.271c-1.2165-2.1099-2.8426-0.22506-4.123-0.69987-0.50538-0.18741-0.98539-0.46456-1.4004-0.8085-1.0515-0.87142-0.23221-3.2206-2.6681-3.2206h-0.3125z"
       fill="currentColor"
       id="path1190"
       style="opacity:0.12;fill-opacity:1;fill:url(#linearGradient1041)" />
  </g>
  <path
     class="ColorScheme-Text"
     d="m10.688 1c-2.4355-0.0015-1.6166 2.3492-2.668 3.2207-0.415 0.34396-0.89505 0.62116-1.4004 0.80859-1.2805 0.47492-2.9052-1.4103-4.123 0.69922l-0.3125 0.54297c-0.30877 0.53409-0.3823 0.96188-0.31641 1.3262 0.039935-0.24593 0.13819-0.5179 0.31641-0.82617l0.3125-0.54297c1.2179-2.1095 2.8425-0.22429 4.123-0.69922 0.50534-0.18744 0.98539-0.46463 1.4004-0.80859 1.0514-0.8715 0.23247-3.2222 2.668-3.2207h0.625c2.4359 0 1.6164 2.3493 2.668 3.2207 0.41499 0.34394 0.89502 0.62118 1.4004 0.80859 1.2804 0.47481 2.9065-1.4107 4.123 0.69922l0.15625 0.27148 0.15625 0.26953c0.17717 0.30685 0.27611 0.57918 0.31641 0.82422 0.064529-0.36346-0.009095-0.79198-0.31641-1.3242l-0.15625-0.26953-0.15625-0.27148c-1.2165-2.1099-2.8427-0.22441-4.123-0.69922-0.50538-0.18741-0.9854-0.46466-1.4004-0.80859-1.0515-0.87142-0.23206-3.2207-2.668-3.2207h-0.625zm-6.9922 10.25c-0.0096272 0.18751-0.025366 0.37467-0.056641 0.55859-0.19554 1.1501-2.0045 1.6576-1.7695 3.0957 0.19289-1.0753 1.5985-1.5898 1.7695-2.5957 0.05908-0.34745 0.074821-0.70437 0.056641-1.0586zm14.609 0c-0.018184 0.35421-0.002455 0.71115 0.05664 1.0586 0.17097 1.0052 1.5774 1.5199 1.7715 2.5938 0.23334-1.4361-1.576-1.9443-1.7715-3.0938-0.031285-0.18394-0.047018-0.37107-0.05664-0.55859z"
     fill="#fff"
     opacity=".1"
     stroke-width="1.25"
     id="path1194" />
  <g
     transform="translate(-23,-13)"
     id="g1212">
    <rect
       x="31"
       y="26.5"
       width="6"
       height="8"
       rx="2.4"
       ry="2"
       opacity=".2"
       id="rect1196" />
    <rect
       x="33"
       y="27"
       width="2"
       height="6"
       rx="1"
       ry="1"
       opacity=".4"
       id="rect1198" />
    <path
       d="m36 19.42v3.5801l-2 1.5-2-1.5v-3.5762c-1.82 0.79431-2.9975 2.5904-3 4.5762 0 1.6361 0.7852 3.0878 2 4v4c0 1.108 1.0708 2 2.4004 2h1.1992c1.3296 0 2.4004-0.892 2.4004-2v-4c0-6.52e-4 1e-6 -0.0013 0-2e-3 1.2136-0.91223 2-2.3629 2-3.998-1e-3 -1.9872-1.1787-3.7852-3-4.5801z"
       fill="#cfcfcf"
       id="path1200" />
    <path
       d="m31 27.999c-1e-6 6.52e-4 0 0.0013 0 2e-3v4c0 1.108 1.0708 2 2.4004 2h1.2012c1.3296 0 2.3984-0.892 2.3984-2v-4c-0.83556 0.62741-1.8747 1-3 1-1.1263 0-2.1641-0.37355-3-1.002z"
       opacity=".1"
       id="path1202" />
    <path
       d="m33 28.9v3.0996c0 0.554 0.446 1 1 1s1-0.446 1-1v-3.0996c-0.32334 0.06576-0.65736 0.10156-1 0.10156-0.34237 0-0.67718-0.03587-1-0.10156z"
       opacity=".4"
       id="path1204" />
    <path
       d="m29.008 24.27c-0.0036 0.07685-0.0077 0.15299-0.0078 0.23047 0 2.7614 2.2386 5 5 5s5-2.2386 5-5c-3.6e-5 -0.0719-0.0047-0.14347-0.0078-0.21484-0.14765 2.6289-2.3264 4.7148-4.9922 4.7148-2.6712 0-4.8524-2.0941-4.9922-4.7305z"
       opacity=".2"
       id="path1206" />
    <path
       d="m36.002 19.418v3.5801c-0.66667 0.5-1.3333 1-2 1.5-0.66667-0.5-1.3333-1-2-1.5v-3.5762c-1.838 0.77452-3.0845 2.735-2.9974 4.7291 0.03289 2.072 1.5012 4.0172 3.4827 4.6153 1.8284 0.59774 3.9736 0.02408 5.2343-1.4291 1.3895-1.4967 1.6779-3.8696 0.70659-5.6619-0.52196-0.9992-1.3915-1.8093-2.4262-2.2573z"
       fill="#fff"
       opacity=".1"
       id="path1208" />
    <path
       d="m36 19.42v0.5c1.733 0.75634 2.8809 2.4214 2.9893 4.293 3e-3 -0.0712 0.01074-0.14095 0.01074-0.21289-1e-3 -1.9872-1.1787-3.7852-3-4.5801zm-4 0.0039c-1.82 0.79431-2.9975 2.5904-3 4.5762 0 0.07194 0.0077 0.14169 0.01074 0.21289 0.10964-1.8702 1.2575-3.5333 2.9893-4.2891v-0.5zm0 3.5762v0.5l2 1.5 2-1.5v-0.5l-2 1.5z"
       fill="#fff"
       opacity=".1"
       id="path1210" />
  </g>
</svg>
