<svg width="32" height="32" version="1" xmlns="http://www.w3.org/2000/svg">
 <defs>
  <style type="text/css">.ColorScheme-Text {
            color:#31363b;
        }
        .ColorScheme-Background {
        color:#eff0f1;
        }</style>
 </defs>
 <path d="m15.562 3c-3.4097-0.0021-2.2283 3.4247-3.6816 4.6293-0.57363 0.47544-1.2372 0.85846-1.9357 1.1175-1.7699 0.65647-4.1449-2.0795-5.85 0.87382l-0.21875 0.3794-0.21961 0.3794c-1.7065 2.9519 1.8518 3.6421 2.1684 5.503 0.12493 0.73449 0.1249 1.5006 0 2.2351-0.31642 1.8609-3.8727 2.5497-2.1675 5.503l0.4375 0.75878c1.7031 2.9538 4.0801 0.21751 5.85 0.87382 0.69856 0.25905 1.362 0.64214 1.9357 1.1175 1.4535 1.2045 0.27219 4.6293 3.6825 4.6293h0.875c3.4097 0.0021 2.2291-3.4247 3.6825-4.6293 0.57363-0.47544 1.2372-0.85846 1.9357-1.1175 1.7699-0.65647 4.1449 2.0786 5.85-0.87468l0.21875-0.37854 0.21875-0.3794c1.7065-2.9519-1.851-3.6421-2.1675-5.503-0.12491-0.73449-0.12488-1.5006 0-2.2351 0.31642-1.8609 3.8727-2.5506 2.1675-5.5039l-0.21875-0.37854-0.21875-0.3794c-1.7031-2.9538-4.0801-0.21751-5.85-0.87382-0.69856-0.25905-1.362-0.64214-1.9357-1.1175-1.4535-1.2045-0.27219-4.6293-3.6825-4.6293h-0.4375z" opacity=".2" stroke-linecap="round" stroke-linejoin="round" stroke-width=".61183" style="paint-order:markers stroke fill"/>
 <path d="m15.562 2c-3.4097-0.0021-2.2283 3.4247-3.6816 4.6293-0.57363 0.47544-1.2372 0.85846-1.9357 1.1175-1.7699 0.65647-4.1449-2.0795-5.85 0.87382l-0.21875 0.3794-0.21961 0.3794c-1.7065 2.9519 1.8518 3.6421 2.1684 5.503 0.12493 0.73449 0.1249 1.5006 0 2.2351-0.31642 1.8609-3.8727 2.5497-2.1675 5.503l0.4375 0.75878c1.7031 2.9538 4.0801 0.21751 5.85 0.87382 0.69856 0.25905 1.362 0.64214 1.9357 1.1175 1.4535 1.2045 2.2207 4.6293 3.9041 4.6293h0.4319c1.683 0.0021 2.4507-3.4247 3.9041-4.6293 0.57363-0.47544 1.2372-0.85846 1.9357-1.1175 1.7699-0.65647 4.1449 2.0786 5.85-0.87468l0.21875-0.37854 0.21875-0.3794c1.7065-2.9519-1.851-3.6421-2.1675-5.503-0.12491-0.73449-0.12488-1.5006 0-2.2351 0.31642-1.8609 3.8727-2.5506 2.1675-5.5039l-0.21875-0.37854-0.21875-0.3794c-1.7031-2.9538-4.0801-0.21751-5.85-0.87382-0.69856-0.25905-1.362-0.64214-1.9357-1.1175-1.4535-1.2045-0.27219-4.6293-3.6825-4.6293h-0.4375z" fill="#474747"/>
 <path class="ColorScheme-Text" d="m15.562 2c-3.4097-0.0021-2.2283 3.4247-3.6816 4.6293-0.57363 0.47544-1.2372 0.85846-1.9357 1.1175-1.7699 0.65647-4.1449-2.0795-5.85 0.87382l-0.21875 0.3794-0.21961 0.3794c-1.7065 2.9519 1.8518 3.6421 2.1684 5.503 0.12493 0.73449 0.1249 1.5006 0 2.2351-0.31642 1.8609-3.8727 2.5497-2.1675 5.503l0.4375 0.75878c1.7031 2.9538 4.0801 0.21751 5.85 0.87382 0.69856 0.25905 1.362 0.64214 1.9357 1.1175 1.4535 1.2045 2.2207 4.6293 3.9041 4.6293h0.4319c1.683 0.0021 2.4507-3.4247 3.9041-4.6293 0.57363-0.47544 1.2372-0.85846 1.9357-1.1175 1.7699-0.65647 4.1449 2.0786 5.85-0.87468l0.21875-0.37854 0.21875-0.3794c1.7065-2.9519-1.851-3.6421-2.1675-5.503-0.12491-0.73449-0.12488-1.5006 0-2.2351 0.31642-1.8609 3.8727-2.5506 2.1675-5.5039l-0.21875-0.37854-0.21875-0.3794c-1.7031-2.9538-4.0801-0.21751-5.85-0.87382-0.69856-0.25905-1.362-0.64214-1.9357-1.1175-1.4535-1.2045-0.27219-4.6293-3.6825-4.6293h-0.4375z" fill="currentColor" opacity=".12"/>
 <path d="m19 9.6934v5.207l-3 2.1992-3-2.1992v-5.2012c-2.4298 1.1555-3.9965 3.5968-4 6.3008 0 2.7923 1.6351 5.2027 4 6.3262v4.9238c0 1.5235 1.0708 2.75 2.4004 2.75h1.1992c1.3296 0 2.4004-1.2265 2.4004-2.75v-4.9238c2.3649-1.1235 4-3.5338 4-6.3262-0.0014-2.706-1.5683-5.1504-4-6.3066z" fill="#fff"/>
 <path d="m13 22.326v4.9238c0 1.5235 1.0708 2.75 2.4004 2.75h1.1992c1.3296 0 2.4004-1.2265 2.4004-2.75v-4.9238c-0.90929 0.43198-1.9264 0.67383-3 0.67383s-2.0907-0.24185-3-0.67383z" opacity=".1"/>
 <path d="m15 22.928v4.0723c0 0.554 0.446 1 1 1s1-0.446 1-1v-4.0723c-0.3267 0.046746-0.66037 0.072266-1 0.072266s-0.6733-0.02552-1-0.072266z" opacity=".4"/>
 <path d="m22.98 16.482c-0.24853 3.6403-3.2771 6.5176-6.9805 6.5176-3.6987 0-6.7253-2.8701-6.9805-6.5039-0.012259 0.1667-0.019315 0.33491-0.019531 0.50391 0 3.866 3.134 7 7 7s7-3.134 7-7c-9e-5 -0.1738-0.006711-0.3462-0.019531-0.51758z" opacity=".2"/>
 <path d="m19 9.6934v5.207l-3 2.1992-3-2.1992v-5.2012c-2.4298 1.1555-3.9965 3.5968-4 6.3008 0 3.866 3.134 7 7 7s7-3.134 7-7c-0.0014-2.706-1.5683-5.1504-4-6.3066z" fill="#fff" opacity=".1"/>
 <path d="m15.562 2c-3.4097-0.0021-2.2283 3.4244-3.6816 4.6289-0.57363 0.47544-1.237 0.8581-1.9355 1.1172-1.7699 0.65647-4.1464-2.0783-5.8516 0.875l-0.4375 0.75781c-0.45726 0.79094-0.52961 1.417-0.39453 1.9492 0.06907-0.28933 0.19455-0.60329 0.39453-0.94922l0.4375-0.75781c1.7052-2.9533 4.0816-0.21853 5.8516-0.875 0.69851-0.25909 1.3619-0.64175 1.9355-1.1172 1.4534-1.2045 0.27196-4.631 3.6816-4.6289h0.4375 0.4375c3.4103 0 2.2301 3.4244 3.6836 4.6289 0.57363 0.4754 1.237 0.85814 1.9355 1.1172 1.7699 0.65632 4.1465-2.0788 5.8496 0.875l0.4375 0.75781c0.19983 0.34609 0.32553 0.65978 0.39453 0.94922 0.13506-0.53236 0.062366-1.1579-0.39453-1.9492l-0.4375-0.75781c-1.7031-2.9538-4.0797-0.21868-5.8496-0.875-0.69856-0.25905-1.3619-0.64178-1.9355-1.1172-1.4535-1.2045-0.27328-4.6289-3.6836-4.6289h-0.4375-0.4375zm-9.666 14.5c-0.015423 0.20754-0.037574 0.41317-0.072266 0.61719-0.27934 1.6429-3.0805 2.3743-2.5605 4.5547 0.36908-1.4541 2.3289-2.1924 2.5605-3.5547 0.090205-0.53047 0.11236-1.0776 0.072266-1.6172zm20.207 0c-0.040096 0.53964-0.017952 1.0867 0.072265 1.6172 0.23175 1.3623 2.1937 2.1006 2.5625 3.5547 0.52049-2.1796-2.283-2.9118-2.5625-4.5547-0.034697-0.20402-0.056847-0.40965-0.072265-0.61719z" fill="#fff" opacity=".1" style="paint-order:markers stroke fill"/>
</svg>
