<svg width="48" height="48" version="1" xmlns="http://www.w3.org/2000/svg">
 <defs>
  <style type="text/css">.ColorScheme-Text {
            color:#31363b;
        }
        .ColorScheme-Background {
        color:#eff0f1;
        }</style>
 </defs>
 <path d="m23.375 5c-4.871-0.00297-3.0825 5.2935-5.1035 6.9688-0.79773 0.66118-1.72 1.1944-2.6914 1.5547-2.4614 0.91292-6.1521-3.2834-8.5879 0.93555l-0.3125 0.54102-0.3125 0.54297c-2.4379 4.217 3.0423 5.3145 3.4824 7.9023 0.17372 1.0214 0.17367 2.0879 0 3.1094-0.44005 2.5881-5.9184 3.6853-3.4824 7.9043l0.625 1.084c2.433 4.2197 6.1267 0.020892 8.5879 0.93359 0.97145 0.36025 1.8937 0.89356 2.6914 1.5547 0.33212 0.27523 0.55567 0.65487 0.72852 1.0859v1.8828c0 2.216 1.784 4 4 4h0.375 1.25 0.375c2.216 0 4-1.784 4-4v-1.8789c0.17305-0.43293 0.39735-0.81372 0.73047-1.0898 0.79773-0.66118 1.72-1.1944 2.6914-1.5547 2.4614-0.91292 6.1502 3.2834 8.5859-0.93555l0.3125-0.54102 0.3125-0.54297c2.4379-4.217-3.0403-5.3145-3.4805-7.9023-0.17372-1.0214-0.17367-2.0879 0-3.1094 0.44005-2.5881 5.9165-3.6853 3.4805-7.9043l-0.3125-0.54102-0.3125-0.54297c-2.433-4.2197-6.1247-0.020891-8.5859-0.93359-0.97145-0.36025-1.8937-0.89356-2.6914-1.5547-2.0213-1.6751-0.23365-6.9688-5.1055-6.9688h-0.625-0.625z" opacity=".2"/>
 <path class="ColorScheme-Text" d="m23.374 4.0001c-4.871-0.00297-3.0822 5.2932-5.1032 6.9684-0.79773 0.66118-1.7205 1.1938-2.6919 1.5541-2.4614 0.91292-6.1509-3.2835-8.5867 0.93546l-0.3125 0.542-0.31372 0.542c-2.4379 4.217 3.0433 5.316 3.4834 7.9039 0.17372 1.0214 0.17367 2.0868 0 3.1083-0.44005 2.5881-5.9182 3.6849-3.4822 7.9039l0.625 1.084c2.433 4.2197 6.1255 0.02276 8.5867 0.93546 0.97145 0.36025 1.8942 0.893 2.6919 1.5541 2.0213 1.6751 0.23265 6.9684 5.1045 6.9684h1.25c4.871 3e-3 3.0835-5.2932 5.1045-6.9684 0.79773-0.66118 1.7205-1.1938 2.6919-1.5541 2.4614-0.91292 6.1509 3.2823 8.5867-0.93669l0.3125-0.54077 0.3125-0.542c2.4379-4.217-3.0421-5.316-3.4822-7.9039-0.17372-1.0214-0.17367-2.0868 0-3.1083 0.44005-2.5881 5.9182-3.6861 3.4822-7.9051l-0.3125-0.54078-0.3125-0.542c-2.433-4.2197-6.1255-0.022758-8.5867-0.93546-0.97145-0.36025-1.8942-0.893-2.6919-1.5541-2.0213-1.6751-0.23265-6.9684-5.1045-6.9684h-0.625z" fill="currentColor"/>
 <path d="m28 14.84v7.1602l-4 3-4-3v-7.1523c-3.64 1.5886-5.9949 5.1808-6 9.1523 0 3.7005 2.0122 6.9288 5 8.6582v7.3418c0 2.216 1.784 4 4 4h2c2.216 0 4-1.784 4-4v-7.3418c2.9878-1.7294 5-4.9577 5-8.6582-2e-3 -3.9744-2.3574-7.5704-6-9.1602z" fill="#fff"/>
 <path d="m14.025 24.664a10 10 0 0 0-0.025391 0.33594 10 10 0 0 0 10 10 10 10 0 0 0 10-10 10 10 0 0 0-0.025391-0.33594c-0.34262 5.2124-4.6755 9.3359-9.9746 9.3359s-9.632-4.1235-9.9746-9.3359z" opacity=".2"/>
 <path d="m28 14.84v7.1602l-4 3-4-3v-7.1523c-3.64 1.5886-5.9949 5.1808-6 9.1523 0 5.5228 4.4772 10 10 10s10-4.4772 10-10c-2e-3 -3.9744-2.3574-7.5704-6-9.1602z" fill="#fff" opacity=".1"/>
 <path d="m28 14.84v1c3.466 1.5127 5.7619 4.8428 5.9785 8.5859 0.006017-0.1424 0.021484-0.2819 0.021484-0.42578-2e-3 -3.9744-2.3574-7.5704-6-9.1602zm-8 0.0078c-3.64 1.5886-5.9949 5.1808-6 9.1523 0 0.14388 0.01547 0.28338 0.02148 0.42578 0.21927-3.7404 2.515-7.0665 5.9785-8.5781v-1zm0 7.1523v1l4 3 4-3v-1l-4 3-4-3z" fill="#fff" opacity=".1"/>
 <path d="m19 32.658v7.3418c0 2.216 1.784 4 4 4h2c2.216 0 4-1.784 4-4v-7.3418c-1.4714 0.85163-3.1777 1.3418-5 1.3418s-3.5286-0.49016-5-1.3418z" opacity=".1"/>
 <path d="m22 33.799v6.2012c0 1.108 0.892 2 2 2s2-0.892 2-2v-6.2012c-0.64622 0.13117-1.3151 0.20117-2 0.20117s-1.3538-0.069998-2-0.20117z" opacity=".4"/>
 <path d="m23.375 4c-4.871-0.00297-3.0825 5.2935-5.1035 6.9688-0.79773 0.66118-1.72 1.1944-2.6914 1.5547-2.4614 0.91292-6.1521-3.2834-8.5879 0.93555l-0.3125 0.54102-0.3125 0.54297c-0.56818 0.9828-0.70421 1.7937-0.57617 2.4961 0.077614-0.45328 0.25895-0.94738 0.57617-1.4961l0.3125-0.54297 0.3125-0.54102c2.4357-4.219 6.1265-0.022627 8.5879-0.93555 0.97138-0.3603 1.8937-0.89351 2.6914-1.5547 2.021-1.6752 0.23252-6.9717 5.1035-6.9688h0.625 0.625c4.8718 0 3.0842 5.2937 5.1055 6.9688 0.79771 0.66113 1.72 1.1944 2.6914 1.5547 2.4612 0.9127 6.1529-3.2862 8.5859 0.93359l0.3125 0.54297 0.3125 0.54102c0.31705 0.5491 0.49869 1.0445 0.57617 1.498 0.12804-0.70261-0.008442-1.5148-0.57617-2.498l-0.3125-0.54102-0.3125-0.54297c-2.433-4.2197-6.1247-0.020891-8.5859-0.93359-0.97145-0.36025-1.8937-0.89356-2.6914-1.5547-2.0213-1.6751-0.23365-6.9688-5.1055-6.9688h-0.625-0.625zm-13.416 20.5c-0.018901 0.35399-0.050327 0.7074-0.10938 1.0547-0.38305 2.2528-4.5815 3.3764-4.0566 6.4121 0.41633-2.3162 3.7188-3.4254 4.0566-5.4121 0.11463-0.67415 0.14606-1.3675 0.10938-2.0547zm28.082 0c-0.036689 0.68716-0.003327 1.3806 0.11133 2.0547 0.33755 1.9847 3.6356 3.0948 4.0566 5.4062 0.51911-3.0303-3.6738-4.1552-4.0566-6.4062-0.059066-0.34729-0.092433-0.70069-0.11133-1.0547z" fill="#fff" opacity=".1"/>
</svg>
