<svg width="64" height="64" version="1" xmlns="http://www.w3.org/2000/svg">
 <defs>
  <style type="text/css">.ColorScheme-Text {
            color:#31363b;
        }
        .ColorScheme-Background {
        color:#eff0f1;
        }</style>
 </defs>
 <path d="m31.123 5c-6.8194-0.0042-4.1515 8.054-6.8926 10.326-1.082 0.89676-2.3349 1.6187-3.6523 2.1074-3.3384 1.2382-8.9786-5.098-12.389 0.80859l-0.4375 0.75781-0.43945 0.75977c-3.4131 5.9038 4.8991 7.6229 5.4961 11.133 0.23562 1.3854 0.23556 2.8295 0 4.2148-0.59684 3.5102-8.9045 5.2282-5.4941 11.135l0.875 1.5176c3.4062 5.9076 9.0505-0.43127 12.389 0.80664 1.3176 0.48861 2.5704 1.2127 3.6523 2.1094 0.3266 0.27066 0.57124 0.6277 0.76953 1.0391v3.6855c0 3.1024 2.4972 5.5996 5.5996 5.5996h0.52539 1.75 0.52539c3.1024 0 5.5996-2.4972 5.5996-5.5996v-3.6836c0.19848-0.41254 0.44428-0.76979 0.77148-1.041 1.082-0.89676 2.3329-1.6207 3.6504-2.1094 3.3385-1.2382 8.9806 5.098 12.391-0.80859l0.4375-0.75781 0.4375-0.75977c3.4131-5.9038-4.8972-7.6229-5.4941-11.133-0.23562-1.3854-0.23555-2.8295 0-4.2148 0.59684-3.5102 8.9045-5.2282 5.4941-11.135l-0.4375-0.75781-0.4375-0.75977c-3.4062-5.9076-9.0525 0.43126-12.391-0.80664-1.3176-0.48861-2.5685-1.2127-3.6504-2.1094-2.7415-2.2719-0.075934-10.324-6.8965-10.324h-0.875-0.87695z" opacity=".2"/>
 <g stroke-width="1.4">
  <path d="m31.124 4.0001c-6.8194-0.0042-4.1531 8.053-6.8942 10.325-1.082 0.89676-2.3335 1.6192-3.651 2.1079-3.3384 1.2382-8.9792-5.0984-12.389 0.80815l-0.4375 0.7588-0.43922 0.7588c-3.4131 5.9038 4.8981 7.6234 5.4951 11.133 0.23562 1.3854 0.23556 2.8304 0 4.2158-0.59684 3.5102-8.9038 5.2267-5.4934 11.133l0.875 1.5176c3.4062 5.9076 9.0512-0.42976 12.389 0.80815 1.3176 0.48861 2.569 1.2112 3.651 2.1079 2.7415 2.2719 0.07537 10.325 6.8959 10.325h1.75c6.8194 0.0042 4.1548-8.053 6.8959-10.325 1.082-0.89676 2.3335-1.6192 3.651-2.1079 3.3385-1.2382 8.9792 5.0967 12.389-0.80986l0.4375-0.75708 0.4375-0.7588c3.4131-5.9038-4.8964-7.6234-5.4934-11.133-0.23562-1.3854-0.23555-2.8304 0-4.2158 0.59684-3.5102 8.9038-5.2285 5.4934-11.135l-0.4375-0.75708-0.4375-0.7588c-3.4062-5.9076-9.0512 0.42976-12.389-0.80815-1.3176-0.48861-2.569-1.2112-3.651-2.1079-2.7415-2.2719-0.075372-10.325-6.8959-10.325h-0.875z" fill="#474747"/>
  <path class="ColorScheme-Text" d="m31.124 4.0001c-6.8194-0.0042-4.1531 8.053-6.8942 10.325-1.082 0.89676-2.3335 1.6192-3.651 2.1079-3.3384 1.2382-8.9792-5.0984-12.389 0.80815l-0.4375 0.7588-0.43922 0.7588c-3.4131 5.9038 4.8981 7.6234 5.4951 11.133 0.23562 1.3854 0.23556 2.8304 0 4.2158-0.59684 3.5102-8.9038 5.2267-5.4934 11.133l0.875 1.5176c3.4062 5.9076 9.0512-0.42976 12.389 0.80815 1.3176 0.48861 2.569 1.2112 3.651 2.1079 2.7415 2.2719 0.07537 10.325 6.8959 10.325h1.75c6.8194 0.0042 4.1548-8.053 6.8959-10.325 1.082-0.89676 2.3335-1.6192 3.651-2.1079 3.3385-1.2382 8.9792 5.0967 12.389-0.80986l0.4375-0.75708 0.4375-0.7588c3.4131-5.9038-4.8964-7.6234-5.4934-11.133-0.23562-1.3854-0.23555-2.8304 0-4.2158 0.59684-3.5102 8.9038-5.2285 5.4934-11.135l-0.4375-0.75708-0.4375-0.7588c-3.4062-5.9076-9.0512 0.42976-12.389-0.80815-1.3176-0.48861-2.569-1.2112-3.651-2.1079-2.7415-2.2719-0.075372-10.325-6.8959-10.325h-0.875z" fill="currentColor"/>
 </g>
 <path d="m38 19.367v9.6328l-6 4-6-4v-9.6191c-4.8644 2.3093-7.9931 7.2081-8 12.619 0 5.1813 2.8162 9.7022 7 12.123v10.277c0 3.1024 2.4972 5.5996 5.5996 5.5996h2.8008c3.1024 0 5.5996-2.4972 5.5996-5.5996v-10.277c4.1838-2.4209 7-6.9417 7-12.123-0.002725-5.4155-3.1314-10.322-8-12.633z" fill="#e4e4e4"/>
 <path d="m25 44.123v10.277c0 3.1024 2.4972 5.5996 5.5996 5.5996h2.8008c3.1024 0 5.5996-2.4972 5.5996-5.5996v-10.277c-2.0596 1.1917-4.4494 1.877-7 1.877s-4.9404-0.68521-7-1.877z" opacity=".1"/>
 <path d="m29 45.674v8.5254c0 1.5512 1.338 2.8008 3 2.8008s3-1.2496 3-2.8008v-8.5254c-0.96672 0.21112-1.97 0.32617-3 0.32617s-2.0333-0.11505-3-0.32617z" opacity=".4"/>
 <path d="m18.016 32.602c-0.003963 0.13306-0.015454 0.26472-0.015625 0.39844 0 7.732 6.268 14 14 14s14-6.268 14-14c-6.7e-5 -0.13357-0.011776-0.26552-0.015625-0.39844-0.31529 7.4527-6.4541 13.398-13.984 13.398s-13.669-5.9457-13.984-13.398z" opacity=".2"/>
 <path d="m38 19.367v9.6328l-6 4-6-4v-9.6191c-4.8644 2.3093-7.9931 7.2081-8 12.619 0 7.732 6.268 14 14 14s14-6.268 14-14c-0.002725-5.4155-3.1314-10.322-8-12.633z" fill="#fff" opacity=".1"/>
 <path d="m31.123 4c-6.8194-0.0042-4.1515 8.054-6.8926 10.326-1.082 0.89676-2.3349 1.6187-3.6523 2.1074-3.3384 1.2382-8.9786-5.098-12.389 0.80859l-0.4375 0.75781-0.43945 0.75977c-0.70175 1.2139-0.90181 2.2481-0.78125 3.1602 0.083035-0.65532 0.32381-1.3689 0.78125-2.1602l0.43945-0.75977 0.4375-0.75781c3.41-5.9066 9.0502 0.4296 12.389-0.80859 1.3175-0.48868 2.5704-1.2107 3.6523-2.1074 2.7411-2.2721 0.073184-10.33 6.8926-10.326h0.87695 0.875c6.8206 0 4.155 8.0523 6.8965 10.324 1.0819 0.8967 2.3328 1.6208 3.6504 2.1094 3.3381 1.2379 8.9844-5.101 12.391 0.80664l0.4375 0.75977 0.4375 0.75781c0.45695 0.79141 0.69828 1.5047 0.78125 2.1602 0.12039-0.9121-0.080258-1.9461-0.78125-3.1602l-0.4375-0.75781-0.4375-0.75977c-3.4062-5.9076-9.0525 0.43126-12.391-0.80664-1.3176-0.48861-2.5685-1.2127-3.6504-2.1094-2.7415-2.2719-0.075934-10.324-6.8965-10.324h-0.875-0.87695zm-18.158 28.5c-0.021226 0.54017-0.066234 1.078-0.15625 1.6074-0.51687 3.0399-6.8116 4.7368-6.2754 8.9727 0.46531-3.5249 5.8012-5.184 6.2754-7.9727 0.14559-0.85626 0.19063-1.7338 0.15625-2.6074zm38.072 0c-0.034393 0.87367 0.01062 1.7512 0.15625 2.6074 0.47421 2.7882 5.81 4.4489 6.2754 7.9727 0.53686-4.2342-5.7585-5.9332-6.2754-8.9727-0.089989-0.52911-0.13501-1.0676-0.15625-1.6074z" fill="#fff" opacity=".1"/>
</svg>
