<?xml version="1.0" encoding="UTF-8" standalone="no"?>
<svg
   width="22"
   height="22"
   version="1"
   id="svg1214"
   sodipodi:docname="utilities-system-settings.svg"
   inkscape:version="1.1.1 (3bf5ae0d25, 2021-09-20, custom)"
   xmlns:inkscape="http://www.inkscape.org/namespaces/inkscape"
   xmlns:sodipodi="http://sodipodi.sourceforge.net/DTD/sodipodi-0.dtd"
   xmlns:xlink="http://www.w3.org/1999/xlink"
   xmlns="http://www.w3.org/2000/svg"
   xmlns:svg="http://www.w3.org/2000/svg">
  <sodipodi:namedview
     id="namedview1216"
     pagecolor="#ffffff"
     bordercolor="#666666"
     borderopacity="1.0"
     inkscape:pageshadow="2"
     inkscape:pageopacity="0.0"
     inkscape:pagecheckerboard="0"
     showgrid="true"
     inkscape:zoom="13.590909"
     inkscape:cx="14.605351"
     inkscape:cy="11"
     inkscape:window-width="1440"
     inkscape:window-height="823"
     inkscape:window-x="0"
     inkscape:window-y="768"
     inkscape:window-maximized="1"
     inkscape:current-layer="svg1214"
     inkscape:snap-grids="true"
     inkscape:snap-global="true">
    <inkscape:grid
       type="xygrid"
       id="grid840" />
  </sodipodi:namedview>
  <defs
     id="defs3">
    <linearGradient
       inkscape:collect="always"
       id="linearGradient8561">
      <stop
         style="stop-color:#000000;stop-opacity:0"
         offset="0"
         id="stop8557" />
      <stop
         style="stop-color:#000000;stop-opacity:1"
         offset="1"
         id="stop8559" />
    </linearGradient>
    <linearGradient
       inkscape:collect="always"
       id="linearGradient6698">
      <stop
         style="stop-color:#ffffff;stop-opacity:1"
         offset="0"
         id="stop6696" />
      <stop
         style="stop-color:#000000;stop-opacity:1"
         offset="1"
         id="stop6694" />
    </linearGradient>
    <style
       type="text/css"
       id="current-color-scheme">.ColorScheme-Text {
        color:#363636;
      }
.ColorScheme-Background {
        color:#eff0f1;
      }
.ColorScheme-Highlight {
        color:#3daee9;
      }</style>
    <linearGradient
       inkscape:collect="always"
       xlink:href="#linearGradient6698"
       id="linearGradient6700"
       x1="7.339746"
       y1="-2.6602542"
       x2="14.660254"
       y2="24.660254"
       gradientUnits="userSpaceOnUse"
       gradientTransform="matrix(1.1,0,0,1.1,-1.1,-1.1)" />
    <linearGradient
       inkscape:collect="always"
       xlink:href="#linearGradient8561"
       id="linearGradient7753"
       x1="8"
       y1="8"
       x2="14"
       y2="14"
       gradientUnits="userSpaceOnUse" />
  </defs>
  <path
     id="rect3898"
     style="opacity:0.25;fill:currentColor;stroke-width:1.2"
     class="ColorScheme-Background"
     d="m 11,5 c -3.324,0 -6,2.6759996 -6,6 0,3.324 2.676,6 6,6 3.324,0 6,-2.676 6,-6 0,-3.3240004 -2.676,-6 -6,-6 z"
     sodipodi:nodetypes="sssss" />
  <g
     stroke-width="1.25"
     id="g1192"
     transform="matrix(1.0002595,-0.5775001,0.5775001,1.0002595,-6.6303461,5.8733294)">
    <path
       id="path3672"
       style="fill:currentColor;stroke-width:1.44375"
       class="ColorScheme-Text"
       d="M 10.65625,0 C 7.9772003,-0.00165003 8.8772432,2.5843188 7.7207031,3.5429688 7.2642032,3.9213247 6.7375367,4.2254566 6.1816406,4.4316406 4.7730907,4.9540526 2.9861744,2.8807549 1.6464844,5.2011719 L 1.4746094,5.5 1.3027344,5.7988281 c -1.34089999,2.31935 1.3477094,2.8315706 1.5996094,4.3124999 0.099417,0.584518 0.099388,1.192804 0,1.777344 -0.251812,1.48104 -2.93940948,1.99205 -1.5996094,4.3125 l 0.34375,0.597656 c 1.3381498,2.32089 3.1267163,0.24724 4.5351562,0.769531 0.5559071,0.20615 1.0825515,0.510339 1.5390625,0.888672 C 8.8773532,19.415593 7.9767712,22 10.65625,22 h 0.6875 c 2.679051,0.0017 1.779007,-2.584319 2.935547,-3.542969 0.4565,-0.378355 0.983167,-0.682488 1.539062,-0.888672 1.408551,-0.522412 3.195468,1.548956 4.535157,-0.771484 L 20.525391,16.5 20.697266,16.201172 c 1.340901,-2.319351 -1.34771,-2.83157 -1.59961,-4.3125 -0.09942,-0.584518 -0.09939,-1.192804 0,-1.777344 0.251812,-1.4810394 2.93941,-1.9940029 1.59961,-4.314453 L 20.525391,5.5 20.353516,5.2011719 C 19.015366,2.8802818 17.2268,4.9539316 15.818359,4.4316406 15.262442,4.2254896 14.735808,3.9213029 14.279297,3.5429688 13.122647,2.5844069 14.023229,0 11.34375,0 H 11 Z M 11,5.75 c 2.9085,0 5.25,2.3415 5.25,5.25 0,2.9085 -2.3415,5.25 -5.25,5.25 C 8.0915,16.25 5.75,13.9085 5.75,11 5.75,8.0915 8.0915,5.75 11,5.75 Z"
       transform="matrix(0.86580072,0,0,0.86580072,1.4761835,1.9523808)" />
    <path
       id="path6458"
       style="opacity:0.25;fill:url(#linearGradient6700);fill-opacity:1;stroke-width:1.44375"
       class="ColorScheme-Background"
       d="M 10.65625,0 C 7.9772003,-0.00165003 8.8772432,2.5843188 7.7207031,3.5429688 7.2642032,3.9213247 6.7375367,4.2254566 6.1816406,4.4316406 4.7730907,4.9540526 2.9861744,2.8807549 1.6464844,5.2011719 L 1.4746094,5.5 1.3027344,5.7988281 c -1.34089999,2.31935 1.3477094,2.8315706 1.5996094,4.3124999 0.099417,0.584518 0.099388,1.192804 0,1.777344 -0.251812,1.48104 -2.93940948,1.99205 -1.5996094,4.3125 l 0.34375,0.597656 c 1.3381498,2.32089 3.1267163,0.24724 4.5351562,0.769531 0.5559071,0.20615 1.0825515,0.510339 1.5390625,0.888672 C 8.8773532,19.415593 7.9767712,22 10.65625,22 h 0.6875 c 2.679051,0.0017 1.779007,-2.584319 2.935547,-3.542969 0.4565,-0.378355 0.983167,-0.682488 1.539062,-0.888672 1.408551,-0.522412 3.195468,1.548956 4.535157,-0.771484 L 20.525391,16.5 20.697266,16.201172 c 1.340901,-2.319351 -1.34771,-2.83157 -1.59961,-4.3125 -0.09942,-0.584518 -0.09939,-1.192804 0,-1.777344 0.251812,-1.4810394 2.93941,-1.9940029 1.59961,-4.314453 L 20.525391,5.5 20.353516,5.2011719 C 19.015366,2.8802818 17.2268,4.9539316 15.818359,4.4316406 15.262442,4.2254896 14.735808,3.9213029 14.279297,3.5429688 13.122647,2.5844069 14.023229,0 11.34375,0 H 11 Z M 11,5.75 c 2.9085,0 5.25,2.3415 5.25,5.25 0,2.9085 -2.3415,5.25 -5.25,5.25 C 8.0915,16.25 5.75,13.9085 5.75,11 5.75,8.0915 8.0915,5.75 11,5.75 Z"
       transform="matrix(0.86580072,0,0,0.86580072,1.4761835,1.9523808)" />
  </g>
  <path
     id="path12769"
     style="color:#363636;opacity:0.5;fill:currentColor"
     class="ColorScheme-Text"
     d="m -26.147737,12.182417 c -3.324,0 -6,2.676 -6,6 0,3.324 2.676,6 6,6 3.324,0 6,-2.676 6,-6 0,-3.324 -2.676,-6 -6,-6 z m 0,2 c 2.216,0 4,1.784 4,4 0,2.216 -1.784,4 -4,4 -2.216,0 -4,-1.784 -4,-4 0,-2.216 1.784,-4 4,-4 z"
     sodipodi:nodetypes="ssssssssss" />
  <path
     style="color:#363636;opacity:0.5;fill:currentColor;stroke-width:1.05"
     d="m -26.461497,7.182417 c -1.24794,-0.069729 -2.493847,0.723617 -2.801368,1.968751 -0.197322,0.970465 -0.634104,2.050417 -1.772755,2.117445 -1.179023,-0.252618 -2.566552,-0.74529 -3.617502,0.127559 -0.771174,0.657861 -1.279824,1.608693 -1.580984,2.564028 -0.333498,1.195903 0.4769,2.268596 1.295101,3.046725 0.8543,0.685137 0.586415,2.067744 -0.267883,2.640234 -0.864017,0.769067 -1.388931,2.0165 -0.916226,3.135716 0.520522,1.188227 1.292145,2.590247 2.751982,2.684334 1.040169,0.200998 2.129254,-0.773016 3.075677,-0.102617 1.052661,0.486267 0.755961,1.914529 1.449864,2.715178 0.812725,1.215754 2.41093,1.187048 3.701687,1.043062 1.205423,-0.150713 2.023532,-1.228185 2.257326,-2.361191 0.06965,-1.025629 1.131397,-1.951022 2.152733,-1.55436 1.082945,0.319261 2.415278,0.48341 3.285332,-0.401022 0.66,-0.70249 1.184434,-1.584235 1.411251,-2.525866 0.298916,-1.326719 -0.754802,-2.349004 -1.588526,-3.21556 -0.624603,-0.906309 -0.02267,-1.972714 0.74484,-2.576505 0.95003,-0.856145 1.14886,-2.32558 0.484476,-3.409762 -0.521183,-1.013656 -1.267138,-2.118058 -2.527852,-2.180804 C -19.964619,10.694737 -21.052836,11.668684 -22,11 -23.053184,10.515094 -22.755785,9.085949 -23.449864,8.285845 -24.112703,7.264978 -25.356772,7.1351243 -26.461497,7.182417 Z m 0,1.999512 c 0.560482,0.0167 1.392737,-0.147522 1.529883,0.598829 0.17429,1.038341 0.541301,2.136494 1.516414,2.687793 0.984023,0.720325 2.291858,1.124179 3.461326,0.602791 0.762446,-0.49176 1.415788,0.06367 1.690295,0.765974 0.79981,0.95648 -0.566199,1.561866 -1.035372,2.2488 -0.711571,1.070119 -0.68438,2.514508 -0.287137,3.69622 0.227183,1.019299 2.105403,1.464599 1.389241,2.629185 -0.29359,0.476993 -0.569178,1.2763 -1.283838,1.025355 -0.986117,-0.368582 -2.120325,-0.600368 -3.085385,-0.03172 -1.116802,0.490694 -2.120189,1.422547 -2.251691,2.696535 0.04813,0.935533 -0.800973,1.189397 -1.555167,1.079912 -1.289789,0.172745 -0.975873,-1.452988 -1.463632,-2.187158 -0.625394,-1.043182 -1.80667,-1.699751 -2.977779,-1.929818 -0.995903,-0.313423 -2.322498,1.092618 -2.9705,-0.111698 -0.349246,-0.5437 -0.838088,-1.318765 -0.0864,-1.785483 0.870752,-0.640218 1.459183,-1.640657 1.424709,-2.739492 0.08831,-1.141596 -0.266827,-2.352573 -1.225009,-3.052921 -0.807057,-0.414181 -0.651637,-1.258609 -0.181206,-1.847103 0.426854,-1.171921 1.635654,-0.289923 2.464948,-0.228453 1.282415,0.07955 2.52002,-0.664918 3.345037,-1.599914 0.779167,-0.688862 0.204084,-2.600443 1.58126,-2.517633 z"
     id="path3674"
     class="ColorScheme-Text" />
  <g
     transform="translate(-1,-12.5001)"
     id="g1212"
     class="ColorScheme-Text">
    <rect
       x="31"
       y="26.5"
       width="6"
       height="8"
       rx="2.4000001"
       ry="2"
       opacity="0.2"
       id="rect1196" />
    <path
       d="m 36,19.42 v 3.5801 l -2,1.5 -2,-1.5 v -3.5762 c -1.82,0.79431 -2.9975,2.5904 -3,4.5762 0,1.6361 0.7852,3.0878 2,4 v 4 c 0,1.108 1.0708,2 2.4004,2 h 1.1992 c 1.3296,0 2.4004,-0.892 2.4004,-2 v -4 c 0,-6.52e-4 10e-7,-0.0013 0,-0.002 1.2136,-0.91223 2,-2.3629 2,-3.998 -10e-4,-1.9872 -1.1787,-3.7852 -3,-4.5801 z"
       fill="currentColor"
       id="path1200"
       class="ColorScheme-Background" />
    <path
       d="m 31,27.999 c -1e-6,6.52e-4 0,0.0013 0,0.002 v 4 c 0,1.108 1.0708,2 2.4004,2 h 1.2012 c 1.3296,0 2.3984,-0.892 2.3984,-2 v -4 c -0.83556,0.62741 -1.8747,1 -3,1 -1.1263,0 -2.1641,-0.37355 -3,-1.002 z"
       opacity="0.1"
       id="path1202" />
    <path
       d="m 33,28.9 v 3.0996 c 0,0.554 0.446,1 1,1 0.554,0 1,-0.446 1,-1 V 28.9 c -0.32334,0.06576 -0.65736,0.10156 -1,0.10156 -0.34237,0 -0.67718,-0.03587 -1,-0.10156 z"
       opacity="0.4"
       id="path1204" />
    <path
       d="m 29.008,24.27 c -0.0036,0.07685 -0.0077,0.15299 -0.0078,0.23047 0,2.7614 2.2386,5 5,5 2.7614,0 5,-2.2386 5,-5 -3.6e-5,-0.0719 -0.0047,-0.14347 -0.0078,-0.21484 -0.14765,2.6289 -2.3264,4.7148 -4.9922,4.7148 -2.6712,0 -4.8524,-2.0941 -4.9922,-4.7305 z"
       opacity="0.2"
       id="path1206" />
    <path
       d="m 36.002,19.418 v 3.5801 c -0.66667,0.5 -1.3333,1 -2,1.5 -0.66667,-0.5 -1.3333,-1 -2,-1.5 v -3.5762 c -1.838,0.77452 -3.0845,2.735 -2.9974,4.7291 0.03289,2.072 1.5012,4.0172 3.4827,4.6153 1.8284,0.59774 3.9736,0.02408 5.2343,-1.4291 1.3895,-1.4967 1.6779,-3.8696 0.70659,-5.6619 -0.52196,-0.9992 -1.3915,-1.8093 -2.4262,-2.2573 z"
       fill="#ffffff"
       opacity="0.1"
       id="path1208" />
    <path
       d="m 36,19.42 v 0.5 c 1.733,0.75634 2.8809,2.4214 2.9893,4.293 0.003,-0.0712 0.01074,-0.14095 0.01074,-0.21289 -10e-4,-1.9872 -1.1787,-3.7852 -3,-4.5801 z m -4,0.0039 c -1.82,0.79431 -2.9975,2.5904 -3,4.5762 0,0.07194 0.0077,0.14169 0.01074,0.21289 0.10964,-1.8702 1.2575,-3.5333 2.9893,-4.2891 v -0.5 z m 0,3.5762 v 0.5 l 2,1.5 2,-1.5 v -0.5 l -2,1.5 z"
       fill="#ffffff"
       opacity="0.1"
       id="path1210" />
  </g>
  <g
     id="g9208"
     transform="matrix(1.3333335,0,0,1.3333335,-3.6666685,-3.6666685)">
    <rect
       style="fill:currentColor"
       id="rect4021"
       width="6"
       height="6"
       x="8"
       y="8"
       rx="3"
       ry="3"
       class="ColorScheme-Highlight" />
    <rect
       style="opacity:0.2;fill:url(#linearGradient7753);fill-opacity:1;stroke:none;stroke-width:0.545455;stroke-linecap:round;stroke-linejoin:round;stroke-miterlimit:4;stroke-dasharray:none;stroke-opacity:1;paint-order:markers stroke fill"
       id="rect7745"
       width="6"
       height="6"
       x="8"
       y="8"
       rx="3"
       ry="3" />
  </g>
</svg>
