<?xml version="1.0" encoding="UTF-8" standalone="no"?>
<svg
   width="22"
   height="22"
   version="1"
   id="svg1214"
   sodipodi:docname="utilities-system-settings.svg"
   inkscape:version="1.1.1 (3bf5ae0d25, 2021-09-20, custom)"
   xmlns:inkscape="http://www.inkscape.org/namespaces/inkscape"
   xmlns:sodipodi="http://sodipodi.sourceforge.net/DTD/sodipodi-0.dtd"
   xmlns:xlink="http://www.w3.org/1999/xlink"
   xmlns="http://www.w3.org/2000/svg"
   xmlns:svg="http://www.w3.org/2000/svg">
  <sodipodi:namedview
     id="namedview1216"
     pagecolor="#ffffff"
     bordercolor="#666666"
     borderopacity="1.0"
     inkscape:pageshadow="2"
     inkscape:pageopacity="0.0"
     inkscape:pagecheckerboard="0"
     showgrid="true"
     inkscape:zoom="13.590909"
     inkscape:cx="1.8026756"
     inkscape:cy="10.48495"
     inkscape:window-width="1440"
     inkscape:window-height="823"
     inkscape:window-x="0"
     inkscape:window-y="768"
     inkscape:window-maximized="1"
     inkscape:current-layer="svg1214"
     inkscape:snap-grids="true"
     inkscape:snap-global="true">
    <inkscape:grid
       type="xygrid"
       id="grid840" />
  </sodipodi:namedview>
  <defs
     id="defs3">
    <linearGradient
       inkscape:collect="always"
       id="linearGradient8561">
      <stop
         style="stop-color:#000000;stop-opacity:0"
         offset="0"
         id="stop8557" />
      <stop
         style="stop-color:#000000;stop-opacity:1"
         offset="1"
         id="stop8559" />
    </linearGradient>
    <linearGradient
       inkscape:collect="always"
       id="linearGradient6698">
      <stop
         style="stop-color:#ffffff;stop-opacity:1"
         offset="0"
         id="stop6696" />
      <stop
         style="stop-color:#000000;stop-opacity:1"
         offset="1"
         id="stop6694" />
    </linearGradient>
    <style
       type="text/css"
       id="current-color-scheme">.ColorScheme-Text {
        color:#363636;
      }
.ColorScheme-Background {
        color:#eff0f1;
      }
.ColorScheme-Highlight {
        color:#3daee9;
      }</style>
    <linearGradient
       inkscape:collect="always"
       xlink:href="#linearGradient6698"
       id="linearGradient6700"
       x1="7.3946205e-10"
       y1="0"
       x2="22"
       y2="22"
       gradientUnits="userSpaceOnUse"
       gradientTransform="matrix(1.1,0,0,1.1,-1.1,-1.1)" />
    <linearGradient
       inkscape:collect="always"
       xlink:href="#linearGradient8561"
       id="linearGradient7753"
       x1="8"
       y1="8"
       x2="14"
       y2="14"
       gradientUnits="userSpaceOnUse" />
  </defs>
  <path
     id="rect3898"
     style="opacity:0.25;fill:currentColor;stroke-width:1.2"
     class="ColorScheme-Background"
     d="m 11,5 c -3.324,0 -6,2.6759996 -6,6 0,3.324 2.676,6 6,6 3.324,0 6,-2.676 6,-6 0,-3.3240004 -2.676,-6 -6,-6 z"
     sodipodi:nodetypes="sssss" />
  <g
     stroke-width="1.25"
     id="g1192"
     transform="matrix(1.1550002,0,0,1.1550002,-1.7049922,-2.2550002)">
    <path
       id="path3672"
       style="fill:currentColor;stroke-width:1.44375"
       class="ColorScheme-Text"
       d="M 10.65625 0 C 7.9772003 -0.001650033 8.8772432 2.5843188 7.7207031 3.5429688 C 7.2642032 3.9213247 6.7375367 4.2254566 6.1816406 4.4316406 C 4.7730907 4.9540526 2.9861744 2.8807549 1.6464844 5.2011719 L 1.4746094 5.5 L 1.3027344 5.7988281 C -0.038165589 8.1181781 2.6504438 8.6303987 2.9023438 10.111328 C 3.0017606 10.695846 3.001732 11.304132 2.9023438 11.888672 C 2.6505318 13.369712 -0.037065677 13.880722 1.3027344 16.201172 L 1.6464844 16.798828 C 2.9846342 19.119718 4.7732007 17.046068 6.1816406 17.568359 C 6.7375477 17.774509 7.2641921 18.078698 7.7207031 18.457031 C 8.8773532 19.415593 7.9767712 22 10.65625 22 L 11.34375 22 C 14.022801 22.00165 13.122757 19.415681 14.279297 18.457031 C 14.735797 18.078676 15.262464 17.774543 15.818359 17.568359 C 17.22691 17.045947 19.013827 19.117315 20.353516 16.796875 L 20.525391 16.5 L 20.697266 16.201172 C 22.038167 13.881821 19.349556 13.369602 19.097656 11.888672 C 18.998238 11.304154 18.998271 10.695868 19.097656 10.111328 C 19.349468 8.6302886 22.037066 8.1173251 20.697266 5.796875 L 20.525391 5.5 L 20.353516 5.2011719 C 19.015366 2.8802818 17.2268 4.9539316 15.818359 4.4316406 C 15.262442 4.2254896 14.735808 3.9213029 14.279297 3.5429688 C 13.122647 2.5844069 14.023229 0 11.34375 0 L 11 0 L 10.65625 0 z M 11 5.75 C 13.9085 5.75 16.25 8.0915 16.25 11 C 16.25 13.9085 13.9085 16.25 11 16.25 C 8.0915 16.25 5.75 13.9085 5.75 11 C 5.75 8.0915 8.0915 5.75 11 5.75 z "
       transform="matrix(0.86580072,0,0,0.86580072,1.4761835,1.9523808)" />
    <path
       id="path18072"
       style="fill:currentColor;stroke-width:1.44375;opacity:0.15"
       class="ColorScheme-Background"
       d="M 10.65625 0 C 7.9772003 -0.001650033 8.8772432 2.5843188 7.7207031 3.5429688 C 7.2642032 3.9213247 6.7375367 4.2254566 6.1816406 4.4316406 C 4.7730907 4.9540526 2.9861744 2.8807549 1.6464844 5.2011719 L 1.4746094 5.5 L 1.3027344 5.7988281 C -0.038165589 8.1181781 2.6504438 8.6303987 2.9023438 10.111328 C 3.0017606 10.695846 3.001732 11.304132 2.9023438 11.888672 C 2.6505318 13.369712 -0.037065677 13.880722 1.3027344 16.201172 L 1.6464844 16.798828 C 2.9846342 19.119718 4.7732007 17.046068 6.1816406 17.568359 C 6.7375477 17.774509 7.2641921 18.078698 7.7207031 18.457031 C 8.8773532 19.415593 7.9767712 22 10.65625 22 L 11.34375 22 C 14.022801 22.00165 13.122757 19.415681 14.279297 18.457031 C 14.735797 18.078676 15.262464 17.774543 15.818359 17.568359 C 17.22691 17.045947 19.013827 19.117315 20.353516 16.796875 L 20.525391 16.5 L 20.697266 16.201172 C 22.038167 13.881821 19.349556 13.369602 19.097656 11.888672 C 18.998238 11.304154 18.998271 10.695868 19.097656 10.111328 C 19.349468 8.6302886 22.037066 8.1173251 20.697266 5.796875 L 20.525391 5.5 L 20.353516 5.2011719 C 19.015366 2.8802818 17.2268 4.9539316 15.818359 4.4316406 C 15.262442 4.2254896 14.735808 3.9213029 14.279297 3.5429688 C 13.122647 2.5844069 14.023229 0 11.34375 0 L 11 0 L 10.65625 0 z M 11 5.75 C 13.9085 5.75 16.25 8.0915 16.25 11 C 16.25 13.9085 13.9085 16.25 11 16.25 C 8.0915 16.25 5.75 13.9085 5.75 11 C 5.75 8.0915 8.0915 5.75 11 5.75 z "
       transform="matrix(0.86580072,0,0,0.86580072,1.4761835,1.9523808)" />
    <path
       id="path6458"
       style="opacity:0.003;fill:url(#linearGradient6700);fill-opacity:1;stroke-width:1.44375"
       class="ColorScheme-Background"
       d="M 10.65625 0 C 7.9772003 -0.001650033 8.8772432 2.5843188 7.7207031 3.5429688 C 7.2642032 3.9213247 6.7375367 4.2254566 6.1816406 4.4316406 C 4.7730907 4.9540526 2.9861744 2.8807549 1.6464844 5.2011719 L 1.4746094 5.5 L 1.3027344 5.7988281 C -0.038165589 8.1181781 2.6504438 8.6303987 2.9023438 10.111328 C 3.0017606 10.695846 3.001732 11.304132 2.9023438 11.888672 C 2.6505318 13.369712 -0.037065677 13.880722 1.3027344 16.201172 L 1.6464844 16.798828 C 2.9846342 19.119718 4.7732007 17.046068 6.1816406 17.568359 C 6.7375477 17.774509 7.2641921 18.078698 7.7207031 18.457031 C 8.8773532 19.415593 7.9767712 22 10.65625 22 L 11.34375 22 C 14.022801 22.00165 13.122757 19.415681 14.279297 18.457031 C 14.735797 18.078676 15.262464 17.774543 15.818359 17.568359 C 17.22691 17.045947 19.013827 19.117315 20.353516 16.796875 L 20.525391 16.5 L 20.697266 16.201172 C 22.038167 13.881821 19.349556 13.369602 19.097656 11.888672 C 18.998238 11.304154 18.998271 10.695868 19.097656 10.111328 C 19.349468 8.6302886 22.037066 8.1173251 20.697266 5.796875 L 20.525391 5.5 L 20.353516 5.2011719 C 19.015366 2.8802818 17.2268 4.9539316 15.818359 4.4316406 C 15.262442 4.2254896 14.735808 3.9213029 14.279297 3.5429688 C 13.122647 2.5844069 14.023229 0 11.34375 0 L 11 0 L 10.65625 0 z M 11 5.75 C 13.9085 5.75 16.25 8.0915 16.25 11 C 16.25 13.9085 13.9085 16.25 11 16.25 C 8.0915 16.25 5.75 13.9085 5.75 11 C 5.75 8.0915 8.0915 5.75 11 5.75 z "
       transform="matrix(0.86580072,0,0,0.86580072,1.4761835,1.9523808)" />
    <path
       id="path21156"
       style="opacity:0.1;fill:#ffffff;fill-opacity:1;stroke-width:1.44375"
       class="ColorScheme-Background"
       d="M 10.65625 0 C 7.9772003 -0.001650033 8.8772432 2.5843187 7.7207031 3.5429688 C 7.2642032 3.9213247 6.7375367 4.2254566 6.1816406 4.4316406 C 4.7730907 4.9540526 2.9861744 2.8807549 1.6464844 5.2011719 L 1.4746094 5.5 L 1.3027344 5.7988281 C 0.96909986 6.3759146 0.8854893 6.8402364 0.95117188 7.2363281 C 0.99195823 6.9585261 1.0998499 6.6497567 1.3027344 6.2988281 L 1.4746094 6 L 1.6464844 5.7011719 C 2.9861743 3.3807549 4.7730907 5.4540526 6.1816406 4.9316406 C 6.7375367 4.7254566 7.2642033 4.4213246 7.7207031 4.0429688 C 8.8772433 3.0843187 7.9772008 0.49834997 10.65625 0.5 L 11 0.5 L 11.34375 0.5 C 14.023229 0.5 13.122647 3.0844068 14.279297 4.0429688 C 14.735808 4.4213028 15.262443 4.7254896 15.818359 4.9316406 C 17.2268 5.4539316 19.015366 3.3802818 20.353516 5.7011719 L 20.525391 6 L 20.697266 6.296875 C 20.899605 6.6473134 21.007937 6.9568251 21.048828 7.234375 C 21.11399 6.8384683 21.030097 6.3733177 20.697266 5.796875 L 20.525391 5.5 L 20.353516 5.2011719 C 19.015366 2.8802818 17.2268 4.9539316 15.818359 4.4316406 C 15.262442 4.2254896 14.735808 3.9213029 14.279297 3.5429688 C 13.122647 2.5844068 14.023229 2.9605947e-16 11.34375 0 L 11 0 L 10.65625 0 z M 5.7597656 11.185547 C 5.7536889 11.289469 5.75 11.394501 5.75 11.5 C 5.75 14.408501 8.0915004 16.75 11 16.75 C 13.908501 16.75 16.25 14.408501 16.25 11.5 C 16.25 11.394501 16.246311 11.289469 16.240234 11.185547 C 16.142452 14.006795 13.845924 16.25 11 16.25 C 8.1540757 16.25 5.8575478 14.006795 5.7597656 11.185547 z M 2.9667969 11.25 C 2.9567867 11.464531 2.9381497 11.678084 2.9023438 11.888672 C 2.6886321 13.145624 0.72284405 13.70502 0.95117188 15.263672 C 1.1483159 14.066418 2.7130864 13.501795 2.9023438 12.388672 C 2.9659258 12.01472 2.9845654 11.630948 2.9667969 11.25 z M 19.033203 11.25 C 19.015426 11.630952 19.034052 12.014734 19.097656 12.388672 C 19.28688 13.501127 20.850528 14.067844 21.048828 15.263672 C 21.277606 13.70543 19.311443 13.14553 19.097656 11.888672 C 19.06184 11.678091 19.043209 11.464528 19.033203 11.25 z "
       transform="matrix(0.86580072,0,0,0.86580072,1.4761835,1.9523808)" />
  </g>
  <g
     id="g9208"
     transform="matrix(1.3333335,0,0,1.3333335,-3.6666685,-3.6666685)">
    <rect
       style="fill:currentColor"
       id="rect4021"
       width="6"
       height="6"
       x="8"
       y="8"
       rx="3"
       ry="3"
       class="ColorScheme-Highlight" />
    <rect
       style="opacity:0.2;fill:url(#linearGradient7753);fill-opacity:1;stroke:none;stroke-width:0.545455;stroke-linecap:round;stroke-linejoin:round;stroke-miterlimit:4;stroke-dasharray:none;stroke-opacity:1;paint-order:markers stroke fill"
       id="rect7745"
       width="6"
       height="6"
       x="8"
       y="8"
       rx="3"
       ry="3" />
  </g>
</svg>
