<?xml version="1.0" encoding="UTF-8" standalone="no"?>
<svg
   width="22"
   height="22"
   version="1"
   id="svg1214"
   sodipodi:docname="utilities-system-settings.svg"
   inkscape:version="1.1.1 (3bf5ae0d25, 2021-09-20, custom)"
   xmlns:inkscape="http://www.inkscape.org/namespaces/inkscape"
   xmlns:sodipodi="http://sodipodi.sourceforge.net/DTD/sodipodi-0.dtd"
   xmlns:xlink="http://www.w3.org/1999/xlink"
   xmlns="http://www.w3.org/2000/svg"
   xmlns:svg="http://www.w3.org/2000/svg">
  <sodipodi:namedview
     id="namedview1216"
     pagecolor="#ffffff"
     bordercolor="#666666"
     borderopacity="1.0"
     inkscape:pageshadow="2"
     inkscape:pageopacity="0.0"
     inkscape:pagecheckerboard="0"
     showgrid="true"
     inkscape:zoom="13.590909"
     inkscape:cx="6.3645485"
     inkscape:cy="9.2341137"
     inkscape:window-width="1440"
     inkscape:window-height="823"
     inkscape:window-x="0"
     inkscape:window-y="768"
     inkscape:window-maximized="1"
     inkscape:current-layer="svg1214"
     inkscape:snap-grids="true"
     inkscape:snap-global="true">
    <inkscape:grid
       type="xygrid"
       id="grid840" />
  </sodipodi:namedview>
  <defs
     id="defs3">
    <linearGradient
       inkscape:collect="always"
       id="linearGradient6698">
      <stop
         style="stop-color:#ffffff;stop-opacity:1"
         offset="0"
         id="stop6696" />
      <stop
         style="stop-color:#000000;stop-opacity:1"
         offset="1"
         id="stop6694" />
    </linearGradient>
    <style
       type="text/css"
       id="current-color-scheme">.ColorScheme-Text {
        color:#363636;
      }
.ColorScheme-Background {
        color:#eff0f1;
      }
.ColorScheme-Highlight {
        color:#3daee9;
      }</style>
    <linearGradient
       inkscape:collect="always"
       xlink:href="#linearGradient6698"
       id="linearGradient6700"
       x1="7.3946205e-10"
       y1="0"
       x2="22"
       y2="22"
       gradientUnits="userSpaceOnUse"
       gradientTransform="matrix(1.1,0,0,1.1,-1.1,-1.1)" />
  </defs>
  <path
     id="rect3898"
     style="opacity:0.25;fill:currentColor;stroke-width:1.2"
     class="ColorScheme-Background"
     d="m 11,5 c -3.324,0 -6,2.6759996 -6,6 0,3.324 2.676,6 6,6 3.324,0 6,-2.676 6,-6 0,-3.3240004 -2.676,-6 -6,-6 z"
     sodipodi:nodetypes="sssss" />
  <g
     stroke-width="1.25"
     id="g1192"
     transform="matrix(1.0002595,-0.5775001,0.5775001,1.0002595,-6.6303461,5.8733294)">
    <path
       id="path19091"
       d="M 10.485795,2.3275045 C 8.1662715,2.3260759 8.9455293,4.5650096 7.944196,5.3950094 7.5489581,5.7225902 7.0929698,5.9859079 6.6116746,6.1644221 5.3921511,6.6167268 3.8450377,4.8216642 2.6851331,6.8306829 L 2.5363236,7.0894085 2.3875141,7.348134 c -1.1609522,2.0080949 1.1668478,2.4515759 1.384943,3.733767 0.086075,0.506076 0.08605,1.032731 0,1.538826 -0.218019,1.282285 -2.5449429,1.724718 -1.384943,3.733765 l 0.297619,0.517451 c 1.1585711,2.009429 2.7071132,0.214061 3.9265415,0.666261 0.4813048,0.178485 0.9372739,0.441852 1.3325214,0.769413 1.0014285,0.829923 0.221704,3.067505 2.541599,3.067505 h 0.595238 c 2.319524,0.0015 1.540265,-2.237505 2.541599,-3.067505 0.395238,-0.32758 0.851226,-0.590899 1.332521,-0.769413 1.219524,-0.452305 2.766638,1.341087 3.926542,-0.667951 l 0.148809,-0.257035 0.14881,-0.258726 c 1.160953,-2.008095 -1.166848,-2.451575 -1.384944,-3.733765 -0.08608,-0.506076 -0.08605,-1.032731 0,-1.538826 0.218019,-1.2822864 2.544944,-1.7264106 1.384944,-3.735458 L 19.030504,7.0894085 18.881695,6.8306829 C 17.723124,4.8212546 16.174582,6.616622 14.955153,6.1644221 14.473839,5.9859364 14.017879,5.7225714 13.622632,5.3950094 12.621203,4.5650859 13.400928,2.3275045 11.081033,2.3275045 h -0.297619 z m 0.297619,4.9783541 c 2.518181,0 4.545454,2.0272724 4.545454,4.5454554 0,2.518181 -2.027273,4.545454 -4.545454,4.545454 -2.5181818,0 -4.5454541,-2.027273 -4.5454541,-4.545454 0,-2.518183 2.0272723,-4.5454554 4.5454541,-4.5454554 z"
       style="opacity:0.2;stroke-width:1.08225" />
    <path
       id="path3672"
       style="fill:currentColor;stroke-width:1.44375"
       class="ColorScheme-Text"
       d="M 10.65625,0 C 7.9772003,-0.00165003 8.8772432,2.5843188 7.7207031,3.5429688 7.2642032,3.9213247 6.7375367,4.2254566 6.1816406,4.4316406 4.7730907,4.9540526 2.9861744,2.8807549 1.6464844,5.2011719 L 1.4746094,5.5 1.3027344,5.7988281 c -1.34089999,2.31935 1.3477094,2.8315706 1.5996094,4.3124999 0.099417,0.584518 0.099388,1.192804 0,1.777344 -0.251812,1.48104 -2.93940948,1.99205 -1.5996094,4.3125 l 0.34375,0.597656 c 1.3381498,2.32089 3.1267163,0.24724 4.5351562,0.769531 0.5559071,0.20615 1.0825515,0.510339 1.5390625,0.888672 C 8.8773532,19.415593 7.9767712,22 10.65625,22 h 0.6875 c 2.679051,0.0017 1.779007,-2.584319 2.935547,-3.542969 0.4565,-0.378355 0.983167,-0.682488 1.539062,-0.888672 1.408551,-0.522412 3.195468,1.548956 4.535157,-0.771484 L 20.525391,16.5 20.697266,16.201172 c 1.340901,-2.319351 -1.34771,-2.83157 -1.59961,-4.3125 -0.09942,-0.584518 -0.09939,-1.192804 0,-1.777344 0.251812,-1.4810394 2.93941,-1.9940029 1.59961,-4.314453 L 20.525391,5.5 20.353516,5.2011719 C 19.015366,2.8802818 17.2268,4.9539316 15.818359,4.4316406 15.262442,4.2254896 14.735808,3.9213029 14.279297,3.5429688 13.122647,2.5844069 14.023229,0 11.34375,0 H 11 Z M 11,5.75 c 2.9085,0 5.25,2.3415 5.25,5.25 0,2.9085 -2.3415,5.25 -5.25,5.25 C 8.0915,16.25 5.75,13.9085 5.75,11 5.75,8.0915 8.0915,5.75 11,5.75 Z"
       transform="matrix(0.86580072,0,0,0.86580072,1.4761835,1.9523808)" />
    <path
       id="path18072"
       style="opacity:0.1;fill:currentColor;stroke-width:1.44375"
       class="ColorScheme-Background"
       d="M 10.65625,0 C 7.9772003,-0.00165003 8.8772432,2.5843188 7.7207031,3.5429688 7.2642032,3.9213247 6.7375367,4.2254566 6.1816406,4.4316406 4.7730907,4.9540526 2.9861744,2.8807549 1.6464844,5.2011719 L 1.4746094,5.5 1.3027344,5.7988281 c -1.34089999,2.31935 1.3477094,2.8315706 1.5996094,4.3124999 0.099417,0.584518 0.099388,1.192804 0,1.777344 -0.251812,1.48104 -2.93940948,1.99205 -1.5996094,4.3125 l 0.34375,0.597656 c 1.3381498,2.32089 3.1267163,0.24724 4.5351562,0.769531 0.5559071,0.20615 1.0825515,0.510339 1.5390625,0.888672 C 8.8773532,19.415593 7.9767712,22 10.65625,22 h 0.6875 c 2.679051,0.0017 1.779007,-2.584319 2.935547,-3.542969 0.4565,-0.378355 0.983167,-0.682488 1.539062,-0.888672 1.408551,-0.522412 3.195468,1.548956 4.535157,-0.771484 L 20.525391,16.5 20.697266,16.201172 c 1.340901,-2.319351 -1.34771,-2.83157 -1.59961,-4.3125 -0.09942,-0.584518 -0.09939,-1.192804 0,-1.777344 0.251812,-1.4810394 2.93941,-1.9940029 1.59961,-4.314453 L 20.525391,5.5 20.353516,5.2011719 C 19.015366,2.8802818 17.2268,4.9539316 15.818359,4.4316406 15.262442,4.2254896 14.735808,3.9213029 14.279297,3.5429688 13.122647,2.5844069 14.023229,0 11.34375,0 H 11 Z M 11,5.75 c 2.9085,0 5.25,2.3415 5.25,5.25 0,2.9085 -2.3415,5.25 -5.25,5.25 C 8.0915,16.25 5.75,13.9085 5.75,11 5.75,8.0915 8.0915,5.75 11,5.75 Z"
       transform="matrix(0.86580072,0,0,0.86580072,1.4761835,1.9523808)" />
    <path
       id="path6458"
       style="opacity:0.003;fill:url(#linearGradient6700);fill-opacity:1;stroke-width:1.44375"
       class="ColorScheme-Background"
       d="M 10.65625,0 C 7.9772003,-0.00165003 8.8772432,2.5843188 7.7207031,3.5429688 7.2642032,3.9213247 6.7375367,4.2254566 6.1816406,4.4316406 4.7730907,4.9540526 2.9861744,2.8807549 1.6464844,5.2011719 L 1.4746094,5.5 1.3027344,5.7988281 c -1.34089999,2.31935 1.3477094,2.8315706 1.5996094,4.3124999 0.099417,0.584518 0.099388,1.192804 0,1.777344 -0.251812,1.48104 -2.93940948,1.99205 -1.5996094,4.3125 l 0.34375,0.597656 c 1.3381498,2.32089 3.1267163,0.24724 4.5351562,0.769531 0.5559071,0.20615 1.0825515,0.510339 1.5390625,0.888672 C 8.8773532,19.415593 7.9767712,22 10.65625,22 h 0.6875 c 2.679051,0.0017 1.779007,-2.584319 2.935547,-3.542969 0.4565,-0.378355 0.983167,-0.682488 1.539062,-0.888672 1.408551,-0.522412 3.195468,1.548956 4.535157,-0.771484 L 20.525391,16.5 20.697266,16.201172 c 1.340901,-2.319351 -1.34771,-2.83157 -1.59961,-4.3125 -0.09942,-0.584518 -0.09939,-1.192804 0,-1.777344 0.251812,-1.4810394 2.93941,-1.9940029 1.59961,-4.314453 L 20.525391,5.5 20.353516,5.2011719 C 19.015366,2.8802818 17.2268,4.9539316 15.818359,4.4316406 15.262442,4.2254896 14.735808,3.9213029 14.279297,3.5429688 13.122647,2.5844069 14.023229,0 11.34375,0 H 11 Z M 11,5.75 c 2.9085,0 5.25,2.3415 5.25,5.25 0,2.9085 -2.3415,5.25 -5.25,5.25 C 8.0915,16.25 5.75,13.9085 5.75,11 5.75,8.0915 8.0915,5.75 11,5.75 Z"
       transform="matrix(0.86580072,0,0,0.86580072,1.4761835,1.9523808)" />
    <path
       id="path19147"
       style="opacity:0.1;fill:#ffffff;fill-opacity:1;stroke-width:1.44375"
       d="M 6.9296875 0.9296875 C 6.60343 0.94027123 6.2319682 1.0515332 5.796875 1.3027344 L 5.5 1.4746094 L 5.203125 1.6464844 C 4.1905811 2.2302457 4.0141819 2.8994678 4.09375 3.5859375 C 4.1546499 3.07699 4.438642 2.5872313 5.203125 2.1464844 L 5.5 1.9746094 L 5.796875 1.8027344 C 8.117372 0.46299478 8.6303583 3.1505302 10.111328 3.4023438 C 10.695845 3.5017356 11.304157 3.5017706 11.888672 3.4023438 C 13.369563 3.1504406 13.881855 0.45990637 16.201172 1.8007812 L 16.5 1.9746094 L 16.796875 2.1464844 C 17.563936 2.5893185 17.846602 3.0808811 17.90625 3.5917969 C 17.987238 2.9033775 17.812105 2.2306363 16.796875 1.6445312 L 16.5 1.4746094 L 16.201172 1.3007812 C 13.881855 -0.040093513 13.369563 2.6504405 11.888672 2.9023438 C 11.304158 3.0017703 10.695845 3.0017352 10.111328 2.9023438 C 8.9080406 2.6977449 8.3434701 0.88382468 6.9296875 0.9296875 z M 4.5019531 5.8964844 C 4.4881141 5.9932326 4.4663571 6.088015 4.4316406 6.1816406 C 4.2254781 6.7375564 3.9212969 7.2641945 3.5429688 7.7207031 C 2.5843348 8.8774001 -2.9437109e-06 7.9749118 0 10.654297 L 0 11 L 0 11.130859 C 0.015650704 8.481331 2.5872544 9.3738774 3.5429688 8.2207031 C 3.9212969 7.7641946 4.2254781 7.2375564 4.4316406 6.6816406 C 4.5247988 6.4304058 4.5342463 6.16724 4.5019531 5.8964844 z M 17.498047 5.8964844 C 17.465846 6.1671777 17.47517 6.4303987 17.568359 6.6816406 C 17.774557 7.2375608 18.07867 7.764207 18.457031 8.2207031 C 19.415649 9.3772754 21.999626 8.4771834 21.998047 11.15625 L 21.998047 11.25 L 22 11 L 21.998047 10.65625 C 21.999626 7.9771826 19.415648 8.8772761 18.457031 7.7207031 C 18.078672 7.2642057 17.774555 6.7375621 17.568359 6.1816406 C 17.533631 6.0880124 17.511907 5.9932232 17.498047 5.8964844 z M 5.7558594 11.242188 C 5.708185 12.215852 5.9274324 13.214474 6.453125 14.125 C 7.9073748 16.643834 11.106165 17.501125 13.625 16.046875 C 15.388795 15.028547 16.333039 13.154437 16.244141 11.257812 C 16.159931 12.977646 15.233309 14.618317 13.625 15.546875 C 11.106165 17.001125 7.907375 16.143835 6.453125 13.625 C 6.0172028 12.869961 5.7939148 12.054088 5.7558594 11.242188 z M 4.5019531 16.603516 C 4.4132338 17.347893 4.0062544 18.148161 4.09375 18.90625 C 4.1863429 18.126095 4.6061987 17.325176 4.5019531 16.603516 z M 17.498047 16.603516 C 17.393821 17.325936 17.814056 18.126928 17.90625 18.908203 C 17.994449 18.149338 17.58694 17.348799 17.498047 16.603516 z "
       transform="matrix(0.74980542,0.43290037,-0.43290037,0.74980542,7.5140359,-1.533575)" />
  </g>
  <g
     id="g9208"
     transform="matrix(1.3333335,0,0,1.3333335,-3.6666685,-3.6666685)">
    <rect
       style="fill:#000000;fill-opacity:1;opacity:0.2"
       id="rect20007"
       width="6"
       height="6"
       x="8"
       y="8.375"
       rx="3"
       ry="3"
       class="ColorScheme-Highlight" />
    <rect
       style="fill:currentColor"
       id="rect4021"
       width="6"
       height="6"
       x="8"
       y="8"
       rx="3"
       ry="3"
       class="ColorScheme-Highlight" />
    <path
       id="rect19552"
       style="fill:#ffffff;stroke-width:1.33333;fill-opacity:1;opacity:0.1"
       class="ColorScheme-Highlight"
       d="M 11 7 C 8.7839997 7 7 8.7839997 7 11 C 7 11.083915 7.0047227 11.167398 7.0097656 11.25 C 7.1378957 9.1512584 8.8679144 7.5 11 7.5 C 13.132086 7.5 14.862104 9.1512584 14.990234 11.25 C 14.995277 11.167398 15 11.083915 15 11 C 15 8.7839997 13.216 7 11 7 z "
       transform="matrix(0.74999991,0,0,0.74999991,2.750001,2.750001)" />
  </g>
</svg>
