<?xml version="1.0" encoding="UTF-8" standalone="no"?>
<svg
   width="64"
   height="64"
   version="1"
   id="svg18"
   sodipodi:docname="utilities-tweak-tool.svg"
   inkscape:version="1.1.1 (3bf5ae0d25, 2021-09-20, custom)"
   xmlns:inkscape="http://www.inkscape.org/namespaces/inkscape"
   xmlns:sodipodi="http://sodipodi.sourceforge.net/DTD/sodipodi-0.dtd"
   xmlns="http://www.w3.org/2000/svg"
   xmlns:svg="http://www.w3.org/2000/svg">
  <defs
     id="defs14">
    <style
       id="current-color-scheme"
       type="text/css">
        .ColorScheme-Text {
            color:#31363b;
        }
        .ColorScheme-Background {
        color:#eff0f1;
        }
    </style>
  </defs>
  <sodipodi:namedview
     id="namedview20"
     pagecolor="#ffffff"
     bordercolor="#666666"
     borderopacity="1.0"
     inkscape:pageshadow="2"
     inkscape:pageopacity="0.0"
     inkscape:pagecheckerboard="0"
     showgrid="true"
     inkscape:snap-bbox="true"
     inkscape:snap-bbox-edge-midpoints="true"
     inkscape:zoom="6.607029"
     inkscape:cx="28.832929"
     inkscape:cy="41.243954"
     inkscape:window-width="1440"
     inkscape:window-height="823"
     inkscape:window-x="0"
     inkscape:window-y="768"
     inkscape:window-maximized="1"
     inkscape:current-layer="svg18"
     inkscape:snap-global="false">
    <inkscape:grid
       type="xygrid"
       id="grid839" />
  </sodipodi:namedview>
  <path
     id="path4768"
     style="opacity:0.2"
     d="M 31.123047 5 C 24.303653 4.9958 26.971556 13.054045 24.230469 15.326172 C 23.148502 16.222934 21.895614 16.944916 20.578125 17.433594 C 17.239676 18.671793 11.599503 12.335593 8.1894531 18.242188 L 7.7519531 19 L 7.3125 19.759766 C 3.899408 25.663562 12.211623 27.382708 12.808594 30.892578 C 13.044215 32.277949 13.04415 33.722053 12.808594 35.107422 C 12.211752 38.617619 3.9040561 40.335591 7.3144531 46.242188 L 8.1894531 47.759766 C 11.595686 53.667413 17.24 47.328499 20.578125 48.566406 C 21.895712 49.055016 23.148535 49.779084 24.230469 50.675781 C 24.557064 50.946438 24.801714 51.303478 25 51.714844 L 25 55.400391 C 25 58.502791 27.497209 61 30.599609 61 L 31.125 61 L 32.875 61 L 33.400391 61 C 36.502791 61 39 58.502791 39 55.400391 L 39 51.716797 C 39.198477 51.304261 39.444282 50.947004 39.771484 50.675781 C 40.853451 49.77902 42.104385 49.055082 43.421875 48.566406 C 46.760326 47.328206 52.402452 53.664374 55.8125 47.757812 L 56.25 47 L 56.6875 46.240234 C 60.100592 40.336437 51.790299 38.617291 51.193359 35.107422 C 50.95774 33.722052 50.957805 32.277951 51.193359 30.892578 C 51.790201 27.382385 60.097899 25.664409 56.6875 19.757812 L 56.25 19 L 55.8125 18.240234 C 52.406268 12.332588 46.759999 18.671498 43.421875 17.433594 C 42.104288 16.944981 40.853417 16.220914 39.771484 15.324219 C 37.030007 13.052286 39.69555 5 32.875 5 L 32 5 L 31.123047 5 z " />
  <g
     id="g5604">
    <path
       d="m 31.124017,4.00007 c -6.819394,-0.0042 -4.153083,8.053034 -6.89417,10.325161 -1.081967,0.896762 -2.333494,1.619199 -3.650983,2.107877 -3.338449,1.238199 -8.979234,-5.098442 -12.3892835,0.808152 l -0.437498,0.7588 -0.439215,0.7588 c -3.413092,5.903796 4.8981355,7.62344 5.4951065,11.13331 0.235621,1.385371 0.235556,2.830385 0,4.215754 -0.596842,3.510197 -8.9037535,5.226722 -5.4933565,11.133319 l 0.875,1.517562 c 3.4062325,5.907647 9.0511545,-0.429757 12.3892795,0.80815 1.317587,0.48861 2.569049,1.21118 3.650983,2.107877 2.741477,2.27193 0.07537,10.325166 6.895921,10.325166 h 1.75 c 6.819395,0.0042 4.154836,-8.053039 6.895922,-10.325166 1.081967,-0.896761 2.333493,-1.619201 3.650983,-2.107877 3.338451,-1.2382 8.979231,5.096697 12.389279,-0.809865 l 0.4375,-0.757082 0.4375,-0.7588 c 3.413092,-5.903797 -4.896418,-7.623447 -5.493358,-11.133316 -0.235619,-1.38537 -0.235554,-2.830383 0,-4.215756 0.596842,-3.510193 8.903757,-5.228464 5.493358,-11.135061 l -0.4375,-0.757085 -0.4375,-0.758798 C 52.405753,11.333546 46.76083,17.670947 43.422706,16.433043 42.105119,15.94443 40.853656,15.221861 39.771723,14.325166 37.030246,12.053233 39.696351,4 32.875801,4 h -0.875 z"
       id="path2-3"
       style="fill:#474747;fill-opacity:1;stroke-width:1.4"
       sodipodi:nodetypes="cccccccscsscsccccccssccsscscc" />
    <path
       d="m 31.124017,4.00007 c -6.819394,-0.0042 -4.153083,8.053034 -6.89417,10.325161 -1.081967,0.896762 -2.333494,1.619199 -3.650983,2.107877 -3.338449,1.238199 -8.979234,-5.098442 -12.3892835,0.808152 l -0.437498,0.7588 -0.439215,0.7588 c -3.413092,5.903796 4.8981355,7.62344 5.4951065,11.13331 0.235621,1.385371 0.235556,2.830385 0,4.215754 -0.596842,3.510197 -8.9037535,5.226722 -5.4933565,11.133319 l 0.875,1.517562 c 3.4062325,5.907647 9.0511545,-0.429757 12.3892795,0.80815 1.317587,0.48861 2.569049,1.21118 3.650983,2.107877 2.741477,2.27193 0.07537,10.325166 6.895921,10.325166 h 1.75 c 6.819395,0.0042 4.154836,-8.053039 6.895922,-10.325166 1.081967,-0.896761 2.333493,-1.619201 3.650983,-2.107877 3.338451,-1.2382 8.979231,5.096697 12.389279,-0.809865 l 0.4375,-0.757082 0.4375,-0.7588 c 3.413092,-5.903797 -4.896418,-7.623447 -5.493358,-11.133316 -0.235619,-1.38537 -0.235554,-2.830383 0,-4.215756 0.596842,-3.510193 8.903757,-5.228464 5.493358,-11.135061 l -0.4375,-0.757085 -0.4375,-0.758798 C 52.405753,11.333546 46.76083,17.670947 43.422706,16.433043 42.105119,15.94443 40.853656,15.221861 39.771723,14.325166 37.030246,12.053233 39.696351,4 32.875801,4 h -0.875 z"
       id="path5848"
       class="ColorScheme-Text"
       style="fill:currentColor;fill-opacity:1;stroke-width:1.4"
       sodipodi:nodetypes="cccccccscsscsccccccssccsscscc" />
  </g>
  <path
     id="path3574"
     style="fill:#e4e4e4"
     d="M 38,19.367188 V 29 l -6,4 -6,-4 V 19.380859 C 21.135647,21.690125 18.006932,26.588939 18,32 c 0,5.181341 2.816238,9.702162 7,12.123047 V 54.400391 C 25,57.502791 27.497209,60 30.599609,60 h 2.800782 C 36.502791,60 39,57.502791 39,54.400391 V 44.123047 C 43.183762,41.702162 46,37.181341 46,32 45.997275,26.584538 42.868564,21.677908 38,19.367188 Z"
     sodipodi:nodetypes="cccccccssssccc" />
  <g
     id="g4428">
    <path
       id="rect8"
       d="M 25 44.123047 L 25 54.400391 C 25 57.502791 27.497209 60 30.599609 60 L 33.400391 60 C 36.502791 60 39 57.502791 39 54.400391 L 39 44.123047 C 36.940439 45.314788 34.550644 46 32 46 C 29.449356 46 27.059561 45.314788 25 44.123047 z "
       style="opacity:0.1" />
    <path
       id="rect10"
       style="opacity:.4"
       d="M 29 45.673828 L 29 54.199219 C 29 55.750419 30.338 57 32 57 C 33.662 57 35 55.750419 35 54.199219 L 35 45.673828 C 34.03328 45.884948 33.030041 46 32 46 C 30.969959 46 29.96672 45.884948 29 45.673828 z " />
    <path
       id="path12"
       style="opacity:.2"
       d="M 18.015625 32.601562 C 18.011662 32.734621 18.000171 32.866285 18 33 C 18 40.731985 24.268014 47 32 47 C 39.731986 47 46 40.731985 46 33 C 45.999933 32.866434 45.988224 32.734478 45.984375 32.601562 C 45.669086 40.054292 39.530297 46 32 46 C 24.469703 46 18.330914 40.054292 18.015625 32.601562 z " />
    <path
       style="fill:#ffffff;opacity:0.1"
       d="m38 19.367188v9.632812l-6 4-6-4v-9.619141c-4.864353 2.309266-7.993068 7.20808-8 12.619141 0 7.731985 6.268014 14 14 14s14-6.268015 14-14c-0.002725-5.415462-3.131436-10.322092-8-12.632812z"
       id="path14" />
  </g>
  <path
     id="path4529"
     d="M 31.123047 4 C 24.303653 3.9958 26.971556 12.054045 24.230469 14.326172 C 23.148502 15.222934 21.895614 15.944916 20.578125 16.433594 C 17.239676 17.671793 11.599503 11.335593 8.1894531 17.242188 L 7.7519531 18 L 7.3125 18.759766 C 6.6107467 19.973623 6.4106925 21.007897 6.53125 21.919922 C 6.6142848 21.264597 6.8550578 20.551026 7.3125 19.759766 L 7.7519531 19 L 8.1894531 18.242188 C 11.599503 12.335593 17.239676 18.671793 20.578125 17.433594 C 21.895614 16.944916 23.148502 16.222934 24.230469 15.326172 C 26.971556 13.054045 24.303653 4.9958 31.123047 5 L 32 5 L 32.875 5 C 39.69555 5 37.030007 13.052286 39.771484 15.324219 C 40.853417 16.220914 42.104288 16.944981 43.421875 17.433594 C 46.759999 18.671498 52.406268 12.332588 55.8125 18.240234 L 56.25 19 L 56.6875 19.757812 C 57.14445 20.549222 57.385781 21.262557 57.46875 21.917969 C 57.589137 21.005866 57.388492 19.971887 56.6875 18.757812 L 56.25 18 L 55.8125 17.240234 C 52.406268 11.332588 46.759999 17.671498 43.421875 16.433594 C 42.104288 15.944981 40.853417 15.220914 39.771484 14.324219 C 37.030007 12.052286 39.69555 4 32.875 4 L 32 4 L 31.123047 4 z M 12.964844 32.5 C 12.943618 33.040173 12.89861 33.578013 12.808594 34.107422 C 12.291721 37.147297 5.9969456 38.844248 6.5332031 43.080078 C 6.9985128 39.555161 12.33443 37.896114 12.808594 35.107422 C 12.954185 34.251161 12.999221 33.373665 12.964844 32.5 z M 51.037109 32.5 C 51.002716 33.373666 51.047729 34.251161 51.193359 35.107422 C 51.667565 37.89564 57.003403 39.55632 57.46875 43.080078 C 58.005605 38.845856 51.710294 37.146878 51.193359 34.107422 C 51.10337 33.578313 51.058352 33.039864 51.037109 32.5 z "
     style="fill:#ffffff;fill-opacity:1;opacity:0.1" />
</svg>
