<svg width="32" height="32" version="1" xmlns="http://www.w3.org/2000/svg">
 <defs>
  <linearGradient id="a" x1="36" x2="13" y1="33" y2="4" gradientUnits="userSpaceOnUse">
   <stop style="stop-color:#ff75f5" offset="0"/>
   <stop style="stop-color:#c700bd" offset="1"/>
  </linearGradient>
 </defs>
 <rect x="2" y="17.5" width="28" height="8" rx="2" ry="2" opacity=".2"/>
 <path d="m4 2c-1.0965 0-2 0.90353-2 2v19c0 1.0965 0.90353 2 2 2h24c1.0965 0 2-0.90353 2-2v-16c0-1.0965-0.90353-2-2-2h-12c-2 0-2-3-5-3z" style="fill:url(#a)"/>
 <path d="m4 2.5c-1.0965 0-2 0.90353-2 2v5c0-1.0965 0.9035-2 2-2h8c2 0 1.4979-2 4-2h12c1.0965 0 2 0.9035 2 2v-0.5c0-1.0965-0.90353-2-2-2h-12c-2 0-2.5-2.5-5-2.5h-7z" style="fill:#808080;opacity:.2"/>
 <path d="m28 6c1.0965 0 2 0.90353 2 2v15c0 1.0965-0.90353 2-2 2h-24c-1.0965 0-2-0.90353-2-2v-13c0-1.0965 0.90353-2 2-2h8c2 0 1.4979-2 4-2z" fill="#fff" opacity=".15"/>
 <path d="m16 5.5c-2.5021 0-2 2-4 2h-8c-1.0965 0-2 0.9035-2 2v0.5c0-1.0965 0.90353-2 2-2h8c2 0 1.4979-2 4-2h12c1.0965 0 2 0.90353 2 2v-0.5c0-1.0965-0.9035-2-2-2z" style="opacity:.25"/>
 <path d="m16 6c-2.5021 0-2 2-4 2h-8c-1.0965 0-2 0.9035-2 2v0.5c0-1.0965 0.90353-2 2-2h8c2 0 1.4979-2 4-2h12c1.0965 0 2 0.90353 2 2v-0.5c0-1.0965-0.9035-2-2-2h-12z" style="fill:#fff;opacity:.2"/>
 <path d="m4 2c-1.0965 0-2 0.90353-2 2v0.5c0-1.0965 0.9035-2 2-2h7c2.5 0 3 2.5 5 2.5-2 0-2-3-5-3z" style="fill:#fff;opacity:.2"/>
 <path d="m22.5 8.75c-1.5192 0-2.75 1.2308-2.75 2.75s1.2308 2.75 2.75 2.75 2.75-1.2308 2.75-2.75-1.2308-2.75-2.75-2.75zm-11.014 4-0.19922 0.31836-5.5371 8.8594v0.072266c0 0.68818 0.56182 1.25 1.25 1.25h18c0.68818 0 1.25-0.56182 1.25-1.25v-0.097656l-5.7207-6.2422-4.4785 3.4824-4.5645-6.3926z" style="opacity:.2"/>
 <path d="m22.5 9.5c1.385 0 2.5 1.115 2.5 2.5s-1.115 2.5-2.5 2.5-2.5-1.115-2.5-2.5 1.115-2.5 2.5-2.5zm-11 4.2 4.5 6.3 4.5-3.5 5.5 6c0 0.554-0.446 1-1 1h-18c-0.554 0-1-0.446-1-1z" style="opacity:.2"/>
 <path d="m22.5 9c1.385 0 2.5 1.115 2.5 2.5s-1.115 2.5-2.5 2.5-2.5-1.115-2.5-2.5 1.115-2.5 2.5-2.5zm-11 4.2 4.5 6.3 4.5-3.5 5.5 6c0 0.554-0.446 1-1 1h-18c-0.554 0-1-0.446-1-1z" style="fill:#fff;stroke-width:1.4"/>
</svg>
