<svg width="48" height="48" version="1" xmlns="http://www.w3.org/2000/svg">
 <defs>
  <linearGradient id="a" x1="52.5" x2="20" y1="51" y2="10" gradientUnits="userSpaceOnUse">
   <stop style="stop-color:#ff75f5" offset="0"/>
   <stop style="stop-color:#c700bd" offset="1"/>
  </linearGradient>
 </defs>
 <rect x="4" y="31" width="40" height="9" rx="2.5" ry="2.5" opacity=".2"/>
 <path d="m6.5 7c-1.3706 0-2.5 1.1294-2.5 2.5v27c0 1.3706 1.1294 2.5 2.5 2.5h35c1.3706 0 2.5-1.1294 2.5-2.5v-23c0-1.3706-1.1294-2.5-2.5-2.5h-17.5c-3 0-3-4-7-4z" style="fill:url(#a)"/>
 <path d="m41.5 13c1.3706 0 2.5 1.1294 2.5 2.5v21c0 1.3706-1.1294 2.5-2.5 2.5h-35c-1.3706 0-2.5-1.1294-2.5-2.5v-18c0-1.3706 1.1294-2.5 2.5-2.5h10.5c4 0 3-3 7-3z" fill="#fff" opacity=".15"/>
 <path d="m24 13c-4 0-3 3-7 3h-10.5c-1.3706 0-2.5 1.1294-2.5 2.5v1c0-1.3706 1.1294-2.5 2.5-2.5h10.5c4 0 3-3 7-3h17.5c1.3706 0 2.5 1.1294 2.5 2.5v-1c0-1.3706-1.1294-2.5-2.5-2.5h-17.5z" style="fill:#fff;opacity:.2"/>
 <path d="m6.5 8c-1.3706 0-2.5 1.1294-2.5 2.5v7c0-1.3706 1.1294-2.5 2.5-2.5h10.5c4 0 3-3 7-3h17.5c1.3706 0 2.5 1.1294 2.5 2.5v-1c0-1.3706-1.1294-2.5-2.5-2.5h-17.5c-3 0-3-3-7-3h-10.5z" style="fill:#808080;opacity:.2"/>
 <path d="m24 12c-4 0-3 3-7 3h-10.5c-1.3706 0-2.5 1.1294-2.5 2.5v1c0-1.3706 1.1294-2.5 2.5-2.5h10.5c4 0 3-3 7-3h17.5c1.3706 0 2.5 1.1294 2.5 2.5v-1c0-1.3706-1.1294-2.5-2.5-2.5z" style="opacity:.25"/>
 <path d="m6.5 7c-1.3706 0-2.5 1.1294-2.5 2.5v1c0-1.3706 1.1294-2.5 2.5-2.5h10.5c4 0 4 3 7 3-3 0-3-4-7-4h-10.5z" style="fill:#fff;opacity:.2"/>
 <path d="m34.5 17c1.939 0 3.5 1.561 3.5 3.5s-1.561 3.5-3.5 3.5-3.5-1.561-3.5-3.5 1.561-3.5 3.5-3.5zm-17 7 7 9 7-5s7.5 6.9405 7.5 8-0.892 2-2 2h-26c-1.108 0-2-0.87898-2-2s8.5-12 8.5-12z" style="opacity:.2"/>
 <path d="m34.5 15.5c-2.2073 0-4 1.7927-4 4s1.7927 4 4 4c2.2074 0 4-1.7927 4-4s-1.7926-4-4-4zm-17 6.6875-0.39453 0.50391s-2.1262 2.7237-4.2559 5.5898c-1.0648 1.4331-2.1309 2.9009-2.9355 4.0898-0.40231 0.59449-0.73914 1.1193-0.98242 1.543-0.12164 0.21183-0.21918 0.39702-0.29297 0.56445s-0.13867 0.29345-0.13867 0.52148c0 1.3863 1.1276 2.5 2.5 2.5h26c1.3909 0 2.5-1.1599 2.5-2.5 0-0.42739-0.191-0.61884-0.41406-0.93555-0.22306-0.3167-0.52447-0.68426-0.88281-1.0918-0.71668-0.81508-1.6579-1.7867-2.5996-2.7246-1.8834-1.8759-3.7637-3.6152-3.7637-3.6152l-0.29883-0.27539-6.9414 4.957-7.0996-9.127z" style="opacity:.2"/>
 <path d="m34.5 16c1.939 0 3.5 1.561 3.5 3.5s-1.561 3.5-3.5 3.5-3.5-1.561-3.5-3.5 1.561-3.5 3.5-3.5zm-17 7 7 9 7-5s7.5 6.9405 7.5 8-0.892 2-2 2h-26c-1.108 0-2-0.87898-2-2s8.5-12 8.5-12z" style="fill:#fff"/>
</svg>
