<svg width="64" height="64" version="1" xmlns="http://www.w3.org/2000/svg">
 <defs>
  <linearGradient id="a" x1="72" x2="27" y1="70" y2="13" gradientUnits="userSpaceOnUse">
   <stop style="stop-color:#ff75f5" offset="0"/>
   <stop style="stop-color:#c700bd" offset="1"/>
  </linearGradient>
 </defs>
 <rect x="4" y="43" width="56" height="9" rx="2.8" ry="2.8" opacity=".2"/>
 <path d="m6.8008 8c-1.5512 0-2.8008 1.2496-2.8008 2.8008v37.398c0 1.5512 1.2496 2.8008 2.8008 2.8008h50.398c1.5512 0 2.8008-1.2496 2.8008-2.8008v-32.398c0-1.5512-1.2496-2.8008-2.8008-2.8008h-27.199c-4 0-4-5-10-5z" style="fill:url(#a)"/>
 <path d="m6.8008 9c-1.5512 0-2.8008 1.2496-2.8008 2.8008v9c0-1.5512 1.2496-2.8008 2.8008-2.8008h15.199c4 0 4-3 10-3h25.199c1.5512 0 2.8008 1.2496 2.8008 2.8008v-1c0-1.5512-1.2496-2.8008-2.8008-2.8008h-27.199c-4 0-4-5-10-5z" style="fill:#808080;opacity:.2"/>
 <path d="m32 15c-6 0-6 3-10 3h-15.199c-1.5512 0-2.8008 1.2496-2.8008 2.8008v1c0-1.5512 1.2496-2.8008 2.8008-2.8008h15.199c4 0 4-3 10-3h25.199c1.5512 0 2.8008 1.2496 2.8008 2.8008v-1c0-1.5512-1.2496-2.8008-2.8008-2.8008z" style="opacity:.25"/>
 <path d="m6.8008 8c-1.5512 0-2.8008 1.2496-2.8008 2.8008v1c0-1.5512 1.2496-2.8008 2.8008-2.8008h13.199c6 0 6 5 10 5h27.199c1.5512 0 2.8008 1.2496 2.8008 2.8008v-1c0-1.5512-1.2496-2.8008-2.8008-2.8008h-27.199c-4 0-4-5-10-5z" style="fill:#fff;opacity:.2"/>
 <path d="m32 16c-6 0-6 3-10 3h-15.199c-1.5512 0-2.8008 1.2496-2.8008 2.8008v1c0-1.5512 1.2496-2.8008 2.8008-2.8008h15.199c4 0 4-3 10-3h25.199c1.5512 0 2.8008 1.2496 2.8008 2.8008v-1c0-1.5512-1.2496-2.8008-2.8008-2.8008z" style="fill:#fff;opacity:.2"/>
 <path d="m32 16c-6 0-6 3-10 3h-15.199c-1.5512 0-2.8008 1.2496-2.8008 2.8008v26.398c0 1.5512 1.2496 2.8008 2.8008 2.8008h50.398c1.5512 0 2.8008-1.2496 2.8008-2.8008v-29.398c0-1.5512-1.2496-2.8008-2.8008-2.8008z" style="fill:#fff;opacity:.15"/>
 <path d="m46 21c2.77 0 5 2.23 5 5s-2.23 5-5 5-5-2.23-5-5 2.23-5 5-5zm-24.5 9 10.5 13 9.5-7s12.285 11.727 12.5 12.53c0.27414 1.0231-0.89178 1.4705-1.9995 1.4705h-41c-1.108 0-2.2901-0.37872-2-1.4615 0.35161-1.3122 12.5-18.538 12.5-18.538z" style="opacity:.2"/>
 <path d="m46 19.5c-3.0383 0-5.5 2.4617-5.5 5.5s2.4617 5.5 5.5 5.5c3.0384 0 5.5-2.4617 5.5-5.5s-2.4616-5.5-5.5-5.5zm-24.527 8.6699-0.38086 0.54102s-3.0381 4.3097-6.1211 8.7832c-1.5415 2.2367-3.0953 4.5137-4.2871 6.3184-0.59589 0.90234-1.1016 1.6858-1.4727 2.291-0.18555 0.30259-0.33624 0.56108-0.45117 0.77148-0.11493 0.21041-0.19133 0.34341-0.24219 0.5332-0.09639 0.35973-0.077743 0.72387 0.0625 1.0254 0.14024 0.30152 0.38139 0.52165 0.64453 0.67383 0.52629 0.30436 1.1644 0.39258 1.7754 0.39258h41c0.62117 0 1.2591-0.10984 1.7773-0.42383 0.25912-0.157 0.49287-0.37659 0.63281-0.67188s0.16609-0.65374 0.072266-1.0039c-0.07077-0.2641-0.15001-0.30605-0.26367-0.45117s-0.26278-0.31799-0.44531-0.52148c-0.36506-0.407-0.86539-0.93416-1.459-1.543-1.1872-1.2176-2.7444-2.7599-4.2949-4.2773-3.101-3.0349-6.1738-5.9688-6.1738-5.9688l-0.30469-0.29102-9.4531 6.9668-10.615-13.145z" style="opacity:.2"/>
 <path d="m46 20c2.77 0 5 2.23 5 5s-2.23 5-5 5-5-2.23-5-5 2.23-5 5-5zm-24.5 9 10.5 13 9.5-7s12.285 11.727 12.5 12.53c0.27414 1.0231-0.89178 1.4705-1.9995 1.4705h-41c-1.108 0-2.2901-0.37872-2-1.4615 0.35161-1.3122 12.5-18.538 12.5-18.538z" style="fill:#fff"/>
</svg>
