<?xml version="1.0" encoding="UTF-8" standalone="no"?>
<svg
   width="64"
   height="64"
   version="1"
   id="svg14"
   sodipodi:docname="folder-documents.svg"
   inkscape:version="1.1.1 (3bf5ae0d25, 2021-09-20, custom)"
   xmlns:inkscape="http://www.inkscape.org/namespaces/inkscape"
   xmlns:sodipodi="http://sodipodi.sourceforge.net/DTD/sodipodi-0.dtd"
   xmlns:xlink="http://www.w3.org/1999/xlink"
   xmlns="http://www.w3.org/2000/svg"
   xmlns:svg="http://www.w3.org/2000/svg">
  <defs
     id="defs18">
    <linearGradient
       inkscape:collect="always"
       xlink:href="#linearGradient1603"
       id="linearGradient949"
       x1="4"
       y1="6"
       x2="45"
       y2="45"
       gradientUnits="userSpaceOnUse"
       gradientTransform="translate(63.5,7)" />
    <linearGradient
       inkscape:collect="always"
       id="linearGradient1603">
      <stop
         style="stop-color:#02c8ff;stop-opacity:1"
         offset="0"
         id="stop1599" />
      <stop
         style="stop-color:#2588ff;stop-opacity:1"
         offset="1"
         id="stop1601" />
    </linearGradient>
    <linearGradient
       inkscape:collect="always"
       xlink:href="#linearGradient1603"
       id="linearGradient1015"
       gradientUnits="userSpaceOnUse"
       gradientTransform="translate(63.5,7)"
       x1="4"
       y1="6"
       x2="45"
       y2="45" />
    <linearGradient
       inkscape:collect="always"
       xlink:href="#linearGradient1603"
       id="linearGradient1042"
       x1="3"
       y1="6"
       x2="61"
       y2="60"
       gradientUnits="userSpaceOnUse" />
  </defs>
  <sodipodi:namedview
     id="namedview16"
     pagecolor="#ffffff"
     bordercolor="#666666"
     borderopacity="1.0"
     inkscape:pageshadow="2"
     inkscape:pageopacity="0.0"
     inkscape:pagecheckerboard="0"
     showgrid="true"
     inkscape:zoom="18.6875"
     inkscape:cx="34.541806"
     inkscape:cy="37.698997"
     inkscape:window-width="1440"
     inkscape:window-height="823"
     inkscape:window-x="0"
     inkscape:window-y="768"
     inkscape:window-maximized="1"
     inkscape:current-layer="svg14"
     inkscape:snap-global="true"
     inkscape:snap-bbox="true"
     inkscape:snap-bbox-edge-midpoints="false"
     inkscape:bbox-nodes="true"
     inkscape:snap-smooth-nodes="true">
    <inkscape:grid
       type="xygrid"
       id="grid835" />
  </sodipodi:namedview>
  <rect
     x="4"
     y="43"
     width="56"
     height="9"
     rx="2.8"
     ry="2.8"
     opacity="0.2"
     id="rect2" />
  <path
     id="path4"
     d="M 6.8007812,8 C 5.2495813,8 4,9.2495819 4,10.800781 V 48.199219 C 4,49.750419 5.2495813,51 6.8007812,51 H 57.199219 C 58.750419,51 60,49.750419 60,48.199219 V 15.800781 C 60,14.249581 58.750419,13 57.199219,13 H 35 C 28,13 29,8 23,8 Z"
     sodipodi:nodetypes="sssssssssss"
     style="fill:url(#linearGradient1042);fill-opacity:1" />
  <path
     id="path4-3"
     style="opacity:0.15;fill:#ffffff;fill-opacity:1"
     d="m 34,16 c -6,0 -6,5 -10,5 H 6.800781 C 5.2495811,21 3.9999998,22.249581 3.9999998,23.800781 V 48.199219 C 3.9999998,49.750419 5.2495811,51 6.800781,51 H 57.199219 C 58.750419,51 60,49.750419 60,48.199219 V 18.800781 C 60,17.249582 58.750419,16 57.199219,16 Z"
     sodipodi:nodetypes="sssssssssss" />
  <path
     id="path5525"
     style="opacity:0.2;fill:#ffffff;fill-opacity:1"
     d="m 34,16 c -6,0 -6,5 -10,5 H 6.8007812 C 5.2495814,21 4,22.249581 4,23.800781 v 1 C 4,23.249581 5.2495814,22 6.8007812,22 H 24 c 4,0 4,-5 10,-5 H 57.199219 C 58.750419,17 60,18.249582 60,19.800781 v -1 C 60,17.249582 58.750419,16 57.199219,16 Z"
     sodipodi:nodetypes="sssscsssscsss" />
  <path
     id="path5548"
     d="m 34,15 c -6,0 -6,5 -10,5 H 6.8007812 C 5.2495814,20 4,21.249581 4,22.800781 v 1 C 4,22.249581 5.2495814,21 6.8007812,21 H 24 c 4,0 4,-5 10,-5 H 57.199219 C 58.750419,16 60,17.249582 60,18.800781 v -1 C 60,16.249582 58.750419,15 57.199219,15 Z"
     style="opacity:0.2"
     sodipodi:nodetypes="sssscsssscsss" />
  <rect
     x="-57.800781"
     y="43"
     width="56"
     height="9"
     rx="2.8"
     ry="2.8"
     opacity="0.2"
     id="rect2-9" />
  <path
     id="path4-1"
     d="m -55,9 c -1.5512,0 -2.800781,1.249582 -2.800781,2.800781 V 48.199219 C -57.800781,49.750419 -56.5512,51 -55,51 h 50.398439 c 1.5512,0 2.80078,-1.249581 2.80078,-2.800781 V 16.800781 C -1.800781,15.249581 -3.050361,14 -4.601561,14 h -24.19922 c -4,0 -4,-5 -10,-5 z"
     sodipodi:nodetypes="sssssssssss"
     style="fill:#ffb004;fill-opacity:1" />
  <path
     id="path4-3-2"
     style="opacity:0.15;fill:#ffffff;fill-opacity:1"
     d="m -28.800781,16 c -6,0 -6,5 -10,5 H -55 c -1.5512,0 -2.800781,1.249581 -2.800781,2.800781 V 48.199219 C -57.800781,49.750419 -56.5512,51 -55,51 h 50.398439 c 1.5512,0 2.80078,-1.249581 2.80078,-2.800781 V 18.800781 C -1.800781,17.249582 -3.050361,16 -4.601561,16 Z"
     sodipodi:nodetypes="sssssssssss" />
  <path
     id="path5525-7"
     style="opacity:0.2;fill:#ffffff;fill-opacity:1"
     d="m -28.800781,16 c -6,0 -6,5 -10,5 H -55 c -1.5512,0 -2.800781,1.249581 -2.800781,2.800781 v 1 C -57.800781,23.249581 -56.5512,22 -55,22 h 16.199219 c 4,0 4,-5 10,-5 h 24.19922 c 1.5512,0 2.80078,1.249582 2.80078,2.800781 v -1 C -1.800781,17.249582 -3.050361,16 -4.601561,16 Z" />
  <path
     id="path5548-0"
     d="m -28.800781,15 c -6,0 -6,5 -10,5 H -55 c -1.5512,0 -2.800781,1.249581 -2.800781,2.800781 v 1 C -57.800781,22.249581 -56.5512,21 -55,21 h 16.199219 c 4,0 4,-5 10,-5 h 24.19922 c 1.5512,0 2.80078,1.249582 2.80078,2.800781 v -1 C -1.800781,16.249582 -3.050361,15 -4.601561,15 Z"
     style="opacity:0.2" />
  <path
     id="path4-5-9"
     d="m -55,9 c -1.5512,0 -2.800781,1.249582 -2.800781,2.800781 v 12 C -57.800781,22.249581 -56.5512,21 -55,21 h 16.199219 c 4,0 4,-5 10,-5 h 24.19922 c 1.5512,0 2.80078,1.249582 2.80078,2.800781 v -2 C -1.800781,15.249581 -3.050361,14 -4.601561,14 h -24.19922 c -4,0 -4,-5 -10,-5 z"
     style="opacity:0.2;fill:#808080;fill-opacity:1"
     sodipodi:nodetypes="cccsssscccccc" />
  <path
     id="path6152-3"
     style="opacity:0.2;fill:#ffffff;fill-opacity:1"
     d="m -55,9 c -1.5512,0 -2.800781,1.249582 -2.800781,2.800781 v 1 C -57.800781,11.249582 -56.5512,10 -55,10 h 16.199219 c 6,0 6,5 10,5 h 24.19922 c 1.5512,0 2.80078,1.249581 2.80078,2.800781 v -1 C -1.800781,15.249581 -3.050361,14 -4.601561,14 h -24.19922 c -4,0 -4,-5 -10,-5 z" />
  <path
     id="path4-60"
     style="opacity:0.2;fill:#808080;fill-opacity:1"
     d="M 6.8007812,9 C 5.2495813,9 4,10.249582 4,11.800781 v 12 C 4,22.249581 5.2495815,21 6.8007812,21 H 24 c 4,0 4,-5 10,-5 H 57.199219 C 58.750419,16 60,17.249582 60,18.800781 v -2 C 60,15.249581 58.750419,14 57.199219,14 H 35 C 28,14 29,9 23,9 Z"
     sodipodi:nodetypes="sscsssscsssss" />
  <path
     id="path9972"
     style="opacity:0.2;fill:#ffffff;fill-opacity:1"
     d="M 6.8007812 8 C 5.2495813 8 4 9.2495825 4 10.800781 L 4 11.800781 C 4 10.249582 5.2495813 9 6.8007812 9 L 23 9 C 29 9 28 14 35 14 L 57.199219 14 C 58.750419 14 60 15.249581 60 16.800781 L 60 15.800781 C 60 14.249581 58.750419 13 57.199219 13 L 35 13 C 28 13 29 8 23 8 L 6.8007812 8 z " />
  <rect
     x="67.5"
     y="38"
     width="40"
     height="9"
     rx="2.5"
     ry="2.5"
     opacity="0.2"
     id="rect2-3" />
  <path
     d="m 70,14 c -1.370625,0 -2.5,1.129412 -2.5,2.5 v 27 c 0,1.370625 1.129412,2.5 2.5,2.5 h 35 c 1.37063,0 2.5,-1.129413 2.5,-2.5 v -23 C 107.5,19.129375 106.37059,18 105,18 H 87.5 c -3,0 -3,-4 -7,-4 z"
     id="path4-67"
     sodipodi:nodetypes="sssssssssss"
     style="fill:url(#linearGradient949);fill-opacity:1" />
  <g
     id="g7909"
     transform="translate(63.5,7)">
    <path
       d="m 41.5,13 c 1.370625,0 2.5,1.129413 2.5,2.5 v 21 C 44,37.870625 42.870587,39 41.5,39 H 6.5 C 5.129375,39 4,37.870587 4,36.5 v -18 C 4,17.129375 5.1294125,16 6.5,16 H 17 c 4,0 3,-3 7,-3 z"
       fill="#ffffff"
       opacity="0.15"
       id="path10"
       sodipodi:nodetypes="sssssssssss" />
    <path
       id="path6655"
       d="m 24,13 c -4,0 -3,3 -7,3 H 6.5 C 5.1294125,16 4,17.129375 4,18.5 v 1 C 4,18.129375 5.1294125,17 6.5,17 H 17 c 4,0 3,-3 7,-3 h 17.5 c 1.370625,0 2.5,1.129413 2.5,2.5 v -1 C 44,14.129413 42.870625,13 41.5,13 Z"
       style="opacity:0.2;fill:#ffffff;fill-opacity:1" />
    <path
       id="path4-6"
       style="opacity:0.2;fill:#808080;fill-opacity:1"
       d="M 6.5,8 C 5.129375,8 4,9.1294125 4,10.5 v 8 C 4,17.129375 5.1294125,16 6.5,16 H 17 c 4,0 3,-3 7,-3 h 17.5 c 1.370625,0 2.5,1.129413 2.5,2.5 v -2 C 44,12.129375 42.870587,11 41.5,11 H 24 C 21,11 21,8 17,8 Z"
       sodipodi:nodetypes="sscsssscsssss" />
    <path
       id="path6945"
       d="m 24,12 c -4,0 -3,3 -7,3 H 6.5 C 5.1294125,15 4,16.129375 4,17.5 v 1 C 4,17.129375 5.1294125,16 6.5,16 H 17 c 4,0 3,-3 7,-3 h 17.5 c 1.370625,0 2.5,1.129413 2.5,2.5 v -1 C 44,13.129413 42.870625,12 41.5,12 Z"
       style="opacity:0.2" />
    <path
       id="path7106"
       style="opacity:0.2;fill:#ffffff;fill-opacity:1"
       d="M 6.5,7 C 5.129375,7 4,8.1294125 4,9.5 v 1 C 4,9.1294125 5.129375,8 6.5,8 H 17 c 4,0 4,3 7,3 -3,0 -3,-4 -7,-4 z" />
  </g>
  <path
     id="path2918"
     d="m 90.5,27 c -0.554,0 -1,0.446 -1,1 v 5 c 0,0.554 0.446,1 1,1 h 5 c 0.554,0 1,-0.446 1,-1 v -5 c 0,-0.554 -0.446,-1 -1,-1 z m -10,1 c -0.554,0 -1,0.446 -1,1 0,0.554 0.446,1 1,1 h 6 c 0.554,0 1,-0.446 1,-1 0,-0.554 -0.446,-1 -1,-1 z m 0,4 c -0.554,0 -1,0.446 -1,1 0,0.554 0.446,1 1,1 h 6 c 0.554,0 1,-0.446 1,-1 0,-0.554 -0.446,-1 -1,-1 z m 0,4 c -0.554,0 -1,0.446 -1,1 0,0.554 0.446,1 1,1 h 15 c 0.554,0 1,-0.446 1,-1 0,-0.554 -0.446,-1 -1,-1 z m 0,4 c -0.554,0 -1,0.446 -1,1 0,0.554 0.446,1 1,1 h 11 c 0.554,0 1,-0.446 1,-1 0,-0.554 -0.446,-1 -1,-1 z"
     style="opacity:0.2" />
  <path
     id="path3400"
     d="M 90.5,25.5 C 89.677649,25.5 89,26.177649 89,27 v 5 c 0,0.822351 0.677649,1.5 1.5,1.5 h 5 c 0.822351,0 1.5,-0.677649 1.5,-1.5 v -5 c 0,-0.822351 -0.677649,-1.5 -1.5,-1.5 z m -10,1 c -0.822351,0 -1.5,0.677649 -1.5,1.5 0,0.822351 0.677649,1.5 1.5,1.5 h 6 c 0.822351,0 1.5,-0.677649 1.5,-1.5 0,-0.822351 -0.677649,-1.5 -1.5,-1.5 z m 0,4 c -0.822351,0 -1.5,0.677649 -1.5,1.5 0,0.822351 0.677649,1.5 1.5,1.5 h 6 c 0.822351,0 1.5,-0.677649 1.5,-1.5 0,-0.822351 -0.677649,-1.5 -1.5,-1.5 z m 0,4 c -0.822351,0 -1.5,0.677649 -1.5,1.5 0,0.822351 0.677649,1.5 1.5,1.5 h 15 c 0.822351,0 1.5,-0.677649 1.5,-1.5 0,-0.822351 -0.677649,-1.5 -1.5,-1.5 z m 0,4 c -0.822351,0 -1.5,0.677649 -1.5,1.5 0,0.822351 0.677649,1.5 1.5,1.5 h 11 c 0.822351,0 1.5,-0.677649 1.5,-1.5 0,-0.822351 -0.677649,-1.5 -1.5,-1.5 z"
     style="opacity:0.2" />
  <path
     d="m 90.5,26 c -0.554,0 -1,0.446 -1,1 v 5 c 0,0.554 0.446,1 1,1 h 5 c 0.554,0 1,-0.446 1,-1 v -5 c 0,-0.554 -0.446,-1 -1,-1 z m -10,1 c -0.554,0 -1,0.446 -1,1 0,0.554 0.446,1 1,1 h 6 c 0.554,0 1,-0.446 1,-1 0,-0.554 -0.446,-1 -1,-1 z m 0,4 c -0.554,0 -1,0.446 -1,1 0,0.554 0.446,1 1,1 h 6 c 0.554,0 1,-0.446 1,-1 0,-0.554 -0.446,-1 -1,-1 z m 0,4 c -0.554,0 -1,0.446 -1,1 0,0.554 0.446,1 1,1 h 15 c 0.554,0 1,-0.446 1,-1 0,-0.554 -0.446,-1 -1,-1 z m 0,4 c -0.554,0 -1,0.446 -1,1 0,0.554 0.446,1 1,1 h 11 c 0.554,0 1,-0.446 1,-1 0,-0.554 -0.446,-1 -1,-1 z"
     id="path5792"
     style="fill:#ffffff;fill-opacity:1" />
  <g
     id="g1013"
     transform="matrix(1.4117187,0,0,1.4117187,-18.820309,38.824219)">
    <rect
       x="67.5"
       y="38"
       width="40"
       height="9"
       rx="2.5"
       ry="2.5"
       opacity="0.2"
       id="rect980" />
    <path
       d="m 70,14 c -1.370625,0 -2.5,1.129412 -2.5,2.5 v 27 c 0,1.370625 1.129412,2.5 2.5,2.5 h 35 c 1.37063,0 2.5,-1.129413 2.5,-2.5 v -23 C 107.5,19.129375 106.37059,18 105,18 H 87.5 c -3,0 -3,-4 -7,-4 z"
       id="path982"
       sodipodi:nodetypes="sssssssssss"
       style="fill:url(#linearGradient1015);fill-opacity:1" />
    <g
       id="g994"
       transform="translate(63.5,7)">
      <path
         d="m 41.5,13 c 1.370625,0 2.5,1.129413 2.5,2.5 v 21 C 44,37.870625 42.870587,39 41.5,39 H 6.5 C 5.129375,39 4,37.870587 4,36.5 v -18 C 4,17.129375 5.1294125,16 6.5,16 H 17 c 4,0 3,-3 7,-3 z"
         fill="#ffffff"
         opacity="0.15"
         id="path984"
         sodipodi:nodetypes="sssssssssss" />
      <path
         id="path986"
         d="m 24,13 c -4,0 -3,3 -7,3 H 6.5 C 5.1294125,16 4,17.129375 4,18.5 v 1 C 4,18.129375 5.1294125,17 6.5,17 H 17 c 4,0 3,-3 7,-3 h 17.5 c 1.370625,0 2.5,1.129413 2.5,2.5 v -1 C 44,14.129413 42.870625,13 41.5,13 Z"
         style="opacity:0.2;fill:#ffffff;fill-opacity:1" />
      <path
         id="path988"
         style="opacity:0.2;fill:#808080;fill-opacity:1"
         d="M 6.5,8 C 5.129375,8 4,9.1294125 4,10.5 v 8 C 4,17.129375 5.1294125,16 6.5,16 H 17 c 4,0 3,-3 7,-3 h 17.5 c 1.370625,0 2.5,1.129413 2.5,2.5 v -2 C 44,12.129375 42.870587,11 41.5,11 H 24 C 21,11 21,8 17,8 Z"
         sodipodi:nodetypes="sscsssscsssss" />
      <path
         id="path990"
         d="m 24,12 c -4,0 -3,3 -7,3 H 6.5 C 5.1294125,15 4,16.129375 4,17.5 v 1 C 4,17.129375 5.1294125,16 6.5,16 H 17 c 4,0 3,-3 7,-3 h 17.5 c 1.370625,0 2.5,1.129413 2.5,2.5 v -1 C 44,13.129413 42.870625,12 41.5,12 Z"
         style="opacity:0.2" />
      <path
         id="path992"
         style="opacity:0.2;fill:#ffffff;fill-opacity:1"
         d="M 6.5,7 C 5.129375,7 4,8.1294125 4,9.5 v 1 C 4,9.1294125 5.129375,8 6.5,8 H 17 c 4,0 4,3 7,3 -3,0 -3,-4 -7,-4 z" />
    </g>
    <path
       id="path996"
       d="m 90.5,27 c -0.554,0 -1,0.446 -1,1 v 5 c 0,0.554 0.446,1 1,1 h 5 c 0.554,0 1,-0.446 1,-1 v -5 c 0,-0.554 -0.446,-1 -1,-1 z m -10,1 c -0.554,0 -1,0.446 -1,1 0,0.554 0.446,1 1,1 h 6 c 0.554,0 1,-0.446 1,-1 0,-0.554 -0.446,-1 -1,-1 z m 0,4 c -0.554,0 -1,0.446 -1,1 0,0.554 0.446,1 1,1 h 6 c 0.554,0 1,-0.446 1,-1 0,-0.554 -0.446,-1 -1,-1 z m 0,4 c -0.554,0 -1,0.446 -1,1 0,0.554 0.446,1 1,1 h 15 c 0.554,0 1,-0.446 1,-1 0,-0.554 -0.446,-1 -1,-1 z m 0,4 c -0.554,0 -1,0.446 -1,1 0,0.554 0.446,1 1,1 h 11 c 0.554,0 1,-0.446 1,-1 0,-0.554 -0.446,-1 -1,-1 z"
       style="opacity:0.2" />
    <path
       id="path998"
       d="M 90.5,25.5 C 89.677649,25.5 89,26.177649 89,27 v 5 c 0,0.822351 0.677649,1.5 1.5,1.5 h 5 c 0.822351,0 1.5,-0.677649 1.5,-1.5 v -5 c 0,-0.822351 -0.677649,-1.5 -1.5,-1.5 z m -10,1 c -0.822351,0 -1.5,0.677649 -1.5,1.5 0,0.822351 0.677649,1.5 1.5,1.5 h 6 c 0.822351,0 1.5,-0.677649 1.5,-1.5 0,-0.822351 -0.677649,-1.5 -1.5,-1.5 z m 0,4 c -0.822351,0 -1.5,0.677649 -1.5,1.5 0,0.822351 0.677649,1.5 1.5,1.5 h 6 c 0.822351,0 1.5,-0.677649 1.5,-1.5 0,-0.822351 -0.677649,-1.5 -1.5,-1.5 z m 0,4 c -0.822351,0 -1.5,0.677649 -1.5,1.5 0,0.822351 0.677649,1.5 1.5,1.5 h 15 c 0.822351,0 1.5,-0.677649 1.5,-1.5 0,-0.822351 -0.677649,-1.5 -1.5,-1.5 z m 0,4 c -0.822351,0 -1.5,0.677649 -1.5,1.5 0,0.822351 0.677649,1.5 1.5,1.5 h 11 c 0.822351,0 1.5,-0.677649 1.5,-1.5 0,-0.822351 -0.677649,-1.5 -1.5,-1.5 z"
       style="opacity:0.2" />
    <path
       d="m 90.5,26 c -0.554,0 -1,0.446 -1,1 v 5 c 0,0.554 0.446,1 1,1 h 5 c 0.554,0 1,-0.446 1,-1 v -5 c 0,-0.554 -0.446,-1 -1,-1 z m -10,1 c -0.554,0 -1,0.446 -1,1 0,0.554 0.446,1 1,1 h 6 c 0.554,0 1,-0.446 1,-1 0,-0.554 -0.446,-1 -1,-1 z m 0,4 c -0.554,0 -1,0.446 -1,1 0,0.554 0.446,1 1,1 h 6 c 0.554,0 1,-0.446 1,-1 0,-0.554 -0.446,-1 -1,-1 z m 0,4 c -0.554,0 -1,0.446 -1,1 0,0.554 0.446,1 1,1 h 15 c 0.554,0 1,-0.446 1,-1 0,-0.554 -0.446,-1 -1,-1 z m 0,4 c -0.554,0 -1,0.446 -1,1 0,0.554 0.446,1 1,1 h 11 c 0.554,0 1,-0.446 1,-1 0,-0.554 -0.446,-1 -1,-1 z"
       id="path1000"
       style="fill:#ffffff;fill-opacity:1" />
  </g>
  <rect
     style="opacity:1;fill:#ffffff;stroke-width:0.5;stroke-linecap:round;stroke-linejoin:round;paint-order:markers stroke fill;fill-opacity:1"
     id="rect1508"
     width="11"
     height="3"
     x="20"
     y="25"
     rx="1.5"
     ry="1.5" />
  <rect
     style="opacity:1;fill:#ffffff;fill-opacity:1;stroke-width:0.5;stroke-linecap:round;stroke-linejoin:round;paint-order:markers stroke fill"
     id="rect2008"
     width="11"
     height="3"
     x="20"
     y="31"
     rx="1.5"
     ry="1.5" />
  <rect
     style="opacity:1;fill:#ffffff;fill-opacity:1;stroke-width:0.5;stroke-linecap:round;stroke-linejoin:round;paint-order:markers stroke fill"
     id="rect2010"
     width="24"
     height="3"
     x="20"
     y="37"
     rx="1.5"
     ry="1.5" />
  <rect
     style="opacity:1;fill:#ffffff;fill-opacity:1;stroke-width:0.5;stroke-linecap:round;stroke-linejoin:round;paint-order:markers stroke fill"
     id="rect2012"
     width="19"
     height="3"
     x="20"
     y="43"
     rx="1.5"
     ry="1.4375" />
  <rect
     style="opacity:1;fill:#ffffff;fill-opacity:1;stroke-width:0.5;stroke-linecap:round;stroke-linejoin:round;paint-order:markers stroke fill"
     id="rect2055"
     width="10"
     height="10"
     x="34"
     y="24"
     rx="1.5"
     ry="1.5" />
</svg>
