<svg width="16" height="16" version="1.1" xmlns="http://www.w3.org/2000/svg">
 <style id="current-color-scheme" type="text/css">.ColorScheme-Highlight { color:#ffffff; }</style>
 <rect x="1" y="4.5" width="14" height="10" rx="2" ry="2" opacity=".2"/>
 <path class="ColorScheme-Highlight" d="m3 1c-1.0965 0-2 0.90353-2 2v9c0 1.0965 0.90353 2 2 2h10c1.0965 0 2-0.90353 2-2v-7c0-1.0965-0.90353-2-2-2h-3.5c-2 0-2-2-4-2z" fill="currentColor"/>
 <path d="m3 1c-1.0965 0-2 0.90353-2 2v3c0-1.0965 0.9035-2 2-2h3.5c2 0 1-1 3-1-2 0-2-2-4-2z" fill="#808080" opacity=".2"/>
 <path d="m9.5 3c-2 0-1 1-3 1h-3.5c-1.0965 0-2 0.9035-2 2v6c0 1.0965 0.90353 2 2 2h10c1.0965 0 2-0.90353 2-2v-7c0-1.0965-0.90353-2-2-2z" fill="#fff" opacity=".1"/>
 <path d="m3 1c-1.0965 0-2 0.90353-2 2v0.5c0-1.0965 0.9035-2 2-2h2.5c1.5241 0 1.888 1.1602 2.8594 1.7129-0.52744 0.29343-0.45166 0.78711-1.8594 0.78711h-3.5c-1.0965 0-2 0.9035-2 2v0.5c0-1.0965 0.9035-2 2-2h3.5c2 0 1-1 3-1h3.5c1.0965 0 2 0.9035 2 2v-0.5c0-1.0965-0.90353-2-2-2h-3.5c-2 0-2-2-4-2z" fill="#fff" opacity=".2"/>
 <path d="m8.3574 2.7109c-0.52817 0.29338-0.44911 0.78906-1.8574 0.78906h-3.5c-1.0965 0-2 0.9035-2 2v0.5c0-1.0965 0.9035-2 2-2h3.5c2 0 1-1 3-1-0.4772 0-0.83876-0.11568-1.1426-0.28906z" opacity=".1"/>
</svg>
