<?xml version="1.0" encoding="UTF-8" standalone="no"?>
<svg
   xmlns:dc="http://purl.org/dc/elements/1.1/"
   xmlns:cc="http://creativecommons.org/ns#"
   xmlns:rdf="http://www.w3.org/1999/02/22-rdf-syntax-ns#"
   xmlns:svg="http://www.w3.org/2000/svg"
   xmlns="http://www.w3.org/2000/svg"
   xmlns:xlink="http://www.w3.org/1999/xlink"
   xmlns:sodipodi="http://sodipodi.sourceforge.net/DTD/sodipodi-0.dtd"
   xmlns:inkscape="http://www.inkscape.org/namespaces/inkscape"
   width="400"
   height="100"
   viewBox="0 0 105.83333 26.458334"
   version="1.1"
   id="svg1067"
   inkscape:version="1.0 (1.0+r73+1)"
   sodipodi:docname="restore.svg">
  <defs
     id="defs1061">
    <style
       id="current-color-scheme"
       type="text/css">
        .ColorScheme-Text {
            color:#232629;
        }
        .ColorScheme-Background {
            color:#eff0f1;
            stop-color:#eff0f1;
        }
        .ColorScheme-NegativeText {
            color:#da4453;
        }
    </style>
    <linearGradient
       inkscape:collect="always"
       id="buttonGlow">
      <stop
         style="stop-color:#18ff0c;stop-opacity:1;"
         offset="0"
         id="stop2024" />
      <stop
         style="stop-color:#18ff0c;stop-opacity:0;"
         offset="1"
         id="stop2026" />
    </linearGradient>
    <radialGradient
       r="0.39687499"
       fy="-47.624985"
       fx="74.083336"
       cy="-47.624985"
       cx="74.083336"
       gradientTransform="matrix(1.3333377,0,0,1.3333377,-119.68019,82.576777)"
       gradientUnits="userSpaceOnUse"
       id="radialGradient1532"
       xlink:href="#buttonGlow"
       inkscape:collect="always" />
    <radialGradient
       r="0.39687499"
       fy="-47.624985"
       fx="74.083336"
       cy="-47.624985"
       cx="74.083336"
       gradientTransform="matrix(1.3333377,0,0,1.3333377,-119.68019,82.576777)"
       gradientUnits="userSpaceOnUse"
       id="radialGradient1540"
       xlink:href="#buttonGlow"
       inkscape:collect="always" />
    <radialGradient
       inkscape:collect="always"
       xlink:href="#buttonGlow"
       id="radialGradient1718"
       gradientUnits="userSpaceOnUse"
       gradientTransform="matrix(1.3333377,0,0,1.3333377,-119.68019,82.576777)"
       cx="74.083336"
       cy="-47.624985"
       fx="74.083336"
       fy="-47.624985"
       r="0.39687499" />
    <radialGradient
       inkscape:collect="always"
       xlink:href="#buttonGlow"
       id="radialGradient1726"
       gradientUnits="userSpaceOnUse"
       gradientTransform="matrix(1.3333377,0,0,1.3333377,-119.68019,82.576777)"
       cx="74.083336"
       cy="-47.624985"
       fx="74.083336"
       fy="-47.624985"
       r="0.39687499" />
    <linearGradient
       inkscape:collect="always"
       id="buttonGlowReverse">
      <stop
         id="stop5907"
         offset="0"
         style="stop-color:#18ff0c;stop-opacity:0;" />
      <stop
         id="stop5905"
         offset="1"
         style="stop-color:#18ff0c;stop-opacity:1;" />
    </linearGradient>
    <radialGradient
       r="0.39687499"
       fy="-47.624985"
       fx="74.083336"
       cy="-47.624985"
       cx="74.083336"
       gradientTransform="matrix(1.3333377,0,0,1.3333377,-119.68019,82.576777)"
       gradientUnits="userSpaceOnUse"
       id="radialGradient1209"
       xlink:href="#buttonGlow"
       inkscape:collect="always" />
    <radialGradient
       r="0.39687499"
       fy="-47.624985"
       fx="74.083336"
       cy="-47.624985"
       cx="74.083336"
       gradientTransform="matrix(1.3333377,0,0,1.3333377,-119.68019,82.576777)"
       gradientUnits="userSpaceOnUse"
       id="radialGradient1217"
       xlink:href="#buttonGlow"
       inkscape:collect="always" />
    <radialGradient
       inkscape:collect="always"
       xlink:href="#buttonGlow"
       id="radialGradient1383"
       gradientUnits="userSpaceOnUse"
       gradientTransform="matrix(1.3333377,0,0,1.3333377,-119.68019,82.576777)"
       cx="74.083336"
       cy="-47.624985"
       fx="74.083336"
       fy="-47.624985"
       r="0.39687499" />
    <radialGradient
       inkscape:collect="always"
       xlink:href="#buttonGlow"
       id="radialGradient1391"
       gradientUnits="userSpaceOnUse"
       gradientTransform="matrix(1.3333377,0,0,1.3333377,-119.68019,82.576777)"
       cx="74.083336"
       cy="-47.624985"
       fx="74.083336"
       fy="-47.624985"
       r="0.39687499" />
    <radialGradient
       inkscape:collect="always"
       xlink:href="#buttonGlow"
       id="radialGradient1735"
       cx="29.104166"
       cy="-23.54793"
       fx="29.104166"
       fy="-23.54793"
       r="0.39687479"
       gradientTransform="matrix(2.0000011,0,0,2.0000011,-29.104197,23.547968)"
       gradientUnits="userSpaceOnUse" />
    <radialGradient
       inkscape:collect="always"
       xlink:href="#buttonGlowReverse"
       id="radialGradient1743"
       gradientUnits="userSpaceOnUse"
       gradientTransform="matrix(2.0000011,0,0,2.0000011,-28.575031,24.077135)"
       cx="29.104166"
       cy="-23.54793"
       fx="29.104166"
       fy="-23.54793"
       r="0.39687479" />
    <radialGradient
       inkscape:collect="always"
       xlink:href="#buttonGlow"
       id="radialGradient1767"
       cx="29.104166"
       cy="-23.54793"
       fx="29.104166"
       fy="-23.54793"
       r="0.39687479"
       gradientTransform="matrix(2.0000011,0,0,2.0000011,-29.104197,23.547968)"
       gradientUnits="userSpaceOnUse" />
    <radialGradient
       inkscape:collect="always"
       xlink:href="#buttonGlowReverse"
       id="radialGradient1775"
       gradientUnits="userSpaceOnUse"
       gradientTransform="matrix(2.0000011,0,0,2.0000011,-28.575031,24.077135)"
       cx="29.104166"
       cy="-23.54793"
       fx="29.104166"
       fy="-23.54793"
       r="0.39687479" />
    <radialGradient
       inkscape:collect="always"
       xlink:href="#buttonGlow"
       id="radialGradient1799"
       cx="29.104166"
       cy="-23.54793"
       fx="29.104166"
       fy="-23.54793"
       r="0.39687479"
       gradientTransform="matrix(2.0000011,0,0,2.0000011,-29.104197,23.547968)"
       gradientUnits="userSpaceOnUse" />
    <radialGradient
       inkscape:collect="always"
       xlink:href="#buttonGlowReverse"
       id="radialGradient1807"
       gradientUnits="userSpaceOnUse"
       gradientTransform="matrix(2.0000011,0,0,2.0000011,-28.575031,24.077135)"
       cx="29.104166"
       cy="-23.54793"
       fx="29.104166"
       fy="-23.54793"
       r="0.39687479" />
    <radialGradient
       inkscape:collect="always"
       xlink:href="#buttonGlow"
       id="radialGradient1831"
       cx="29.104166"
       cy="-23.54793"
       fx="29.104166"
       fy="-23.54793"
       r="0.39687479"
       gradientTransform="matrix(2.0000011,0,0,2.0000011,-29.104197,23.547968)"
       gradientUnits="userSpaceOnUse" />
    <radialGradient
       inkscape:collect="always"
       xlink:href="#buttonGlowReverse"
       id="radialGradient1839"
       gradientUnits="userSpaceOnUse"
       gradientTransform="matrix(2.0000011,0,0,2.0000011,-28.575031,24.077135)"
       cx="29.104166"
       cy="-23.54793"
       fx="29.104166"
       fy="-23.54793"
       r="0.39687479" />
    <radialGradient
       gradientUnits="userSpaceOnUse"
       gradientTransform="matrix(2.0000011,0,0,2.0000011,-29.104197,23.547968)"
       r="0.39687479"
       fy="-23.54793"
       fx="29.104166"
       cy="-23.54793"
       cx="29.104166"
       id="radialGradient2105"
       xlink:href="#buttonGlow"
       inkscape:collect="always" />
    <radialGradient
       r="0.39687479"
       fy="-23.54793"
       fx="29.104166"
       cy="-23.54793"
       cx="29.104166"
       gradientTransform="matrix(2.0000011,0,0,2.0000011,-28.575031,24.077135)"
       gradientUnits="userSpaceOnUse"
       id="radialGradient2113"
       xlink:href="#buttonGlowReverse"
       inkscape:collect="always" />
    <radialGradient
       gradientUnits="userSpaceOnUse"
       gradientTransform="matrix(2.0000011,0,0,2.0000011,-29.104197,23.547968)"
       r="0.39687479"
       fy="-23.54793"
       fx="29.104166"
       cy="-23.54793"
       cx="29.104166"
       id="radialGradient2137"
       xlink:href="#buttonGlow"
       inkscape:collect="always" />
    <radialGradient
       r="0.39687479"
       fy="-23.54793"
       fx="29.104166"
       cy="-23.54793"
       cx="29.104166"
       gradientTransform="matrix(2.0000011,0,0,2.0000011,-28.575031,24.077135)"
       gradientUnits="userSpaceOnUse"
       id="radialGradient2145"
       xlink:href="#buttonGlowReverse"
       inkscape:collect="always" />
    <radialGradient
       gradientUnits="userSpaceOnUse"
       gradientTransform="matrix(2.0000011,0,0,2.0000011,-29.104197,23.547968)"
       r="0.39687479"
       fy="-23.54793"
       fx="29.104166"
       cy="-23.54793"
       cx="29.104166"
       id="radialGradient2169"
       xlink:href="#buttonGlow"
       inkscape:collect="always" />
    <radialGradient
       r="0.39687479"
       fy="-23.54793"
       fx="29.104166"
       cy="-23.54793"
       cx="29.104166"
       gradientTransform="matrix(2.0000011,0,0,2.0000011,-28.575031,24.077135)"
       gradientUnits="userSpaceOnUse"
       id="radialGradient2177"
       xlink:href="#buttonGlowReverse"
       inkscape:collect="always" />
    <radialGradient
       gradientUnits="userSpaceOnUse"
       gradientTransform="matrix(2.0000011,0,0,2.0000011,-29.104197,23.547968)"
       r="0.39687479"
       fy="-23.54793"
       fx="29.104166"
       cy="-23.54793"
       cx="29.104166"
       id="radialGradient2201"
       xlink:href="#buttonGlow"
       inkscape:collect="always" />
    <radialGradient
       r="0.39687479"
       fy="-23.54793"
       fx="29.104166"
       cy="-23.54793"
       cx="29.104166"
       gradientTransform="matrix(2.0000011,0,0,2.0000011,-28.575031,24.077135)"
       gradientUnits="userSpaceOnUse"
       id="radialGradient2209"
       xlink:href="#buttonGlowReverse"
       inkscape:collect="always" />
  </defs>
  <sodipodi:namedview
     id="namedview1700"
     pagecolor="#bfbfbf"
     bordercolor="#666666"
     borderopacity="1.0"
     inkscape:pageopacity="0"
     inkscape:pageshadow="2"
     inkscape:zoom="2.8284273"
     inkscape:cx="75.807923"
     inkscape:cy="-73.313972"
     inkscape:document-units="px"
     inkscape:current-layer="layer1"
     inkscape:document-rotation="0"
     showgrid="true"
     inkscape:window-width="1920"
     inkscape:window-height="1003"
     inkscape:window-x="0"
     inkscape:window-y="0"
     inkscape:window-maximized="1"
     units="px"
     inkscape:object-paths="false"
     inkscape:snap-intersection-paths="false"
     inkscape:snap-smooth-nodes="true"
     inkscape:snap-midpoints="false"
     inkscape:snap-bbox="true"
     inkscape:bbox-nodes="true"
     inkscape:snap-nodes="true"
     inkscape:snap-grids="true">
    <inkscape:grid
       type="xygrid"
       id="grid1648" />
  </sodipodi:namedview>
  <metadata
     id="metadata1064">
    <rdf:RDF>
      <cc:Work
         rdf:about="">
        <dc:format>image/svg+xml</dc:format>
        <dc:type
           rdf:resource="http://purl.org/dc/dcmitype/StillImage" />
        <dc:title />
      </cc:Work>
    </rdf:RDF>
  </metadata>
  <g
     inkscape:label="Layer 1"
     inkscape:groupmode="layer"
     id="layer1">
    <g
       id="templateRaw">
      <use
         height="100%"
         width="100%"
         transform="translate(-4.2426758e-7,-10.31875)"
         id="use1219"
         xlink:href="#templateBase-2"
         y="0"
         x="0" />
      <use
         height="100%"
         width="100%"
         transform="translate(-5.7573242e-7,-10.583333)"
         id="use1221"
         xlink:href="#use1219"
         y="0"
         x="0" />
      <use
         height="100%"
         width="100%"
         transform="translate(4.2426758e-7,-10.054167)"
         id="use1223"
         xlink:href="#use1221"
         y="0"
         x="0" />
      <g
         transform="translate(13.229165,-43.391667)"
         id="templateBase-2">
        <rect
           style="opacity:0.5;fill:none;fill-opacity:1;stroke:#000000;stroke-width:0.529167;stroke-miterlimit:4;stroke-dasharray:none;stroke-opacity:1"
           id="rect1650-3-6-67-6-9"
           width="11.641667"
           height="7.4083333"
           x="-26.458332"
           y="28.310417" />
        <rect
           y="29.897917"
           x="-22.754166"
           height="4.2333331"
           width="4.2333331"
           id="rect1652-5-0-2-7-1"
           style="opacity:0.452525;fill:#000000;fill-opacity:1;stroke-width:0.160005" />
      </g>
      <use
         x="0"
         y="0"
         xlink:href="#use1219"
         id="use1589"
         transform="translate(13.229168)"
         width="100%"
         height="100%" />
      <use
         x="0"
         y="0"
         xlink:href="#use1221"
         id="use1591"
         transform="translate(13.229168)"
         width="100%"
         height="100%" />
      <use
         x="0"
         y="0"
         xlink:href="#use1223"
         id="use1593"
         transform="translate(13.229168)"
         width="100%"
         height="100%" />
      <use
         x="0"
         y="0"
         xlink:href="#templateBase-2"
         id="use1595"
         transform="translate(13.229168)"
         width="100%"
         height="100%" />
    </g>
    <g
       id="base"
       transform="matrix(1.1578947,0,0,0.87500005,-13.841886,-6.5153642)">
      <rect
         style="opacity:0.003;fill:#000000;fill-opacity:1;stroke-width:0.348723"
         id="rect896"
         width="10.054167"
         height="8.4666662"
         x="0.52916652"
         y="-9.7895832" />
    </g>
    <g
       transform="matrix(1.1578947,0,0,0.87500003,-13.841887,-8.0367179)"
       id="activated-base">
      <rect
         class="ColorScheme-Text"
         y="-19.84375"
         x="0.52916682"
         height="8.4666662"
         width="10.054167"
         id="rect986"
         style="opacity:0.1;fill:#ffffff;fill-opacity:1" />
    </g>
    <g
       transform="matrix(1.1578947,0,0,0.87500004,-13.841887,-9.3596336)"
       id="pressed-base">
      <rect
         class="ColorScheme-Text"
         style="opacity:0.25;fill:#ffffff;fill-opacity:1"
         id="rect1130"
         width="10.054167"
         height="8.4666662"
         x="0.52916682"
         y="-30.427084" />
    </g>
    <rect
       style="opacity:0.003;fill:#808080;fill-opacity:1;stroke-width:0.35101"
       id="disabled-base"
       width="11.641667"
       height="7.4083319"
       x="-13.229167"
       y="-46.037498" />
    <g
       id="templateIcons">
      <g
         id="iconTemplate">
        <rect
           y="-25.135416"
           x="19.314583"
           height="5.8208337"
           width="5.8208308"
           id="rect1511"
           style="opacity:0.30929;fill:#000000;fill-opacity:0.5;stroke:#000000;stroke-width:0.529167;stroke-miterlimit:4;stroke-dasharray:none;stroke-opacity:0.5" />
        <rect
           style="opacity:0.452525;fill:#000000;fill-opacity:1;stroke-width:0.160005"
           id="rect1652-5-5-3-5-1"
           width="4.2333322"
           height="4.2333322"
           x="20.108334"
           y="-24.341665" />
      </g>
      <use
         x="0"
         y="0"
         xlink:href="#iconTemplate"
         id="use1114"
         transform="translate(1.3345556e-6,8.2020834)"
         width="100%"
         height="100%" />
      <use
         x="0"
         y="0"
         xlink:href="#use1114"
         id="use1116"
         transform="translate(8.202083,-8.2020831)"
         width="100%"
         height="100%" />
      <use
         x="0"
         y="0"
         xlink:href="#use1116"
         id="use1118"
         transform="translate(3.9853556e-8,8.2020833)"
         width="100%"
         height="100%" />
      <use
         x="0"
         y="0"
         xlink:href="#iconTemplate"
         id="use1122"
         transform="translate(16.404167)"
         width="100%"
         height="100%" />
      <use
         x="0"
         y="0"
         xlink:href="#use1114"
         id="use1124"
         transform="translate(16.404167)"
         width="100%"
         height="100%" />
      <use
         x="0"
         y="0"
         xlink:href="#use1116"
         id="use1126"
         transform="translate(16.404167)"
         width="100%"
         height="100%" />
      <use
         x="0"
         y="0"
         xlink:href="#use1118"
         id="use1128"
         transform="translate(16.404167)"
         width="100%"
         height="100%" />
    </g>
    <use
       height="100%"
       width="100%"
       transform="translate(0,8.2020833)"
       id="icon-activated-neutral"
       xlink:href="#icon-activated"
       y="0"
       x="0" />
    <g
       id="finalized"
       transform="translate(1.3229154)">
      <use
         x="0"
         y="0"
         xlink:href="#templateBase-2"
         id="use1174"
         transform="translate(12.170835,15.345834)"
         width="100%"
         height="100%" />
      <use
         x="0"
         y="0"
         xlink:href="#templateBase-2"
         id="use1176"
         transform="translate(25.400001,15.345834)"
         width="100%"
         height="100%" />
      <use
         x="0"
         y="0"
         xlink:href="#templateBase-2"
         id="use1178"
         transform="translate(12.170842,26.9875)"
         width="100%"
         height="100%" />
      <use
         x="0"
         y="0"
         xlink:href="#templateBase-2"
         id="use1180"
         transform="translate(25.400008,26.9875)"
         width="100%"
         height="100%" />
      <use
         x="0"
         y="0"
         xlink:href="#templateBase-2"
         id="use1182"
         transform="translate(38.629168,15.345834)"
         width="100%"
         height="100%" />
      <use
         x="0"
         y="0"
         xlink:href="#templateBase-2"
         id="use1184"
         transform="translate(38.629175,26.9875)"
         width="100%"
         height="100%" />
      <use
         x="0"
         y="0"
         xlink:href="#templateBase-2"
         id="use1186"
         transform="translate(52.122918,15.345834)"
         width="100%"
         height="100%" />
      <use
         x="0"
         y="0"
         xlink:href="#templateBase-2"
         id="use1188"
         transform="translate(52.122925,26.9875)"
         width="100%"
         height="100%" />
    </g>
    <g
       id="icon-neutral"
       transform="translate(-2.1166685,-5.5562504)">
      <rect
         style="opacity:0.003;fill:#000000;fill-opacity:1;stroke-width:0.220007"
         id="rect1681-2"
         width="5.8208332"
         height="5.8208332"
         x="21.431252"
         y="-19.579166" />
      <path
         id="rect1258"
         style="fill:#ffffff;fill-opacity:1"
         d="M 83 -89 C 82.258933 -89 81.620953 -88.595801 81.275391 -88 L 86 -88 C 87.107999 -88 88 -87.107999 88 -86 L 88 -81.275391 C 88.595797 -81.620953 89 -82.258925 89 -83 L 89 -86 C 89 -87.661998 87.662002 -89 86 -89 L 83 -89 z M 81 -87 C 79.892001 -87 79 -86.108003 79 -85 L 79 -81 C 79 -79.891997 79.892001 -79 81 -79 L 85 -79 C 86.108003 -79 87 -79.891997 87 -81 L 87 -85 C 87 -86.108003 86.108003 -87 85 -87 L 81 -87 z M 81 -86 L 85 -86 C 85.554003 -86 86 -85.553999 86 -85 L 86 -81 C 86 -80.445997 85.554003 -80 85 -80 L 81 -80 C 80.446001 -80 80 -80.445997 80 -81 L 80 -85 C 80 -85.553999 80.446001 -86 81 -86 z "
         transform="matrix(0.26458333,0,0,0.26458333,2.1166685,5.5562504)"
         class="ColorScheme-Text" />
    </g>
    <use
       height="100%"
       width="100%"
       transform="translate(1.0647459e-7,8.2020833)"
       id="icon-pressed-neutral"
       xlink:href="#icon-pressed"
       y="0"
       x="0" />
    <use
       style="opacity:0.5"
       height="100%"
       width="100%"
       transform="translate(0,8.2020833)"
       id="icon-neutral-inactive"
       xlink:href="#icon-neutral"
       y="0"
       x="0" />
    <use
       height="100%"
       width="100%"
       transform="translate(4.1397458e-7,8.2020833)"
       id="icon-disabled-inactive"
       xlink:href="#icon-disabled"
       y="0"
       x="0" />
    <use
       height="100%"
       width="100%"
       transform="translate(13.229167)"
       id="activated-base-inactive"
       xlink:href="#activated-base"
       y="0"
       x="0" />
    <use
       height="100%"
       width="100%"
       transform="translate(13.229167)"
       id="pressed-base-inactive"
       xlink:href="#pressed-base"
       y="0"
       x="0" />
    <use
       height="100%"
       width="100%"
       transform="translate(13.229167)"
       id="disabled-base-inactive"
       xlink:href="#disabled-base"
       y="0"
       x="0" />
    <use
       height="100%"
       width="100%"
       transform="translate(13.229166)"
       id="base-inactive"
       xlink:href="#base"
       y="0"
       x="0" />
    <g
       id="hover-center"
       transform="translate(1.5874991,0.26458326)">
      <use
         x="0"
         y="0"
         xlink:href="#activated-base"
         id="use1628"
         transform="translate(25.135418,25.4)"
         width="100%"
         height="100%" />
      <use
         x="0"
         y="0"
         xlink:href="#icon-activated"
         id="use1634"
         transform="translate(-12.699999,25.929166)"
         width="100%"
         height="100%" />
    </g>
    <g
       id="hover-inactive-center"
       transform="translate(1.5874991,0.26458326)">
      <use
         x="0"
         y="0"
         xlink:href="#activated-base-inactive"
         id="use1618"
         transform="translate(11.906251,37.041667)"
         width="100%"
         height="100%" />
      <use
         x="0"
         y="0"
         xlink:href="#icon-activated-neutral"
         id="use1636"
         transform="translate(-12.699999,29.368749)"
         width="100%"
         height="100%" />
    </g>
    <g
       id="active-center"
       transform="translate(1.1906258)">
      <use
         x="0"
         y="0"
         xlink:href="#base"
         id="use1626"
         transform="translate(12.303124,15.345833)"
         width="100%"
         height="100%" />
      <use
         x="0"
         y="0"
         xlink:href="#icon-neutral"
         id="use1638"
         transform="translate(-17.330209,26.19375)"
         width="100%"
         height="100%" />
    </g>
    <g
       id="pressed-center"
       transform="translate(1.5874991,0.26458326)">
      <use
         x="0"
         y="0"
         xlink:href="#pressed-base"
         id="use1630"
         transform="translate(38.364585,35.983333)"
         width="100%"
         height="100%" />
      <use
         x="0"
         y="0"
         xlink:href="#icon-pressed"
         id="use1640"
         transform="translate(-7.6729152,25.929166)"
         width="100%"
         height="100%" />
    </g>
    <g
       id="pressed-inactive-center"
       transform="translate(1.5874991,0.26458326)">
      <use
         x="0"
         y="0"
         xlink:href="#pressed-base-inactive"
         id="use1620"
         transform="translate(25.135417,47.625)"
         width="100%"
         height="100%" />
      <use
         x="0"
         y="0"
         xlink:href="#icon-pressed-neutral"
         id="use1642"
         transform="translate(-7.6729153,29.368749)"
         width="100%"
         height="100%" />
    </g>
    <g
       id="inactive-center"
       transform="translate(1.1906257)">
      <use
         x="0"
         y="0"
         xlink:href="#base-inactive"
         id="use1624"
         transform="translate(-0.92604195,26.9875)"
         width="100%"
         height="100%" />
      <use
         x="0"
         y="0"
         xlink:href="#icon-neutral-inactive"
         id="use1644"
         transform="translate(-17.330209,29.633333)"
         width="100%"
         height="100%" />
    </g>
    <g
       id="deactivated-center"
       transform="translate(1.5874991,0.26458326)">
      <use
         x="0"
         y="0"
         xlink:href="#disabled-base"
         id="use1632"
         transform="translate(51.858334,46.0375)"
         width="100%"
         height="100%" />
      <use
         x="0"
         y="0"
         xlink:href="#icon-disabled"
         id="use1646"
         transform="translate(-2.3812487,25.929167)"
         width="100%"
         height="100%" />
    </g>
    <g
       id="deactivated-inactive-center"
       transform="translate(1.5874991,0.26458326)">
      <use
         x="0"
         y="0"
         xlink:href="#disabled-base-inactive"
         id="use1622"
         transform="translate(38.629167,57.679168)"
         width="100%"
         height="100%" />
      <use
         x="0"
         y="0"
         xlink:href="#icon-disabled-inactive"
         id="use1648"
         transform="translate(-2.3812497,29.36875)"
         width="100%"
         height="100%" />
    </g>
    <g
       id="icon-activated">
      <rect
         style="opacity:0.003;fill:#000000;fill-opacity:1;stroke-width:0.220007"
         id="rect1681-2-6-9"
         width="5.8208327"
         height="5.8208327"
         x="27.516666"
         y="-25.135416" />
      <path
         class="ColorScheme-Text"
         d="m 30.1625,-23.547916 c -0.196074,0 -0.364873,0.106944 -0.456303,0.264583 h 1.250053 c 0.293158,0 0.529167,0.236009 0.529167,0.529167 v 1.250052 C 31.643055,-21.595544 31.75,-21.76434 31.75,-21.960416 v -0.79375 c 0,-0.439737 -0.354012,-0.79375 -0.79375,-0.79375 z m -0.529167,0.529166 c -0.293158,0 -0.529166,0.236008 -0.529166,0.529167 v 1.058333 c 0,0.293159 0.236008,0.529167 0.529166,0.529167 h 1.058334 c 0.293159,0 0.529166,-0.236008 0.529166,-0.529167 v -1.058333 c 0,-0.293159 -0.236007,-0.529167 -0.529166,-0.529167 z m 0,0.264584 h 1.058334 c 0.14658,0 0.264583,0.118004 0.264583,0.264583 v 1.058333 c 0,0.14658 -0.118003,0.264584 -0.264583,0.264584 h -1.058334 c -0.146579,0 -0.264583,-0.118004 -0.264583,-0.264584 v -1.058333 c 0,-0.146579 0.118004,-0.264583 0.264583,-0.264583 z"
         style="fill:#ffffff;fill-opacity:1"
         id="rect1258-53" />
    </g>
    <g
       transform="translate(8.2020827)"
       id="icon-pressed">
      <rect
         y="-25.135416"
         x="27.516666"
         height="5.8208318"
         width="5.8208318"
         id="rect1681-2-6-9-6"
         style="opacity:0.003;fill:#000000;fill-opacity:1;stroke-width:0.220007" />
      <path
         class="ColorScheme-Text"
         d="m 30.162501,-23.547917 c -0.196074,0 -0.364873,0.106944 -0.456303,0.264583 h 1.250053 c 0.293158,0 0.529167,0.236009 0.529167,0.529167 v 1.250053 c 0.157638,-0.09143 0.264583,-0.260227 0.264583,-0.456303 v -0.79375 c 0,-0.439737 -0.354012,-0.79375 -0.79375,-0.79375 z m -0.529166,0.529167 c -0.293158,0 -0.529167,0.236007 -0.529167,0.529166 v 1.058334 c 0,0.293159 0.236009,0.529166 0.529167,0.529166 h 1.058333 c 0.293159,0 0.529167,-0.236007 0.529167,-0.529166 v -1.058334 c 0,-0.293159 -0.236008,-0.529166 -0.529167,-0.529166 z m 0,0.264583 h 1.058333 c 0.14658,0 0.264583,0.118004 0.264583,0.264583 v 1.058334 c 0,0.14658 -0.118003,0.264583 -0.264583,0.264583 h -1.058333 c -0.146579,0 -0.264584,-0.118003 -0.264584,-0.264583 v -1.058334 c 0,-0.146579 0.118005,-0.264583 0.264584,-0.264583 z"
         style="fill:#ffffff;fill-opacity:1"
         id="rect1258-56" />
    </g>
    <g
       transform="translate(22.489581,-5.5562504)"
       id="icon-disabled">
      <rect
         y="-19.579166"
         x="21.431252"
         height="5.8208332"
         width="5.8208332"
         id="rect1681-2-9"
         style="opacity:0.003;fill:#000000;fill-opacity:1;stroke-width:0.220007" />
      <path
         class="ColorScheme-Text"
         d="m 24.077085,-17.991666 c -0.196074,0 -0.364873,0.106944 -0.456302,0.264583 h 1.250052 c 0.293158,0 0.529167,0.236009 0.529167,0.529167 v 1.250053 c 0.157638,-0.09143 0.264583,-0.260227 0.264583,-0.456303 v -0.79375 c 0,-0.439737 -0.354012,-0.79375 -0.79375,-0.79375 z m -0.529166,0.529166 c -0.293158,0 -0.529167,0.236008 -0.529167,0.529167 V -15.875 c 0,0.29316 0.236009,0.529167 0.529167,0.529167 h 1.058333 c 0.293159,0 0.529167,-0.236007 0.529167,-0.529167 v -1.058333 c 0,-0.293159 -0.236008,-0.529167 -0.529167,-0.529167 z m 0,0.264584 h 1.058333 c 0.14658,0 0.264583,0.118004 0.264583,0.264583 V -15.875 c 0,0.14658 -0.118003,0.264584 -0.264583,0.264584 h -1.058333 c -0.146579,0 -0.264584,-0.118004 -0.264584,-0.264584 v -1.058333 c 0,-0.146579 0.118005,-0.264583 0.264584,-0.264583 z"
         style="fill:#ffffff;opacity:0.1;fill-opacity:1"
         id="rect1258-2" />
    </g>
  </g>
</svg>
