<svg width="16" height="16" version="1" xmlns="http://www.w3.org/2000/svg" xmlns:xlink="http://www.w3.org/1999/xlink">
 <defs>
  <style id="k" type="text/css">.ColorScheme-Highlight { color:#3daee9; } .ColorScheme-Background { color:#eff0f1; } .ColorScheme-Text { color:#31363b; }</style>
  <linearGradient id="g" x1="71" x2="65" y1="35" y2="30" gradientUnits="userSpaceOnUse">
   <stop offset="0"/>
   <stop style="stop-opacity:0" offset="1"/>
  </linearGradient>
  <linearGradient id="h" x1="66" x2="70.821" y1="31" y2="32.504" gradientUnits="userSpaceOnUse" xlink:href="#c"/>
  <linearGradient id="c">
   <stop offset="0"/>
   <stop style="stop-opacity:.50196" offset=".49747"/>
   <stop style="stop-opacity:0" offset="1"/>
  </linearGradient>
  <linearGradient id="f" x1="65.826" x2="68.948" y1="27.686" y2="33.929" gradientTransform="matrix(0 .6408 -.6408 0 88.134 -10.312)" gradientUnits="userSpaceOnUse" xlink:href="#c"/>
  <linearGradient id="e" x1="66.393" x2="71.242" y1="30.869" y2="32.711" gradientUnits="userSpaceOnUse" xlink:href="#b"/>
  <linearGradient id="b">
   <stop style="stop-color:#fff" offset="0"/>
   <stop style="stop-color:#fff;stop-opacity:0" offset="1"/>
  </linearGradient>
  <linearGradient id="d" x1="66.46" x2="71.242" y1="32.711" y2="32.711" gradientTransform="rotate(105 68.851 32.711)" gradientUnits="userSpaceOnUse" xlink:href="#b"/>
 </defs>
 <g transform="matrix(.74468 0 0 .74468 -.22866 -.63835)">
  <path d="m3 3.5429h16.107l-1.3429 16.114h-13.429z" style="fill:#d3d9df;opacity:.85;paint-order:markers stroke fill;stroke-linecap:round;stroke-linejoin:round;stroke-width:2"/>
  <use transform="translate(-48.66 15.401)" width="100%" height="100%" xlink:href="#i"/>
  <path d="m2.9928 3.5429 1.3429 16.114h1.3429l-1.3429-16.114zm14.771 0-1.3429 16.114h1.3429l1.3429-16.114z" style="fill:#d3d9df;paint-order:markers stroke fill;stroke-linecap:round;stroke-linejoin:round;stroke-width:2"/>
  <path d="m2.9928 3.5429h16.114l-1.3429 16.114h-13.429z" style="fill:#d3d9df;opacity:.1;paint-order:markers stroke fill;stroke-linecap:round;stroke-linejoin:round;stroke-width:2"/>
 </g>
 <g transform="matrix(.74468 0 0 .75 -.22866 -1)">
  <path d="m9.3008 8-0.5957 1.2148 1.7559 0.86328 0.53906-1.0781 1.1992 2.4004 1.7422-0.87109-1.2422-2.5293zm-1.2422 2.5293-1.3594 2.7715 1.3008 2.6992h2.0137l-0.013672-2h-1.5l1.3008-2.5996zm6.5273 1.3164-1.7246 0.87891 0.63867 1.2754h-1.5v2h2l1.3008-2.6992z" style="fill:#0253de;paint-order:markers stroke fill;stroke-linecap:round;stroke-linejoin:round;stroke-width:2"/>
  <path d="m10.51 8 1.6895 3.4004 1.2918 0.46949 0.45037-1.3406-1.2422-2.5293z" style="fill:#0460ff;paint-order:markers stroke fill;stroke-linecap:round;stroke-linejoin:round;stroke-width:2"/>
  <path d="m12 14-1 1 1 1h2l0.96289-2z" style="fill:#0460ff;paint-order:markers stroke fill;stroke-linecap:round;stroke-linejoin:round;stroke-width:2"/>
  <path d="m8.0586 10.529-1.3594 2.7715 1.0625 2.2051 2.0391-4.1055-0.40138-1.3208z" style="fill:#0460ff;paint-order:markers stroke fill;stroke-linecap:round;stroke-linejoin:round;stroke-width:2"/>
 </g>
 <path d="m1.5 1c-0.277 0-0.5 0.223-0.5 0.5s0.223 0.5 0.5 0.5h13c0.277 0 0.5-0.223 0.5-0.5s-0.223-0.5-0.5-0.5h-13zm1.5 13c0 0.554 0.446 1 1 1h8c0.554 0 1-0.446 1-1h-10z" style="fill:#9f9f9f;paint-order:markers stroke fill"/>
 <g id="i" transform="translate(49,-16)">
  <use transform="translate(-43 7)" width="100%" height="100%" xlink:href="#a"/>
  <use transform="rotate(-90,36.5,38.5)" width="100%" height="100%" xlink:href="#a"/>
  <use transform="translate(-46.264 3.1366)" width="100%" height="100%" xlink:href="#a"/>
  <use transform="translate(-49.555 2.0936)" width="100%" height="100%" xlink:href="#a"/>
  <use transform="translate(-43.706 -.21301)" width="100%" height="100%" xlink:href="#a"/>
  <use transform="rotate(-60 30.263 50.15)" width="100%" height="100%" xlink:href="#a"/>
 </g>
 <g id="j" transform="translate(-11.393 -13.869)">
  <path d="m68.922 29.416c-0.1848 0.01017-0.37093 0.08588-0.52539 0.1875-0.1905 0.25243-0.39212 0.05756-0.58203-0.0918-0.25565 0.03865-0.21269 0.35868-0.24219 0.58008-0.16827 0.05012-0.34277 0.08818-0.50781 0.15039-0.17687 0.01889-0.2173 0.31362-0.35352 0.18555-0.39994-0.34452-0.48643-0.17498-0.88477 0.09375-0.18589 0.17238 0.32454 0.47507-0.09766 0.49414-0.08723 0.21384-0.01202 0.45953 0.07227 0.67383-0.04916 0.05161-0.10922 0.09613-0.18359 0.12891-0.2535 0.06601-0.54423 0.36276-0.20117 0.52734 0.03527 0.29408 0.0056 0.59793 0.03516 0.89648-0.03394 0.21663 0.30339 0.36109 0.10742 0.48242-0.53782 0.36629-0.36476 0.52199-0.17188 1.082 0.14595 0.27634 0.67059-0.23536 0.55859 0.27344 0.26001 0.19729 0.64106 0.15544 0.94922 0.11523 0.17239-5e-3 0.18826-0.11156 0.18555-0.22461 0.06746 0.07575 0.14094 0.13245 0.21875 0.12891 0.02541 0.17255 0.06596 0.32492 0.28906 0.29688 0.25341-0.1072 0.50822-0.18719 0.75586-0.06836 0.27591-0.1721 0.35159 0.11441 0.4707 0.27734 0.3307 0.04253 0.45395-0.48822 0.80469-0.37109 0.38321 0.15969 0.71003-0.18476 1.0332-0.33398 0.2433-0.09813 0.855-0.22064 0.60352-0.58984-0.26317-0.27275 0.01515-0.65383 0.13867-0.92774 0.23465-0.30992 0.26991-0.76838-0.11523-0.97461 0.13386-0.35774 0.35917 0.45043 0.5918 0.24024 0.0731-0.28719-0.30882-0.4854-0.24609-0.79102 0.07387-0.3237-0.19559-0.58606-0.52148-0.48633-0.39215 0.1075-0.47038-0.30353-0.14258-0.45312 0.21686-0.36363-0.39657-0.38212-0.60742-0.48828-0.37054-0.26237-0.63759-0.64725-1.0176-0.89844-0.12674-0.08992-0.27033-0.12314-0.41406-0.11523z" style="fill:#fff;paint-order:markers stroke fill"/>
  <path d="m65.387 34.807c0.14595 0.27634 0.67084-0.23603 0.55885 0.27276 0.26 0.19729 0.63994 0.15553 0.9481 0.11532 0.34479-0.01002 0.06239-0.42748 0.26071-0.48695 0.23662 0.15325 0.01345 0.74118 0.43309 0.68844 0.25341-0.1072 0.50861-0.1871 0.75625-0.06826 0.27591-0.1721 0.35188 0.11391 0.47099 0.27684 0.3307 0.04253 0.45326-0.4879 0.804-0.37077 0.38321 0.15969 0.70955-0.18514 1.0327-0.33436 0.2433-0.09813 0.8546-0.22151 0.60312-0.59071-0.26317-0.27275 0.01546-0.65296 0.13898-0.92686 0.23465-0.30992 0.27074-0.76903-0.1144-0.97526 0.13386-0.35774 0.35885 0.45199 0.59148 0.24179 0.0731-0.28718-0.30825-0.48547-0.24552-0.79108 0.07387-0.3237-0.19659-0.58758-0.52248-0.48785-0.39215 0.1075-0.46946-0.30353-0.14166-0.45312 0.21686-0.36363-0.39634-0.38112-0.60718-0.48728-0.37054-0.26237-0.63946-0.64852-1.0194-0.89971-0.28969-0.20553-0.66417-0.10692-0.93877 0.07374-0.1905 0.25243-0.39137 0.0573-0.58127-0.09206-0.28848 0.04361-0.19627 0.44663-0.25757 0.66052-0.12599 0.29634-0.17929 0.75875-0.55738 0.82744-0.26444-0.09141-0.50372-0.63348-0.78466-0.20826-0.22486 0.32668-0.18549 0.84471-0.59735 1.0263-0.2535 0.06601-0.54408 0.36321-0.20102 0.5278 0.03527 0.29408 0.0039 0.59846 0.0335 0.89702-0.03394 0.21663 0.30504 0.36052 0.10908 0.48185-0.53782 0.36629-0.36502 0.5227-0.17213 1.0827z" style="fill:url(#g);opacity:.10309;paint-order:markers stroke fill"/>
  <path d="m65.826 30.521c-0.18589 0.17238 0.3258 0.4761-0.0964 0.49517-0.1 0.24516 0.01249 0.5341 0.1087 0.76712 0.08021 0.26807 0.34806-0.04087 0.4363 0.10204-0.0704 0.21758-0.57795 0.16616-0.44851 0.4839 0.1372 0.17606 0.25339 0.35926 0.21226 0.57825 0.19278 0.18007-0.01537 0.29964-0.11804 0.42718 0.03611 0.26805 0.47747 0.25273 0.45933 0.55215-0.04467 0.3338 0.29404 0.51711 0.47883 0.73901 0.12797 0.17004 0.353 0.62313 0.5895 0.34856 0.15847-0.26348 0.51489-0.12498 0.75545-0.0857 0.29211 0.11879 0.65944 0.05068 0.74017-0.29441 0.30842 0.02978-0.27883 0.37608-0.06528 0.51423 0.24038-3e-3 0.31568-0.34347 0.56832-0.35848 0.26915-0.01009 0.41914-0.27741 0.27256-0.51183-0.16657-0.28471 0.13927-0.43159 0.32531-0.20614 0.33046 0.09358 0.21542-0.39058 0.25434-0.57808 0.12779-0.34543 0.3739-0.63722 0.49095-0.98771 0.10022-0.27015-0.05566-0.54287-0.25488-0.72011-0.2378-0.09627-0.12707-0.29463-0.04991-0.4748-0.09474-0.21689-0.39118-0.06002-0.57165-0.06315-0.25866-0.0365-0.63218 0.01882-0.76539-0.26302 0.0161-0.2264 0.39062-0.5277-0.0016-0.65857-0.30319-0.10761-0.70084 0.03201-0.92957-0.2526-0.10495-0.18478-0.39884-0.35007-0.45578-0.0467-0.22303 0.08938-0.46811 0.12874-0.69584 0.21459-0.17687 0.01889-0.21845 0.31472-0.35466 0.18664-0.39993-0.34452-0.48621-0.17627-0.88455 0.09246z" style="fill:url(#h);opacity:.10309;paint-order:markers stroke fill"/>
  <path d="m69.873 30.357c-0.12751 7e-3 -0.2488 0.0859-0.33398 0.18164-0.06169 0.15238-0.18728 0.08264-0.30273 0.0332-0.13898 0.06071-0.03901 0.24959-0.04102 0.36523-0.02339 0.16575 0.01264 0.40488-0.16797 0.49023-0.14508-0.01032-0.33802-0.24935-0.42188 2e-3 -0.04603 0.12967-0.02189 0.2865-0.05469 0.41992-0.11247-0.05476-0.27969 0.2077-0.29102-0.04297-0.15709-0.06408-0.34287 0.0087-0.49219 0.07031-0.17178 0.0514 0.02517 0.22275-0.06641 0.2793-0.13943-0.04511-0.10498-0.37005-0.30859-0.28711-0.11282 0.08792-0.23076 0.16112-0.37109 0.13476-0.11538 0.12353-0.19171-0.0084-0.27344-0.07422-0.17177 0.02314-0.16165 0.30459-0.35352 0.29297-0.2139-0.02863-0.33242 0.18823-0.47461 0.30664-0.10896 0.082-0.3986 0.22736-0.22266 0.37891 0.16884 0.10154 0.07986 0.33022 0.05469 0.48438-0.07612 0.18718-0.03364 0.42288 0.1875 0.47461-0.01908 0.19764-0.2396-0.17981-0.32812-0.04297 0.0019 0.15403 0.2189 0.20334 0.22852 0.36523 0.0065 0.17247 0.17791 0.26775 0.32812 0.17383 0.18244-0.10674 0.27728 0.08977 0.13281 0.20898-0.05997 0.21176 0.25094 0.13718 0.37109 0.16211 0.22135 0.08189 0.40822 0.23945 0.63281 0.31445 0.17311 0.06422 0.34736-0.03445 0.46094-0.16211 0.06169-0.15238 0.18924-0.08264 0.30469-0.0332 0.13898-0.06071 0.03705-0.24959 0.03906-0.36524 0.02339-0.16575-0.01068-0.40488 0.16992-0.49023 0.14508 0.01032 0.33802 0.24936 0.42188-2e-3 0.04606-0.12977 0.02177-0.28644 0.05469-0.41992 0.11246 0.0513 0.27975-0.20644 0.29102 0.04297 0.15709 0.06408 0.34287-0.0087 0.49219-0.07031 0.17178-0.0514-0.02713-0.22275 0.06445-0.2793 0.13943 0.04511 0.10694 0.37005 0.31055 0.28711 0.11282-0.08792 0.23076-0.16112 0.37109-0.13477 0.11538-0.12353 0.19171 0.0084 0.27344 0.07422 0.17177-0.02314 0.16164-0.30459 0.35352-0.29297 0.2139 0.02863 0.33046-0.19019 0.47266-0.30859 0.10896-0.082 0.40055-0.22541 0.22461-0.37695-0.16884-0.10154-0.07986-0.33022-0.05469-0.48438 0.07612-0.18718 0.03168-0.42288-0.18945-0.47461 0.01908-0.19764 0.24155 0.17981 0.33008 0.04297-0.0019-0.15403-0.22085-0.20334-0.23047-0.36523-0.0065-0.17247-0.17791-0.26775-0.32812-0.17383-0.18244 0.10674-0.27728-0.08977-0.13281-0.20898 0.05997-0.21176-0.24899-0.13718-0.36914-0.16211-0.22135-0.08189-0.40822-0.23945-0.63281-0.31445-0.04328-0.01606-0.0864-0.02186-0.12891-0.01953z" style="fill:url(#f);opacity:.10309;paint-order:markers stroke fill"/>
  <path d="m66.586 30.862c-0.17328 0.16069 0.3037 0.4438-0.08987 0.46158-0.09322 0.22852 0.01169 0.49787 0.10133 0.71508 0.07476 0.24988 0.32444-0.0381 0.4067 0.09513-0.06562 0.20282-0.53874 0.15488-0.41809 0.45108 0.1279 0.16412 0.2362 0.33488 0.19786 0.53902 0.1797 0.16785-0.01433 0.27931-0.11003 0.3982 0.03367 0.24987 0.44508 0.23558 0.42817 0.51469-0.04163 0.31116 0.2741 0.48203 0.44634 0.68888 0.11928 0.1585 0.32906 0.58086 0.5495 0.32492 0.14772-0.2456 0.47996-0.1165 0.7042-0.07989 0.2723 0.11073 0.6147 0.04724 0.68996-0.27444 0.2875 0.02776-0.25991 0.35057-0.06085 0.47935 0.22407-0.0027 0.29427-0.32017 0.52977-0.33416 0.2509-0.0094 0.39071-0.25859 0.25408-0.47711-0.15527-0.26539 0.12982-0.40231 0.30324-0.19216 0.30805 0.08723 0.20081-0.36408 0.23708-0.53887 0.11912-0.322 0.34854-0.594 0.45764-0.92071 0.09342-0.25182-0.05188-0.50605-0.23759-0.67126-0.22166-0.08973-0.11845-0.27465-0.04653-0.44259-0.08831-0.20217-0.36464-0.05595-0.53287-0.05886-0.24111-0.03402-0.5893 0.01754-0.71347-0.24518 0.01501-0.21105 0.36412-0.49191-0.0016-0.61389-0.28262-0.1003-0.6533 0.02984-0.86651-0.23546-0.09783-0.17224-0.37178-0.32632-0.42486-0.04353-0.2079 0.08332-0.43636 0.12001-0.64864 0.20003-0.16487 0.01761-0.20363 0.29337-0.3306 0.17398-0.3728-0.32115-0.45323-0.16431-0.82454 0.08619z" style="fill:url(#e);paint-order:markers stroke fill"/>
  <path d="m71.223 31.002c-0.11037-0.20896-0.50728 0.17848-0.42259-0.20627-0.19661-0.14919-0.48393-0.11756-0.71694-0.0872-0.26072 0.0075-0.04717 0.32325-0.19715 0.36822-0.17893-0.11588-0.01017-0.56047-0.3275-0.52059-0.19163 0.08106-0.38461 0.14148-0.57186 0.05161-0.20864 0.13014-0.26608-0.08613-0.35616-0.20934-0.25007-0.03215-0.34275 0.36894-0.60798 0.28037-0.28978-0.12074-0.53655 0.14-0.78092 0.25284-0.18398 0.07419-0.64624 0.1675-0.45607 0.44668 0.199 0.20625-0.01169 0.49376-0.10509 0.70088-0.17743 0.23436-0.20473 0.58153 0.08651 0.73748-0.10122 0.27052-0.27135-0.34179-0.44726-0.18284-0.05539 0.21714 0.2331 0.3671 0.18566 0.59821-0.05586 0.24478 0.14866 0.44432 0.39509 0.3689 0.29654-0.08129 0.355 0.22952 0.10712 0.34264-0.16399 0.27497 0.2997 0.2882 0.45914 0.36847 0.2802 0.1984 0.48355 0.4904 0.77089 0.68034 0.21906 0.15541 0.50223 0.08086 0.70988-0.05576 0.14404-0.19089 0.29594-0.04333 0.43955 0.06961 0.21814-0.03297 0.14842-0.33774 0.19477-0.49948 0.09527-0.22409 0.13558-0.57376 0.42149-0.6257 0.19997 0.06912 0.3809 0.47903 0.59339 0.15734 0.17003-0.24703 0.14026-0.63876 0.45171-0.77604 0.19169-0.04992 0.41142-0.27466 0.15201-0.39912-0.02667-0.22238-3e-3 -0.45255-0.02534-0.67831 0.02566-0.16381-0.23067-0.27262-0.08249-0.36437 0.4067-0.27698 0.27602-0.39526 0.13016-0.81876z" style="fill:url(#d);opacity:.13981;paint-order:markers stroke fill"/>
 </g>
 <g id="a" transform="translate(4 -4)">
  <rect x="50" y="10" width="7" height="7" style="opacity:.003;paint-order:markers stroke fill"/>
  <use transform="translate(-3.6027 -5.0741)" width="100%" height="100%" xlink:href="#j"/>
 </g>
</svg>
