<?xml version="1.0" encoding="UTF-8" standalone="no"?>
<svg
   width="14"
   height="14"
   version="1"
   id="svg14"
   sodipodi:docname="16.svg"
   inkscape:version="1.1.1 (3bf5ae0d25, 2021-09-20, custom)"
   xmlns:inkscape="http://www.inkscape.org/namespaces/inkscape"
   xmlns:sodipodi="http://sodipodi.sourceforge.net/DTD/sodipodi-0.dtd"
   xmlns:xlink="http://www.w3.org/1999/xlink"
   xmlns="http://www.w3.org/2000/svg"
   xmlns:svg="http://www.w3.org/2000/svg">
  <defs
     id="defs18">
    <linearGradient
       inkscape:collect="always"
       id="linearGradient1711">
      <stop
         style="stop-color:#ff75f5;stop-opacity:1"
         offset="0"
         id="stop1707" />
      <stop
         style="stop-color:#c700bd;stop-opacity:1"
         offset="1"
         id="stop1709" />
    </linearGradient>
    <linearGradient
       inkscape:collect="always"
       xlink:href="#linearGradient1711"
       id="linearGradient1713"
       x1="4"
       y1="4"
       x2="18"
       y2="18"
       gradientUnits="userSpaceOnUse"
       gradientTransform="translate(-4,-4)" />
  </defs>
  <sodipodi:namedview
     id="namedview16"
     pagecolor="#ffffff"
     bordercolor="#666666"
     borderopacity="1.0"
     inkscape:pageshadow="2"
     inkscape:pageopacity="0.0"
     inkscape:pagecheckerboard="0"
     showgrid="true"
     inkscape:zoom="9.610224"
     inkscape:cx="0.62433508"
     inkscape:cy="4.3183177"
     inkscape:window-width="1440"
     inkscape:window-height="823"
     inkscape:window-x="0"
     inkscape:window-y="768"
     inkscape:window-maximized="1"
     inkscape:current-layer="svg14"
     inkscape:snap-smooth-nodes="true"
     fit-margin-top="0"
     fit-margin-left="0"
     fit-margin-right="0"
     fit-margin-bottom="0">
    <inkscape:grid
       type="xygrid"
       id="grid847"
       originx="-4"
       originy="-4" />
  </sodipodi:namedview>
  <rect
     style="opacity:1;fill:url(#linearGradient1713);fill-opacity:1;stroke-width:0.318182;stroke-linecap:round;stroke-linejoin:round;stroke-opacity:0.2;paint-order:markers stroke fill"
     id="rect1013"
     width="14"
     height="14"
     x="0"
     y="0"
     rx="2"
     ry="2" />
  <g
     id="rect1737"
     transform="translate(-4,-4)">
    <path
       d="M 8,5.75 C 6.7578256,5.75 5.75,6.7578256 5.75,8 5.75,9.2421744 6.7578256,10.25 8,10.25 9.2421744,10.25 10.25,9.2421744 10.25,8 10.25,6.7578256 9.2421744,5.75 8,5.75 Z m 5.498047,4 C 13.407817,9.7506991 13.32496,9.799964 13.28125,9.8789063 L 10.925781,14.119141 8.65625,12.304688 c -0.09944,-0.08042 -0.2435367,-0.07284 -0.3339844,0.01758 l -3.5,3.5 C 4.7755,15.869544 4.7494945,15.933503 4.75,16 c 0,0.688175 0.561825,1.25 1.25,1.25 h 10 c 0.688175,0 1.25,-0.561825 1.25,-1.25 8.8e-5,-0.04386 -0.01136,-0.08697 -0.0332,-0.125 l -3.5,-6 C 13.671739,9.7969542 13.588164,9.7491975 13.498047,9.75 Z"
       id="path6181"
       sodipodi:nodetypes="ssssscccccccsscccc"
       style="opacity:0.2" />
    <path
       d="M 8,6 C 6.892,6 6,6.892 6,8 6,9.108 6.892,10 8,10 9.108,10 10,9.108 10,8 10,6.892 9.108,6 8,6 Z M 13.5,10 11,14.5 8.5,12.5 5,16 c 0,0.554 0.446,1 1,1 h 10 c 0.554,0 1,-0.446 1,-1 z"
       id="path6183"
       style="fill:#ffffff;fill-opacity:1" />
  </g>
</svg>
