<?xml version="1.0" encoding="UTF-8" standalone="no"?>
<svg
   width="64"
   height="64"
   version="1"
   id="svg14"
   sodipodi:docname="folder-pictures.svg"
   inkscape:version="1.1.1 (3bf5ae0d25, 2021-09-20, custom)"
   xmlns:inkscape="http://www.inkscape.org/namespaces/inkscape"
   xmlns:sodipodi="http://sodipodi.sourceforge.net/DTD/sodipodi-0.dtd"
   xmlns:xlink="http://www.w3.org/1999/xlink"
   xmlns="http://www.w3.org/2000/svg"
   xmlns:svg="http://www.w3.org/2000/svg">
  <defs
     id="defs18">
    <linearGradient
       inkscape:collect="always"
       id="linearGradient1711">
      <stop
         style="stop-color:#ff75f5;stop-opacity:1"
         offset="0"
         id="stop1707" />
      <stop
         style="stop-color:#c700bd;stop-opacity:1"
         offset="1"
         id="stop1709" />
    </linearGradient>
    <linearGradient
       inkscape:collect="always"
       xlink:href="#linearGradient1711"
       id="linearGradient1011"
       x1="72"
       y1="70"
       x2="27"
       y2="13"
       gradientUnits="userSpaceOnUse" />
  </defs>
  <sodipodi:namedview
     id="namedview16"
     pagecolor="#ffffff"
     bordercolor="#666666"
     borderopacity="1.0"
     inkscape:pageshadow="2"
     inkscape:pageopacity="0.0"
     inkscape:pagecheckerboard="0"
     showgrid="true"
     inkscape:zoom="4.671875"
     inkscape:cx="24.722408"
     inkscape:cy="34.568562"
     inkscape:window-width="1440"
     inkscape:window-height="823"
     inkscape:window-x="0"
     inkscape:window-y="768"
     inkscape:window-maximized="1"
     inkscape:current-layer="svg14"
     inkscape:snap-global="true"
     inkscape:snap-bbox="true"
     inkscape:snap-bbox-edge-midpoints="false"
     inkscape:bbox-nodes="true"
     inkscape:snap-smooth-nodes="true">
    <inkscape:grid
       type="xygrid"
       id="grid835" />
  </sodipodi:namedview>
  <rect
     x="4"
     y="43"
     width="56"
     height="9"
     rx="2.8"
     ry="2.8"
     opacity="0.2"
     id="rect2" />
  <path
     id="path4"
     d="M 6.8007812,8 C 5.2495813,8 4,9.2495819 4,10.800781 V 48.199219 C 4,49.750419 5.2495813,51 6.8007812,51 H 57.199219 C 58.750419,51 60,49.750419 60,48.199219 V 15.800781 C 60,14.249581 58.750419,13 57.199219,13 H 35 C 28,13 29,8 23,8 Z"
     sodipodi:nodetypes="sssssssssss"
     style="fill-opacity:1;fill:url(#linearGradient1011)" />
  <path
     id="path4-3"
     style="opacity:0.15;fill:#ffffff;fill-opacity:1"
     d="m 34,16 c -6,0 -6,5 -10,5 H 6.800781 C 5.2495811,21 3.9999998,22.249581 3.9999998,23.800781 V 48.199219 C 3.9999998,49.750419 5.2495811,51 6.800781,51 H 57.199219 C 58.750419,51 60,49.750419 60,48.199219 V 18.800781 C 60,17.249582 58.750419,16 57.199219,16 Z"
     sodipodi:nodetypes="sssssssssss" />
  <path
     id="path5525"
     style="opacity:0.2;fill:#ffffff;fill-opacity:1"
     d="m 34,16 c -6,0 -6,5 -10,5 H 6.8007812 C 5.2495814,21 4,22.249581 4,23.800781 v 1 C 4,23.249581 5.2495814,22 6.8007812,22 H 24 c 4,0 4,-5 10,-5 H 57.199219 C 58.750419,17 60,18.249582 60,19.800781 v -1 C 60,17.249582 58.750419,16 57.199219,16 Z"
     sodipodi:nodetypes="sssscsssscsss" />
  <path
     id="path5548"
     d="m 34,15 c -6,0 -6,5 -10,5 H 6.8007812 C 5.2495814,20 4,21.249581 4,22.800781 v 1 C 4,22.249581 5.2495814,21 6.8007812,21 H 24 c 4,0 4,-5 10,-5 H 57.199219 C 58.750419,16 60,17.249582 60,18.800781 v -1 C 60,16.249582 58.750419,15 57.199219,15 Z"
     style="opacity:0.2"
     sodipodi:nodetypes="sssscsssscsss" />
  <path
     id="path4-60"
     style="opacity:0.2;fill:#808080;fill-opacity:1"
     d="M 6.8007812,9 C 5.2495813,9 4,10.249582 4,11.800781 v 12 C 4,22.249581 5.2495815,21 6.8007812,21 H 24 c 4,0 4,-5 10,-5 H 57.199219 C 58.750419,16 60,17.249582 60,18.800781 v -2 C 60,15.249581 58.750419,14 57.199219,14 H 35 C 28,14 29,9 23,9 Z"
     sodipodi:nodetypes="sscsssscsssss" />
  <path
     id="path9972"
     style="opacity:0.2;fill:#ffffff;fill-opacity:1"
     d="M 6.8007812 8 C 5.2495813 8 4 9.2495825 4 10.800781 L 4 11.800781 C 4 10.249582 5.2495813 9 6.8007812 9 L 23 9 C 29 9 28 14 35 14 L 57.199219 14 C 58.750419 14 60 15.249581 60 16.800781 L 60 15.800781 C 60 14.249581 58.750419 13 57.199219 13 L 35 13 C 28 13 29 8 23 8 L 6.8007812 8 z " />
  <path
     d="m 46,21 c 2.770002,0 5,2.230002 5,5 0,2.769999 -2.229998,5 -5,5 -2.769998,0 -4.999999,-2.230001 -4.999999,-5 0,-2.769998 2.230001,-5 4.999999,-5 z M 21.5,30 32,43 41.5,36 C 41.5,36 54,45.753275 54,48.0005 54,49.059713 53.108223,50 52.0005,50 H 11 C 9.891999,50 9,49.121017 9,48 9,45.044248 21.5,30 21.5,30 Z"
     id="path5103"
     sodipodi:nodetypes="ssssscccssssc"
     style="opacity:0.2" />
  <path
     id="path5145"
     d="M 46 19.5 C 42.961653 19.5 40.5 21.961653 40.5 25 C 40.5 28.038348 42.961653 30.5 46 30.5 C 49.03835 30.5 51.5 28.038347 51.5 25 C 51.5 21.961654 49.03835 19.5 46 19.5 z M 21.505859 28.210938 L 21.115234 28.679688 C 21.115234 28.679688 17.985214 32.447876 14.851562 36.589844 C 13.284736 38.660828 11.717495 40.824522 10.533203 42.669922 C 9.9410572 43.592622 9.4432719 44.434417 9.0878906 45.15625 C 8.7325093 45.878083 8.5 46.454321 8.5 47 C 8.5 48.386251 9.6275653 49.5 11 49.5 L 52 49.5 C 53.390671 49.5 54.5 48.339853 54.5 47 C 54.5 46.48733 54.236111 46.065267 53.871094 45.550781 C 53.506077 45.036295 53.003969 44.457544 52.408203 43.832031 C 51.21667 42.581007 49.647055 41.146456 48.078125 39.78125 C 44.940264 37.050837 41.806641 34.605469 41.806641 34.605469 L 41.507812 34.373047 L 32.087891 41.314453 L 21.505859 28.210938 z "
     style="opacity:0.2" />
  <path
     d="m 46,20 c 2.770002,0 5,2.230002 5,5 0,2.769999 -2.229998,5 -5,5 -2.769998,0 -4.999999,-2.230001 -4.999999,-5 0,-2.769998 2.230001,-5 4.999999,-5 z M 21.5,29 32,42 41.5,35 C 41.5,35 54,44.753275 54,47.0005 54,48.059713 53.108223,49 52.0005,49 H 11 C 9.891999,49 9,48.121017 9,47 9,44.044248 21.5,29 21.5,29 Z"
     id="path904-5"
     sodipodi:nodetypes="ssssscccssssc"
     style="fill:#ffffff;fill-opacity:1" />
</svg>
