<svg width="16" height="16" version="1" xmlns="http://www.w3.org/2000/svg" xmlns:xlink="http://www.w3.org/1999/xlink">
 <defs>
  <style id="current-color-scheme" type="text/css">.ColorScheme-Highlight { color:#3daee9; } .ColorScheme-Text { color:#363636; } .ColorScheme-Background { color:#eff0f1; }</style>
  <linearGradient id="b" x1="8" x2="14" y1="8" y2="14" gradientUnits="userSpaceOnUse">
   <stop style="stop-opacity:0" offset="0"/>
   <stop offset="1"/>
  </linearGradient>
 </defs>
 <path class="ColorScheme-Background" d="m8 3c-2.77 0-5 2.23-5 5 0 2.77 2.23 5 5 5 2.77 0 5-2.23 5-5 0-2.77-2.23-5-5-5z" style="fill:currentColor;opacity:.25"/>
 <g transform="matrix(.84 0 0 .84 -1.4441 -1.64)" stroke-width="1.25">
  <use class="ColorScheme-Text" transform="matrix(1.1905 0 0 1.1905 20.767 1.9524)" width="100%" height="100%" style="fill:currentColor" xlink:href="#a"/>
  <use class="ColorScheme-Background" transform="matrix(1.1905 0 0 1.1905 20.767 1.9524)" width="100%" height="100%" style="fill:currentColor;opacity:.15" xlink:href="#a"/>
  <path d="m10.945 1.9524c-2.3195-0.0014286-1.5401 2.2369-2.5414 3.0669-0.39524 0.32758-0.85102 0.59111-1.3323 0.76962-1.2195 0.4523-2.7673-1.3417-3.9272 0.66732l-0.29762 0.51618c-0.30738 0.53167-0.36616 0.95214-0.28832 1.3091 0.045018-0.21446 0.1365-0.45123 0.28832-0.71382l0.29762-0.51618c1.1599-2.009 2.7077-0.21501 3.9272-0.66732 0.4813-0.17851 0.93707-0.44204 1.3323-0.76962 1.0013-0.83 0.22186-3.0683 2.5414-3.0669h0.59524c2.3199 0 1.54 2.2369 2.5414 3.0669 0.39525 0.32756 0.851 0.59114 1.3323 0.76962 1.2194 0.4522 2.7686-1.3421 3.9272 0.66732l0.29762 0.51618c0.15221 0.26362 0.24121 0.49866 0.28599 0.71382 0.07793-0.35715 0.02117-0.77707-0.28599-1.3091l-0.14881-0.25809-0.14881-0.25809c-1.1586-2.0094-2.7077-0.21512-3.9272-0.66732-0.48131-0.17849-0.93706-0.44206-1.3323-0.76962-1.0014-0.82992-0.22149-3.0669-2.5414-3.0669h-0.29762zm-6.6616 9.8214c-0.010197 0.15816-0.024719 0.31653-0.051153 0.472-0.18941 1.114-1.9683 1.5938-1.6718 3.018 0.21747-0.99 1.5116-1.4806 1.6718-2.4228 0.059613-0.35062 0.07414-0.71057 0.051153-1.0672zm1.9136 0c-0.00573 0.09906-0.013951 0.19708-0.013951 0.29762 0 2.803 2.2565 5.0595 5.0595 5.0595 2.803 0 5.0595-2.2565 5.0595-5.0595 0-0.10054-0.0082-0.19856-0.01395-0.29762-0.15396 2.6625-2.3431 4.7619-5.0456 4.7619-2.7024 0-4.8916-2.0994-5.0456-4.7619zm12.005 0c-0.02299 0.35668-0.0085 0.71664 0.05116 1.0672 0.16035 0.94271 1.458 1.434 1.6741 2.4251 0.29924-1.4255-1.4845-1.9058-1.6741-3.0204-0.02644-0.15547-0.04096-0.31384-0.05115-0.472z" style="fill:#fff;opacity:.1"/>
 </g>
 <g transform="translate(-3 -3)">
  <rect class="ColorScheme-Highlight" x="8" y="8" width="6" height="6" rx="3" ry="3" style="fill:currentColor"/>
  <rect x="8" y="8" width="6" height="6" rx="3" ry="3" style="fill:url(#b);opacity:.1;paint-order:markers stroke fill"/>
 </g>
 <g id="a">
  <path d="m-8.25-2.1524e-7c-1.9484-0.0012-1.2938 1.8795-2.1349 2.5767-0.332 0.27517-0.71503 0.49635-1.1193 0.64631-1.0244 0.37994-2.324-1.1279-3.2983 0.55966l-0.25 0.43466c-0.9752 1.6868 0.98015 2.0593 1.1634 3.1364 0.07231 0.4251 0.07228 0.86749 0 1.2926-0.18314 1.0771-2.1378 1.4488-1.1634 3.1364l0.25 0.43466c0.9732 1.6879 2.274 0.17981 3.2983 0.55966 0.4043 0.14993 0.78731 0.37116 1.1193 0.64631 0.8412 0.69714 0.18623 2.5767 2.1349 2.5767h0.5c1.9484 0.0012 1.2938-1.8795 2.1349-2.5767 0.332-0.27517 0.71503-0.49636 1.1193-0.64631 1.0244-0.37994 2.324 1.1265 3.2983-0.56108l0.125-0.21591 0.125-0.21733c0.9752-1.6868-0.98015-2.0593-1.1634-3.1364-0.072306-0.4251-0.072284-0.86749 0-1.2926 0.18314-1.0771 2.1378-1.4502 1.1634-3.1378l-0.125-0.21591-0.125-0.21733c-0.9732-1.6879-2.274-0.17981-3.2983-0.55966-0.4043-0.14993-0.78731-0.37115-1.1193-0.64631-0.8412-0.69714-0.18623-2.5767-2.1349-2.5767h-0.25zm0.25 3.75c2.3545 0 4.25 1.8955 4.25 4.25 0 2.3545-1.8955 4.25-4.25 4.25-2.3545 0-4.25-1.8955-4.25-4.25 0-2.3545 1.8955-4.25 4.25-4.25z" style="stroke-width:.72727"/>
 </g>
</svg>
