<svg width="22" height="22" version="1" xmlns="http://www.w3.org/2000/svg" xmlns:xlink="http://www.w3.org/1999/xlink">
 <defs>
  <style id="current-color-scheme" type="text/css">.ColorScheme-Highlight { color:#3daee9; } .ColorScheme-Text { color:#363636; } .ColorScheme-Background { color:#eff0f1; }</style>
  <linearGradient id="b" x1="8" x2="14" y1="8" y2="14" gradientUnits="userSpaceOnUse">
   <stop style="stop-opacity:0" offset="0"/>
   <stop offset="1"/>
  </linearGradient>
 </defs>
 <path class="ColorScheme-Background" d="m11 5c-3.324 0-6 2.676-6 6 0 3.324 2.676 6 6 6s6-2.676 6-6c0-3.324-2.676-6-6-6z" style="fill:currentColor;opacity:.25;stroke-width:1.2"/>
 <g transform="matrix(1.155 0 0 1.155 -1.705 -2.255)" stroke-width="1.25">
  <use class="ColorScheme-Text" transform="matrix(.8658 0 0 .8658 22.255 1.9524)" width="100%" height="100%" style="fill:currentColor" xlink:href="#a"/>
  <use class="ColorScheme-Background" transform="matrix(.8658 0 0 .8658 22.255 1.9524)" width="100%" height="100%" style="fill:currentColor;opacity:.15" xlink:href="#a"/>
  <path class="ColorScheme-Background" transform="matrix(.8658 0 0 .8658 1.4762 1.9524)" d="m10.656 0c-2.679-0.00165-1.779 2.5843-2.9355 3.543-0.4565 0.37836-0.98317 0.68249-1.5391 0.88867-1.4085 0.52241-3.1955-1.5509-4.5352 0.76953l-0.34375 0.59766c-0.33363 0.57709-0.41725 1.0414-0.35156 1.4375 0.040786-0.2778 0.14868-0.58657 0.35156-0.9375l0.34375-0.59766c1.3397-2.3204 3.1266-0.24712 4.5352-0.76953 0.5559-0.20618 1.0826-0.51032 1.5391-0.88867 1.1565-0.95865 0.2565-3.5446 2.9355-3.543h0.34375 0.34375c2.6795 0 1.7789 2.5844 2.9355 3.543 0.45651 0.37833 0.98315 0.68252 1.5391 0.88867 1.4084 0.52229 3.197-1.5514 4.5352 0.76953l0.17188 0.29883 0.17188 0.29688c0.20234 0.35044 0.31067 0.65995 0.35156 0.9375 0.065162-0.39591-0.018731-0.86106-0.35156-1.4375l-0.17188-0.29688-0.17188-0.29883c-1.3382-2.3209-3.1267-0.24724-4.5352-0.76953-0.55592-0.20615-1.0826-0.51034-1.5391-0.88867-1.1566-0.95856-0.25607-3.543-2.9355-3.543h-0.34375-0.34375zm-4.8965 11.186c-0.0060767 0.10392-0.0097656 0.20895-0.0097656 0.31445 0 2.9085 2.3415 5.25 5.25 5.25 2.9085 0 5.25-2.3415 5.25-5.25 0-0.1055-0.003689-0.21053-0.009766-0.31445-0.097782 2.8212-2.3943 5.0645-5.2402 5.0645-2.8459 0-5.1425-2.2432-5.2402-5.0645zm-2.793 0.064453c-0.01001 0.21453-0.028647 0.42808-0.064453 0.63867-0.21371 1.257-2.1795 1.8163-1.9512 3.375 0.19714-1.1973 1.7619-1.7619 1.9512-2.875 0.063582-0.37395 0.082222-0.75772 0.064453-1.1387zm16.066 0c-0.017777 0.38095 8.49e-4 0.76473 0.064453 1.1387 0.18922 1.1125 1.7529 1.6792 1.9512 2.875 0.22878-1.5582-1.7374-2.1181-1.9512-3.375-0.035816-0.21058-0.054447-0.42414-0.064453-0.63867z" style="fill:#fff;opacity:.1;stroke-width:1.4438"/>
 </g>
 <g id="a">
  <path d="m-13.344 7.8923e-7c-2.679-0.00165-1.779 2.5843-2.9355 3.543-0.4565 0.37836-0.98317 0.68249-1.5391 0.88867-1.4086 0.52241-3.1955-1.5509-4.5352 0.76953l-0.34375 0.59766c-1.3409 2.3194 1.3477 2.8316 1.5996 4.3125 0.09942 0.58452 0.09939 1.1928 0 1.7773-0.25181 1.481-2.9394 1.992-1.5996 4.3125l0.34375 0.59766c1.3382 2.3209 3.1267 0.24724 4.5352 0.76953 0.55591 0.20615 1.0826 0.51034 1.5391 0.88867 1.1566 0.95856 0.25607 3.543 2.9355 3.543h0.6875c2.6791 0.0017 1.779-2.5843 2.9355-3.543 0.4565-0.37836 0.98317-0.68249 1.5391-0.88867 1.4086-0.52241 3.1955 1.549 4.5352-0.77148l0.17188-0.29688 0.17188-0.29883c1.3409-2.3194-1.3477-2.8316-1.5996-4.3125-0.09942-0.58452-0.09939-1.1928 0-1.7773 0.25181-1.481 2.9394-1.994 1.5996-4.3145l-0.17188-0.29688-0.17188-0.29883c-1.3382-2.3209-3.1267-0.24724-4.5352-0.76953-0.55592-0.20615-1.0826-0.51034-1.5391-0.88867-1.1566-0.95856-0.25607-3.543-2.9355-3.543h-0.34375zm0.34375 5.75c2.9085 0 5.25 2.3415 5.25 5.25 0 2.9085-2.3415 5.25-5.25 5.25s-5.25-2.3415-5.25-5.25c0-2.9085 2.3415-5.25 5.25-5.25z"/>
 </g>
 <g transform="matrix(1.3333 0 0 1.3333 -3.6667 -3.6667)">
  <rect class="ColorScheme-Highlight" x="8" y="8" width="6" height="6" rx="3" ry="3" style="fill:currentColor"/>
  <rect x="8" y="8" width="6" height="6" rx="3" ry="3" style="fill:url(#b);opacity:.1;paint-order:markers stroke fill"/>
 </g>
</svg>
