<svg width="48" height="48" version="1" xmlns="http://www.w3.org/2000/svg" xmlns:xlink="http://www.w3.org/1999/xlink">
 <defs>
  <style id="current-color-scheme" type="text/css">.ColorScheme-Highlight { color:#3daee9; } .ColorScheme-Text { color:#363636; } .ColorScheme-Background { color:#eff0f1; }</style>
  <linearGradient id="a" x1="8" x2="14" y1="8" y2="14" gradientUnits="userSpaceOnUse">
   <stop style="stop-opacity:0" offset="0"/>
   <stop offset="1"/>
  </linearGradient>
 </defs>
 <path class="ColorScheme-Background" d="m24.001 12c-6.648 0-12 5.352-12 12s5.352 12 12 12 12-5.352 12-12-5.352-12-12-12z" style="fill:currentColor;opacity:.25;stroke-width:2.4"/>
 <g transform="matrix(2.1 0 0 2.1 .90081 -.099989)" stroke-width="1.25">
  <use class="ColorScheme-Background" transform="matrix(.47619 0 0 .47619 21.952 .047615)" width="100%" height="100%" style="opacity:.2" xlink:href="#b"/>
  <use class="ColorScheme-Text" transform="matrix(.47619 0 0 .47619 21.952 -.42855)" width="100%" height="100%" style="fill:currentColor" xlink:href="#b"/>
  <use class="ColorScheme-Background" transform="matrix(.47619 0 0 .47619 21.952 -.42855)" width="100%" height="100%" style="fill:currentColor;opacity:.15" xlink:href="#b"/>
  <path transform="matrix(.47619 0 0 .47619 -.42896 .047614)" d="m23.344 3c-0.95915 0-1.677 0.17287-2.2266 0.4668-2.3812 1.2737-1.581 4.81-3.375 6.2969-0.8716 0.72221-1.8781 1.3018-2.9395 1.6953-2.689 0.99714-6.7091-1.9097-8.6582 1.4707l-0.32812 0.57031-0.32812 0.56641c-0.64064 1.1096-0.79804 2.0038-0.66797 2.7637 0.08104-0.52332 0.28787-1.1053 0.66797-1.7637l0.32812-0.56641 0.32812-0.57031c1.9491-3.3804 5.9692-0.47357 8.6582-1.4707 1.0613-0.39352 2.0679-0.9731 2.9395-1.6953 1.794-1.4869 0.99378-5.0232 3.375-6.2969 0.54956-0.29393 1.2674-0.4668 2.2266-0.4668h1.3125c0.95915 0 1.679 0.17287 2.2285 0.4668 2.3813 1.2737 1.581 4.81 3.375 6.2969 0.87168 0.72222 1.8782 1.3018 2.9395 1.6953 2.6889 0.99716 6.709-1.9097 8.6582 1.4707l0.32812 0.57031 0.32812 0.56641c0.38106 0.66 0.58738 1.2432 0.66797 1.7676 0.13126-0.76075-0.026256-1.6561-0.66797-2.7676l-0.32812-0.56641-0.32812-0.57031c-1.9492-3.3804-5.9693-0.47354-8.6582-1.4707-1.0612-0.39355-2.0678-0.9731-2.9395-1.6953-1.794-1.4869-0.99369-5.0232-3.375-6.2969-0.54952-0.29393-1.2694-0.4668-2.2285-0.4668h-1.3125zm-9.3359 21.275c-0.016974 0.23953-0.029296 0.48061-0.029296 0.72461h0.021484c0 5.553 4.4689 10.021 10.021 10.021 5.553 0 10.023-4.4689 10.023-10.021h-0.021484c0-0.094955-0.005216-0.1889-0.007813-0.2832-0.36552 5.2151-4.6825 9.3066-9.9941 9.3066-5.4602 0-9.8684-4.3237-10.014-9.748zm25.338 0.005859c-0.016973 0.23928-0.02734 0.47849-0.027344 0.71875h0.021485c0 0.56928 0.047721 1.1373 0.14258 1.6953 0.36018 2.118 3.3288 3.1992 3.7207 5.4707 0.46034-2.9952-3.3115-4.0646-3.7207-6.4707-0.079192-0.46583-0.12356-0.9392-0.13672-1.4141zm-30.668 0.4375c-0.023243 0.32767-0.060408 0.65409-0.11523 0.97656-0.40929 2.4071-4.185 3.4764-3.7207 6.4746 0.38928-2.2741 3.3604-3.3555 3.7207-5.4746 0.094863-0.55796 0.14257-1.126 0.14258-1.6953h-0.021484c-1.8e-6 -0.094014-0.0032545-0.18732-0.0058594-0.28125z" style="color:#eff0f1;fill:#eff0f1;opacity:.15;stroke-width:.91304"/>
 </g>
 <g transform="matrix(2.6667 0 0 2.6667 -5.3333 -5.3333)">
  <rect class="ColorScheme-Highlight" x="8" y="8" width="6" height="6" rx="3" ry="3" style="fill:currentColor"/>
  <rect x="8" y="8" width="6" height="6" rx="3" ry="3" style="fill:url(#a);opacity:.1;paint-order:markers stroke fill"/>
 </g>
 <g id="b">
  <path d="m-23.655 4c-0.95915 0-1.6778 0.1733-2.2274 0.46722-2.3812 1.2737-1.5818 4.8099-3.3758 6.2968-0.8716 0.72221-1.8776 1.3024-2.9389 1.6959-2.689 0.99714-6.7088-1.9109-8.6578 1.4695l-0.32813 0.57065-0.32813 0.56708c-2.5578 4.4301 2.5722 5.4097 3.053 8.237 0.09486 0.55798 0.14265 1.1266 0.14266 1.6959h0.0214c-8e-6 0.56928-0.0478 1.1379-0.14266 1.6959-0.48073 2.8272-5.6108 3.8069-3.053 8.237l0.32813 0.56708 0.32813 0.57065c1.9492 3.3804 5.9689 0.47229 8.6578 1.4695 1.0612 0.39355 2.0672 0.97367 2.9389 1.6959 1.794 1.4869 0.99449 5.0231 3.3758 6.2968 0.54952 0.29393 1.2682 0.46722 2.2274 0.46722h1.3125c0.95915 0 1.6778-0.1733 2.2274-0.46722 2.3812-1.2737 1.5818-4.8099 3.3758-6.2968 0.8716-0.72221 1.8776-1.3024 2.9389-1.6959 2.689-0.99714 6.7088 1.9109 8.6578-1.4695l0.32813-0.57065 0.32813-0.56708c2.5578-4.4301-2.5722-5.4097-3.053-8.237-0.094865-0.55798-0.14265-1.1266-0.14266-1.6959h-0.0214c8.4e-6 -0.56928 0.047795-1.1379 0.14266-1.6959 0.48073-2.8272 5.6108-3.8069 3.053-8.237l-0.32813-0.56708-0.32813-0.57065c-1.9492-3.3804-5.9689-0.47229-8.6578-1.4695-1.0612-0.39355-2.0672-0.97367-2.9389-1.6959-1.794-1.4869-0.99449-5.0231-3.3758-6.2968-0.54952-0.29393-1.2682-0.46722-2.2274-0.46722zm0.65625 10.978c5.5526 0 10.022 4.4694 10.022 10.022h0.0214c1e-6 5.5526-4.4694 10.022-10.022 10.022-5.5526 0-10.022-4.4694-10.022-10.022h-0.0214c-2e-6 -5.5526 4.4694-10.022 10.022-10.022z" style="stroke-width:.91304"/>
 </g>
</svg>
