<svg width="64" height="64" version="1" xmlns="http://www.w3.org/2000/svg" xmlns:xlink="http://www.w3.org/1999/xlink">
 <defs>
  <style id="current-color-scheme" type="text/css">.ColorScheme-Highlight { color:#3daee9; } .ColorScheme-Text { color:#363636; } .ColorScheme-Background { color:#eff0f1; }</style>
  <linearGradient id="a" x1="8" x2="14" y1="8" y2="14" gradientUnits="userSpaceOnUse">
   <stop style="stop-opacity:0" offset="0"/>
   <stop offset="1"/>
  </linearGradient>
 </defs>
 <path class="ColorScheme-Background" d="m32.001 16.727c-8.4611 0-15.273 6.8116-15.273 15.273 0 8.4611 6.8116 15.273 15.273 15.273s15.273-6.8116 15.273-15.273c0-8.4611-6.8116-15.273-15.273-15.273z" style="fill:currentColor;opacity:.25;stroke-width:3.0545"/>
 <g transform="matrix(2.94 0 0 2.94 -.33887 -1.74)" stroke-width="1.25">
  <use transform="matrix(.34014 0 0 .34014 25.625 .93197)" width="100%" height="100%" style="opacity:.2" xlink:href="#b"/>
  <use class="ColorScheme-Text" transform="matrix(.34014 0 0 .34014 25.625 .59184)" width="100%" height="100%" style="fill:currentColor" xlink:href="#b"/>
  <use class="ColorScheme-Background" transform="matrix(.34014 0 0 .34014 25.625 .59184)" width="100%" height="100%" style="fill:currentColor;opacity:.15" xlink:href="#b"/>
  <path transform="matrix(.34014 0 0 .34014 .11526 .59184)" d="m31.094 3c-7.0627-0.0043497-4.6913 6.8125-7.7402 9.3398-1.2035 0.99746-2.5909 1.8001-4.0566 2.3438-3.7133 1.3773-8.4254-4.0882-11.957 2.0293l-0.90625 1.5742c-0.82935 1.4345-1.0691 2.6048-0.94922 3.6094 0.08994-0.76733 0.38071-1.6261 0.94922-2.6094l0.90625-1.5742c3.5316-6.1174 8.2437-0.65203 11.957-2.0293 1.4657-0.54364 2.8532-1.3463 4.0566-2.3438 3.0489-2.5273 0.6775-9.3442 7.7402-9.3398h0.90625 0.90625c7.064 0 4.6891 6.8127 7.7383 9.3398 1.2036 0.99748 2.593 1.8003 4.0586 2.3438 3.7131 1.3769 8.4272-4.0911 11.955 2.0273l0.45312 0.78906 0.45312 0.7832c0.56754 0.98292 0.85923 1.8402 0.94922 2.6074 0.11921-1.0044-0.1214-2.1737-0.94922-3.6074l-0.45312-0.7832-0.45312-0.78906c-3.5279-6.1185-8.242-0.65043-11.955-2.0273-1.4656-0.54346-2.855-1.3463-4.0586-2.3438-3.0492-2.5271-0.6743-9.3398-7.7383-9.3398h-0.90625-0.90625zm-20.256 29.5c-0.021945 0.61843-0.084345 1.2351-0.1875 1.8418-0.55746 3.2785-5.6397 4.7547-5.1641 8.7656 0.38665-3.2825 4.6556-4.7753 5.1641-7.7656 0.15877-0.93386 0.22114-1.8899 0.1875-2.8418zm7.6406 0c-0.005977 0.16602-0.011719 0.33246-0.011719 0.5 0 7.4975 6.0357 13.533 13.533 13.533s13.533-6.0357 13.533-13.533c0-0.16754-0.005742-0.33398-0.011719-0.5-0.2622 7.2632-6.192 13.033-13.521 13.033s-13.259-5.77-13.521-13.033zm34.684 0c-0.033664 0.95189 0.026724 1.908 0.18555 2.8418 0.50829 2.988 4.7749 4.4824 5.166 7.7598 0.46934-4.0042-4.6087-5.4837-5.166-8.7598-0.10319-0.60668-0.16362-1.2234-0.18555-1.8418z" style="fill:#fff;opacity:.15"/>
 </g>
 <g transform="matrix(3.6667 0 0 3.6667 -8.3333 -8.3333)">
  <rect class="ColorScheme-Highlight" x="8" y="8" width="6" height="6" rx="3" ry="3" style="fill:currentColor"/>
  <rect x="8" y="8" width="6" height="6" rx="3" ry="3" style="fill:url(#a);opacity:.1;paint-order:markers stroke fill"/>
 </g>
 <g id="b" transform="matrix(1.0714 0 0 1.0714 3.0714 -2.2857)">
  <path d="m-43.846 4.9335c-6.592-0.00406-4.3775 6.3589-7.2232 8.7178-1.1233 0.93098-2.4192 1.6793-3.7872 2.1867-3.4658 1.2855-7.863-3.8162-11.159 1.8935l-0.84583 1.4706c-3.2995 5.707 3.316 6.9674 3.9359 10.611 0.24464 1.4383 0.24456 2.9349 0 4.3733-0.61961 3.644-7.2326 4.9016-3.9359 10.611l0.84583 1.4706c3.2925 5.7107 7.6936 0.60836 11.159 1.8935 1.3679 0.50724 2.6638 1.2557 3.7872 2.1867 2.8462 2.3587 0.63007 8.7178 7.2232 8.7178h1.6917c6.5923 0.0043 4.3775-6.3589 7.2232-8.7178 1.1233-0.93098 2.4192-1.6793 3.7872-2.1867 3.4661-1.2855 7.863 3.8114 11.159-1.8983l0.42292-0.73051 0.42292-0.73531c3.2995-5.707-3.316-6.9674-3.9359-10.611-0.24464-1.4383-0.24456-2.9349 0-4.3733 0.61961-3.644 7.2326-4.9064 3.9359-10.616l-0.42292-0.73051-0.42292-0.73531c-3.2928-5.7107-7.6936-0.60836-11.159-1.8935-1.3679-0.50724-2.6638-1.2557-3.7872-2.1867-2.846-2.3587-0.63007-8.7178-7.2232-8.7178h-0.84583zm0.84583 14.435c6.9978 0 12.631 5.6336 12.631 12.631s-5.6336 12.631-12.631 12.631-12.631-5.6336-12.631-12.631 5.6336-12.631 12.631-12.631z" style="stroke-width:.96667"/>
 </g>
</svg>
