<?xml version="1.0" encoding="UTF-8" standalone="no"?>
<svg
   width="22"
   height="22"
   version="1"
   id="svg20"
   sodipodi:docname="utilities-terminal.svg"
   inkscape:version="1.1.1 (3bf5ae0d25, 2021-09-20, custom)"
   xmlns:inkscape="http://www.inkscape.org/namespaces/inkscape"
   xmlns:sodipodi="http://sodipodi.sourceforge.net/DTD/sodipodi-0.dtd"
   xmlns="http://www.w3.org/2000/svg"
   xmlns:svg="http://www.w3.org/2000/svg">
  <defs
     id="defs24">
    <style
       type="text/css"
       id="current-color-scheme">
        .ColorScheme-Text {
            color:#31363b;
        }
        .ColorScheme-Background {
            color:#eff0f1;
        }</style>
  </defs>
  <sodipodi:namedview
     id="namedview22"
     pagecolor="#ffffff"
     bordercolor="#666666"
     borderopacity="1.0"
     inkscape:pageshadow="2"
     inkscape:pageopacity="0.0"
     inkscape:pagecheckerboard="0"
     showgrid="false"
     inkscape:zoom="13.590909"
     inkscape:cx="11.588629"
     inkscape:cy="12.986622"
     inkscape:window-width="1440"
     inkscape:window-height="823"
     inkscape:window-x="0"
     inkscape:window-y="768"
     inkscape:window-maximized="1"
     inkscape:current-layer="svg20" />
  <rect
     style="opacity:0.2"
     width="20"
     height="18"
     x="1"
     y="2.5"
     rx="1.5"
     ry="1.5"
     id="rect2" />
  <g
     id="g1230">
    <rect
       style="fill:currentColor"
       width="20"
       height="18"
       x="1"
       y="2"
       rx="1.5"
       ry="1.5"
       id="rect4"
       class="ColorScheme-Text" />
    <rect
       style="fill:currentColor;opacity:0.15"
       width="20"
       height="18"
       x="1"
       y="2"
       rx="1.5"
       ry="1.5"
       id="rect1232"
       class="ColorScheme-Background" />
  </g>
  <path
     style="opacity:0.1;fill:#ffffff"
     d="M 2.5,2 C 1.669,2 1,2.669 1,3.5 V 4 C 1,3.169 1.669,2.5 2.5,2.5 h 17 C 20.331,2.5 21,3.169 21,4 V 3.5 C 21,2.669 20.331,2 19.5,2 Z"
     id="path6" />
  <rect
     style="opacity:0.2"
     width="6"
     height="2"
     x="9"
     y="10.5"
     rx=".5"
     ry=".5"
     id="rect8" />
  <g
     id="g1632">
    <rect
       style="fill:currentColor"
       width="6"
       height="2"
       x="9"
       y="10"
       rx=".5"
       ry=".5"
       id="rect10"
       class="ColorScheme-Background" />
    <rect
       style="fill:currentColor;opacity:0.15"
       width="6"
       height="2"
       x="9"
       y="10"
       rx=".5"
       ry=".5"
       id="rect1634"
       class="ColorScheme-Text" />
  </g>
  <rect
     style="opacity:0.2"
     width="6.122"
     height="2.041"
     x="-6.31"
     y="10.14"
     rx=".51"
     ry=".51"
     transform="matrix(0.72685813,-0.68678763,0.72685813,0.68678763,0,0)"
     id="rect12" />
  <g
     id="g1368">
    <rect
       style="fill:currentColor"
       width="6.122"
       height="2.041"
       x="-5.95"
       y="9.78"
       rx=".51"
       ry=".51"
       transform="matrix(0.72685813,-0.68678763,0.72685813,0.68678763,0,0)"
       id="rect1390"
       class="ColorScheme-Text" />
    <rect
       style="fill:currentColor;opacity:0.75"
       width="6.122"
       height="2.041"
       x="-5.95"
       y="9.78"
       rx=".51"
       ry=".51"
       transform="matrix(0.72685813,-0.68678763,0.72685813,0.68678763,0,0)"
       id="rect14"
       class="ColorScheme-Background" />
    <rect
       style="fill:currentColor;opacity:0.15"
       width="6.122"
       height="2.041"
       x="-5.95"
       y="9.78"
       rx=".51"
       ry=".51"
       transform="matrix(0.72685813,-0.68678763,0.72685813,0.68678763,0,0)"
       id="rect1370"
       class="ColorScheme-Text" />
  </g>
  <rect
     style="opacity:0.2"
     width="6.122"
     height="2.041"
     x="6.06"
     y="-2.23"
     rx=".51"
     ry=".51"
     transform="matrix(0.72685813,0.68678763,0.72685813,-0.68678763,0,0)"
     id="rect16" />
  <g
     id="g1510">
    <rect
       style="fill:currentColor"
       width="6.122"
       height="2.041"
       x="5.7"
       y="-1.87"
       rx=".51"
       ry=".51"
       transform="matrix(0.72685813,0.68678763,0.72685813,-0.68678763,0,0)"
       id="rect18"
       class="ColorScheme-Background" />
    <rect
       style="fill:currentColor;opacity:0.15"
       width="6.122"
       height="2.041"
       x="5.7"
       y="-1.87"
       rx=".51"
       ry=".51"
       transform="matrix(0.72685813,0.68678763,0.72685813,-0.68678763,0,0)"
       id="rect1512"
       class="ColorScheme-Text" />
  </g>
</svg>
