<svg width="16" height="16" version="1" xmlns="http://www.w3.org/2000/svg">
 <path d="m7.7495 0c-1.9484-0.0012-1.2929 1.8793-2.134 2.5765-0.332 0.27517-0.71603 0.49685-1.1203 0.6468-1.0244 0.37994-2.3241-1.1277-3.2984 0.5599l-0.125 0.2168-0.12549 0.2168c-0.97517 1.6868 0.98122 2.0594 1.1644 3.1364 0.072303 0.4251 0.072283 0.8685 0 1.2936-0.18314 1.0771-2.1383 1.4488-1.1639 3.1364l0.25 0.43359c0.97321 1.6879 2.2741 0.18005 3.2984 0.5599 0.4043 0.14993 0.78831 0.37165 1.1203 0.6468 0.84122 0.69714 0.18577 2.5765 2.1345 2.5765h0.5c1.9484 0.0012 1.2934-1.8793 2.1345-2.5765 0.332-0.27517 0.71603-0.49685 1.1203-0.6468 1.0244-0.37994 2.3241 1.1272 3.2984-0.56039l0.125-0.21631 0.125-0.2168c0.97517-1.6868-0.98073-2.0594-1.1639-3.1364-0.0723-0.4251-0.07228-0.8685 0-1.2936 0.18314-1.0771 2.1383-1.4493 1.1639-3.1369l-0.125-0.21631-0.125-0.2168c-0.97321-1.6879-2.2741-0.18005-3.2984-0.5599-0.4043-0.14993-0.78831-0.37165-1.1203-0.6468-0.84122-0.69714-0.18577-2.5765-2.1345-2.5765h-0.25z" fill="#008374" stroke-linecap="round" stroke-linejoin="round" stroke-width=".34962" style="paint-order:markers stroke fill"/>
 <rect x="6" y="9.6" width="4" height="6.4" rx="1.6" ry="1.6" fill="#e4e4e4"/>
 <rect x="7" y="10.2" width="2" height="4.8" rx="1" ry=".8" opacity=".4"/>
 <path d="m10 4.5469v2.4531l-2 1.5-2-1.5v-2.4512c-1.2237 0.70807-1.9982 2.0149-2 3.4512 0 2.2091 1.7909 4 4 4 2.2091 0 4-1.7909 4-4-7.23e-4 -1.4373-0.77557-2.7444-2-3.4531z" fill="#fff"/>
</svg>
