<?xml version="1.0" encoding="UTF-8" standalone="no"?>
<svg
   width="22"
   height="22"
   version="1"
   id="svg1214"
   sodipodi:docname="22.svg"
   inkscape:version="1.1.1 (3bf5ae0d25, 2021-09-20, custom)"
   xmlns:inkscape="http://www.inkscape.org/namespaces/inkscape"
   xmlns:sodipodi="http://sodipodi.sourceforge.net/DTD/sodipodi-0.dtd"
   xmlns:xlink="http://www.w3.org/1999/xlink"
   xmlns="http://www.w3.org/2000/svg"
   xmlns:svg="http://www.w3.org/2000/svg">
  <sodipodi:namedview
     id="namedview1216"
     pagecolor="#ffffff"
     bordercolor="#666666"
     borderopacity="1.0"
     inkscape:pageshadow="2"
     inkscape:pageopacity="0.0"
     inkscape:pagecheckerboard="0"
     showgrid="false"
     inkscape:zoom="19.220448"
     inkscape:cx="11.628241"
     inkscape:cy="12.720827"
     inkscape:window-width="1440"
     inkscape:window-height="823"
     inkscape:window-x="0"
     inkscape:window-y="768"
     inkscape:window-maximized="1"
     inkscape:current-layer="g1192" />
  <defs
     id="defs3">
    <linearGradient
       inkscape:collect="always"
       id="linearGradient2751">
      <stop
         style="stop-color:#ffffff;stop-opacity:1;"
         offset="0"
         id="stop2747" />
      <stop
         style="stop-color:#000000;stop-opacity:1"
         offset="1"
         id="stop2749" />
    </linearGradient>
    <style
       type="text/css"
       id="current-color-scheme">.ColorScheme-Text {
        color:#363636;
}
.ColorScheme-Background {
        color:#eff0f1;
}</style>
    <linearGradient
       inkscape:collect="always"
       xlink:href="#linearGradient2751"
       id="linearGradient2753"
       x1="1.7864439"
       y1="1.059054"
       x2="20.097746"
       y2="21.052038"
       gradientUnits="userSpaceOnUse" />
  </defs>
  <path
     d="m10.687 1.5c-2.4355-0.0015-1.6161 2.3491-2.6675 3.2206-0.415 0.34396-0.89504 0.62106-1.4004 0.8085-1.2805 0.47492-2.9051-1.4096-4.123 0.69987l-0.15625 0.271-0.15686 0.271c-1.219 2.1085 1.2265 2.5742 1.4555 3.9205 0.090379 0.53138 0.090354 1.0856 0 1.617-0.22892 1.3464-2.6729 1.811-1.4549 3.9205l0.3125 0.54199c1.2165 2.1099 2.8426 0.22506 4.123 0.69987 0.50537 0.18741 0.98539 0.46456 1.4004 0.8085 1.0515 0.87142 0.23221 1.7206 2.6681 1.7206h0.625c2.4355 0.0015 1.6167-0.84914 2.6681-1.7206 0.415-0.34396 0.89504-0.62106 1.4004-0.8085 1.2805-0.47492 2.9051 1.409 4.123-0.70049l0.15625-0.27039 0.15625-0.271c1.219-2.1085-1.2259-2.5742-1.4549-3.9205-0.09038-0.53138-0.09035-1.0856 0-1.617 0.22892-1.3464 2.6729-1.8116 1.4549-3.9211l-0.15625-0.27039-0.15625-0.271c-1.2165-2.1099-2.8426-0.22506-4.123-0.69987-0.50538-0.18741-0.98539-0.46456-1.4004-0.8085-1.0515-0.87142-0.23221-3.2206-2.6681-3.2206h-0.3125z"
     opacity=".2"
     id="path1186" />
  <g
     stroke-width="1.25"
     id="g1192">
    <path
       d="m10.687 1c-2.4355-0.0015-1.6161 2.3491-2.6675 3.2206-0.415 0.34396-0.89504 0.62106-1.4004 0.8085-1.2805 0.47492-2.9051-1.4096-4.123 0.69987l-0.15625 0.271-0.15686 0.271c-1.219 2.1085 1.2265 2.5742 1.4555 3.9205 0.090379 0.53138 0.090354 1.0856 0 1.617-0.22892 1.3464-2.6729 1.811-1.4549 3.9205l0.3125 0.54199c1.2165 2.1099 2.8426 0.22506 4.123 0.69987 0.50537 0.18741 0.98539 0.46456 1.4004 0.8085 1.0515 0.87142 0.23221 3.2206 2.6681 3.2206h0.625c2.4355 0.0015 1.6167-2.3491 2.6681-3.2206 0.415-0.34396 0.89504-0.62106 1.4004-0.8085 1.2805-0.47492 2.9051 1.409 4.123-0.70049l0.15625-0.27039 0.15625-0.271c1.219-2.1085-1.2259-2.5742-1.4549-3.9205-0.09038-0.53138-0.09035-1.0856 0-1.617 0.22892-1.3464 2.6729-1.8116 1.4549-3.9211l-0.15625-0.27039-0.15625-0.271c-1.2165-2.1099-2.8426-0.22506-4.123-0.69987-0.50538-0.18741-0.98539-0.46456-1.4004-0.8085-1.0515-0.87142-0.23221-3.2206-2.6681-3.2206h-0.3125z"
       fill="#474747"
       id="path1188" />
    <g
       id="path1416"
       class="ColorScheme-Text">
      <path
         style="fill:currentColor;opacity:0.25"
         d="M 10.6875,0 C 9.9178036,-4.7404827e-4 9.2383292,0.20631958 8.7519531,0.609375 8.2655771,1.0124304 8.0286754,1.534926 7.8847656,1.96875 7.596946,2.8363981 7.4682044,3.3787721 7.3808594,3.4511719 7.0544032,3.721745 6.6691476,3.944302 6.2714844,4.0917969 6.1648472,4.1313471 5.6314931,3.9716137 4.7363281,3.7871094 4.2887456,3.6948572 3.7191296,3.6398112 3.1269531,3.859375 2.5347767,4.0789388 2.0157044,4.5619428 1.6308594,5.2285156 L 1.4746094,5.5 1.3183594,5.7695312 h -0.00195 C 0.93115929,6.4358916 0.77300967,7.129208 0.87890625,7.7519531 0.98480283,8.3746983 1.3173335,8.8400991 1.6210937,9.1816406 c 0.6075206,0.683083 1.0122312,1.0659214 1.0312501,1.1777344 0.071101,0.418039 0.071099,0.863094 0,1.28125 -0.019076,0.112193 -0.42398,0.494733 -1.0312501,1.177734 -0.303635,0.341501 -0.63633047,0.807077 -0.74218745,1.429688 -0.10585698,0.622611 0.0545945,1.313917 0.43945315,1.980469 h -0.00195 l 0.3125,0.541015 c 0.3844577,0.666804 0.9038488,1.151418 1.4960938,1.371094 0.592245,0.219676 1.1636602,0.164536 1.6113281,0.07227 0.8953359,-0.184542 1.4288087,-0.344125 1.5351563,-0.304688 0.3975711,0.147434 0.7828428,0.370011 1.109375,0.640625 0.087574,0.07258 0.2159596,0.614945 0.5039062,1.482422 0.1439733,0.433738 0.3809189,0.954419 0.8671875,1.357422 C 9.2382218,21.791675 9.9177944,22 10.6875,22 h 0.625 c 0.769696,4.74e-4 1.449144,-0.206378 1.935547,-0.609375 0.486402,-0.402997 0.723186,-0.925558 0.867187,-1.359375 0.288002,-0.867634 0.41649,-1.409962 0.503907,-1.482422 0.326456,-0.270573 0.711711,-0.49313 1.109375,-0.640625 0.106766,-0.0396 0.639965,0.120368 1.535156,0.304688 0.447595,0.09216 1.017265,0.147375 1.609375,-0.07227 0.591305,-0.219342 1.111418,-0.703983 1.496094,-1.369141 L 20.527344,16.5 l 0.15625,-0.271484 h -0.002 c 0.385229,-0.66633 0.545247,-1.357754 0.439453,-1.980469 -0.105795,-0.622715 -0.438502,-1.088125 -0.742188,-1.429688 -0.607371,-0.683124 -1.012207,-1.065779 -1.03125,-1.177734 -0.0711,-0.418032 -0.0711,-0.863083 0,-1.28125 0.01908,-0.112217 0.424013,-0.4945829 1.03125,-1.1777344 C 20.682525,8.8400649 21.015251,8.3745748 21.121094,7.7519531 21.226936,7.1293315 21.06651,6.4361002 20.681641,5.7695312 L 20.527344,5.5 20.371094,5.2285156 C 19.986636,4.5617115 19.467245,4.0790507 18.875,3.859375 18.282755,3.6396993 17.713293,3.6948387 17.265625,3.7871094 16.370289,3.9716506 15.834863,4.1312337 15.728516,4.0917969 15.330941,3.9443643 14.945679,3.7217908 14.619141,3.4511719 14.531567,3.3785961 14.403181,2.8362266 14.115234,1.96875 13.971261,1.5350117 13.734316,1.0143312 13.248047,0.61132812 12.761778,0.20832505 12.082206,0 11.3125,0 H 11 Z m -0.002,2 H 10.6875 11 11.3125 c 0.448238,0 0.580136,0.085691 0.658203,0.1503906 0.07807,0.0647 0.158966,0.1847822 0.246094,0.4472657 0.174255,0.5249669 0.161075,1.5937347 1.125,2.3925781 0.503481,0.4172603 1.078222,0.7491754 1.691406,0.9765625 1.174051,0.4353727 2.092828,-0.1090022 2.634766,-0.2207032 0.270969,-0.05585 0.416917,-0.046882 0.511718,-0.011719 0.0948,0.035164 0.235193,0.1059958 0.458985,0.4941406 L 18.794922,6.5 l 0.15625,0.2714844 c 0.222235,0.3858408 0.216167,0.5448326 0.199219,0.6445312 -0.01699,0.099975 -0.08188,0.2307888 -0.265625,0.4375 -0.367482,0.4134225 -1.299926,0.93574 -1.509766,2.1699224 -0.109602,0.644632 -0.109659,1.308397 0,1.953125 0.209957,1.234343 1.142187,1.756497 1.509766,2.169921 0.183789,0.206712 0.248688,0.33781 0.265625,0.4375 0.01694,0.09969 0.02505,0.256612 -0.199219,0.644532 L 18.794922,15.5 l -0.15625,0.269531 c -0.224116,0.388185 -0.365886,0.460835 -0.460938,0.496094 -0.09505,0.03526 -0.238911,0.04405 -0.509765,-0.01172 -0.541708,-0.111537 -1.461033,-0.656024 -2.634766,-0.220703 -0.613056,0.227385 -1.187863,0.559216 -1.691406,0.976563 -0.963982,0.799039 -0.950677,1.867413 -1.125,2.392578 -0.08716,0.262582 -0.168181,0.382713 -0.246094,0.447265 C 11.892791,19.914162 11.760552,20.000276 11.3125,20 h -0.625 C 10.239262,20 10.107364,19.914309 10.029297,19.849609 9.9512295,19.78491 9.8703308,19.664827 9.7832031,19.402344 9.6089477,18.877377 9.6221284,17.808609 8.6582031,17.009766 8.1547162,16.5925 7.5799647,16.260589 6.9667969,16.033203 5.7927457,15.59783 4.873969,16.142205 4.3320312,16.253906 4.0610624,16.309757 3.9151137,16.300789 3.8203125,16.265625 3.7255113,16.230461 3.587073,16.159629 3.3632813,15.771484 L 3.0488281,15.228516 c -0.2241407,-0.388198 -0.214246,-0.544659 -0.1972656,-0.644532 0.01698,-0.09987 0.079947,-0.230863 0.2636719,-0.4375 C 3.4826833,13.733212 4.4151556,13.210769 4.625,11.976563 4.7346087,11.33192 4.7346563,10.668157 4.625,10.023438 4.4150191,8.7889515 3.4829628,8.2650284 3.1152344,7.8515625 2.9313701,7.6448295 2.8665564,7.515676 2.8496094,7.4160156 2.8326623,7.3163552 2.8245757,7.159373 3.0488281,6.7714844 L 3.2050781,6.5 3.3632813,6.2285156 h -0.00195 C 3.5854325,5.8403545 3.7272803,5.7695931 3.8222656,5.734375 3.917251,5.6991569 4.0611645,5.6902648 4.3320312,5.7460937 4.8737648,5.8577516 5.7929353,6.4021661 6.9667969,5.9667969 7.5798526,5.7394121 8.1546601,5.4075805 8.6582031,4.9902344 9.6222571,4.1911351 9.6089982,3.1228068 9.7832031,2.5976563 9.8703056,2.335081 9.9514704,2.2148847 10.029297,2.1503906 10.107123,2.0858965 10.237494,1.999724 10.685547,2 Z"
         id="path1440" />
    </g>
    <path
       class="ColorScheme-Background"
       d="m10.687 1c-2.4355-0.0015-1.6161 2.3491-2.6675 3.2206-0.415 0.34396-0.89504 0.62106-1.4004 0.8085-1.2805 0.47492-2.9051-1.4096-4.123 0.69987l-0.15625 0.271-0.15686 0.271c-1.219 2.1085 1.2265 2.5742 1.4555 3.9205 0.090379 0.53138 0.090354 1.0856 0 1.617-0.22892 1.3464-2.6729 1.811-1.4549 3.9205l0.3125 0.54199c1.2165 2.1099 2.8426 0.22506 4.123 0.69987 0.50537 0.18741 0.98539 0.46456 1.4004 0.8085 1.0515 0.87142 0.23221 3.2206 2.6681 3.2206h0.625c2.4355 0.0015 1.6167-2.3491 2.6681-3.2206 0.415-0.34396 0.89504-0.62106 1.4004-0.8085 1.2805-0.47492 2.9051 1.409 4.123-0.70049l0.15625-0.27039 0.15625-0.271c1.219-2.1085-1.2259-2.5742-1.4549-3.9205-0.09038-0.53138-0.09035-1.0856 0-1.617 0.22892-1.3464 2.6729-1.8116 1.4549-3.9211l-0.15625-0.27039-0.15625-0.271c-1.2165-2.1099-2.8426-0.22506-4.123-0.69987-0.50538-0.18741-0.98539-0.46456-1.4004-0.8085-1.0515-0.87142-0.23221-3.2206-2.6681-3.2206h-0.3125z"
       fill="currentColor"
       id="path1190" />
    <path
       d="m10.687 1c-2.4355-0.0015-1.6161 2.3491-2.6675 3.2206-0.415 0.34396-0.89504 0.62106-1.4004 0.8085-1.2805 0.47492-2.9051-1.4096-4.123 0.69987l-0.15625 0.271-0.15686 0.271c-1.219 2.1085 1.2265 2.5742 1.4555 3.9205 0.090379 0.53138 0.090354 1.0856 0 1.617-0.22892 1.3464-2.6729 1.811-1.4549 3.9205l0.3125 0.54199c1.2165 2.1099 2.8426 0.22506 4.123 0.69987 0.50537 0.18741 0.98539 0.46456 1.4004 0.8085 1.0515 0.87142 0.23221 3.2206 2.6681 3.2206h0.625c2.4355 0.0015 1.6167-2.3491 2.6681-3.2206 0.415-0.34396 0.89504-0.62106 1.4004-0.8085 1.2805-0.47492 2.9051 1.409 4.123-0.70049l0.15625-0.27039 0.15625-0.271c1.219-2.1085-1.2259-2.5742-1.4549-3.9205-0.09038-0.53138-0.09035-1.0856 0-1.617 0.22892-1.3464 2.6729-1.8116 1.4549-3.9211l-0.15625-0.27039-0.15625-0.271c-1.2165-2.1099-2.8426-0.22506-4.123-0.69987-0.50538-0.18741-0.98539-0.46456-1.4004-0.8085-1.0515-0.87142-0.23221-3.2206-2.6681-3.2206h-0.3125z"
       id="path2215"
       style="fill-opacity:1;fill:url(#linearGradient2753);opacity:0.25" />
  </g>
  <path
     class="ColorScheme-Text"
     d="m10.688 1c-2.4355-0.0015-1.6166 2.3492-2.668 3.2207-0.415 0.34396-0.89505 0.62116-1.4004 0.80859-1.2805 0.47492-2.9052-1.4103-4.123 0.69922l-0.3125 0.54297c-0.30877 0.53409-0.3823 0.96188-0.31641 1.3262 0.039935-0.24593 0.13819-0.5179 0.31641-0.82617l0.3125-0.54297c1.2179-2.1095 2.8425-0.22429 4.123-0.69922 0.50534-0.18744 0.98539-0.46463 1.4004-0.80859 1.0514-0.8715 0.23247-3.2222 2.668-3.2207h0.625c2.4359 0 1.6164 2.3493 2.668 3.2207 0.41499 0.34394 0.89502 0.62118 1.4004 0.80859 1.2804 0.47481 2.9065-1.4107 4.123 0.69922l0.15625 0.27148 0.15625 0.26953c0.17717 0.30685 0.27611 0.57918 0.31641 0.82422 0.064529-0.36346-0.009095-0.79198-0.31641-1.3242l-0.15625-0.26953-0.15625-0.27148c-1.2165-2.1099-2.8427-0.22441-4.123-0.69922-0.50538-0.18741-0.9854-0.46466-1.4004-0.80859-1.0515-0.87142-0.23206-3.2207-2.668-3.2207h-0.625zm-6.9922 10.25c-0.0096272 0.18751-0.025366 0.37467-0.056641 0.55859-0.19554 1.1501-2.0045 1.6576-1.7695 3.0957 0.19289-1.0753 1.5985-1.5898 1.7695-2.5957 0.05908-0.34745 0.074821-0.70437 0.056641-1.0586zm14.609 0c-0.018184 0.35421-0.002455 0.71115 0.05664 1.0586 0.17097 1.0052 1.5774 1.5199 1.7715 2.5938 0.23334-1.4361-1.576-1.9443-1.7715-3.0938-0.031285-0.18394-0.047018-0.37107-0.05664-0.55859z"
     fill="#fff"
     opacity=".1"
     stroke-width="1.25"
     id="path1194" />
  <g
     transform="translate(-23,-13)"
     id="g1212">
    <rect
       x="31"
       y="26.5"
       width="6"
       height="8"
       rx="2.4"
       ry="2"
       opacity=".2"
       id="rect1196" />
    <rect
       x="33"
       y="27"
       width="2"
       height="6"
       rx="1"
       ry="1"
       opacity=".4"
       id="rect1198" />
    <g
       id="g2012">
      <path
         d="m36 19.42v3.5801l-2 1.5-2-1.5v-3.5762c-1.82 0.79431-2.9975 2.5904-3 4.5762 0 1.6361 0.7852 3.0878 2 4v4c0 1.108 1.0708 2 2.4004 2h1.1992c1.3296 0 2.4004-0.892 2.4004-2v-4c0-6.52e-4 1e-6 -0.0013 0-2e-3 1.2136-0.91223 2-2.3629 2-3.998-1e-3 -1.9872-1.1787-3.7852-3-4.5801z"
         id="path1200"
         style="fill:#808080;fill-opacity:1" />
      <path
         d="m36 19.42v3.5801l-2 1.5-2-1.5v-3.5762c-1.82 0.79431-2.9975 2.5904-3 4.5762 0 1.6361 0.7852 3.0878 2 4v4c0 1.108 1.0708 2 2.4004 2h1.1992c1.3296 0 2.4004-0.892 2.4004-2v-4c0-6.52e-4 1e-6 -0.0013 0-2e-3 1.2136-0.91223 2-2.3629 2-3.998-1e-3 -1.9872-1.1787-3.7852-3-4.5801z"
         fill="currentColor"
         id="path2035"
         class="ColorScheme-Text"
         style="opacity:0.25" />
    </g>
    <path
       d="m31 27.999c-1e-6 6.52e-4 0 0.0013 0 2e-3v4c0 1.108 1.0708 2 2.4004 2h1.2012c1.3296 0 2.3984-0.892 2.3984-2v-4c-0.83556 0.62741-1.8747 1-3 1-1.1263 0-2.1641-0.37355-3-1.002z"
       opacity=".1"
       id="path1202" />
    <path
       d="m33 28.9v3.0996c0 0.554 0.446 1 1 1s1-0.446 1-1v-3.0996c-0.32334 0.06576-0.65736 0.10156-1 0.10156-0.34237 0-0.67718-0.03587-1-0.10156z"
       opacity=".4"
       id="path1204" />
    <path
       d="m29.008 24.27c-0.0036 0.07685-0.0077 0.15299-0.0078 0.23047 0 2.7614 2.2386 5 5 5s5-2.2386 5-5c-3.6e-5 -0.0719-0.0047-0.14347-0.0078-0.21484-0.14765 2.6289-2.3264 4.7148-4.9922 4.7148-2.6712 0-4.8524-2.0941-4.9922-4.7305z"
       opacity=".2"
       id="path1206" />
    <path
       d="m36.002 19.418v3.5801c-0.66667 0.5-1.3333 1-2 1.5-0.66667-0.5-1.3333-1-2-1.5v-3.5762c-1.838 0.77452-3.0845 2.735-2.9974 4.7291 0.03289 2.072 1.5012 4.0172 3.4827 4.6153 1.8284 0.59774 3.9736 0.02408 5.2343-1.4291 1.3895-1.4967 1.6779-3.8696 0.70659-5.6619-0.52196-0.9992-1.3915-1.8093-2.4262-2.2573z"
       fill="#fff"
       opacity=".1"
       id="path1208" />
    <path
       d="m36 19.42v0.5c1.733 0.75634 2.8809 2.4214 2.9893 4.293 3e-3 -0.0712 0.01074-0.14095 0.01074-0.21289-1e-3 -1.9872-1.1787-3.7852-3-4.5801zm-4 0.0039c-1.82 0.79431-2.9975 2.5904-3 4.5762 0 0.07194 0.0077 0.14169 0.01074 0.21289 0.10964-1.8702 1.2575-3.5333 2.9893-4.2891v-0.5zm0 3.5762v0.5l2 1.5 2-1.5v-0.5l-2 1.5z"
       fill="#fff"
       opacity=".1"
       id="path1210" />
  </g>
</svg>
