<svg width="16" height="16" version="1" xmlns="http://www.w3.org/2000/svg">
 <path d="m7.7495 0c-1.9484-0.0012-1.2733 1.957-2.1038 2.6453-0.32779 0.27168-0.70695 0.49055-1.1061 0.6386-1.0114 0.37513-2.3685-1.1883-3.3429 0.49933l-0.125 0.2168-0.12549 0.2168c-0.97517 1.6868 1.0582 2.0812 1.2391 3.1446 0.071386 0.41971 0.071366 0.85749 0 1.2772-0.18081 1.0634-2.213 1.457-1.2386 3.1446l0.25 0.43359c0.97321 1.6879 2.3315 0.12429 3.3429 0.49933 0.39918 0.14803 0.77831 0.36694 1.1061 0.6386 0.83055 0.6883 0.15554 2.6453 2.1043 2.6453h0.5c1.9484 0.0012 1.2738-1.957 2.1043-2.6453 0.32779-0.27168 0.70695-0.49055 1.1061-0.6386 1.0114-0.37513 2.3685 1.1878 3.3429-0.49982l0.125-0.21631 0.125-0.2168c0.97517-1.6868-1.0577-2.0812-1.2386-3.1446-0.07138-0.41971-0.07136-0.85749 0-1.2772 0.18081-1.0634 2.213-1.4575 1.2386-3.1451l-0.125-0.21631-0.125-0.2168c-0.97321-1.6879-2.3315-0.12429-3.3429-0.49933-0.39918-0.14803-0.77831-0.36694-1.1061-0.6386-0.83055-0.6883-0.15554-2.6453-2.1043-2.6453h-0.25z" fill="#008374" stroke-linecap="round" stroke-linejoin="round" stroke-width=".34962" style="paint-order:markers stroke fill"/>
 <rect x="6" y="9.6" width="4" height="6.4" rx="1.6" ry="1.6" fill="#e4e4e4"/>
 <rect x="7" y="10.2" width="2" height="4.8" rx="1" ry=".8" opacity=".4"/>
 <path d="m10 4.5469v2.4531l-2 1.5-2-1.5v-2.4512c-1.2237 0.70807-1.9982 2.0149-2 3.4512 0 2.2091 1.7909 4 4 4 2.2091 0 4-1.7909 4-4-7.23e-4 -1.4373-0.77557-2.7444-2-3.4531z" fill="#fff"/>
</svg>
