<?xml version="1.0" encoding="UTF-8" standalone="no"?>
<svg
   width="16"
   height="16"
   version="1"
   id="svg10"
   sodipodi:docname="androidStyle.svg"
   inkscape:version="1.1.1 (3bf5ae0d25, 2021-09-20, custom)"
   xmlns:inkscape="http://www.inkscape.org/namespaces/inkscape"
   xmlns:sodipodi="http://sodipodi.sourceforge.net/DTD/sodipodi-0.dtd"
   xmlns="http://www.w3.org/2000/svg"
   xmlns:svg="http://www.w3.org/2000/svg">
  <defs
     id="defs14" />
  <sodipodi:namedview
     id="namedview12"
     pagecolor="#ffffff"
     bordercolor="#666666"
     borderopacity="1.0"
     inkscape:pageshadow="2"
     inkscape:pageopacity="0.0"
     inkscape:pagecheckerboard="0"
     showgrid="true"
     inkscape:zoom="18.6875"
     inkscape:cx="6.4481605"
     inkscape:cy="8.5886288"
     inkscape:window-width="1440"
     inkscape:window-height="823"
     inkscape:window-x="0"
     inkscape:window-y="768"
     inkscape:window-maximized="1"
     inkscape:current-layer="svg10"
     inkscape:snap-center="true">
    <inkscape:grid
       type="xygrid"
       id="grid831" />
  </sodipodi:namedview>
  <path
     d="m7.7495 0c-1.9484-0.0012-1.2929 1.8793-2.134 2.5765-0.332 0.27517-0.71603 0.49685-1.1203 0.6468-1.0244 0.37994-2.3241-1.1277-3.2984 0.5599l-0.125 0.2168-0.12549 0.2168c-0.97517 1.6868 0.98122 2.0594 1.1644 3.1364 0.072303 0.4251 0.072283 0.8685 0 1.2936-0.18314 1.0771-2.1383 1.4488-1.1639 3.1364l0.25 0.43359c0.97321 1.6879 2.2741 0.18005 3.2984 0.5599 0.4043 0.14993 0.78831 0.37165 1.1203 0.6468 0.84122 0.69714 0.18577 2.5765 2.1345 2.5765h0.5c1.9484 0.0012 1.2934-1.8793 2.1345-2.5765 0.332-0.27517 0.71603-0.49685 1.1203-0.6468 1.0244-0.37994 2.3241 1.1272 3.2984-0.56039l0.125-0.21631 0.125-0.2168c0.97517-1.6868-0.98073-2.0594-1.1639-3.1364-0.0723-0.4251-0.07228-0.8685 0-1.2936 0.18314-1.0771 2.1383-1.4493 1.1639-3.1369l-0.125-0.21631-0.125-0.2168c-0.97321-1.6879-2.2741-0.18005-3.2984-0.5599-0.4043-0.14993-0.78831-0.37165-1.1203-0.6468-0.84122-0.69714-0.18577-2.5765-2.1345-2.5765h-0.25z"
     style="fill:#4e4e50;fill-opacity:1"
     id="path2" />
  <path
     id="path32435"
     style="fill:#ffffff;fill-opacity:1;opacity:0.1"
     d="M 7.75 0 C 5.8016 -0.0012 6.4563344 1.8789719 5.6152344 2.5761719 C 5.2832344 2.8513419 4.9003638 3.0727062 4.4960938 3.2226562 C 3.4716938 3.6025962 2.1715656 2.0956031 1.1972656 3.7832031 L 1.0722656 4 L 0.94726562 4.2167969 C 0.6890751 4.6634019 0.63958304 5.0165875 0.70507812 5.3164062 C 0.74274524 5.1358657 0.81939646 4.9379785 0.94726562 4.7167969 L 1.0722656 4.5 L 1.1972656 4.2832031 C 2.1715656 2.5956031 3.4716938 4.1025962 4.4960938 3.7226562 C 4.9003637 3.5727063 5.2832344 3.3513419 5.6152344 3.0761719 C 6.4563344 2.3789719 5.8016 0.4988 7.75 0.5 L 8 0.5 L 8.25 0.5 C 10.19873 0.5 9.5435456 2.3790319 10.384766 3.0761719 C 10.716756 3.3513219 11.099606 3.5727263 11.503906 3.7226562 C 12.528206 4.1025062 13.829524 2.5953031 14.802734 4.2832031 L 14.927734 4.5 L 15.052734 4.7167969 C 15.180609 4.9382677 15.257329 5.1356779 15.294922 5.3164062 C 15.3604 5.0165124 15.310721 4.6636137 15.052734 4.2167969 L 14.927734 4 L 14.802734 3.7832031 C 13.829524 2.0953031 12.528206 3.6025063 11.503906 3.2226562 C 11.099606 3.0727263 10.716756 2.8513219 10.384766 2.5761719 C 9.5435456 1.8790319 10.19873 2.9605947e-16 8.25 0 L 8 0 L 7.75 0 z M 2.1542969 8.25 C 2.1457326 8.3829874 2.1335341 8.51589 2.1113281 8.6464844 C 1.9522056 9.5823308 0.45582049 9.9869839 0.70507812 11.183594 C 0.88690591 10.35095 1.9766771 9.9384064 2.1113281 9.1464844 C 2.1614052 8.8519788 2.1736065 8.5499022 2.1542969 8.25 z M 13.845703 8.25 C 13.826396 8.549883 13.838586 8.8519981 13.888672 9.1464844 C 14.023445 9.9389237 15.114413 10.351717 15.294922 11.185547 C 15.546227 9.9880306 14.047892 9.5826658 13.888672 8.6464844 C 13.866457 8.5158706 13.854265 8.3830073 13.845703 8.25 z " />
  <g
     id="g37957"
     transform="translate(-4)">
    <path
       id="rect4-3"
       style="fill:#e5e5e5;fill-opacity:1"
       d="M 14,4.546875 V 7 L 12,8.5 10,7 V 4.5488281 C 8.7763,5.2568981 8.0018,6.5637 8,8 c 0,1.480193 0.804859,2.771144 2,3.462891 v 2.9375 C 10,15.286791 10.713209,16 11.599609,16 h 0.800782 C 13.286791,16 14,15.286791 14,14.400391 v -2.9375 C 15.195141,10.771144 16,9.480193 16,8 15.999277,6.5627 15.22443,5.255575 14,4.546875 Z" />
    <path
       id="rect33192"
       style="opacity:0.2;fill:#000000;fill-opacity:1"
       d="m 10,11.462891 v 2.9375 C 10,15.286791 10.713209,16 11.599609,16 h 0.800782 C 13.286791,16 14,15.286791 14,14.400391 v -2.9375 C 13.411464,11.803535 12.728907,12 12,12 11.271093,12 10.588536,11.803535 10,11.462891 Z" />
    <path
       id="rect33413"
       d="m 11,11.873047 v 2.326172 C 11,14.642419 11.446,15 12,15 c 0.554,0 1,-0.357581 1,-0.800781 V 11.873047 C 12.680427,11.955747 12.345472,12 12,12 11.654528,12 11.319573,11.95575 11,11.873047 Z"
       style="opacity:0.4" />
  </g>
  <path
     d="M 24,5.0469 V 7.5 L 22,9 20,7.5 V 5.0488 C 18.7763,5.75687 18.0018,7.0637 18,8.5 c 0,2.2091 1.7909,4 4,4 2.2091,0 4,-1.7909 4,-4 -7.23e-4,-1.4373 -0.77557,-2.7444 -2,-3.4531 z"
     id="path8"
     style="fill:#e4e6e7;fill-opacity:1" />
  <path
     d="M -3,4.5469 V 7 L -5,8.5 -7,7 V 4.5488 C -8.2237,5.25687 -8.9982,6.5637 -9,8 c 0,2.2091 1.7909,4 4,4 2.2091,0 4,-1.7909 4,-4 -7.23e-4,-1.4373 -0.77557,-2.7444 -2,-3.4531 z"
     id="path38245"
     style="opacity:0.2;fill:#ffffff;fill-opacity:1" />
</svg>
