<svg width="16" height="16" version="1" xmlns="http://www.w3.org/2000/svg">
 <path d="m7.7495 0c-1.9484-0.0012-1.2929 1.8793-2.134 2.5765-0.332 0.27517-0.71603 0.49685-1.1203 0.6468-1.0244 0.37994-2.3241-1.1277-3.2984 0.5599l-0.125 0.2168-0.12549 0.2168c-0.97517 1.6868 0.98122 2.0594 1.1644 3.1364 0.072303 0.4251 0.072283 0.8685 0 1.2936-0.18314 1.0771-2.1383 1.4488-1.1639 3.1364l0.25 0.43359c0.97321 1.6879 2.2741 0.18005 3.2984 0.5599 0.4043 0.14993 0.78831 0.37165 1.1203 0.6468 0.84122 0.69714 0.18577 2.5765 2.1345 2.5765h0.5c1.9484 0.0012 1.2934-1.8793 2.1345-2.5765 0.332-0.27517 0.71603-0.49685 1.1203-0.6468 1.0244-0.37994 2.3241 1.1272 3.2984-0.56039l0.125-0.21631 0.125-0.2168c0.97517-1.6868-0.98073-2.0594-1.1639-3.1364-0.0723-0.4251-0.07228-0.8685 0-1.2936 0.18314-1.0771 2.1383-1.4493 1.1639-3.1369l-0.125-0.21631-0.125-0.2168c-0.97321-1.6879-2.2741-0.18005-3.2984-0.5599-0.4043-0.14993-0.78831-0.37165-1.1203-0.6468-0.84122-0.69714-0.18577-2.5765-2.1345-2.5765h-0.25z" fill="#646466"/>
 <rect x="20" y="9.6" width="4" height="6.4" rx="1.6" ry="1.6" fill="#aeb2b7"/>
 <rect x="21" y="10.2" width="2" height="4.8" rx="1" ry=".8" opacity=".4"/>
 <g>
  <path d="m24 4.5469v2.4531l-2 1.5-2-1.5v-2.4512c-1.2237 0.70807-1.9982 2.0149-2 3.4512 0 2.2091 1.7909 4 4 4s4-1.7909 4-4c-7.23e-4 -1.4373-0.77557-2.7444-2-3.4531z" fill="#e4e6e7"/>
  <path d="m10 4.5469v2.4531l-2 1.5-2-1.5v-2.4512c-1.2237 0.70807-1.9982 2.0149-2 3.4512 0 1.4802 0.80486 2.7711 2 3.4629v2.9375c0 0.8864 0.71321 1.5996 1.5996 1.5996h0.80078c0.8864 0 1.5996-0.71321 1.5996-1.5996v-2.9375c1.1951-0.69175 2-1.9827 2-3.4629-7.23e-4 -1.4373-0.77557-2.7444-2-3.4531z" fill="#4eb9ff"/>
  <path d="m7.75 0c-1.9484-0.0012-1.2937 1.879-2.1348 2.5762-0.332 0.27517-0.71487 0.49653-1.1191 0.64648-1.0244 0.37994-2.3245-1.1271-3.2988 0.56055l-0.25 0.43359c-0.25819 0.4466-0.30768 0.79979-0.24219 1.0996 0.037667-0.18054 0.11432-0.37843 0.24219-0.59961l0.25-0.43359c0.9743-1.6876 2.2744-0.18061 3.2988-0.56055 0.40427-0.14995 0.78714-0.37131 1.1191-0.64648 0.8411-0.6972 0.18637-2.5774 2.1348-2.5762h0.25 0.25c1.9487 0 1.2935 1.879 2.1348 2.5762 0.33199 0.27515 0.71484 0.49655 1.1191 0.64648 1.0243 0.37985 2.3256-1.1274 3.2988 0.56055l0.25 0.43359c0.12788 0.22147 0.2046 0.41888 0.24219 0.59961 0.065478-0.29989 0.015799-0.65279-0.24219-1.0996l-0.25-0.43359c-0.97321-1.6879-2.2745-0.1807-3.2988-0.56055-0.4043-0.14993-0.78715-0.37133-1.1191-0.64648-0.84122-0.69714-0.18604-2.5762-2.1348-2.5762h-0.25-0.25zm-5.5957 8.25c-0.0085643 0.13299-0.020763 0.26589-0.042969 0.39648-0.15912 0.93585-1.6555 1.3405-1.4062 2.5371 0.18183-0.83264 1.2716-1.2452 1.4062-2.0371 0.050077-0.29451 0.062278-0.59658 0.042969-0.89648zm11.691 0c-0.019307 0.29988-0.007117 0.602 0.042969 0.89648 0.13477 0.79244 1.2257 1.2052 1.4062 2.0391 0.2513-1.1975-1.247-1.6029-1.4062-2.5391-0.022215-0.13061-0.034407-0.26348-0.042969-0.39648z" fill="#fff" opacity=".1"/>
  <path d="m6 11.463v2.9375c0 0.8864 0.71321 1.5996 1.5996 1.5996h0.80078c0.8864 0 1.5996-0.71321 1.5996-1.5996v-2.9375c-0.58854 0.34064-1.2711 0.53711-2 0.53711s-1.4115-0.19646-2-0.53711z" opacity=".1"/>
 </g>
 <path d="m7 11.873v2.3262c0 0.4432 0.446 0.80078 1 0.80078s1-0.35758 1-0.80078v-2.3262c-0.31957 0.0827-0.65453 0.12695-1 0.12695s-0.68043-0.044253-1-0.12695z" opacity=".3"/>
</svg>
