<?xml version="1.0" encoding="UTF-8" standalone="no"?>
<svg
   width="16"
   height="16"
   version="1"
   id="svg10"
   sodipodi:docname="utilities-tweak-toolCOLOR.svg"
   inkscape:version="1.1.1 (3bf5ae0d25, 2021-09-20, custom)"
   xmlns:inkscape="http://www.inkscape.org/namespaces/inkscape"
   xmlns:sodipodi="http://sodipodi.sourceforge.net/DTD/sodipodi-0.dtd"
   xmlns="http://www.w3.org/2000/svg"
   xmlns:svg="http://www.w3.org/2000/svg"
   xmlns:rdf="http://www.w3.org/1999/02/22-rdf-syntax-ns#"
   xmlns:cc="http://creativecommons.org/ns#"
   xmlns:dc="http://purl.org/dc/elements/1.1/">
  <metadata
     id="metadata114">
    <rdf:RDF>
      <cc:Work
         rdf:about="">
        <dc:format>image/svg+xml</dc:format>
        <dc:type
           rdf:resource="http://purl.org/dc/dcmitype/StillImage" />
      </cc:Work>
    </rdf:RDF>
  </metadata>
  <defs
     id="defs14" />
  <sodipodi:namedview
     id="namedview12"
     pagecolor="#ffffff"
     bordercolor="#666666"
     borderopacity="1.0"
     inkscape:pageshadow="2"
     inkscape:pageopacity="0.0"
     inkscape:pagecheckerboard="0"
     showgrid="true"
     inkscape:snap-bbox="true"
     inkscape:bbox-nodes="true"
     inkscape:snap-center="true"
     inkscape:snap-smooth-nodes="true"
     showguides="true"
     inkscape:zoom="32"
     inkscape:cx="7.265625"
     inkscape:cy="6.328125"
     inkscape:window-width="1440"
     inkscape:window-height="823"
     inkscape:window-x="0"
     inkscape:window-y="768"
     inkscape:window-maximized="1"
     inkscape:current-layer="svg10"
     inkscape:snap-grids="true"
     inkscape:snap-midpoints="true"
     inkscape:snap-global="true"
     inkscape:document-rotation="0">
    <inkscape:grid
       type="xygrid"
       id="grid850" />
  </sodipodi:namedview>
  <path
     id="path986-6"
     style="opacity:1;fill:#4f4f4f;stroke-width:0.349615;stroke-linecap:round;stroke-linejoin:round;paint-order:markers stroke fill;fill-opacity:1"
     inkscape:transform-center-x="-3.4641112"
     inkscape:transform-center-y="-4.625"
     d="M 7.749512,0 C 5.249755,0 6.280562,2.2434575 5.077147,2.9379875 3.873735,3.6325175 2.321777,1.835135 1.196777,3.7836925 L 1.071777,4 0.94629,4.2167975 C -0.303588,6.3816525 2.155012,6.6105475 2.154785,8 2.15456,9.3894525 -0.178223,9.835135 0.946777,11.783693 L 1.071777,12 l 0.125,0.216798 C 2.446657,14.38165 3.87445,12.36709 5.077637,13.062013 6.280825,13.756933 5.5,16 7.75,16 H 8 8.25 c 2.499757,-2e-6 1.469437,-2.243457 2.672852,-2.937987 1.203415,-0.69453 2.75537,1.102852 3.88037,-0.845706 L 14.928222,12 l 0.125,-0.216797 C 16.3031,9.6183475 13.844987,9.3894525 13.845215,8 13.845442,6.6105475 16.178222,6.164865 15.053222,4.2163075 L 14.928222,4 14.803222,3.7832025 C 13.553342,1.61835 12.12555,3.63291 10.922362,2.9379875 9.719175,2.2430675 10.5,0 8.25,0 H 8 Z" />
  <rect
     id="rect7489"
     width="8"
     height="8"
     x="4"
     y="4.5"
     rx="4"
     ry="4"
     style="opacity:0.2" />
  <rect
     style="opacity:1;fill:#808080;fill-opacity:1;stroke:none;stroke-width:2;stroke-linecap:round;stroke-linejoin:round;paint-order:markers stroke fill"
     id="rect1652"
     width="8"
     height="8"
     x="4"
     y="4"
     rx="4"
     ry="4" />
  <path
     id="path2159"
     style="opacity:0.1;fill:#ffffff;stroke-width:0.349615;stroke-linecap:round;stroke-linejoin:round;paint-order:markers stroke fill;fill-opacity:1"
     inkscape:transform-center-x="-3.4641112"
     inkscape:transform-center-y="-4.625"
     d="M 7.75 0 C 5.250243 0 6.2795869 2.24297 5.0761719 2.9375 C 3.8727599 3.63203 2.3222656 1.8346456 1.1972656 3.7832031 L 1.0722656 4 L 0.94726562 4.2167969 C 0.62224186 4.7797553 0.54715277 5.2108268 0.61523438 5.5664062 C 0.65702239 5.3191605 0.76062312 5.0400716 0.94726562 4.7167969 L 1.0722656 4.5 L 1.1972656 4.2832031 C 2.3222656 2.3346456 3.8727599 4.13203 5.0761719 3.4375 C 6.2795869 2.74297 5.250243 0.5 7.75 0.5 L 8 0.5 L 8.25 0.5 C 10.5 0.5 9.718688 2.74258 10.921875 3.4375 C 12.125063 4.1324225 13.552854 2.1183506 14.802734 4.2832031 L 14.927734 4.5 L 15.052734 4.7167969 C 15.209551 4.9884109 15.297809 5.2293806 15.335938 5.4492188 C 15.401364 5.1081826 15.338394 4.7115742 15.052734 4.2167969 L 14.927734 4 L 14.802734 3.7832031 C 13.552854 1.6183506 12.125063 3.6324225 10.921875 2.9375 C 9.718688 2.24258 10.5 -1.4802974e-16 8.25 0 L 8 0 L 7.75 0 z M 13.873047 8.2441406 C 13.855395 8.3260798 13.845718 8.4109522 13.845703 8.5 C 13.845534 9.5279957 15.188943 9.9220939 15.382812 10.933594 C 15.604005 9.6267658 14.093172 9.237253 13.873047 8.2441406 z M 2.1269531 8.2558594 C 1.9075741 9.2742348 0.44619007 9.7945763 0.6640625 11.050781 C 0.85630156 10.048731 2.154129 9.536643 2.1542969 8.5 C 2.1543108 8.4145171 2.1441165 8.3332778 2.1269531 8.2558594 z " />
  <rect
     style="opacity:1;fill:#4cc2ff;fill-opacity:1;stroke:none;stroke-width:1.5;stroke-linecap:round;stroke-linejoin:round;paint-order:markers stroke fill"
     id="rect5344"
     width="6"
     height="6"
     x="5"
     y="5"
     rx="3"
     ry="3" />
  <path
     id="rect6804"
     style="opacity:0.1;fill:#ffffff;fill-opacity:1;stroke:none;stroke-width:2;stroke-linecap:round;stroke-linejoin:round;paint-order:markers stroke fill"
     d="M 8 4 C 5.784 4 4 5.784 4 8 C 4 8.0839147 4.0047227 8.1673976 4.0097656 8.25 C 4.1378957 6.1512587 5.8679147 4.5 8 4.5 C 10.132085 4.5 11.862104 6.1512587 11.990234 8.25 C 11.995277 8.1673976 12 8.0839147 12 8 C 12 5.784 10.216 4 8 4 z " />
  <path
     id="rect8151"
     style="opacity:0.1;fill:#ffffff;fill-opacity:1;stroke:none;stroke-width:1.5;stroke-linecap:round;stroke-linejoin:round;paint-order:markers stroke fill"
     d="M 8 5 C 6.338 5 5 6.338 5 8 C 5 8.0845767 5.0049225 8.1672351 5.0117188 8.25 C 5.1384742 6.7063666 6.4225767 5.5 8 5.5 C 9.5774233 5.5 10.861526 6.7063666 10.988281 8.25 C 10.995077 8.1672351 11 8.0845767 11 8 C 11 6.338 9.662 5 8 5 z " />
</svg>
