<?xml version="1.0" encoding="UTF-8" standalone="no"?>
<svg
   width="32"
   height="32"
   version="1"
   id="svg10"
   sodipodi:docname="utilities-tweak-toolCOLOR-32.svg"
   inkscape:version="1.1.1 (3bf5ae0d25, 2021-09-20, custom)"
   xmlns:inkscape="http://www.inkscape.org/namespaces/inkscape"
   xmlns:sodipodi="http://sodipodi.sourceforge.net/DTD/sodipodi-0.dtd"
   xmlns="http://www.w3.org/2000/svg"
   xmlns:svg="http://www.w3.org/2000/svg"
   xmlns:rdf="http://www.w3.org/1999/02/22-rdf-syntax-ns#"
   xmlns:cc="http://creativecommons.org/ns#"
   xmlns:dc="http://purl.org/dc/elements/1.1/">
  <metadata
     id="metadata114">
    <rdf:RDF>
      <cc:Work
         rdf:about="">
        <dc:format>image/svg+xml</dc:format>
        <dc:type
           rdf:resource="http://purl.org/dc/dcmitype/StillImage" />
      </cc:Work>
    </rdf:RDF>
  </metadata>
  <defs
     id="defs14" />
  <sodipodi:namedview
     id="namedview12"
     pagecolor="#ffffff"
     bordercolor="#666666"
     borderopacity="1.0"
     inkscape:pageshadow="2"
     inkscape:pageopacity="0.0"
     inkscape:pagecheckerboard="0"
     showgrid="true"
     inkscape:snap-bbox="true"
     inkscape:bbox-nodes="true"
     inkscape:snap-center="true"
     inkscape:snap-smooth-nodes="true"
     showguides="true"
     inkscape:zoom="16.000001"
     inkscape:cx="17.093749"
     inkscape:cy="17.781249"
     inkscape:window-width="1440"
     inkscape:window-height="823"
     inkscape:window-x="0"
     inkscape:window-y="768"
     inkscape:window-maximized="1"
     inkscape:current-layer="svg10"
     inkscape:snap-grids="true"
     inkscape:snap-midpoints="true"
     inkscape:snap-global="true"
     inkscape:document-rotation="0"
     fit-margin-top="0"
     fit-margin-left="0"
     fit-margin-right="0"
     fit-margin-bottom="0">
    <inkscape:grid
       type="xygrid"
       id="grid850"
       originx="0"
       originy="0" />
  </sodipodi:namedview>
  <path
     id="path986-6"
     style="fill:#4f4f4f;fill-opacity:1;stroke-width:0.69923;stroke-linecap:round;stroke-linejoin:round;paint-order:markers stroke fill"
     inkscape:transform-center-x="-3.4641112"
     inkscape:transform-center-y="-4.625"
     d="M 15.499024,0 C 10.49951,0 12.561124,4.486915 10.154294,5.875975 7.74747,7.265035 4.643554,3.67027 2.393554,7.567385 L 2.143554,8 1.89258,8.433595 c -2.499756,4.32971 2.417444,4.7875 2.41699,7.566405 -4.5e-4,2.778905 -4.666016,3.67027 -2.416016,7.567386 l 0.25,0.432614 0.25,0.433596 C 4.893314,28.7633 7.7489,24.73418 10.155274,26.124026 12.56165,27.513866 11,32 15.5,32 h 0.5 0.5 c 4.999514,-4e-6 2.938874,-4.486914 5.345704,-5.875974 2.40683,-1.38906 5.51074,2.205704 7.76074,-1.691412 l 0.25,-0.432614 0.25,-0.433594 C 32.6062,19.236695 27.689974,18.778905 27.69043,16 c 4.54e-4,-2.778905 4.666014,-3.67027 2.416014,-7.567385 L 29.856444,8 l -0.25,-0.433595 C 27.106684,3.2367 24.2511,7.26582 21.844724,5.875975 19.43835,4.486135 21,0 16.5,0 H 16 Z" />
  <rect
     id="rect7489"
     width="16"
     height="16"
     x="8"
     y="9"
     rx="8"
     ry="8"
     style="opacity:0.2;stroke-width:2" />
  <rect
     style="fill:#808080;fill-opacity:1;stroke:none;stroke-width:4;stroke-linecap:round;stroke-linejoin:round;paint-order:markers stroke fill"
     id="rect1652"
     width="16"
     height="16"
     x="8"
     y="8"
     rx="8"
     ry="8" />
  <path
     id="path2159"
     style="opacity:0.1;fill:#ffffff;fill-opacity:1;stroke-width:0.69923;stroke-linecap:round;stroke-linejoin:round;paint-order:markers stroke fill"
     inkscape:transform-center-x="-3.4641112"
     inkscape:transform-center-y="-4.625"
     d="M 15.5,0 C 10.500486,0 12.559174,4.48594 10.152344,5.875 7.7455198,7.26406 4.6445312,3.6692912 2.3945312,7.5664062 L 2.1445312,8 l -0.25,0.4335938 C 1.2444837,9.5595106 1.0943055,10.421654 1.2304688,11.132812 1.3140448,10.638321 1.5212462,10.080143 1.8945312,9.4335938 L 2.1445312,9 l 0.25,-0.4335938 C 4.6445312,4.6692912 7.7455198,8.26406 10.152344,6.875 12.559174,5.48594 10.500486,1 15.5,1 h 0.5 0.5 c 4.5,0 2.937376,4.48516 5.34375,5.875 2.406376,1.389845 5.261958,-2.6382988 7.761718,1.6914062 L 29.855468,9 l 0.25,0.4335938 c 0.313634,0.543228 0.49015,1.0251672 0.566408,1.4648442 0.13086,-0.682073 0.005,-1.4752896 -0.566408,-2.4648442 L 29.855468,8 l -0.25,-0.4335938 C 27.105708,3.2367012 24.250126,7.264845 21.84375,5.875 19.437376,4.48516 21,0 16.5,0 H 16 Z m 12.246094,16.488281 c -0.0353,0.163878 -0.05466,0.333623 -0.05468,0.511719 -3.38e-4,2.055991 2.68648,2.844188 3.074218,4.867188 0.442386,-2.613656 -2.57928,-3.392682 -3.01953,-5.378907 z M 4.2539062,16.511719 C 3.8151482,18.54847 0.89238014,19.589153 1.328125,22.101562 1.7126031,20.097462 4.308258,19.073286 4.3085938,17 4.3086216,16.829034 4.288233,16.666556 4.2539062,16.511719 Z" />
  <rect
     style="fill:#4cc2ff;fill-opacity:1;stroke:none;stroke-width:3;stroke-linecap:round;stroke-linejoin:round;paint-order:markers stroke fill"
     id="rect5344"
     width="12"
     height="12"
     x="10"
     y="10"
     rx="6"
     ry="6" />
  <path
     id="rect6804"
     style="opacity:0.1;fill:#ffffff;fill-opacity:1;stroke:none;stroke-width:4;stroke-linecap:round;stroke-linejoin:round;paint-order:markers stroke fill"
     d="m 16,8 c -4.432,0 -8,3.568 -8,8 0,0.16783 0.00944,0.334795 0.01954,0.5 C 8.2757914,12.302517 11.735829,9 16,9 c 4.26417,0 7.724208,3.302517 7.980468,7.5 C 23.990554,16.334795 24,16.167829 24,16 24,11.568 20.432,8 16,8 Z" />
  <path
     id="rect8151"
     style="opacity:0.1;fill:#ffffff;fill-opacity:1;stroke:none;stroke-width:3;stroke-linecap:round;stroke-linejoin:round;paint-order:markers stroke fill"
     d="m 16,10 c -3.324,0 -6,2.676 -6,6 0,0.169153 0.0098,0.33447 0.02344,0.5 C 10.276948,13.412733 12.845153,11 16,11 c 3.154847,0 5.723052,2.412733 5.976562,5.5 C 21.990154,16.33447 22,16.169153 22,16 22,12.676 19.324,10 16,10 Z" />
</svg>
