<?xml version="1.0" encoding="UTF-8" standalone="no"?>
<svg
   width="16"
   height="16"
   version="1"
   id="svg10"
   sodipodi:docname="utilities-tweak-toolPERFECTION.svg"
   inkscape:version="1.1.1 (3bf5ae0d25, 2021-09-20, custom)"
   xmlns:inkscape="http://www.inkscape.org/namespaces/inkscape"
   xmlns:sodipodi="http://sodipodi.sourceforge.net/DTD/sodipodi-0.dtd"
   xmlns="http://www.w3.org/2000/svg"
   xmlns:svg="http://www.w3.org/2000/svg"
   xmlns:rdf="http://www.w3.org/1999/02/22-rdf-syntax-ns#"
   xmlns:cc="http://creativecommons.org/ns#"
   xmlns:dc="http://purl.org/dc/elements/1.1/">
  <metadata
     id="metadata114">
    <rdf:RDF>
      <cc:Work
         rdf:about="">
        <dc:format>image/svg+xml</dc:format>
        <dc:type
           rdf:resource="http://purl.org/dc/dcmitype/StillImage" />
      </cc:Work>
    </rdf:RDF>
  </metadata>
  <defs
     id="defs14" />
  <sodipodi:namedview
     id="namedview12"
     pagecolor="#ffffff"
     bordercolor="#666666"
     borderopacity="1.0"
     inkscape:pageshadow="2"
     inkscape:pageopacity="0.0"
     inkscape:pagecheckerboard="0"
     showgrid="true"
     inkscape:snap-bbox="true"
     inkscape:bbox-nodes="true"
     inkscape:snap-center="true"
     inkscape:snap-smooth-nodes="true"
     showguides="true"
     inkscape:zoom="22.627417"
     inkscape:cx="9.1260969"
     inkscape:cy="9.8332037"
     inkscape:window-width="1440"
     inkscape:window-height="823"
     inkscape:window-x="0"
     inkscape:window-y="768"
     inkscape:window-maximized="1"
     inkscape:current-layer="svg10"
     inkscape:snap-grids="true"
     inkscape:snap-midpoints="true"
     inkscape:snap-global="false"
     inkscape:document-rotation="0">
    <inkscape:grid
       type="xygrid"
       id="grid850" />
  </sodipodi:namedview>
  <path
     id="path970-2-8-2-1-3"
     style="fill:#008374;fill-opacity:1;stroke-width:0.349615;stroke-linecap:round;stroke-linejoin:round;paint-order:markers stroke fill"
     inkscape:transform-center-x="0.00021780221"
     inkscape:transform-center-y="-1.0000005e-06"
     d="M 7.749512,0 C 5.801135,-0.0012 6.438756,1.808442 5.587891,2.51367 5.252047,2.792027 4.86357,3.016275 4.45459,3.167967 3.41837,3.552312 2.171135,2.095567 1.196778,3.783202 L 1.071778,4 0.94629,4.216795 c -0.975169,1.686777 0.910879,2.039422 1.096191,3.128907 0.07314,0.430027 0.07312,0.87856 0,1.308592 -0.185257,1.089565 -2.07006,1.441272 -1.095703,3.128907 l 0.125,0.216797 0.125,0.216795 c 0.973207,1.68791 2.221635,0.230978 3.257812,0.615235 0.408988,0.15167 0.797441,0.375957 1.133301,0.654297 0.850962,0.70522 0.213394,2.513673 2.162109,2.513673 H 8 8.25 c 1.948377,0.0012 1.311244,-1.808445 2.162109,-2.513673 0.335844,-0.278357 0.724321,-0.502604 1.133301,-0.654297 1.03622,-0.384345 2.283455,1.071912 3.257812,-0.615722 l 0.125,-0.216308 0.125,-0.216797 c 0.975169,-1.686778 -0.910391,-2.039422 -1.095703,-3.128907 -0.07314,-0.430027 -0.07312,-0.87856 0,-1.308592 0.185257,-1.089565 2.07006,-1.44176 1.095703,-3.129395 L 14.928222,4 14.803222,3.783202 C 13.830015,2.095292 12.581587,3.552225 11.54541,3.167967 11.136422,3.016297 10.747969,2.79201 10.412109,2.51367 9.561147,1.80845 10.198715,0 8.25,0 H 8 Z" />
  <rect
     style="fill:#e4e4e4"
     width="4"
     height="6.4"
     x="6"
     y="9.6"
     rx="1.6"
     ry="1.6"
     id="rect4" />
  <rect
     style="opacity:.4"
     width="2"
     height="4.8"
     x="7"
     y="10.2"
     rx="1"
     ry=".8"
     id="rect6" />
  <path
     style="fill:#ffffff"
     d="m10 4.546875v2.453125l-2 1.5-2-1.5v-2.4511719c-1.2237425 0.7080671-1.9981599 2.0148597-2 3.4511719 0 2.209138 1.7908612 4 4 4 2.209139 0 4-1.790862 4-4-7.23e-4 -1.437267-0.775574-2.7444472-2-3.453125z"
     id="path8" />
</svg>
