<?xml version="1.0" encoding="UTF-8" standalone="no"?>
<svg
   width="16"
   height="16"
   version="1"
   id="svg10"
   sodipodi:docname="utilities-tweak-toolPERFECTION1.svg"
   inkscape:version="1.1.1 (3bf5ae0d25, 2021-09-20, custom)"
   xmlns:inkscape="http://www.inkscape.org/namespaces/inkscape"
   xmlns:sodipodi="http://sodipodi.sourceforge.net/DTD/sodipodi-0.dtd"
   xmlns="http://www.w3.org/2000/svg"
   xmlns:svg="http://www.w3.org/2000/svg"
   xmlns:rdf="http://www.w3.org/1999/02/22-rdf-syntax-ns#"
   xmlns:cc="http://creativecommons.org/ns#"
   xmlns:dc="http://purl.org/dc/elements/1.1/">
  <metadata
     id="metadata114">
    <rdf:RDF>
      <cc:Work
         rdf:about="">
        <dc:format>image/svg+xml</dc:format>
        <dc:type
           rdf:resource="http://purl.org/dc/dcmitype/StillImage" />
      </cc:Work>
    </rdf:RDF>
  </metadata>
  <defs
     id="defs14" />
  <sodipodi:namedview
     id="namedview12"
     pagecolor="#ffffff"
     bordercolor="#666666"
     borderopacity="1.0"
     inkscape:pageshadow="2"
     inkscape:pageopacity="0.0"
     inkscape:pagecheckerboard="0"
     showgrid="true"
     inkscape:snap-bbox="true"
     inkscape:bbox-nodes="true"
     inkscape:snap-center="true"
     inkscape:snap-smooth-nodes="true"
     showguides="true"
     inkscape:zoom="32"
     inkscape:cx="7.984375"
     inkscape:cy="7.390625"
     inkscape:window-width="1440"
     inkscape:window-height="823"
     inkscape:window-x="0"
     inkscape:window-y="768"
     inkscape:window-maximized="1"
     inkscape:current-layer="svg10"
     inkscape:snap-grids="true"
     inkscape:snap-midpoints="true"
     inkscape:snap-global="false"
     inkscape:document-rotation="0">
    <inkscape:grid
       type="xygrid"
       id="grid850" />
  </sodipodi:namedview>
  <path
     id="path970-2-8-2-1-3"
     style="fill:#008374;fill-opacity:1;stroke-width:0.349615;stroke-linecap:round;stroke-linejoin:round;paint-order:markers stroke fill"
     inkscape:transform-center-x="0.00021780221"
     inkscape:transform-center-y="-1.0000005e-06"
     d="M 7.749512,0 C 5.801135,-0.0012 6.4566339,1.8793419 5.6155122,2.5764943 5.283514,2.8516638 4.8994854,3.0733439 4.4951887,3.2232989 3.4708345,3.6032427 2.171135,2.095567 1.196778,3.783202 L 1.071778,4 0.94629,4.216795 c -0.975169,1.686777 0.9812209,2.0593901 1.1644109,3.1363994 0.072303,0.4251027 0.072283,0.8684995 0,1.2936072 C 1.9275653,9.7238899 -0.027579,10.095566 0.946778,11.783201 l 0.125,0.216797 0.125,0.216795 c 0.973207,1.68791 2.274099,0.180046 3.2984107,0.559903 0.4043047,0.149933 0.7883095,0.371652 1.1203235,0.646805 C 6.4567298,14.120645 5.801285,15.999998 7.75,15.999998 H 8 8.25 c 1.948377,0.0012 1.2933661,-1.879345 2.134488,-2.576497 0.331998,-0.27517 0.716027,-0.496849 1.120323,-0.646805 1.024354,-0.379944 2.324054,1.127244 3.298411,-0.56039 l 0.125,-0.216308 0.125,-0.216797 c 0.975169,-1.686778 -0.980733,-2.0593901 -1.163923,-3.1363994 -0.0723,-0.4251027 -0.07228,-0.8684995 0,-1.2936072 C 14.072435,6.276106 16.027579,5.903942 15.053222,4.216307 L 14.928222,4 14.803222,3.783202 C 13.830015,2.095292 12.529123,3.6031567 11.504811,3.2232989 11.100507,3.0733656 10.716502,2.851647 10.384488,2.5764943 9.5432702,1.8793498 10.198715,0 8.25,0 H 8 Z"
     sodipodi:nodetypes="ccccccccccsscsccsccccccccsscscc" />
  <rect
     style="fill:#e4e4e4"
     width="4"
     height="6.4"
     x="6"
     y="9.6"
     rx="1.6"
     ry="1.6"
     id="rect4" />
  <rect
     style="opacity:.4"
     width="2"
     height="4.8"
     x="7"
     y="10.2"
     rx="1"
     ry=".8"
     id="rect6" />
  <path
     style="fill:#ffffff"
     d="m10 4.546875v2.453125l-2 1.5-2-1.5v-2.4511719c-1.2237425 0.7080671-1.9981599 2.0148597-2 3.4511719 0 2.209138 1.7908612 4 4 4 2.209139 0 4-1.790862 4-4-7.23e-4 -1.437267-0.775574-2.7444472-2-3.453125z"
     id="path8" />
</svg>
