<svg width="16" height="16" version="1" xmlns="http://www.w3.org/2000/svg" xmlns:xlink="http://www.w3.org/1999/xlink">
 <defs>
  <linearGradient id="a" x1="5" x2="14" y1="3" y2="15" gradientTransform="translate(-3,-3)" gradientUnits="userSpaceOnUse">
   <stop style="stop-color:#02c8ff" offset="0"/>
   <stop style="stop-color:#2588ff" offset="1"/>
  </linearGradient>
 </defs>
 <path d="m4 0c-1.108 0-2 0.892-2 2v12c0 1.108 0.892 2 2 2h8c1.108 0 2-0.892 2-2v-9l-5-5z" style="fill:url(#a);paint-order:markers stroke fill"/>
 <path d="m9 0v3c0 1.108 0.892 2 2 2h3z" style="fill:#fff;opacity:.5;paint-order:markers stroke fill"/>
 <rect x="4" y="6" width="8" height="1" rx=".5" ry=".5" style="fill:#fff;opacity:.8;paint-order:markers stroke fill"/>
 <rect x="4" y="8" width="8" height="1" rx=".5" ry=".5" style="fill:#fff;opacity:.8;paint-order:markers stroke fill"/>
 <rect x="4" y="12" width="4" height="1" rx=".5" ry=".5" style="fill:#fff;opacity:.8;paint-order:markers stroke fill"/>
 <rect x="4" y="10" width="8" height="1" rx=".5" ry=".5" style="fill:#fff;opacity:.8;paint-order:markers stroke fill"/>
</svg>
