<svg width="22" height="22" version="1" xmlns="http://www.w3.org/2000/svg">
 <defs>
  <linearGradient id="a" x1="1" x2="5" y1="1" y2="11" gradientUnits="userSpaceOnUse">
   <stop style="stop-color:#02c8ff" offset="0"/>
   <stop style="stop-color:#2588ff" offset="1"/>
  </linearGradient>
 </defs>
 <rect x="1" y="7.5" width="20" height="10" rx="2" ry="2" opacity=".2"/>
 <path d="m3 1c-1.0965 0-2 0.90353-2 2v12c0 1.0965 0.90353 2 2 2h16c1.0965 0 2-0.90353 2-2v-10c0-1.0965-0.90353-2-2-2h-8c-2 0-1.4979-2-4-2z" style="fill:url(#a)"/>
 <path class="ColorScheme-Text" d="m3 1.5c-1.0965 0-2 0.90353-2 2v4c0-1.0965 0.9035-2 2-2h4c2.5021 0 2-2 4-2-2 0-1.4979-2-4-2h-4z" style="fill:#808080;opacity:.2"/>
 <path d="m11 4c-2 0-1.4979 2-4 2h-4c-1.0965 0-2 0.90353-2 2v7c0 1.0965 0.90353 2 2 2h16c1.0965 0 2-0.90353 2-2v-9c0-1.0965-0.90353-2-2-2z" fill="#fff" opacity=".15"/>
 <path d="m11 4c-2 0-1.4979 2-4 2h-4c-1.0965 0-2 0.90353-2 2v0.5c0-1.0965 0.9035-2 2-2h4c2.5021 0 2-2 4-2h8c1.0965 0 2 0.9035 2 2v-0.5c0-1.0965-0.90353-2-2-2z" style="fill:#fff;opacity:.2"/>
 <path class="ColorScheme-Text" d="m3 1c-1.0965 0-2 0.90353-2 2v0.5c0-1.0965 0.9035-2 2-2h4c2.5021 0 2 2 4 2h8c1.0965 0 2 0.9035 2 2v-0.5c0-1.0965-0.90353-2-2-2h-8c-2 0-1.4979-2-4-2z" style="fill:#fff;opacity:.2"/>
 <path d="m11 3.5c-2 0-1.4979 2-4 2h-4c-1.0965 0-2 0.90353-2 2v0.5c0-1.0965 0.9035-2 2-2h4c2.5021 0 2-2 4-2h8c1.0965 0 2 0.9035 2 2v-0.5c0-1.0965-0.90353-2-2-2z" style="opacity:.25"/>
 <path d="m12.5 6.5c-0.277 0-0.5 0.223-0.5 0.5v2c0 0.277 0.223 0.5 0.5 0.5h2c0.277 0 0.5-0.223 0.5-0.5v-2c0-0.277-0.223-0.5-0.5-0.5zm-5 2c-0.277 0-0.5 0.223-0.5 0.5s0.223 0.5 0.5 0.5h3c0.277 0 0.5-0.223 0.5-0.5s-0.223-0.5-0.5-0.5zm0 2c-0.277 0-0.5 0.223-0.5 0.5s0.223 0.5 0.5 0.5h7c0.277 0 0.5-0.223 0.5-0.5s-0.223-0.5-0.5-0.5zm0 2c-0.277 0-0.5 0.223-0.5 0.5s0.223 0.5 0.5 0.5h7c0.277 0 0.5-0.223 0.5-0.5s-0.223-0.5-0.5-0.5zm0 2c-0.277 0-0.5 0.223-0.5 0.5s0.223 0.5 0.5 0.5h4c0.277 0 0.5-0.223 0.5-0.5s-0.223-0.5-0.5-0.5z" style="opacity:.2"/>
 <path d="m12.5 5.75c-0.41118 0-0.75 0.33882-0.75 0.75v2c0 0.41118 0.33882 0.75 0.75 0.75h2c0.41118 0 0.75-0.33882 0.75-0.75v-2c0-0.41118-0.33882-0.75-0.75-0.75h-2zm-5 2c-0.41118 0-0.75 0.33882-0.75 0.75s0.33882 0.75 0.75 0.75h3c0.41118 0 0.75-0.33882 0.75-0.75s-0.33882-0.75-0.75-0.75h-3zm0 2c-0.41118 0-0.75 0.33882-0.75 0.75s0.33882 0.75 0.75 0.75h7c0.41118 0 0.75-0.33882 0.75-0.75s-0.33882-0.75-0.75-0.75h-7zm0 2c-0.41118 0-0.75 0.33882-0.75 0.75s0.33882 0.75 0.75 0.75h7c0.41118 0 0.75-0.33882 0.75-0.75s-0.33882-0.75-0.75-0.75h-7zm0 2c-0.41118 0-0.75 0.33882-0.75 0.75s0.33882 0.75 0.75 0.75h4c0.41118 0 0.75-0.33882 0.75-0.75s-0.33882-0.75-0.75-0.75h-4z" style="opacity:.2"/>
 <path d="m12.5 6c-0.277 0-0.5 0.223-0.5 0.5v2c0 0.277 0.223 0.5 0.5 0.5h2c0.277 0 0.5-0.223 0.5-0.5v-2c0-0.277-0.223-0.5-0.5-0.5h-2zm-5 2c-0.277 0-0.5 0.223-0.5 0.5s0.223 0.5 0.5 0.5h3c0.277 0 0.5-0.223 0.5-0.5s-0.223-0.5-0.5-0.5h-3zm0 2c-0.277 0-0.5 0.223-0.5 0.5s0.223 0.5 0.5 0.5h7c0.277 0 0.5-0.223 0.5-0.5s-0.223-0.5-0.5-0.5h-7zm0 2c-0.277 0-0.5 0.223-0.5 0.5s0.223 0.5 0.5 0.5h7c0.277 0 0.5-0.223 0.5-0.5s-0.223-0.5-0.5-0.5h-7zm0 2c-0.277 0-0.5 0.223-0.5 0.5s0.223 0.5 0.5 0.5h4c0.277 0 0.5-0.223 0.5-0.5s-0.223-0.5-0.5-0.5h-4z" style="fill:#fff"/>
</svg>
