<svg width="32" height="32" version="1" xmlns="http://www.w3.org/2000/svg">
 <defs>
  <linearGradient id="a" x1="2" x2="30" y1="1" y2="28" gradientUnits="userSpaceOnUse">
   <stop style="stop-color:#02c8ff" offset="0"/>
   <stop style="stop-color:#2588ff" offset="1"/>
  </linearGradient>
 </defs>
 <rect x="2" y="17.5" width="28" height="8" rx="2" ry="2" opacity=".2"/>
 <path class="ColorScheme-Text" d="m4 2c-1.0965 0-2 0.90353-2 2v19c0 1.0965 0.90353 2 2 2h24c1.0965 0 2-0.90353 2-2v-16c0-1.0965-0.90353-2-2-2h-12c-2 0-2-3-5-3z" style="fill:url(#a)"/>
 <path class="ColorScheme-Text" d="m4 2.5c-1.0965 0-2 0.90353-2 2v5c0-1.0965 0.9035-2 2-2h8c2 0 1.4979-2 4-2h12c1.0965 0 2 0.9035 2 2v-0.5c0-1.0965-0.90353-2-2-2h-12c-2 0-2.5-2.5-5-2.5h-7z" style="fill:#808080;opacity:.2"/>
 <path d="m28 6c1.0965 0 2 0.90353 2 2v15c0 1.0965-0.90353 2-2 2h-24c-1.0965 0-2-0.90353-2-2v-13c0-1.0965 0.90353-2 2-2h8c2 0 1.4979-2 4-2z" fill="#fff" opacity=".15"/>
 <path d="m16 5.5c-2.5021 0-2 2-4 2h-8c-1.0965 0-2 0.9035-2 2v0.5c0-1.0965 0.90353-2 2-2h8c2 0 1.4979-2 4-2h12c1.0965 0 2 0.90353 2 2v-0.5c0-1.0965-0.9035-2-2-2z" style="opacity:.25"/>
 <path d="m16 6c-2.5021 0-2 2-4 2h-8c-1.0965 0-2 0.9035-2 2v0.5c0-1.0965 0.90353-2 2-2h8c2 0 1.4979-2 4-2h12c1.0965 0 2 0.90353 2 2v-0.5c0-1.0965-0.9035-2-2-2h-12z" style="fill:#fff;opacity:.2"/>
 <path class="ColorScheme-Text" d="m4 2c-1.0965 0-2 0.90353-2 2v0.5c0-1.0965 0.9035-2 2-2h7c2.5 0 3 2.5 5 2.5-2 0-2-3-5-3z" style="fill:#fff;opacity:.2"/>
 <path d="m18 10.5c-0.554 0-1 0.446-1 1v3c0 0.554 0.446 1 1 1h3c0.554 0 1-0.446 1-1v-3c0-0.554-0.446-1-1-1zm-7.5 2c-0.277 0-0.5 0.223-0.5 0.5s0.223 0.5 0.5 0.5h5c0.277 0 0.5-0.223 0.5-0.5s-0.223-0.5-0.5-0.5zm0 2c-0.277 0-0.5 0.223-0.5 0.5s0.223 0.5 0.5 0.5h5c0.277 0 0.5-0.223 0.5-0.5s-0.223-0.5-0.5-0.5zm0 2c-0.277 0-0.5 0.223-0.5 0.5s0.223 0.5 0.5 0.5h11c0.277 0 0.5-0.223 0.5-0.5s-0.223-0.5-0.5-0.5zm0 2c-0.277 0-0.5 0.223-0.5 0.5s0.223 0.5 0.5 0.5h11c0.277 0 0.5-0.223 0.5-0.5s-0.223-0.5-0.5-0.5zm0 2c-0.277 0-0.5 0.223-0.5 0.5s0.223 0.5 0.5 0.5h6c0.277 0 0.5-0.223 0.5-0.5s-0.223-0.5-0.5-0.5z" style="opacity:.2"/>
 <path d="m18 9.75c-0.68818 0-1.25 0.56182-1.25 1.25v3c0 0.68818 0.56182 1.25 1.25 1.25h3c0.68818 0 1.25-0.56182 1.25-1.25v-3c0-0.68818-0.56182-1.25-1.25-1.25h-3zm-7.5 2c-0.41118 0-0.75 0.33882-0.75 0.75s0.33882 0.75 0.75 0.75h5c0.41118 0 0.75-0.33882 0.75-0.75s-0.33882-0.75-0.75-0.75h-5zm0 2c-0.41118 0-0.75 0.33882-0.75 0.75s0.33882 0.75 0.75 0.75h5c0.41118 0 0.75-0.33882 0.75-0.75s-0.33882-0.75-0.75-0.75h-5zm0 2c-0.41118 0-0.75 0.33882-0.75 0.75s0.33882 0.75 0.75 0.75h11c0.41118 0 0.75-0.33882 0.75-0.75s-0.33882-0.75-0.75-0.75h-11zm0 2c-0.41118 0-0.75 0.33882-0.75 0.75s0.33882 0.75 0.75 0.75h11c0.41118 0 0.75-0.33882 0.75-0.75s-0.33882-0.75-0.75-0.75h-11zm0 2c-0.41118 0-0.75 0.33882-0.75 0.75s0.33882 0.75 0.75 0.75h6c0.41118 0 0.75-0.33882 0.75-0.75s-0.33882-0.75-0.75-0.75h-6z" style="opacity:.2"/>
 <path d="m18 10c-0.554 0-1 0.446-1 1v3c0 0.554 0.446 1 1 1h3c0.554 0 1-0.446 1-1v-3c0-0.554-0.446-1-1-1h-3zm-7.5 2c-0.277 0-0.5 0.223-0.5 0.5s0.223 0.5 0.5 0.5h5c0.277 0 0.5-0.223 0.5-0.5s-0.223-0.5-0.5-0.5h-5zm0 2c-0.277 0-0.5 0.223-0.5 0.5s0.223 0.5 0.5 0.5h5c0.277 0 0.5-0.223 0.5-0.5s-0.223-0.5-0.5-0.5h-5zm0 2c-0.277 0-0.5 0.223-0.5 0.5s0.223 0.5 0.5 0.5h11c0.277 0 0.5-0.223 0.5-0.5s-0.223-0.5-0.5-0.5h-11zm0 2c-0.277 0-0.5 0.223-0.5 0.5s0.223 0.5 0.5 0.5h11c0.277 0 0.5-0.223 0.5-0.5s-0.223-0.5-0.5-0.5h-11zm0 2c-0.277 0-0.5 0.223-0.5 0.5s0.223 0.5 0.5 0.5h6c0.277 0 0.5-0.223 0.5-0.5s-0.223-0.5-0.5-0.5h-6z" style="fill:#fff"/>
</svg>
