<svg width="48" height="48" version="1" xmlns="http://www.w3.org/2000/svg">
 <defs>
  <linearGradient id="a" x1="4" x2="45" y1="6" y2="45" gradientUnits="userSpaceOnUse">
   <stop style="stop-color:#02c8ff" offset="0"/>
   <stop style="stop-color:#2588ff" offset="1"/>
  </linearGradient>
 </defs>
 <rect x="4" y="31" width="40" height="9" rx="2.5" ry="2.5" opacity=".2"/>
 <path d="m6.5 7c-1.3706 0-2.5 1.1294-2.5 2.5v27c0 1.3706 1.1294 2.5 2.5 2.5h35c1.3706 0 2.5-1.1294 2.5-2.5v-23c0-1.3706-1.1294-2.5-2.5-2.5h-17.5c-3 0-3-4-7-4z" style="fill:url(#a)"/>
 <path d="m41.5 13c1.3706 0 2.5 1.1294 2.5 2.5v21c0 1.3706-1.1294 2.5-2.5 2.5h-35c-1.3706 0-2.5-1.1294-2.5-2.5v-18c0-1.3706 1.1294-2.5 2.5-2.5h10.5c4 0 3-3 7-3z" fill="#fff" opacity=".15"/>
 <path d="m24 13c-4 0-3 3-7 3h-10.5c-1.3706 0-2.5 1.1294-2.5 2.5v1c0-1.3706 1.1294-2.5 2.5-2.5h10.5c4 0 3-3 7-3h17.5c1.3706 0 2.5 1.1294 2.5 2.5v-1c0-1.3706-1.1294-2.5-2.5-2.5h-17.5z" style="fill:#fff;opacity:.2"/>
 <path d="m6.5 8c-1.3706 0-2.5 1.1294-2.5 2.5v7c0-1.3706 1.1294-2.5 2.5-2.5h10.5c4 0 3-3 7-3h17.5c1.3706 0 2.5 1.1294 2.5 2.5v-1c0-1.3706-1.1294-2.5-2.5-2.5h-17.5c-3 0-3-3-7-3h-10.5z" style="fill:#808080;opacity:.2"/>
 <path d="m24 12c-4 0-3 3-7 3h-10.5c-1.3706 0-2.5 1.1294-2.5 2.5v1c0-1.3706 1.1294-2.5 2.5-2.5h10.5c4 0 3-3 7-3h17.5c1.3706 0 2.5 1.1294 2.5 2.5v-1c0-1.3706-1.1294-2.5-2.5-2.5z" style="opacity:.25"/>
 <path d="m6.5 7c-1.3706 0-2.5 1.1294-2.5 2.5v1c0-1.3706 1.1294-2.5 2.5-2.5h10.5c4 0 4 3 7 3-3 0-3-4-7-4h-10.5z" style="fill:#fff;opacity:.2"/>
 <path d="m27 20c-0.554 0-1 0.446-1 1v5c0 0.554 0.446 1 1 1h5c0.554 0 1-0.446 1-1v-5c0-0.554-0.446-1-1-1zm-10 1c-0.554 0-1 0.446-1 1s0.446 1 1 1h6c0.554 0 1-0.446 1-1s-0.446-1-1-1zm0 4c-0.554 0-1 0.446-1 1s0.446 1 1 1h6c0.554 0 1-0.446 1-1s-0.446-1-1-1zm0 4c-0.554 0-1 0.446-1 1s0.446 1 1 1h15c0.554 0 1-0.446 1-1s-0.446-1-1-1zm0 4c-0.554 0-1 0.446-1 1s0.446 1 1 1h11c0.554 0 1-0.446 1-1s-0.446-1-1-1z" style="opacity:.2"/>
 <path d="m27 18.5c-0.82235 0-1.5 0.67765-1.5 1.5v5c0 0.82235 0.67765 1.5 1.5 1.5h5c0.82235 0 1.5-0.67765 1.5-1.5v-5c0-0.82235-0.67765-1.5-1.5-1.5zm-10 1c-0.82235 0-1.5 0.67765-1.5 1.5s0.67765 1.5 1.5 1.5h6c0.82235 0 1.5-0.67765 1.5-1.5s-0.67765-1.5-1.5-1.5zm0 4c-0.82235 0-1.5 0.67765-1.5 1.5s0.67765 1.5 1.5 1.5h6c0.82235 0 1.5-0.67765 1.5-1.5s-0.67765-1.5-1.5-1.5zm0 4c-0.82235 0-1.5 0.67765-1.5 1.5s0.67765 1.5 1.5 1.5h15c0.82235 0 1.5-0.67765 1.5-1.5s-0.67765-1.5-1.5-1.5zm0 4c-0.82235 0-1.5 0.67765-1.5 1.5s0.67765 1.5 1.5 1.5h11c0.82235 0 1.5-0.67765 1.5-1.5s-0.67765-1.5-1.5-1.5z" style="opacity:.2"/>
 <path d="m27 19c-0.554 0-1 0.446-1 1v5c0 0.554 0.446 1 1 1h5c0.554 0 1-0.446 1-1v-5c0-0.554-0.446-1-1-1zm-10 1c-0.554 0-1 0.446-1 1s0.446 1 1 1h6c0.554 0 1-0.446 1-1s-0.446-1-1-1zm0 4c-0.554 0-1 0.446-1 1s0.446 1 1 1h6c0.554 0 1-0.446 1-1s-0.446-1-1-1zm0 4c-0.554 0-1 0.446-1 1s0.446 1 1 1h15c0.554 0 1-0.446 1-1s-0.446-1-1-1zm0 4c-0.554 0-1 0.446-1 1s0.446 1 1 1h11c0.554 0 1-0.446 1-1s-0.446-1-1-1z" style="fill:#fff"/>
</svg>
