<svg width="64" height="64" version="1" xmlns="http://www.w3.org/2000/svg">
 <defs>
  <linearGradient id="a" x1="3" x2="61" y1="6" y2="60" gradientUnits="userSpaceOnUse">
   <stop style="stop-color:#02c8ff" offset="0"/>
   <stop style="stop-color:#2588ff" offset="1"/>
  </linearGradient>
 </defs>
 <rect x="4" y="43" width="56" height="9" rx="2.8" ry="2.8" opacity=".2"/>
 <path d="m6.8008 8c-1.5512 0-2.8008 1.2496-2.8008 2.8008v37.398c0 1.5512 1.2496 2.8008 2.8008 2.8008h50.398c1.5512 0 2.8008-1.2496 2.8008-2.8008v-32.398c0-1.5512-1.2496-2.8008-2.8008-2.8008h-27.199c-4 0-4-5-10-5z" style="fill:url(#a)"/>
 <path d="m6.8008 9c-1.5512 0-2.8008 1.2496-2.8008 2.8008v9c0-1.5512 1.2496-2.8008 2.8008-2.8008h15.199c4 0 4-3 10-3h25.199c1.5512 0 2.8008 1.2496 2.8008 2.8008v-1c0-1.5512-1.2496-2.8008-2.8008-2.8008h-27.199c-4 0-4-5-10-5z" style="fill:#808080;opacity:.2"/>
 <path d="m32 15c-6 0-6 3-10 3h-15.199c-1.5512 0-2.8008 1.2496-2.8008 2.8008v1c0-1.5512 1.2496-2.8008 2.8008-2.8008h15.199c4 0 4-3 10-3h25.199c1.5512 0 2.8008 1.2496 2.8008 2.8008v-1c0-1.5512-1.2496-2.8008-2.8008-2.8008z" style="opacity:.25"/>
 <path d="m6.8008 8c-1.5512 0-2.8008 1.2496-2.8008 2.8008v1c0-1.5512 1.2496-2.8008 2.8008-2.8008h13.199c6 0 6 5 10 5h27.199c1.5512 0 2.8008 1.2496 2.8008 2.8008v-1c0-1.5512-1.2496-2.8008-2.8008-2.8008h-27.199c-4 0-4-5-10-5z" style="fill:#fff;opacity:.2"/>
 <path d="m32 16c-6 0-6 3-10 3h-15.199c-1.5512 0-2.8008 1.2496-2.8008 2.8008v1c0-1.5512 1.2496-2.8008 2.8008-2.8008h15.199c4 0 4-3 10-3h25.199c1.5512 0 2.8008 1.2496 2.8008 2.8008v-1c0-1.5512-1.2496-2.8008-2.8008-2.8008z" style="fill:#fff;opacity:.2"/>
 <path d="m32 16c-6 0-6 3-10 3h-15.199c-1.5512 0-2.8008 1.2496-2.8008 2.8008v26.398c0 1.5512 1.2496 2.8008 2.8008 2.8008h50.398c1.5512 0 2.8008-1.2496 2.8008-2.8008v-29.398c0-1.5512-1.2496-2.8008-2.8008-2.8008z" style="fill:#fff;opacity:.15"/>
 <path d="m35.5 24c-0.831 0-1.5 0.669-1.5 1.5v7c0 0.831 0.669 1.5 1.5 1.5h7c0.831 0 1.5-0.669 1.5-1.5v-7c0-0.831-0.669-1.5-1.5-1.5zm-14 1c-0.831 0-1.5 0.669-1.5 1.5s0.669 1.5 1.5 1.5h8c0.831 0 1.5-0.669 1.5-1.5s-0.669-1.5-1.5-1.5zm0 6c-0.831 0-1.5 0.669-1.5 1.5s0.669 1.5 1.5 1.5h8c0.831 0 1.5-0.669 1.5-1.5s-0.669-1.5-1.5-1.5zm0 6c-0.831 0-1.5 0.669-1.5 1.5s0.669 1.5 1.5 1.5h21c0.831 0 1.5-0.669 1.5-1.5s-0.669-1.5-1.5-1.5zm0 6c-0.831 0-1.5 0.64112-1.5 1.4375v0.125c0 0.79638 0.669 1.4375 1.5 1.4375h16c0.831 0 1.5-0.64112 1.5-1.4375v-0.125c0-0.79638-0.669-1.4375-1.5-1.4375z" style="opacity:.2"/>
 <path d="m35.5 22.5c-1.0994 0-2 0.90065-2 2v7c0 1.0994 0.90065 2 2 2h7c1.0994 0 2-0.90065 2-2v-7c0-1.0994-0.90065-2-2-2zm-14 1c-1.0994 0-2 0.90065-2 2s0.90065 2 2 2h8c1.0994 0 2-0.90065 2-2s-0.90065-2-2-2zm0 6c-1.0994 0-2 0.90065-2 2s0.90065 2 2 2h8c1.0994 0 2-0.90065 2-2s-0.90065-2-2-2zm0 6c-1.0994 0-2 0.90065-2 2s0.90065 2 2 2h21c1.0994 0 2-0.90065 2-2s-0.90065-2-2-2zm0 6c-1.0882 0-2 0.86111-2 1.9375v0.125c0 1.0764 0.91183 1.9375 2 1.9375h16c1.0882 0 2-0.86111 2-1.9375v-0.125c0-1.0764-0.91183-1.9375-2-1.9375z" style="opacity:.2"/>
 <path d="m35.5 23c-0.831 0-1.5 0.669-1.5 1.5v7c0 0.831 0.669 1.5 1.5 1.5h7c0.831 0 1.5-0.669 1.5-1.5v-7c0-0.831-0.669-1.5-1.5-1.5zm-14 1c-0.831 0-1.5 0.669-1.5 1.5s0.669 1.5 1.5 1.5h8c0.831 0 1.5-0.669 1.5-1.5s-0.669-1.5-1.5-1.5zm0 6c-0.831 0-1.5 0.669-1.5 1.5s0.669 1.5 1.5 1.5h8c0.831 0 1.5-0.669 1.5-1.5s-0.669-1.5-1.5-1.5zm0 6c-0.831 0-1.5 0.669-1.5 1.5s0.669 1.5 1.5 1.5h21c0.831 0 1.5-0.669 1.5-1.5s-0.669-1.5-1.5-1.5zm0 6c-0.831 0-1.5 0.64112-1.5 1.4375v0.125c0 0.79638 0.669 1.4375 1.5 1.4375h16c0.831 0 1.5-0.64112 1.5-1.4375v-0.125c0-0.79638-0.669-1.4375-1.5-1.4375z" style="fill:#fff"/>
</svg>
