<?xml version="1.0" encoding="UTF-8" standalone="no"?>
<svg
   width="22"
   height="22"
   version="1"
   id="svg16"
   sodipodi:docname="utilities-system-monitor.svg"
   inkscape:version="1.1.1 (1:1.1+202109281949+c3084ef5ed)"
   xmlns:inkscape="http://www.inkscape.org/namespaces/inkscape"
   xmlns:sodipodi="http://sodipodi.sourceforge.net/DTD/sodipodi-0.dtd"
   xmlns="http://www.w3.org/2000/svg"
   xmlns:svg="http://www.w3.org/2000/svg">
  <defs
     id="defs20" />
  <sodipodi:namedview
     id="namedview18"
     pagecolor="#ffffff"
     bordercolor="#666666"
     borderopacity="1.0"
     inkscape:pageshadow="2"
     inkscape:pageopacity="0.0"
     inkscape:pagecheckerboard="0"
     showgrid="true"
     inkscape:snap-bbox="true"
     inkscape:bbox-paths="false"
     inkscape:bbox-nodes="true"
     inkscape:zoom="16"
     inkscape:cx="8.84375"
     inkscape:cy="13.0625"
     inkscape:window-width="1440"
     inkscape:window-height="695"
     inkscape:window-x="0"
     inkscape:window-y="0"
     inkscape:window-maximized="1"
     inkscape:current-layer="svg16">
    <inkscape:grid
       type="xygrid"
       id="grid837"
       color="#3f3fff"
       opacity="0.30196078"
       empcolor="#3f3fff"
       empopacity="0.29803922" />
    <inkscape:grid
       type="xygrid"
       id="grid1842"
       spacingx="0.5"
       spacingy="0.5"
       empcolor="#3f3fff"
       empopacity="0.11764706" />
  </sodipodi:namedview>
  <rect
     style="opacity:0.2"
     width="20"
     height="20"
     x="1"
     y="1.5"
     rx="1.5"
     ry="1.5"
     id="rect2" />
  <rect
     style="fill:#4f4f4f"
     width="20"
     height="20"
     x="1"
     y="1"
     rx="1.5"
     ry="1.5"
     id="rect4" />
  <g
     id="g3621">
    <rect
       style="fill:#00e441;fill-opacity:1;opacity:0.1"
       width="20"
       height="20"
       x="-21"
       y="1"
       rx="1.5"
       ry="1.5"
       id="rect1047"
       transform="scale(-1,1)" />
    <path
       id="path6829"
       style="opacity:0.25;fill:#00e441;fill-opacity:1"
       d="m 15.5,6.5 -5,9 -4,-7 -2,3 H 1 v 8 C 1,20.331 1.669,21 2.5,21 h 17 c 0.831,0 1.5,-0.669 1.5,-1.5 v -8 h -1.5 z"
       sodipodi:nodetypes="cccccssssccc" />
    <path
       style="fill:none;stroke:#66ef8d;stroke-width:2;stroke-linecap:butt;stroke-linejoin:miter;stroke-miterlimit:4;stroke-dasharray:none;stroke-opacity:1"
       d="m 1,12 h 3.5 l 2,-3 4,7 5,-9 4,5 H 21"
       id="path2201"
       sodipodi:nodetypes="ccccccc" />
    <path
       d="M 15.650391,8.7890625 10.511719,18.037109 6.4335938,10.902344 5.0351562,13 H 1 v 0.5 H 5.3027344 L 6.4023438,11.851562 10.517578,19.054688 15.724609,9.6835938 18.779297,13.5 H 21 V 13 h -1.980469 z"
       id="path12777"
       style="opacity:0.2" />
    <path
       style="color:#000000;opacity:0.1;fill:#ffffff;fill-opacity:1;-inkscape-stroke:none"
       d="M 15.349609,5.2109375 10.488281,13.960938 6.5664062,7.0996094 3.9648438,11 H 1 v 0.5 H 4.2324219 L 6.5332031,8.0488281 10.494141,14.982422 15.425781,6.1054688 19.740234,11.5 H 21 V 11 h -1.019531 z"
       id="path10863" />
  </g>
  <path
     id="path13340"
     d="M 2.5 1 C 1.669 1 1 1.669 1 2.5 L 1 3 C 1 2.169 1.669 1.5 2.5 1.5 L 19.5 1.5 C 20.331 1.5 21 2.169 21 3 L 21 2.5 C 21 1.669 20.331 1 19.5 1 L 2.5 1 z "
     style="fill:#ffffff;fill-opacity:1;opacity:0.1" />
</svg>
