<?xml version="1.0" encoding="UTF-8" standalone="no"?>
<svg
   width="22"
   height="22"
   version="1"
   id="svg16"
   sodipodi:docname="utilities-system-monitor.svg"
   inkscape:version="1.1.1 (3bf5ae0d25, 2021-09-20, custom)"
   xmlns:inkscape="http://www.inkscape.org/namespaces/inkscape"
   xmlns:sodipodi="http://sodipodi.sourceforge.net/DTD/sodipodi-0.dtd"
   xmlns="http://www.w3.org/2000/svg"
   xmlns:svg="http://www.w3.org/2000/svg">
  <defs
     id="defs20">
    <style
       type="text/css"
       id="current-color-scheme">
        .ColorScheme-Text {
            color:#31363b;
        }
        .ColorScheme-Background {
            color:#eff0f1;
        }
        .ColorScheme-Highlight {
            color:#3daee9;
        }</style>
  </defs>
  <sodipodi:namedview
     id="namedview18"
     pagecolor="#ffffff"
     bordercolor="#666666"
     borderopacity="1.0"
     inkscape:pageshadow="2"
     inkscape:pageopacity="0.0"
     inkscape:pagecheckerboard="0"
     showgrid="true"
     inkscape:snap-bbox="true"
     inkscape:bbox-paths="false"
     inkscape:bbox-nodes="true"
     inkscape:zoom="19.220448"
     inkscape:cx="10.275515"
     inkscape:cy="10.431599"
     inkscape:window-width="1440"
     inkscape:window-height="823"
     inkscape:window-x="0"
     inkscape:window-y="768"
     inkscape:window-maximized="1"
     inkscape:current-layer="svg16"
     inkscape:snap-smooth-nodes="true">
    <inkscape:grid
       type="xygrid"
       id="grid837"
       color="#3f3fff"
       opacity="0.30196078"
       empcolor="#3f3fff"
       empopacity="0.29803922" />
    <inkscape:grid
       type="xygrid"
       id="grid1842"
       spacingx="0.5"
       spacingy="0.5"
       empcolor="#3f3fff"
       empopacity="0.11764706" />
  </sodipodi:namedview>
  <path
     id="rect2"
     style="opacity:0.2"
     d="M 1 18.5 L 1 19 C 1 19.831 1.669 20.5 2.5 20.5 L 19.5 20.5 C 20.331 20.5 21 19.831 21 19 L 21 18.5 C 21 19.331 20.331 20 19.5 20 L 2.5 20 C 1.669 20 1 19.331 1 18.5 z " />
  <rect
     style="fill:currentColor"
     width="16"
     height="14"
     x="3"
     y="4"
     rx="1"
     ry="1"
     id="rect1359"
     class="ColorScheme-Background" />
  <g
     id="g5124">
    <path
       id="rect1359-3"
       style="opacity:0.15;fill:currentColor"
       class="ColorScheme-Text"
       d="m 14,6.5 -3.5,9 -3,-7 -1.5,3 H 3 V 17 c 0,0.554 0.446,1 1,1 h 14 c 0.554,0 1,-0.446 1,-1 v -5.5 h -3 z"
       sodipodi:nodetypes="cccccccccccc" />
    <path
       id="path6829"
       style="opacity:0.2;fill:currentColor"
       d="m 14,6.5 -3.5,9 -3,-7 -1.5,3 H 3 V 17 c 0,0.554 0.446,1 1,1 h 14 c 0.554,0 1,-0.446 1,-1 v -5.5 h -3 z"
       sodipodi:nodetypes="cccccccccccc"
       class="ColorScheme-Highlight" />
  </g>
  <g
     id="g1630">
    <path
       style="opacity:0.3;fill:none;stroke:currentColor;stroke-width:2;stroke-linecap:butt;stroke-linejoin:round;stroke-miterlimit:4;stroke-dasharray:none;stroke-opacity:1"
       d="m 3,11.5 h 3 l 1.5,-3 3,7 3.5,-9 2,5 h 3"
       id="path3508"
       sodipodi:nodetypes="ccccccc"
       class="ColorScheme-Highlight" />
    <path
       style="opacity:1;fill:none;stroke:currentColor;stroke-width:1px;stroke-linecap:butt;stroke-linejoin:round;stroke-opacity:1"
       d="m 3,11.5 h 3 l 1.5,-3 3,7 3.5,-9 2,5 h 3"
       id="path2201"
       sodipodi:nodetypes="ccccccc"
       class="ColorScheme-Text" />
    <path
       style="opacity:0.75;fill:none;stroke:currentColor;stroke-width:1px;stroke-linecap:butt;stroke-linejoin:round;stroke-opacity:1"
       d="m 3,11.5 h 3 l 1.5,-3 3,7 3.5,-9 2,5 h 3"
       id="path3088"
       sodipodi:nodetypes="ccccccc"
       class="ColorScheme-Highlight" />
  </g>
  <g
     id="g6869">
    <path
       id="rect5209"
       style="opacity:0.5;fill:currentColor;fill-opacity:1"
       class="ColorScheme-Text"
       d="M 2.5 2 C 1.669 2 1 2.669 1 3.5 L 1 18.5 C 1 19.331 1.669 20 2.5 20 L 19.5 20 C 20.331 20 21 19.331 21 18.5 L 21 3.5 C 21 2.669 20.331 2 19.5 2 L 2.5 2 z M 4 4 L 18 4 C 18.554 4 19 4.446 19 5 L 19 17 C 19 17.554 18.554 18 18 18 L 4 18 C 3.446 18 3 17.554 3 17 L 3 5 C 3 4.446 3.446 4 4 4 z " />
    <path
       id="path7819"
       style="opacity:0.1;fill:#ffffff"
       d="M 2.5,2 C 1.669,2 1,2.669 1,3.5 V 4 C 1,3.169 1.669,2.5 2.5,2.5 h 17 C 20.331,2.5 21,3.169 21,4 V 3.5 C 21,2.669 20.331,2 19.5,2 Z"
       sodipodi:nodetypes="sscsscsss" />
  </g>
</svg>
