<?xml version="1.0" encoding="UTF-8" standalone="no"?>
<svg
   width="32"
   height="32"
   version="1"
   id="svg93"
   sodipodi:docname="utilities-system-settings.svg"
   inkscape:version="1.1.1 (3bf5ae0d25, 2021-09-20, custom)"
   xmlns:inkscape="http://www.inkscape.org/namespaces/inkscape"
   xmlns:sodipodi="http://sodipodi.sourceforge.net/DTD/sodipodi-0.dtd"
   xmlns:xlink="http://www.w3.org/1999/xlink"
   xmlns="http://www.w3.org/2000/svg"
   xmlns:svg="http://www.w3.org/2000/svg">
  <sodipodi:namedview
     id="namedview95"
     pagecolor="#ffffff"
     bordercolor="#666666"
     borderopacity="1.0"
     inkscape:pageshadow="2"
     inkscape:pageopacity="0.0"
     inkscape:pagecheckerboard="0"
     showgrid="false"
     inkscape:zoom="4.671875"
     inkscape:cx="0.9632107"
     inkscape:cy="31.571906"
     inkscape:window-width="1440"
     inkscape:window-height="823"
     inkscape:window-x="0"
     inkscape:window-y="768"
     inkscape:window-maximized="1"
     inkscape:current-layer="svg93" />
  <defs
     id="defs8">
    <style
       id="current-color-scheme"
       type="text/css">.ColorScheme-Text {
        color:#363636;
      }
.ColorScheme-Background {
        color:#eff0f1;
      }
.ColorScheme-Highlight {
        color:#3daee9;
      }</style>
    <linearGradient
       id="a"
       x1="8"
       x2="14"
       y1="8"
       y2="14"
       gradientTransform="translate(-.0003796 -.00075919)"
       gradientUnits="userSpaceOnUse">
      <stop
         style="stop-opacity:0"
         offset="0"
         id="stop3" />
      <stop
         offset="1"
         id="stop5" />
    </linearGradient>
  </defs>
  <g
     transform="matrix(.5 0 0 .5 -32 8)"
     id="g20">
    <rect
       x="-10"
       y="-18"
       width="64"
       height="64"
       style="fill:#008374;opacity:.43911;paint-order:markers stroke fill"
       id="rect10" />
    <path
       d="m54 14h-32v-32"
       style="fill:none;stroke-width:1px;stroke:#000"
       id="path12" />
    <path
       d="m54 14-32 5e-6"
       style="fill:none;stroke-width:1px;stroke:#000"
       id="path14" />
    <path
       d="m39.5-16.311-17.5 30.311"
       style="fill:none;stroke-width:1px;stroke:#000"
       id="path16" />
    <path
       d="m52.311-3.5-30.311 17.5"
       style="fill:none;stroke-width:1px;stroke:#000"
       id="path18" />
  </g>
  <path
     class="ColorScheme-Background"
     d="m17 7.818c-4.5327 0-8.1817 3.649-8.1817 8.1817 0 4.5327 3.649 8.1817 8.1817 8.1817 4.5327 0 8.1817-3.649 8.1817-8.1817 0-4.5327-3.649-8.1817-8.1817-8.1817z"
     style="fill:currentColor;opacity:.25;stroke-width:1.6363"
     id="path22" />
  <g
     transform="matrix(1.575 0 0 1.575 -.32499 -2.075)"
     stroke-width="1.25"
     id="g30">
    <use
       class="ColorScheme-Text"
       transform="matrix(.63492 0 0 .63492 24.333 1.9524)"
       width="100%"
       height="100%"
       style="fill:currentColor"
       xlink:href="#b"
       id="use24" />
    <use
       class="ColorScheme-Background"
       transform="matrix(.63492 0 0 .63492 24.333 1.9524)"
       width="100%"
       height="100%"
       style="fill:currentColor;opacity:.15"
       xlink:href="#b"
       id="use26" />
  </g>
  <g
     id="b">
    <path
       id="c"
       d="M -21.46875 -0.00390625 C -26.00534 -0.00390083 -24.751959 4.1483519 -25.8125 5.0273438 C -26.231085 5.3742938 -26.714867 5.6527387 -27.224609 5.8417969 C -28.51611 6.3208235 -31.507136 3.2002771 -33.753906 7.0917969 L -33.988281 7.4980469 L -27.925781 10.998047 C -26.44028 8.4250854 -23.759703 6.9969752 -20.998047 6.9980469 L -20.998047 -0.001953125 L -21.46875 -0.00390625 z M -33.988281 7.4980469 L -33.990234 7.4980469 L -34.226562 7.9042969 C -36.494853 11.833103 -32.273928 12.823689 -32.042969 14.181641 C -31.951799 14.717621 -31.951831 15.274568 -32.042969 15.810547 C -32.27387 17.168533 -36.473332 18.200277 -34.226562 22.091797 L -33.992188 22.496094 L -27.929688 18.996094 C -29.415187 16.423132 -29.311443 13.389175 -27.929688 10.998047 L -33.988281 7.4980469 z M -20.996094 0 L -20.996094 7 C -18.025094 7.0000005 -15.448259 8.6078 -14.068359 11 L -8.0058594 7.5 L -8.2402344 7.0917969 C -10.508534 3.1629969 -13.478031 6.3246631 -14.769531 5.8457031 C -15.279291 5.6566731 -15.763041 5.37817 -16.181641 5.03125 C -17.242241 4.15229 -16.033804 -2.9605947e-16 -20.527344 0 L -20.996094 0 z M -8.0078125 7.5039062 L -14.070312 11.003906 C -12.584813 13.576868 -12.688557 16.610825 -14.070312 19.001953 L -8.0117188 22.501953 L -8.0097656 22.501953 L -7.7734375 22.095703 C -5.5051469 18.166897 -9.7260728 17.176311 -9.9570312 15.818359 C -10.048207 15.282379 -10.048172 14.725432 -9.9570312 14.189453 C -9.7261297 12.831467 -5.5266675 11.799723 -7.7734375 7.9082031 L -8.0078125 7.5039062 z M -8.0117188 22.501953 L -14.074219 19.001953 C -15.55972 21.574914 -18.240297 23.003025 -21.001953 23.001953 L -21.001953 30.001953 L -20.53125 30.003906 C -15.99466 30.003901 -17.248041 25.851647 -16.1875 24.972656 C -15.768915 24.625705 -15.285133 24.347261 -14.775391 24.158203 C -13.48389 23.679176 -10.492864 26.799723 -8.2460938 22.908203 L -8.0117188 22.501953 z M -27.931641 19 L -33.994141 22.5 L -33.759766 22.908203 C -31.491466 26.837003 -28.521969 23.675337 -27.230469 24.154297 C -26.720709 24.343327 -26.236959 24.62183 -25.818359 24.96875 C -24.757759 25.84771 -25.966196 30 -21.472656 30 L -21.003906 30 L -21.003906 23 C -23.974906 23 -26.551741 21.3922 -27.931641 19 z " />
  </g>
  <g
     transform="matrix(2 0 0 2 -4.9992 -5.9985)"
     id="g48">
    <rect
       class="ColorScheme-Highlight"
       x="7.9996"
       y="7.9992"
       width="6"
       height="6"
       rx="3"
       ry="3"
       style="fill:currentColor"
       id="rect44" />
    <rect
       x="7.9996"
       y="7.9992"
       width="6"
       height="6"
       rx="3"
       ry="3"
       style="fill:url(#a);opacity:.2;paint-order:markers stroke fill"
       id="rect46" />
  </g>
  <rect
     x="-122"
     y="-48"
     width="64"
     height="64"
     style="fill:#008374;opacity:.43911;paint-order:markers stroke fill"
     id="rect50" />
  <path
     id="h"
     d="m-90-48v32l8.6602-5 19.053-11-0.5-0.86719c-3.8928-6.7516-7.8544-1.558-13.031-2.4609a24 24 0 0 0-4.5332-2.6172c-3.3712-4.0306-0.85358-10.055-8.6484-10.055z"
     style="fill:#830076;opacity:.5281;paint-order:markers stroke fill;stroke-linecap:round;stroke-linejoin:round;stroke-width:1.3985" />
  <use
     id="g"
     transform="rotate(60 -90 -16)"
     width="100%"
     height="100%"
     style="stroke-width:1.25"
     xlink:href="#h" />
  <use
     id="f"
     transform="rotate(60 -90 -16)"
     width="100%"
     height="100%"
     style="stroke-width:1.25"
     xlink:href="#g" />
  <use
     id="e"
     transform="rotate(60 -90 -16)"
     width="100%"
     height="100%"
     style="stroke-width:1.25"
     xlink:href="#f" />
  <use
     id="d"
     transform="rotate(60 -90 -16)"
     width="100%"
     height="100%"
     style="stroke-width:1.25"
     xlink:href="#e" />
  <use
     transform="rotate(60 -90 -16)"
     width="100%"
     height="100%"
     style="stroke-width:1.25"
     xlink:href="#d"
     id="use57" />
  <g
     transform="translate(-242 -53)"
     style="stroke-width:1.25"
     id="g67">
    <path
       d="m152 37v-35"
       style="fill:none;stroke-width:1px;stroke:#000"
       id="path59" />
    <path
       d="m187 37h-35"
       style="fill:none;stroke-width:1px;stroke:#000"
       id="path61" />
    <path
       d="M 169.5,6.689111 152,37"
       style="fill:none;stroke-width:1px;stroke:#000"
       id="path63" />
    <path
       d="M 182.31089,19.5 152,37"
       style="fill:none;stroke-width:1px;stroke:#000"
       id="path65" />
  </g>
  <g
     transform="translate(-22,-72)"
     id="g79">
    <rect
       x="-10"
       y="-18"
       width="64"
       height="64"
       style="fill:#008374;opacity:.43911;paint-order:markers stroke fill"
       id="rect69" />
    <path
       d="m22 14v-32"
       style="fill:none;stroke-width:1px;stroke:#000"
       id="path71" />
    <path
       d="m54 14-32 5e-6"
       style="fill:none;stroke-width:1px;stroke:#000"
       id="path73" />
    <path
       d="m39.5-16.311-17.5 30.311"
       style="fill:none;stroke-width:1px;stroke:#000"
       id="path75" />
    <path
       d="m52.311-3.5-30.311 17.5"
       style="fill:none;stroke-width:1px;stroke:#000"
       id="path77" />
  </g>
  <g
     transform="matrix(.5 0 0 .5 -87 57)"
     id="g91">
    <rect
       x="-10"
       y="-18"
       width="64"
       height="64"
       style="fill:#008374;opacity:.43911;paint-order:markers stroke fill"
       id="rect81" />
    <path
       d="m22 14v-32"
       style="fill:none;stroke-width:1px;stroke:#000"
       id="path83" />
    <path
       d="m54 14-32 5e-6"
       style="fill:none;stroke-width:1px;stroke:#000"
       id="path85" />
    <path
       d="m39.5-16.311-17.5 30.311"
       style="fill:none;stroke-width:1px;stroke:#000"
       id="path87" />
    <path
       d="m52.311-3.5-30.311 17.5"
       style="fill:none;stroke-width:1px;stroke:#000"
       id="path89" />
  </g>
</svg>
