<?xml version="1.0" encoding="UTF-8" standalone="no"?>
<svg
   xmlns:dc="http://purl.org/dc/elements/1.1/"
   xmlns:cc="http://creativecommons.org/ns#"
   xmlns:rdf="http://www.w3.org/1999/02/22-rdf-syntax-ns#"
   xmlns:svg="http://www.w3.org/2000/svg"
   xmlns="http://www.w3.org/2000/svg"
   xmlns:sodipodi="http://sodipodi.sourceforge.net/DTD/sodipodi-0.dtd"
   xmlns:inkscape="http://www.inkscape.org/namespaces/inkscape"
   version="1.1"
   viewBox="0 0 22 22"
   id="svg7"
   sodipodi:docname="edit-copy.svg"
   inkscape:version="1.0 (1.0+r73+1)">
  <metadata
     id="metadata11">
    <rdf:RDF>
      <cc:Work
         rdf:about="">
        <dc:format>image/svg+xml</dc:format>
        <dc:type
           rdf:resource="http://purl.org/dc/dcmitype/StillImage" />
      </cc:Work>
    </rdf:RDF>
  </metadata>
  <sodipodi:namedview
     inkscape:document-rotation="0"
     pagecolor="#ffffff"
     bordercolor="#666666"
     borderopacity="1"
     objecttolerance="10"
     gridtolerance="10"
     guidetolerance="10"
     inkscape:pageopacity="0"
     inkscape:pageshadow="2"
     inkscape:window-width="1920"
     inkscape:window-height="993"
     id="namedview9"
     showgrid="true"
     inkscape:zoom="32.5"
     inkscape:cx="14.130302"
     inkscape:cy="11.340156"
     inkscape:window-x="0"
     inkscape:window-y="0"
     inkscape:window-maximized="1"
     inkscape:current-layer="svg7">
    <inkscape:grid
       type="xygrid"
       id="grid836" />
  </sodipodi:namedview>
  <defs
     id="defs3">
    <style
       id="current-color-scheme"
       type="text/css">.ColorScheme-Text {
        color:#363636;
      }
.ColorScheme-Highlight {
	color:#3daeff;
}
.ColorScheme-Background {
	color:#f3f3f3;
}</style>
  </defs>
  <path
     id="rect897-6-1"
     style="opacity:1;fill:currentColor"
     d="m 8.999908,2.9999526 c -1.1079685,0 -1.9999747,0.8920063 -1.9999747,2.0000126 v 9.9999878 c 0,1.108006 0.8920062,2.000011 1.9999747,2.000011 h 6 c 1.107969,0 2.000013,-0.892005 2.000013,-2.000011 V 4.9999652 c 0,-1.1080063 -0.892044,-2.0000126 -2.000013,-2.0000126 z m 0,1.0000252 h 6 c 0.554041,0 1.000025,0.4459843 1.000025,0.9999874 v 9.9999878 c 0,0.554003 -0.445984,1.000025 -1.000025,1.000025 h -6 c -0.5540409,0 -0.9999874,-0.446022 -0.9999874,-1.000025 V 4.9999652 c 0,-0.5540031 0.4459465,-0.9999874 0.9999874,-0.9999874 z"
     class="ColorScheme-Highlight" />
  <path
     id="rect992-8"
     style="opacity:1;fill:currentColor"
     d="M 5.9999081,5.3749699 C 5.3849411,6.0779242 4.9999207,6.9883368 4.9999207,7.9999652 v 6.9999878 c 0,2.216011 1.7840126,4.000024 3.9999873,4.000024 h 3 c 1.011666,0 1.922079,-0.385021 2.624995,-1.000025 H 11.999908 10.999921 8.999908 c -1.6620094,0 -2.9999999,-1.337991 -2.9999999,-2.999999 v -3 -3.9999878 z"
     class="ColorScheme-Text" />
  <rect
     ry="1"
     rx="1"
     y="4"
     x="8"
     height="12"
     width="8"
     id="rect833"
     style="fill:currentColor;stroke-width:8;stroke-linejoin:round;opacity:0.5"
     class="ColorScheme-Background" />
</svg>
