<?xml version="1.0" encoding="UTF-8" standalone="no"?>
<svg
   xmlns:dc="http://purl.org/dc/elements/1.1/"
   xmlns:cc="http://creativecommons.org/ns#"
   xmlns:rdf="http://www.w3.org/1999/02/22-rdf-syntax-ns#"
   xmlns:svg="http://www.w3.org/2000/svg"
   xmlns="http://www.w3.org/2000/svg"
   xmlns:sodipodi="http://sodipodi.sourceforge.net/DTD/sodipodi-0.dtd"
   xmlns:inkscape="http://www.inkscape.org/namespaces/inkscape"
   version="1.1"
   viewBox="0 0 22 22"
   id="svg11"
   sodipodi:docname="view-right-new.svg"
   inkscape:version="1.0 (1.0+r73+1)">
  <metadata
     id="metadata15">
    <rdf:RDF>
      <cc:Work
         rdf:about="">
        <dc:format>image/svg+xml</dc:format>
        <dc:type
           rdf:resource="http://purl.org/dc/dcmitype/StillImage" />
        <dc:title />
      </cc:Work>
    </rdf:RDF>
  </metadata>
  <sodipodi:namedview
     inkscape:snap-smooth-nodes="true"
     inkscape:document-rotation="0"
     pagecolor="#ffffff"
     bordercolor="#666666"
     borderopacity="1"
     objecttolerance="10"
     gridtolerance="10"
     guidetolerance="10"
     inkscape:pageopacity="0"
     inkscape:pageshadow="2"
     inkscape:window-width="1920"
     inkscape:window-height="1003"
     id="namedview13"
     showgrid="true"
     inkscape:zoom="28.963094"
     inkscape:cx="10.017315"
     inkscape:cy="9.4620082"
     inkscape:window-x="0"
     inkscape:window-y="0"
     inkscape:window-maximized="1"
     inkscape:current-layer="svg11">
    <inkscape:grid
       type="xygrid"
       id="grid840" />
  </sodipodi:namedview>
  <defs
     id="defs3">
    <style
       id="current-color-scheme"
       type="text/css">.ColorScheme-Text {
        color:#363636;
      }
.ColorScheme-Highlight {
        color:#3daee9;
      }
.ColorScheme-Background {
        color:#eff0f1;
      }</style>
  </defs>
  <path
     id="path882"
     d="M 11 3 C 9.892 3 9 3.892 9 5 L 9 16 C 9 17.108 9.892 18 11 18 L 18 18 C 19.108 18 20 17.108 20 16 L 20 5 C 20 3.892 19.108 3 18 3 L 11 3 z M 11 4 L 18 4 C 18.554 4 19 4.446 19 5 L 19 16 C 19 16.554 18.554 17 18 17 L 11 17 C 10.446 17 10 16.554 10 16 L 10 5 C 10 4.446 10.446 4 11 4 z "
     class="ColorScheme-Highlight"
     fill="currentColor" />
  <rect
     style="opacity:0.5;fill:currentColor"
     id="rect835"
     width="9"
     height="13"
     x="10"
     y="4"
     rx="1"
     ry="1"
     class="ColorScheme-Background" />
  <path
     d="M 4,3 C 2.892,3 2,3.892 2,5 v 11 c 0,1.108 0.892,2 2,2 H 7.5 C 7.777,18 8,17.777 8,17.5 8,17.223 7.777,17 7.5,17 H 4 C 3.446,17 3,16.554 3,16 V 5 C 3,4.446 3.446,4 4,4 H 7.5 C 7.777,4 8,3.777 8,3.5 8,3.223 7.777,3 7.5,3 Z"
     id="path9"
     fill="currentColor"
     class="ColorScheme-Text" />
  <path
     sodipodi:nodetypes="sscssscssscssscss"
     id="path833"
     d="M 14.5,7 C 14.223,7 14,7.2608178 14,7.5839844 V 10 H 11.583984 C 11.260818,10 11,10.223 11,10.5 11,10.777 11.260818,11 11.583984,11 H 14 v 2.416016 C 14,13.739182 14.223,14 14.5,14 14.777,14 15,13.739182 15,13.416016 V 11 h 2.416016 C 17.739182,11 18,10.777 18,10.5 18,10.223 17.739182,10 17.416016,10 H 15 V 7.5839844 C 15,7.2608178 14.777,7 14.5,7 Z"
     class="ColorScheme-Highlight"
     fill="currentColor" />
</svg>
