<?xml version="1.0" encoding="UTF-8" standalone="no"?>
<svg
   xmlns:dc="http://purl.org/dc/elements/1.1/"
   xmlns:cc="http://creativecommons.org/ns#"
   xmlns:rdf="http://www.w3.org/1999/02/22-rdf-syntax-ns#"
   xmlns:svg="http://www.w3.org/2000/svg"
   xmlns="http://www.w3.org/2000/svg"
   xmlns:sodipodi="http://sodipodi.sourceforge.net/DTD/sodipodi-0.dtd"
   xmlns:inkscape="http://www.inkscape.org/namespaces/inkscape"
   inkscape:version="1.0 (1.0+r73+1)"
   sodipodi:docname="view-sort.svg"
   id="svg17"
   viewBox="0 0 22 22"
   version="1.1">
  <metadata
     id="metadata23">
    <rdf:RDF>
      <cc:Work
         rdf:about="">
        <dc:format>image/svg+xml</dc:format>
        <dc:type
           rdf:resource="http://purl.org/dc/dcmitype/StillImage" />
      </cc:Work>
    </rdf:RDF>
  </metadata>
  <defs
     id="defs21" />
  <sodipodi:namedview
     inkscape:current-layer="svg17"
     inkscape:window-maximized="1"
     inkscape:window-y="0"
     inkscape:window-x="0"
     inkscape:cy="13.353868"
     inkscape:cx="9.3908707"
     inkscape:zoom="32.5"
     showgrid="true"
     id="namedview19"
     inkscape:window-height="1003"
     inkscape:window-width="1920"
     inkscape:pageshadow="2"
     inkscape:pageopacity="0"
     guidetolerance="10"
     gridtolerance="10"
     objecttolerance="10"
     borderopacity="1"
     bordercolor="#666666"
     pagecolor="#ffffff">
    <inkscape:grid
       id="grid848"
       type="xygrid" />
  </sodipodi:namedview>
  <style
     type="text/css"
     id="current-color-scheme">.ColorScheme-Text {
        color:#363636;
}
.ColorScheme-Highlight {
	color:#3daeff;
}</style>
  <path
     class="ColorScheme-Text"
     d="M 7.4765625 5 A 0.50004949 0.50004949 0 0 0 7.1464844 5.1464844 L 3.1464844 9.1464844 A 0.49999949 0.49999949 0 0 0 3.1464844 9.8535156 A 0.49999949 0.49999949 0 0 0 3.8535156 9.8535156 L 7 6.7070312 L 7 16.5 A 0.49999949 0.49999949 0 0 0 7.5 17 A 0.49999949 0.49999949 0 0 0 8 16.5 L 8 6.7070312 L 11.146484 9.8535156 A 0.49999949 0.49999949 0 0 0 11.853516 9.8535156 A 0.49999949 0.49999949 0 0 0 11.853516 9.1464844 L 7.8535156 5.1464844 A 0.50004949 0.50004949 0 0 0 7.4765625 5 z "
     style="fill:currentColor"
     id="path884" />
  <path
     class="ColorScheme-Highlight"
     d="M 14.5 5 A 0.49999949 0.49999949 0 0 0 14 5.5 L 14 15.292969 L 10.853516 12.146484 A 0.5 0.5 0 0 0 10.476562 12 A 0.5 0.5 0 0 0 10.146484 12.146484 A 0.5 0.5 0 0 0 10.146484 12.853516 L 14.146484 16.853516 A 0.50005 0.50005 0 0 0 14.853516 16.853516 L 18.853516 12.853516 A 0.5 0.5 0 0 0 18.853516 12.146484 A 0.5 0.5 0 0 0 18.146484 12.146484 L 15 15.292969 L 15 5.5 A 0.49999949 0.49999949 0 0 0 14.5 5 z "
     style="fill:currentColor"
     id="path906" />
</svg>
