<?xml version="1.0" encoding="UTF-8" standalone="no"?>
<svg
   xmlns:dc="http://purl.org/dc/elements/1.1/"
   xmlns:cc="http://creativecommons.org/ns#"
   xmlns:rdf="http://www.w3.org/1999/02/22-rdf-syntax-ns#"
   xmlns:svg="http://www.w3.org/2000/svg"
   xmlns="http://www.w3.org/2000/svg"
   xmlns:sodipodi="http://sodipodi.sourceforge.net/DTD/sodipodi-0.dtd"
   xmlns:inkscape="http://www.inkscape.org/namespaces/inkscape"
   version="1.1"
   viewBox="0 0 22 22"
   id="svg11"
   sodipodi:docname="view-left-close.svg"
   inkscape:version="1.0 (1.0+r73+1)">
  <metadata
     id="metadata15">
    <rdf:RDF>
      <cc:Work
         rdf:about="">
        <dc:format>image/svg+xml</dc:format>
        <dc:type
           rdf:resource="http://purl.org/dc/dcmitype/StillImage" />
        <dc:title></dc:title>
      </cc:Work>
    </rdf:RDF>
  </metadata>
  <sodipodi:namedview
     inkscape:snap-smooth-nodes="true"
     inkscape:document-rotation="0"
     pagecolor="#ffffff"
     bordercolor="#666666"
     borderopacity="1"
     objecttolerance="10"
     gridtolerance="10"
     guidetolerance="10"
     inkscape:pageopacity="0"
     inkscape:pageshadow="2"
     inkscape:window-width="1920"
     inkscape:window-height="1003"
     id="namedview13"
     showgrid="true"
     inkscape:zoom="28.963094"
     inkscape:cx="10.017315"
     inkscape:cy="9.4620082"
     inkscape:window-x="0"
     inkscape:window-y="0"
     inkscape:window-maximized="1"
     inkscape:current-layer="svg11">
    <inkscape:grid
       type="xygrid"
       id="grid840" />
  </sodipodi:namedview>
  <defs
     id="defs3">
    <style
       id="current-color-scheme"
       type="text/css">.ColorScheme-Text {
        color:#363636;
      }
.ColorScheme-Highlight {
        color:#3daee9;
      }
.ColorScheme-Background {
        color:#eff0f1;
      }
.ColorScheme-NegativeText {
        color:#da4453;
      }</style>
  </defs>
  <path
     id="path882"
     d="m 11,3 c 1.108,0 2,0.892 2,2 v 11 c 0,1.108 -0.892,2 -2,2 H 4 C 2.892,18 2,17.108 2,16 V 5 C 2,3.892 2.892,3 4,3 Z m 0,1 H 4 C 3.446,4 3,4.446 3,5 v 11 c 0,0.554 0.446,1 1,1 h 7 c 0.554,0 1,-0.446 1,-1 V 5 C 12,4.446 11.554,4 11,4 Z"
     class="ColorScheme-NegativeText"
     fill="currentColor" />
  <rect
     transform="scale(-1,1)"
     style="opacity:0.5;fill:currentColor"
     id="rect835"
     width="9"
     height="13"
     x="-12"
     y="4"
     rx="1"
     ry="1"
     class="ColorScheme-Background" />
  <path
     d="m 18,3 c 1.108,0 2,0.892 2,2 v 11 c 0,1.108 -0.892,2 -2,2 H 14.5 C 14.223,18 14,17.777 14,17.5 14,17.223 14.223,17 14.5,17 H 18 c 0.554,0 1,-0.446 1,-1 V 5 C 19,4.446 18.554,4 18,4 H 14.5 C 14.223,4 14,3.777 14,3.5 14,3.223 14.223,3 14.5,3 Z"
     id="path9"
     fill="currentColor"
     class="ColorScheme-Text" />
  <path
     sodipodi:nodetypes="sscssscssscssscss"
     id="path833"
     d="M 5.025126,8.0251263 C 5.220995,7.8292577 5.563106,7.8559989 5.791619,8.0845122 L 7.5,9.7928932 9.208381,8.0845119 C 9.436894,7.8559991 9.779005,7.8292577 9.974874,8.0251263 10.170742,8.2209948 10.144001,8.5631058 9.915488,8.7916187 L 8.207107,10.5 9.915488,12.208381 c 0.228513,0.228513 0.255254,0.570624 0.05939,0.766493 -0.195869,0.195868 -0.53798,0.169127 -0.766493,-0.05939 L 7.5,11.207107 5.791619,12.915488 c -0.228513,0.228513 -0.570624,0.255254 -0.766493,0.05939 -0.195868,-0.195869 -0.169127,-0.53798 0.05939,-0.766493 L 6.792893,10.5 5.084512,8.791619 C 4.855999,8.5631057 4.829258,8.2209948 5.025122,8.0251263 Z"
     class="ColorScheme-NegativeText"
     fill="currentColor" />
</svg>
