<?xml version="1.0" encoding="UTF-8" standalone="no"?>
<svg
   width="22"
   height="22"
   version="1"
   id="svg22"
   sodipodi:docname="utilities-terminal.svg"
   inkscape:version="1.1.1 (1:1.1+202109281949+c3084ef5ed)"
   xmlns:inkscape="http://www.inkscape.org/namespaces/inkscape"
   xmlns:sodipodi="http://sodipodi.sourceforge.net/DTD/sodipodi-0.dtd"
   xmlns="http://www.w3.org/2000/svg"
   xmlns:svg="http://www.w3.org/2000/svg">
  <sodipodi:namedview
     id="namedview24"
     pagecolor="#ffffff"
     bordercolor="#666666"
     borderopacity="1.0"
     inkscape:pageshadow="2"
     inkscape:pageopacity="0.0"
     inkscape:pagecheckerboard="0"
     showgrid="false"
     inkscape:zoom="18.4812"
     inkscape:cx="9.2255914"
     inkscape:cy="12.120425"
     inkscape:window-width="1440"
     inkscape:window-height="693"
     inkscape:window-x="0"
     inkscape:window-y="0"
     inkscape:window-maximized="1"
     inkscape:current-layer="svg22"
     inkscape:snap-global="false" />
  <defs
     id="defs14">
    <style
       id="current-color-scheme"
       type="text/css">
        .ColorScheme-Text {
            color:#31363b;
        }
        .ColorScheme-Background {
        color:#eff0f1;
        }
    </style>
  </defs>
  <rect
     style="opacity:0.2"
     width="20"
     height="18"
     x="1"
     y="2.5"
     rx="1.5"
     ry="1.5"
     id="rect4" />
  <rect
     style="fill:currentColor"
     width="20"
     height="18"
     x="1"
     y="2"
     rx="1.5"
     ry="1.5"
     id="rect6"
     class="ColorScheme-Background" />
  <path
     style="opacity:0.1;fill:#ffffff"
     d="M 2.5,2 C 1.669,2 1,2.669 1,3.5 V 4 C 1,3.169 1.669,2.5 2.5,2.5 h 17 C 20.331,2.5 21,3.169 21,4 V 3.5 C 21,2.669 20.331,2 19.5,2 Z"
     id="path8" />
  <rect
     style="opacity:0.2"
     width="6"
     height="2"
     x="9"
     y="10.5"
     rx=".5"
     ry=".5"
     id="rect10" />
  <rect
     style="fill:currentColor"
     width="6"
     height="2"
     x="9"
     y="10"
     rx=".5"
     ry=".5"
     id="rect12"
     class="ColorScheme-Text" />
  <rect
     style="opacity:0.2"
     width="6.122"
     height="2.041"
     x="-6.31"
     y="10.14"
     rx=".51"
     ry=".51"
     transform="matrix(0.72685813,-0.68678763,0.72685813,0.68678763,0,0)"
     id="rect14" />
  <g
     id="g861">
    <rect
       style="fill:currentColor"
       width="6.122"
       height="2.041"
       x="-5.95"
       y="9.78"
       rx=".51"
       ry=".51"
       transform="matrix(0.72685813,-0.68678763,0.72685813,0.68678763,0,0)"
       id="rect16"
       class="ColorScheme-Text" />
    <rect
       style="fill:#000000;fill-opacity:1;opacity:0.4"
       width="6.122"
       height="2.041"
       x="-5.95"
       y="9.78"
       rx=".51"
       ry=".51"
       transform="matrix(0.72685813,-0.68678763,0.72685813,0.68678763,0,0)"
       id="rect863" />
  </g>
  <rect
     style="opacity:0.2"
     width="6.122"
     height="2.041"
     x="6.06"
     y="-2.23"
     rx=".51"
     ry=".51"
     transform="matrix(0.72685813,0.68678763,0.72685813,-0.68678763,0,0)"
     id="rect18" />
  <rect
     style="fill:currentColor"
     width="6.122"
     height="2.041"
     x="5.7"
     y="-1.87"
     rx=".51"
     ry=".51"
     transform="matrix(0.72685813,0.68678763,0.72685813,-0.68678763,0,0)"
     id="rect20"
     class="ColorScheme-Text" />
</svg>
