<?xml version="1.0" encoding="UTF-8" standalone="no"?>
<svg
   width="16"
   height="16"
   version="1"
   id="svg14"
   sodipodi:docname="folder-downloads.svg"
   inkscape:version="1.1.1 (3bf5ae0d25, 2021-09-20, custom)"
   xmlns:inkscape="http://www.inkscape.org/namespaces/inkscape"
   xmlns:sodipodi="http://sodipodi.sourceforge.net/DTD/sodipodi-0.dtd"
   xmlns:xlink="http://www.w3.org/1999/xlink"
   xmlns="http://www.w3.org/2000/svg"
   xmlns:svg="http://www.w3.org/2000/svg"
   xmlns:rdf="http://www.w3.org/1999/02/22-rdf-syntax-ns#"
   xmlns:cc="http://creativecommons.org/ns#"
   xmlns:dc="http://purl.org/dc/elements/1.1/">
  <metadata
     id="metadata847">
    <rdf:RDF>
      <cc:Work
         rdf:about="">
        <dc:format>image/svg+xml</dc:format>
        <dc:type
           rdf:resource="http://purl.org/dc/dcmitype/StillImage" />
      </cc:Work>
    </rdf:RDF>
  </metadata>
  <defs
     id="defs18">
    <linearGradient
       inkscape:collect="always"
       id="linearGradient15018">
      <stop
         style="stop-color:#8841e6;stop-opacity:1"
         offset="0"
         id="stop15014" />
      <stop
         style="stop-color:#db1f8c;stop-opacity:1"
         offset="0.42935538"
         id="stop24106" />
      <stop
         style="stop-color:#f7723b;stop-opacity:1"
         offset="1"
         id="stop15016" />
    </linearGradient>
    <radialGradient
       inkscape:collect="always"
       xlink:href="#linearGradient15018"
       id="radialGradient27413"
       cx="12.303492"
       cy="11.944257"
       fx="12.303492"
       fy="11.944257"
       r="6"
       gradientTransform="matrix(-1.735905,0.77176576,-1.4931804,-3.3585573,47.233541,31.468713)"
       gradientUnits="userSpaceOnUse" />
  </defs>
  <sodipodi:namedview
     id="namedview16"
     pagecolor="#ffffff"
     bordercolor="#666666"
     borderopacity="1.0"
     inkscape:pageshadow="2"
     inkscape:pageopacity="0.0"
     inkscape:pagecheckerboard="0"
     showgrid="true"
     inkscape:snap-grids="true"
     inkscape:snap-bbox="true"
     inkscape:bbox-nodes="true"
     inkscape:object-paths="false"
     inkscape:snap-intersection-paths="true"
     inkscape:snap-smooth-nodes="true"
     showguides="false"
     inkscape:snap-global="true"
     inkscape:zoom="11.313709"
     inkscape:cx="6.1871843"
     inkscape:cy="9.413359"
     inkscape:window-width="1440"
     inkscape:window-height="823"
     inkscape:window-x="0"
     inkscape:window-y="768"
     inkscape:window-maximized="1"
     inkscape:current-layer="svg14"
     inkscape:document-rotation="0"
     fit-margin-top="0"
     fit-margin-left="0"
     fit-margin-right="0"
     fit-margin-bottom="0">
    <inkscape:grid
       type="xygrid"
       id="grid835"
       originx="-3"
       originy="-3" />
  </sodipodi:namedview>
  <path
     id="path8029"
     style="opacity:1;fill:url(#radialGradient27413);fill-opacity:1;stroke-width:0.73598;stroke-linecap:round;stroke-linejoin:round;paint-order:markers stroke fill"
     d="M 8,0 C 7.446,0 7,0.446 7,1 V 9.585938 L 4.4140625,7 C 4.0223255,6.6082629 3.391737,6.6082629 3,7 2.608263,7.391737 2.608263,8.022326 3,8.414062 l 4.242188,4.242188 0.002,-0.002 C 7.427322,12.865617 7.697372,13 8,13 8.302628,13 8.572631,12.86557 8.755859,12.654297 l 0.002,0.002 L 13,8.414062 C 13.391737,8.022327 13.391737,7.391737 13,7 12.608263,6.6082629 11.977674,6.6082629 11.585938,7 L 9,9.585938 V 1 C 9,0.446 8.554,0 8,0 Z M 3,14 c -0.554,0 -1,0.446 -1,1 0,0.554 0.446,1 1,1 h 10 c 0.554,0 1,-0.446 1,-1 0,-0.554 -0.446,-1 -1,-1 z" />
</svg>
