<svg width="22" height="22" version="1" xmlns="http://www.w3.org/2000/svg">
 <defs>
  <linearGradient id="c" x1="1" x2="21" y1="1" y2="17" gradientUnits="userSpaceOnUse">
   <stop style="stop-color:#8841e6" offset="0"/>
   <stop style="stop-color:#db1f8c" offset=".42936"/>
   <stop style="stop-color:#f7723b" offset="1"/>
  </linearGradient>
 </defs>
 <rect x="1" y="7.5" width="20" height="10" rx="2" ry="2" opacity=".2"/>
 <path class="ColorScheme-Text" d="m3 1c-1.0965 0-2 0.90353-2 2v12c0 1.0965 0.90353 2 2 2h16c1.0965 0 2-0.90353 2-2v-10c0-1.0965-0.90353-2-2-2h-8c-2 0-1.4979-2-4-2z" style="fill:url(#c)"/>
 <path class="ColorScheme-Text" d="m3 1.5c-1.0965 0-2 0.90353-2 2v4c0-1.0965 0.9035-2 2-2h4c2.5021 0 2-2 4-2-2 0-1.4979-2-4-2h-4z" style="fill:#808080;opacity:.2"/>
 <path d="m11 4c-2 0-1.4979 2-4 2h-4c-1.0965 0-2 0.90353-2 2v7c0 1.0965 0.90353 2 2 2h16c1.0965 0 2-0.90353 2-2v-9c0-1.0965-0.90353-2-2-2z" fill="#fff" opacity=".15"/>
 <path d="m11 4c-2 0-1.4979 2-4 2h-4c-1.0965 0-2 0.90353-2 2v0.5c0-1.0965 0.9035-2 2-2h4c2.5021 0 2-2 4-2h8c1.0965 0 2 0.9035 2 2v-0.5c0-1.0965-0.90353-2-2-2z" style="fill:#fff;opacity:.2"/>
 <path class="ColorScheme-Text" d="m3 1c-1.0965 0-2 0.90353-2 2v0.5c0-1.0965 0.9035-2 2-2h4c2.5021 0 2 2 4 2h8c1.0965 0 2 0.9035 2 2v-0.5c0-1.0965-0.90353-2-2-2h-8c-2 0-1.4979-2-4-2z" style="fill:#fff;opacity:.2"/>
 <path d="m11 3.5c-2 0-1.4979 2-4 2h-4c-1.0965 0-2 0.90353-2 2v0.5c0-1.0965 0.9035-2 2-2h4c2.5021 0 2-2 4-2h8c1.0965 0 2 0.9035 2 2v-0.5c0-1.0965-0.90353-2-2-2z" style="opacity:.25"/>
 <path d="m11.5 5.7539c-0.24631-0.0044748-0.4628 0.12051-0.5918 0.29297-0.12457 0.16654-0.18432 0.3762-0.1582 0.58984v4.877c-0.50119-0.50198-1.0003-1.0047-1.5078-1.5039a0.25002 0.25002 0 0 0-0.0097656-0.007813c-0.51499-0.46137-1.3847-0.098558-1.4258 0.58984-0.02835 0.28087 0.094083 0.51745 0.23438 0.68164 0.14198 0.16616 0.29886 0.29062 0.39453 0.39844a0.25002 0.25002 0 0 0 0.011719 0.011719c0.82763 0.82453 1.6485 1.6556 2.4824 2.4785a0.25002 0.25002 0 0 0 0.011718 0.011719c0.40102 0.34855 0.98231 0.21096 1.2832-0.16211l0.001953-0.001953c0.92018-0.92256 1.8472-1.8391 2.7656-2.7676a0.25002 0.25002 0 0 0 0.007812-0.009766c0.46184-0.51553 0.0971-1.3855-0.5918-1.4258-0.28009-0.02776-0.51788 0.094357-0.68164 0.23438-0.16615 0.14206-0.29055 0.2987-0.39844 0.39453a0.25002 0.25002 0 0 0-0.011719 0.009765l-1.0664 1.0664c-2.92e-4 -1.6871 0.003447-3.374-0.001953-5.0625a0.25002 0.25002 0 0 0 0-0.0019532 0.25002 0.25002 0 0 0 0-0.0019531 0.25002 0.25002 0 0 0 0-0.0019531 0.25002 0.25002 0 0 0 0-0.0019532 0.25002 0.25002 0 0 0 0-0.0019531 0.25002 0.25002 0 0 0 0-0.0019531 0.25002 0.25002 0 0 0 0-0.0019531 0.25002 0.25002 0 0 0 0-0.0019531 0.25002 0.25002 0 0 0 0-0.0019532 0.25002 0.25002 0 0 0 0-0.0019531 0.25002 0.25002 0 0 0 0-0.0019531c-0.032067-0.38612-0.36145-0.67802-0.74805-0.67383zm-4 8.9961c-0.41118 0-0.75 0.33882-0.75 0.75s0.33882 0.75 0.75 0.75h8c0.41118 0 0.75-0.33882 0.75-0.75s-0.33882-0.75-0.75-0.75h-8z" style="opacity:.2"/>
 <path d="m11.5 6.5003c-0.32887-0.011581-0.55018 0.32386-0.5 0.62891v5.4883c-0.64542-0.64238-1.2845-1.2912-1.9336-1.9297-0.35655-0.31941-0.99342-0.055237-1.0156 0.42383-0.046232 0.40563 0.33769 0.63018 0.57227 0.89453 0.82857 0.82547 1.6501 1.657 2.4824 2.4785 0.28745 0.24984 0.72649 0.1385 0.94141-0.14844 0.92165-0.92405 1.8499-1.8418 2.7676-2.7695 0.31964-0.35681 0.0537-0.99404-0.42578-1.0156-0.40613-0.04666-0.63002 0.33731-0.89453 0.57227l-1.4941 1.4941c-0.0017-1.8895 4e-3 -3.7786-2e-3 -5.668-0.020715-0.24963-0.24748-0.45407-0.498-0.44922zm-4 9c-0.277 0-0.5 0.223-0.5 0.5s0.223 0.5 0.5 0.5h8c0.277 0 0.5-0.223 0.5-0.5s-0.223-0.5-0.5-0.5z" style="opacity:.2"/>
 <path d="m11.5 6c-0.32887-0.011581-0.55018 0.32386-0.5 0.62891v5.4883c-0.64542-0.64238-1.2845-1.2912-1.9336-1.9297-0.35655-0.31941-0.99342-0.055237-1.0156 0.42383-0.046232 0.40563 0.33769 0.63018 0.57227 0.89453 0.82857 0.82547 1.6501 1.657 2.4824 2.4785 0.28745 0.24984 0.72649 0.1385 0.94141-0.14844 0.92165-0.92405 1.8499-1.8418 2.7676-2.7695 0.31964-0.35681 0.0537-0.99404-0.42578-1.0156-0.40613-0.04666-0.63002 0.33731-0.89453 0.57227l-1.4941 1.4941c-0.0017-1.8895 4e-3 -3.7786-2e-3 -5.668-0.020715-0.24963-0.24748-0.45407-0.498-0.44922zm-4 9c-0.277 0-0.5 0.223-0.5 0.5s0.223 0.5 0.5 0.5h8c0.277 0 0.5-0.223 0.5-0.5s-0.223-0.5-0.5-0.5z" style="fill:#fff"/>
</svg>
