<svg width="32" height="32" version="1" xmlns="http://www.w3.org/2000/svg">
 <defs>
  <linearGradient id="a" x1="2" x2="15" y1="2" y2="32" gradientUnits="userSpaceOnUse">
   <stop style="stop-color:#8841e6" offset="0"/>
   <stop style="stop-color:#db1f8c" offset=".42936"/>
   <stop style="stop-color:#f7723b" offset="1"/>
  </linearGradient>
 </defs>
 <rect x="2" y="17.5" width="28" height="8" rx="2" ry="2" opacity=".2"/>
 <path d="m4 2c-1.0965 0-2 0.90353-2 2v19c0 1.0965 0.90353 2 2 2h24c1.0965 0 2-0.90353 2-2v-16c0-1.0965-0.90353-2-2-2h-12c-2 0-2-3-5-3z" style="fill:url(#a)"/>
 <path d="m4 2.5c-1.0965 0-2 0.90353-2 2v5c0-1.0965 0.9035-2 2-2h8c2 0 1.4979-2 4-2h12c1.0965 0 2 0.9035 2 2v-0.5c0-1.0965-0.90353-2-2-2h-12c-2 0-2.5-2.5-5-2.5h-7z" style="fill:#808080;opacity:.2"/>
 <path d="m28 6c1.0965 0 2 0.90353 2 2v15c0 1.0965-0.90353 2-2 2h-24c-1.0965 0-2-0.90353-2-2v-13c0-1.0965 0.90353-2 2-2h8c2 0 1.4979-2 4-2z" fill="#fff" opacity=".15"/>
 <path d="m16 5.5c-2.5021 0-2 2-4 2h-8c-1.0965 0-2 0.9035-2 2v0.5c0-1.0965 0.90353-2 2-2h8c2 0 1.4979-2 4-2h12c1.0965 0 2 0.90353 2 2v-0.5c0-1.0965-0.9035-2-2-2z" style="opacity:.25"/>
 <path d="m16 6c-2.5021 0-2 2-4 2h-8c-1.0965 0-2 0.9035-2 2v0.5c0-1.0965 0.90353-2 2-2h8c2 0 1.4979-2 4-2h12c1.0965 0 2 0.90353 2 2v-0.5c0-1.0965-0.9035-2-2-2h-12z" style="fill:#fff;opacity:.2"/>
 <path d="m4 2c-1.0965 0-2 0.90353-2 2v0.5c0-1.0965 0.9035-2 2-2h7c2.5 0 3 2.5 5 2.5-2 0-2-3-5-3z" style="fill:#fff;opacity:.2"/>
 <path d="m16.002 8.752c-0.79288-0.023356-1.3437 0.73342-1.252 1.4687v5.7676c-0.51368-0.51696-1.018-1.0456-1.5664-1.5449l-0.0156-0.0118c-0.83526-0.64873-2.1197 0.15062-1.9551 1.1777 0.05764 0.35876 0.25898 0.6294 0.46875 0.84766 0.21014 0.21865 0.43291 0.39932 0.58984 0.58203l0.0137 0.0137c0.98058 0.97556 1.9535 1.9633 2.9434 2.9355l0.0078 0.0078 0.0078 0.0059c0.56217 0.46932 1.3675 0.26272 1.7812-0.25976l0.0059-0.0059c1.1503-1.1548 2.3102-2.302 3.457-3.4648l0.0039-2e-3 2e-3 -0.0039c0.6584-0.70536 0.17996-1.9038-0.74219-2.0469-0.42289-0.07489-0.78124 0.09923-1.0469 0.31836-0.26609 0.2195-0.47449 0.48402-0.66992 0.66016l-0.7852 0.7852c-0.0011-2.0276 5e-3 -4.0563-0.0059-6.0859v-0.01954c-0.05169-0.63481-0.60615-1.134-1.2422-1.125zm4.6895 11.992c-0.23144 0.0035-0.4472 0.01969-0.63086 0.0059h-9.0489c-0.98436-0.04978-1.6196 1.1575-1.041 1.9492 0.22515 0.34773 0.58192 0.49462 0.91211 0.53516 0.33427 0.04103 0.66159 0.0066 0.91992 0.01563h0.0098c3.0963-0.0034 6.193 0.0061 9.291-0.0059h0.0118c1.0335-0.05107 1.522-1.4351 0.76172-2.1309-0.27913-0.27272-0.63154-0.35343-0.94922-0.36719-0.0799-0.0035-0.15918-0.0031-0.23633-2e-3z" style="opacity:.2"/>
 <path d="m16 9.4996c-0.63916-0.022451-1.0938 0.6203-1 1.2213v6.3647c-0.66516-0.64838-1.2984-1.3328-1.9846-1.9575-0.65309-0.50724-1.6841 0.14114-1.556 0.94044 0.09228 0.58 0.64556 0.89161 1.0024 1.3071 0.98179 0.97676 1.9538 1.9638 2.9417 2.9342 0.44858 0.37449 1.116 0.19523 1.4449-0.24451 1.1531-1.1577 2.3156-2.3064 3.4628-3.4697 0.51692-0.55379 0.1212-1.5219-0.6015-1.631-0.68023-0.12177-1.0705 0.52494-1.5075 0.91877l-1.2023 1.2023c-0.0034-2.2294 0.0068-4.4592-0.0051-6.6885-0.04055-0.49806-0.49518-0.90808-0.9949-0.89747zm-5 12c-0.77117-0.039-1.2901 0.94224-0.82967 1.5599 0.3591 0.57129 1.0728 0.4202 1.641 0.44014 3.097-0.0034 6.1944 0.0069 9.2912-0.0051 0.81042-0.04005 1.2057-1.1597 0.60522-1.7026-0.44669-0.44168-1.1057-0.25007-1.6666-0.29229h-9.0412z" style="opacity:.2"/>
 <path d="m16 9c-0.63916-0.022451-1.0938 0.6203-1 1.2213v6.3647c-0.66516-0.64838-1.2984-1.3328-1.9846-1.9575-0.65309-0.50724-1.6841 0.14114-1.556 0.94044 0.09228 0.58 0.64556 0.89161 1.0024 1.3071 0.98179 0.97676 1.9538 1.9638 2.9417 2.9342 0.44858 0.37449 1.116 0.19523 1.4449-0.24451 1.1531-1.1577 2.3156-2.3064 3.4628-3.4697 0.51692-0.55379 0.1212-1.5219-0.6015-1.631-0.68023-0.12177-1.0705 0.52494-1.5075 0.91877l-1.2023 1.2023c-0.0034-2.2294 0.0068-4.4592-0.0051-6.6885-0.040553-0.49806-0.49518-0.90808-0.9949-0.89747zm-5 12c-0.77117-0.039-1.2901 0.94224-0.82967 1.5599 0.3591 0.57129 1.0728 0.4202 1.641 0.44014 3.097-0.0034 6.1944 0.0069 9.2912-0.0051 0.81042-0.04005 1.2057-1.1597 0.60522-1.7026-0.44669-0.44168-1.1057-0.25007-1.6666-0.29229h-9.0412z" style="fill:#fff"/>
</svg>
