<svg width="48" height="48" version="1" xmlns="http://www.w3.org/2000/svg">
 <defs>
  <linearGradient id="a" x1="4" x2="20" y1="7" y2="42.5" gradientUnits="userSpaceOnUse">
   <stop style="stop-color:#8841e6" offset="0"/>
   <stop style="stop-color:#db1f8c" offset=".44737"/>
   <stop style="stop-color:#f7723b" offset="1"/>
  </linearGradient>
 </defs>
 <rect x="4" y="31" width="40" height="9" rx="2.5" ry="2.5" opacity=".2"/>
 <path d="m6.5 7c-1.3706 0-2.5 1.1294-2.5 2.5v27c0 1.3706 1.1294 2.5 2.5 2.5h35c1.3706 0 2.5-1.1294 2.5-2.5v-23c0-1.3706-1.1294-2.5-2.5-2.5h-17.5c-3 0-3-4-7-4z" style="fill:url(#a)"/>
 <path d="m41.5 13c1.3706 0 2.5 1.1294 2.5 2.5v21c0 1.3706-1.1294 2.5-2.5 2.5h-35c-1.3706 0-2.5-1.1294-2.5-2.5v-18c0-1.3706 1.1294-2.5 2.5-2.5h10.5c4 0 3-3 7-3z" fill="#fff" opacity=".15"/>
 <path d="m24 13c-4 0-3 3-7 3h-10.5c-1.3706 0-2.5 1.1294-2.5 2.5v1c0-1.3706 1.1294-2.5 2.5-2.5h10.5c4 0 3-3 7-3h17.5c1.3706 0 2.5 1.1294 2.5 2.5v-1c0-1.3706-1.1294-2.5-2.5-2.5h-17.5z" style="fill:#fff;opacity:.2"/>
 <path d="m6.5 8c-1.3706 0-2.5 1.1294-2.5 2.5v7c0-1.3706 1.1294-2.5 2.5-2.5h10.5c4 0 3-3 7-3h17.5c1.3706 0 2.5 1.1294 2.5 2.5v-1c0-1.3706-1.1294-2.5-2.5-2.5h-17.5c-3 0-3-3-7-3h-10.5z" style="fill:#808080;opacity:.2"/>
 <path d="m24 12c-4 0-3 3-7 3h-10.5c-1.3706 0-2.5 1.1294-2.5 2.5v1c0-1.3706 1.1294-2.5 2.5-2.5h10.5c4 0 3-3 7-3h17.5c1.3706 0 2.5 1.1294 2.5 2.5v-1c0-1.3706-1.1294-2.5-2.5-2.5z" style="opacity:.25"/>
 <path d="m6.5 7c-1.3706 0-2.5 1.1294-2.5 2.5v1c0-1.3706 1.1294-2.5 2.5-2.5h10.5c4 0 4 3 7 3-3 0-3-4-7-4h-10.5z" style="fill:#fff;opacity:.2"/>
 <path d="m24 17c-0.64954-0.02287-1.0976 0.63412-1 1.2402v10.346c-1.343-1.3381-2.6765-2.6857-4.0254-4.0176-0.60131-0.54473-1.6715-0.03297-1.6309 0.77539 0.01256 0.65534 0.65054 0.99541 1.0312 1.4453 1.6662 1.661 2.9562 2.9912 4.6287 4.6454 0.45556 0.39458 1.5231 0.41077 1.8954 0.04299 1.8639-1.8416 3.6884-3.6417 5.5326-5.5028 0.54473-0.60131 0.03297-1.6715-0.77539-1.6309-0.65534 0.01256-0.9954 0.65054-1.4453 1.0312l-3.2109 3.2109c-0.0034-3.5628 6e-3 -7.1249-0.0059-10.688-0.040512-0.49806-0.49438-0.90904-0.9941-0.89844zm-7 17c-0.554 0-1 0.43242-1 0.9707v0.05859c0 0.53828 0.446 0.97071 1 0.97071h14c0.554 0 1-0.43242 1-0.9707v-0.05859c0-0.53828-0.446-0.97071-1-0.97071z" style="opacity:.2"/>
 <path d="m24.006 15.506c-0.96509-0.024473-1.614 0.88032-1.5059 1.7578v9.1172c-1.0556-1.0563-2.1086-2.1162-3.1738-3.168l-0.015625-0.015625c-0.93286-0.84509-2.5184-0.08996-2.4648 1.1621 0.01173 0.48469 0.26422 0.86237 0.50977 1.125 0.24677 0.26394 0.49715 0.45971 0.63867 0.62695l0.013671 0.017578 0.013672 0.013672c1.6648 1.6595 3.3211 3.3317 4.9961 4.9883l0.023438 0.023438c0.68574 0.59394 1.6898 0.38076 2.2031-0.27734 1.8447-1.8494 3.7014-3.6922 5.543-5.5508l0.015625-0.015625c0.84509-0.93286 0.08996-2.5184-1.1621-2.4648-0.48469 0.01173-0.86237 0.26422-1.125 0.50977-0.26394 0.24677-0.45971 0.49715-0.62695 0.63867l-0.015625 0.011718-2.373 2.373c-8.36e-4 -3.1596 0.004741-6.3204-0.005859-9.4824v-0.019531l-0.001953-0.019531c-0.062603-0.77072-0.71407-1.3587-1.4863-1.3516zm-7.0059 16.994c-0.81418 0-1.5 0.65624-1.5 1.4707v0.058594c0 0.81447 0.68582 1.4707 1.5 1.4707h14c0.81418 0 1.5-0.65624 1.5-1.4707v-0.058594c0-0.81447-0.68582-1.4707-1.5-1.4707h-14z" style="opacity:.2"/>
 <path d="m24 16c-0.64954-0.02287-1.0976 0.63412-1 1.2402v10.346c-1.343-1.3381-2.6765-2.6857-4.0254-4.0176-0.60131-0.54473-1.6715-0.03297-1.6309 0.77539 0.01256 0.65534 0.65054 0.99541 1.0312 1.4453 1.6662 1.661 3.3216 3.3321 4.9941 4.9863 0.45556 0.39458 1.1708 0.23132 1.5078-0.23828 1.8504-1.8552 3.7105-3.7013 5.5547-5.5625 0.54473-0.60131 0.03297-1.6715-0.77539-1.6309-0.65534 0.01256-0.9954 0.65054-1.4453 1.0312l-3.2109 3.2109c-0.0034-3.5628 6e-3 -7.1249-0.0059-10.688-0.040512-0.49806-0.49438-0.90904-0.9941-0.89844zm-7 17c-0.554 0-1 0.43242-1 0.9707v0.05859c0 0.53828 0.446 0.97071 1 0.97071h14c0.554 0 1-0.43242 1-0.9707v-0.05859c0-0.53828-0.446-0.97071-1-0.97071z" style="fill:#fff"/>
</svg>
