<svg width="64" height="64" version="1" xmlns="http://www.w3.org/2000/svg">
 <defs>
  <linearGradient id="a" x1="4" x2="27" y1="5" y2="58" gradientUnits="userSpaceOnUse">
   <stop style="stop-color:#8841e6" offset="0"/>
   <stop style="stop-color:#db1f8c" offset=".44737"/>
   <stop style="stop-color:#f7723b" offset="1"/>
  </linearGradient>
 </defs>
 <rect x="4" y="43" width="56" height="9" rx="2.8" ry="2.8" opacity=".2"/>
 <path d="m6.8008 8c-1.5512 0-2.8008 1.2496-2.8008 2.8008v37.398c0 1.5512 1.2496 2.8008 2.8008 2.8008h50.398c1.5512 0 2.8008-1.2496 2.8008-2.8008v-32.398c0-1.5512-1.2496-2.8008-2.8008-2.8008h-27.199c-4 0-4-5-10-5z" style="fill:url(#a)"/>
 <path d="m6.8008 9c-1.5512 0-2.8008 1.2496-2.8008 2.8008v9c0-1.5512 1.2496-2.8008 2.8008-2.8008h15.199c4 0 4-3 10-3h25.199c1.5512 0 2.8008 1.2496 2.8008 2.8008v-1c0-1.5512-1.2496-2.8008-2.8008-2.8008h-27.199c-4 0-4-5-10-5z" style="fill:#808080;opacity:.2"/>
 <path d="m32 15c-6 0-6 3-10 3h-15.199c-1.5512 0-2.8008 1.2496-2.8008 2.8008v1c0-1.5512 1.2496-2.8008 2.8008-2.8008h15.199c4 0 4-3 10-3h25.199c1.5512 0 2.8008 1.2496 2.8008 2.8008v-1c0-1.5512-1.2496-2.8008-2.8008-2.8008z" style="opacity:.25"/>
 <path d="m6.8008 8c-1.5512 0-2.8008 1.2496-2.8008 2.8008v1c0-1.5512 1.2496-2.8008 2.8008-2.8008h13.199c6 0 6 5 10 5h27.199c1.5512 0 2.8008 1.2496 2.8008 2.8008v-1c0-1.5512-1.2496-2.8008-2.8008-2.8008h-27.199c-4 0-4-5-10-5z" style="fill:#fff;opacity:.2"/>
 <path d="m32 16c-6 0-6 3-10 3h-15.199c-1.5512 0-2.8008 1.2496-2.8008 2.8008v1c0-1.5512 1.2496-2.8008 2.8008-2.8008h15.199c4 0 4-3 10-3h25.199c1.5512 0 2.8008 1.2496 2.8008 2.8008v-1c0-1.5512-1.2496-2.8008-2.8008-2.8008z" style="fill:#fff;opacity:.2"/>
 <path d="m32 16c-6 0-6 3-10 3h-15.199c-1.5512 0-2.8008 1.2496-2.8008 2.8008v26.398c0 1.5512 1.2496 2.8008 2.8008 2.8008h50.398c1.5512 0 2.8008-1.2496 2.8008-2.8008v-29.398c0-1.5512-1.2496-2.8008-2.8008-2.8008z" style="fill:#fff;opacity:.15"/>
 <path d="m32.5 21c-1.001-0.03519-1.655 0.98845-1.5 1.9105v13.968c-1.3523-1.3249-2.6529-2.7084-4.0385-3.9955-1.028-0.76105-2.6082 0.30078-2.2985 1.5395 0.24565 0.87773 1.1048 1.3658 1.6709 2.0321 1.7418 1.7354 3.9011 3.9975 4.7576 4.854s2.0943 0.62629 2.7441-0.02357 4.1388-4.1243 6.1915-6.2024c0.86376-0.94874-0.0416-2.6306-1.3074-2.4407-0.94689 0.1409-1.4424 1.0703-2.1263 1.6432l-2.5934 2.5934c-0.0051-4.8442 0.01029-9.6889-0.0077-14.533-0.06078-0.7471-0.74272-1.3621-1.4923-1.3462zm-9 24c-1.2865-0.07209-2.0172 1.7023-1.0616 2.5616 0.73094 0.69475 1.7987 0.35816 2.7035 0.43838 5.5039-0.0051 11.008 0.01029 16.512-0.0077 1.2817-0.06016 1.8309-1.8897 0.80142-2.6506-0.76918-0.57002-1.7768-0.26322-2.6655-0.34171z" style="opacity:.2"/>
 <path d="m32.506 19.506c-0.66812-0.01818-1.2439 0.32104-1.5918 0.79492-0.33686 0.45885-0.49249 1.0419-0.41406 1.623v12.758c-1.0526-1.0576-2.0893-2.1349-3.1973-3.1641l-0.02148-0.01953-0.02148-0.01758c-1.4037-1.0392-3.5051 0.37226-3.082 2.0645l4e-3 0.0118c0.31423 1.1228 1.289 1.6547 1.7715 2.2227l0.01367 0.01563 0.01367 0.01367c1.7401 1.7337 3.4701 3.4829 5.2227 5.2129l0.01367 0.01367 0.01367 0.01172c0.92351 0.78655 2.2983 0.49045 2.9766-0.42578 2.0546-2.0616 4.1263-4.1126 6.1758-6.1875l0.0078-0.0059 0.0059-0.0078c1.1789-1.2949-0.02125-3.5308-1.75-3.2715-0.61919 0.09213-1.0798 0.444-1.4395 0.79687-0.35963 0.35288-0.65008 0.7179-0.93555 0.95703l-0.01563 0.01367-1.756 1.7558c-0.0019-4.441 0.0087-8.8844-0.0078-13.328v-0.01953l-2e-3 -0.01953c-0.08301-1.0203-0.96263-1.8111-1.9844-1.7988zm8.666 23.98c-0.50384-0.0048-0.96694 0.04839-1.3379 0.01563l-0.021484-0.001958h-16.285c-1.7515-0.09814-2.7213 2.2507-1.4277 3.4258 0.48198 0.4548 1.0871 0.57179 1.6113 0.58594 0.52607 0.0142 1.0128-0.04682 1.3867-0.01367l0.02148 2e-3h0.02344c5.5027-0.0051 11.008 0.01017 16.514-0.0078h0.02152c1.7493-0.0821 2.4801-2.5136 1.0742-3.5527-0.50298-0.37275-1.0762-0.44834-1.5801-0.45312z" style="opacity:.2"/>
 <path d="m32.5 20c-1.001-0.03519-1.655 0.98845-1.5 1.9105v13.968c-1.3523-1.3249-2.6529-2.7084-4.0385-3.9955-1.028-0.76105-2.6082 0.30078-2.2985 1.5395 0.24565 0.87773 1.1048 1.3658 1.6709 2.0321 1.7418 1.7354 3.4712 3.484 5.2208 5.2111 0.69066 0.58823 1.7801 0.34124 2.2809-0.38066 2.062-2.0692 4.1388-4.1243 6.1915-6.2024 0.86376-0.94874-0.0416-2.6306-1.3074-2.4407-0.94689 0.1409-1.4424 1.0703-2.1263 1.6432l-2.5934 2.5934c-0.0051-4.8442 0.01029-9.6888-0.0077-14.533-0.062385-0.74888-0.74076-1.3607-1.4923-1.3462zm-9 24c-1.2865-0.07209-2.0172 1.7023-1.0616 2.5616 0.73094 0.69475 1.7987 0.35816 2.7035 0.43838 5.5039-0.0051 11.008 0.01029 16.512-0.0077 1.2817-0.06016 1.8309-1.8897 0.80142-2.6506-0.76918-0.57002-1.7768-0.26322-2.6655-0.34171h-16.29z" style="fill:#fff"/>
</svg>
