<?xml version="1.0" encoding="UTF-8" standalone="no"?>
<svg
   width="16"
   height="16"
   version="1"
   id="svg8"
   sodipodi:docname="utilities-system-monitor.svg"
   inkscape:version="1.1.1 (3bf5ae0d25, 2021-09-20, custom)"
   xmlns:inkscape="http://www.inkscape.org/namespaces/inkscape"
   xmlns:sodipodi="http://sodipodi.sourceforge.net/DTD/sodipodi-0.dtd"
   xmlns="http://www.w3.org/2000/svg"
   xmlns:svg="http://www.w3.org/2000/svg">
  <defs
     id="defs12" />
  <sodipodi:namedview
     id="namedview10"
     pagecolor="#ffffff"
     bordercolor="#666666"
     borderopacity="1.0"
     inkscape:pageshadow="2"
     inkscape:pageopacity="0.0"
     inkscape:pagecheckerboard="0"
     showgrid="true"
     inkscape:zoom="16"
     inkscape:cx="0.90625"
     inkscape:cy="3.03125"
     inkscape:window-width="1440"
     inkscape:window-height="823"
     inkscape:window-x="0"
     inkscape:window-y="768"
     inkscape:window-maximized="1"
     inkscape:current-layer="svg8">
    <inkscape:grid
       type="xygrid"
       id="grid829" />
  </sodipodi:namedview>
  <rect
     style="fill:#4f4f4f"
     width="16"
     height="16"
     x="0"
     y="0"
     rx="1"
     ry="1"
     id="rect2" />
  <rect
     style="fill:#00e44f;fill-opacity:1;opacity:0.1"
     width="16"
     height="16"
     x="0"
     y="0"
     rx="1"
     ry="1"
     id="rect1261" />
  <path
     style="fill:#00e44f;fill-opacity:1;opacity:0.25"
     d="M 11.673828,4.8945312 8.0371094,11.443359 a 0.50005,0.50005 0 0 1 -0.8710938,0.0039 L 4.3671875,6.5507812 3.2167969,8.2773438 A 0.50005,0.50005 0 0 1 2.8007812,8.5 H 0 V 15 c 0,0.554 0.446,1 1,1 h 14 c 0.554,0 1,-0.446 1,-1 V 8.5 H 14.800781 A 0.50005,0.50005 0 0 1 14.410156,8.3125 Z"
     id="path2282" />
  <path
     style="fill:none;stroke:#66ef8d;stroke-width:2;stroke-linecap:butt;stroke-linejoin:round;stroke-miterlimit:4;stroke-dasharray:none;stroke-opacity:1"
     d="M -4e-8,8 H 2.8 l 1.6,-2.4 3.2,5.6 4,-7.2 3.2,4 H 16"
     id="path1415-7"
     sodipodi:nodetypes="ccccccc" />
</svg>
