<?xml version="1.0" encoding="UTF-8" standalone="no"?>
<svg
   width="22"
   height="22"
   version="1"
   id="svg16"
   sodipodi:docname="utilities-system-monitorROUND.svg"
   inkscape:version="1.1.1 (1:1.1+202109281949+c3084ef5ed)"
   xmlns:inkscape="http://www.inkscape.org/namespaces/inkscape"
   xmlns:sodipodi="http://sodipodi.sourceforge.net/DTD/sodipodi-0.dtd"
   xmlns="http://www.w3.org/2000/svg"
   xmlns:svg="http://www.w3.org/2000/svg">
  <defs
     id="defs20" />
  <sodipodi:namedview
     id="namedview18"
     pagecolor="#ffffff"
     bordercolor="#666666"
     borderopacity="1.0"
     inkscape:pageshadow="2"
     inkscape:pageopacity="0.0"
     inkscape:pagecheckerboard="0"
     showgrid="true"
     inkscape:snap-bbox="true"
     inkscape:bbox-paths="false"
     inkscape:bbox-nodes="true"
     inkscape:zoom="16"
     inkscape:cx="13.40625"
     inkscape:cy="12.0625"
     inkscape:window-width="1440"
     inkscape:window-height="695"
     inkscape:window-x="0"
     inkscape:window-y="0"
     inkscape:window-maximized="1"
     inkscape:current-layer="g3621">
    <inkscape:grid
       type="xygrid"
       id="grid837"
       color="#3f3fff"
       opacity="0.30196078"
       empcolor="#3f3fff"
       empopacity="0.29803922" />
    <inkscape:grid
       type="xygrid"
       id="grid1842"
       spacingx="0.5"
       spacingy="0.5"
       empcolor="#3f3fff"
       empopacity="0.11764706" />
  </sodipodi:namedview>
  <rect
     style="opacity:0.2"
     width="20"
     height="20"
     x="1"
     y="1.5"
     rx="1.5"
     ry="1.5"
     id="rect2" />
  <rect
     style="fill:#4f4f4f"
     width="20"
     height="20"
     x="1"
     y="1"
     rx="1.5"
     ry="1.5"
     id="rect4" />
  <g
     id="g3621">
    <rect
       style="fill:#00e441;fill-opacity:1;opacity:0.1"
       width="20"
       height="20"
       x="-21"
       y="1"
       rx="1.5"
       ry="1.5"
       id="rect1047"
       transform="scale(-1,1)" />
    <path
       id="path6829"
       style="opacity:0.25;fill:#00e441;fill-opacity:1"
       d="m 15.5,6.5 -5,9 -4,-7 -2,3 H 1 v 8 C 1,20.331 1.669,21 2.5,21 h 17 c 0.831,0 1.5,-0.669 1.5,-1.5 v -8 h -1.5 z"
       sodipodi:nodetypes="cccccssssccc" />
    <path
       style="fill:none;stroke:#66ef8d;stroke-width:2;stroke-linecap:butt;stroke-linejoin:round;stroke-miterlimit:4;stroke-dasharray:none;stroke-opacity:1"
       d="m 1,12 h 3.5 l 2,-3 4,7 5,-9 4,5 H 21"
       id="path2201"
       sodipodi:nodetypes="ccccccc" />
    <path
       style="fill:#ffffff;stroke-linejoin:round;-inkscape-stroke:none;fill-opacity:1;opacity:0.1"
       d="M 15.416016,6.0039062 A 1.0001,1.0001 0 0 0 14.625,6.5136719 L 10.488281,13.960938 7.3691406,8.5039062 A 1.0001,1.0001 0 0 0 5.6679688,8.4453125 L 3.9648438,11 H 1 v 0.5 H 4.2324219 L 6.0839844,8.7226562 a 0.50005,0.50005 0 0 1 0.8496094,0.029297 L 10.494141,14.982422 15.0625,6.7578125 A 0.50005,0.50005 0 0 1 15.458984,6.5019531 0.50005,0.50005 0 0 1 15.890625,6.6875 L 19.740234,11.5 H 21 V 11 H 19.980469 L 16.28125,6.375 A 1.0001,1.0001 0 0 0 15.416016,6.0039062 Z"
       id="path20585" />
    <path
       d="M 15.650391,8.7890625 11.375,16.486328 a 1.0001,1.0001 0 0 1 -1.7441406,0.0098 L 6.4335938,10.902344 5.3320312,12.554688 A 1.0001,1.0001 0 0 1 4.5,13 H 1 v 0.5 h 3.5 a 1.50015,1.50015 0 0 0 1.2480469,-0.667969 l 0.6542969,-0.980469 2.7949218,4.892579 a 1.50015,1.50015 0 0 0 2.6132814,-0.01563 L 15.724609,9.6835938 18.328125,12.9375 A 1.50015,1.50015 0 0 0 19.5,13.5 H 21 V 13 h -1.5 a 1.0001,1.0001 0 0 1 -0.78125,-0.375 z"
       id="path22477"
       style="opacity:0.2" />
  </g>
  <path
     id="path13340"
     d="M 2.5 1 C 1.669 1 1 1.669 1 2.5 L 1 3 C 1 2.169 1.669 1.5 2.5 1.5 L 19.5 1.5 C 20.331 1.5 21 2.169 21 3 L 21 2.5 C 21 1.669 20.331 1 19.5 1 L 2.5 1 z "
     style="fill:#ffffff;fill-opacity:1;opacity:0.1" />
</svg>
