<?xml version="1.0" encoding="UTF-8" standalone="no"?>
<svg
   width="48"
   height="48"
   version="1"
   id="svg16"
   sodipodi:docname="48.svg"
   inkscape:version="1.1.1 (3bf5ae0d25, 2021-09-20, custom)"
   xmlns:inkscape="http://www.inkscape.org/namespaces/inkscape"
   xmlns:sodipodi="http://sodipodi.sourceforge.net/DTD/sodipodi-0.dtd"
   xmlns="http://www.w3.org/2000/svg"
   xmlns:svg="http://www.w3.org/2000/svg">
  <defs
     id="defs20" />
  <sodipodi:namedview
     id="namedview18"
     pagecolor="#ffffff"
     bordercolor="#666666"
     borderopacity="1.0"
     inkscape:pageshadow="2"
     inkscape:pageopacity="0.0"
     inkscape:pagecheckerboard="0"
     showgrid="true"
     inkscape:zoom="8.809372"
     inkscape:cx="20.262511"
     inkscape:cy="20.489542"
     inkscape:window-width="1440"
     inkscape:window-height="823"
     inkscape:window-x="0"
     inkscape:window-y="768"
     inkscape:window-maximized="1"
     inkscape:current-layer="svg16">
    <inkscape:grid
       type="xygrid"
       id="grid837" />
  </sodipodi:namedview>
  <rect
     style="opacity:0.2"
     width="40"
     height="40"
     x="4"
     y="5"
     rx="3"
     ry="3"
     id="rect2" />
  <rect
     style="fill:#4f4f4f"
     width="40"
     height="40"
     x="4"
     y="4"
     rx="3"
     ry="3"
     id="rect4" />
  <rect
     style="fill:#00e441;fill-opacity:1;opacity:0.1"
     width="40"
     height="40"
     x="4"
     y="4"
     rx="3"
     ry="3"
     id="rect1512" />
  <path
     style="fill:#00e441;fill-opacity:1;opacity:0.25"
     d="M 33.150391,17.789062 23.875,34.486328 a 1.0001,1.0001 0 0 1 -1.744141,0.0098 l -7.197265,-12.59375 -3.101563,4.652344 A 1.0001,1.0001 0 0 1 11,27 H 4 v 14 c 0,1.662 1.338,3 3,3 h 34 c 1.662,0 3,-1.338 3,-3 V 27 h -3 a 1.0001,1.0001 0 0 1 -0.78125,-0.375 z"
     id="path4221" />
  <path
     style="fill:none;stroke:#66ef8d;stroke-width:4;stroke-linecap:butt;stroke-linejoin:round;stroke-miterlimit:4;stroke-dasharray:none;stroke-opacity:1"
     d="M 3.9999998,26 H 11 l 4,-6 8,14 10,-18 8,10 h 3"
     id="path1288-7"
     sodipodi:nodetypes="ccccccc" />
  <path
     style="fill:#ffffff;opacity:0.1"
     d="m 32.832031,14.007812 a 2.0002,2.0002 0 0 0 -1.580078,1.021485 L 22.976562,29.925781 16.736328,19.007812 a 2.0002,2.0002 0 0 0 -3.40039,-0.117187 L 9.9296875,24 H 4 v 1 h 6.464844 l 3.703125,-5.554688 a 1.0001,1.0001 0 0 1 1.701172,0.05859 L 22.988281,31.960938 32.125,15.513672 A 1.0001,1.0001 0 0 1 32.916016,15.003906 1.0001,1.0001 0 0 1 33.78125,15.375 L 41.480469,25 H 44 V 24 H 41.960938 L 34.5625,14.75 a 2.0002,2.0002 0 0 0 -1.730469,-0.742188 z"
     id="path1767" />
  <path
     style="color:#000000;fill:#000000;stroke-linejoin:round;-inkscape-stroke:none;opacity:0.2"
     d="m 33.298828,19.578125 -8.550781,15.392578 a 2.0002,2.0002 0 0 1 -3.484375,0.02148 L 14.869141,23.800781 12.664062,27.109375 A 2.0002,2.0002 0 0 1 11,28 H 4 v 1 h 7 a 3.0003,3.0003 0 0 0 2.496094,-1.335938 l 1.30664,-1.960937 5.591797,9.785156 a 3.0003,3.0003 0 0 0 5.228516,-0.03125 L 33.451172,21.367188 38.658203,27.875 A 3.0003,3.0003 0 0 0 41,29 h 3 v -1 h -3 a 2.0002,2.0002 0 0 1 -1.5625,-0.75 z"
     id="path3911" />
  <path
     id="rect828"
     style="fill:#ffffff;fill-opacity:1;opacity:0.1"
     d="M 7 4 C 5.338 4 4 5.338 4 7 L 4 8 C 4 6.338 5.338 5 7 5 L 41 5 C 42.662 5 44 6.338 44 8 L 44 7 C 44 5.338 42.662 4 41 4 L 7 4 z " />
</svg>
