<?xml version="1.0" encoding="UTF-8" standalone="no"?>
<svg
   width="64"
   height="64"
   version="1"
   id="svg16"
   sodipodi:docname="utilities-system-monitor.svg"
   inkscape:version="1.1.1 (3bf5ae0d25, 2021-09-20, custom)"
   xmlns:inkscape="http://www.inkscape.org/namespaces/inkscape"
   xmlns:sodipodi="http://sodipodi.sourceforge.net/DTD/sodipodi-0.dtd"
   xmlns="http://www.w3.org/2000/svg"
   xmlns:svg="http://www.w3.org/2000/svg">
  <defs
     id="defs20" />
  <sodipodi:namedview
     id="namedview18"
     pagecolor="#ffffff"
     bordercolor="#666666"
     borderopacity="1.0"
     inkscape:pageshadow="2"
     inkscape:pageopacity="0.0"
     inkscape:pagecheckerboard="0"
     showgrid="true"
     inkscape:zoom="4.671875"
     inkscape:cx="11.023411"
     inkscape:cy="46.555184"
     inkscape:window-width="1440"
     inkscape:window-height="823"
     inkscape:window-x="0"
     inkscape:window-y="768"
     inkscape:window-maximized="1"
     inkscape:current-layer="svg16">
    <inkscape:grid
       type="xygrid"
       id="grid837" />
  </sodipodi:namedview>
  <rect
     style="opacity:0.2"
     width="56"
     height="56"
     x="4"
     y="5"
     rx="4"
     ry="4"
     id="rect2" />
  <rect
     style="fill:#4f4f4f"
     width="56"
     height="56"
     x="4"
     y="4"
     rx="4"
     ry="4"
     id="rect4" />
  <rect
     style="fill:#00e441;fill-opacity:1;opacity:0.1"
     width="56"
     height="56"
     x="4"
     y="4"
     rx="4"
     ry="4"
     id="rect1413" />
  <path
     style="fill:#00e441;fill-opacity:1;opacity:0.25"
     d="M 44.75,22.789062 31.474609,46.685547 a 1.0001,1.0001 0 0 1 -1.742187,0.0098 L 19.333984,28.501953 14.632812,35.554688 A 1.0001,1.0001 0 0 1 13.800781,36 H 4 v 20 c 0,2.216 1.784,4 4,4 h 48 c 2.216,0 4,-1.784 4,-4 V 36 h -4.199219 a 1.0001,1.0001 0 0 1 -0.78125,-0.375 z"
     id="path7088" />
  <path
     d="M 45.050781,26.367188 33.222656,47.65625 a 3.0003,3.0003 0 0 1 -5.226562,0.03125 l -8.792969,-15.384766 -2.90625,4.361328 A 3.0003,3.0003 0 0 1 13.800781,38 H 4 v 1 h 9.800781 a 4.0004,4.0004 0 0 0 3.328125,-1.78125 l 2.009766,-3.015625 7.988281,13.980469 a 4.0004,4.0004 0 0 0 6.96875,-0.04102 l 11.105469,-19.988281 7.474609,9.34375 A 4.0004,4.0004 0 0 0 55.800781,39 H 60 v -1 h -4.199219 a 3.0003,3.0003 0 0 1 -2.34375,-1.125 z"
     id="path6607"
     style="opacity:0.2" />
  <path
     style="fill:none;stroke:#66ef8d;stroke-width:6;stroke-linecap:butt;stroke-linejoin:round;stroke-miterlimit:4;stroke-dasharray:none;stroke-opacity:1"
     d="m 4,35 h 9.8 L 19.4,26.6 30.6,46.2 44.6,21 55.8,35 H 60"
     id="path1224-7"
     sodipodi:nodetypes="ccccccc" />
  <path
     style="color:#000000;fill:#ffffff;stroke-linejoin:round;-inkscape-stroke:none;fill-opacity:1;opacity:0.1"
     d="m 44.349609,18.011719 a 3.0003,3.0003 0 0 0 -2.373047,1.53125 L 30.5625,40.087891 22.003906,25.111328 A 3.0003,3.0003 0 0 0 16.904297,24.935547 L 12.195312,32 H 4 v 1 h 8.730469 l 5.005859,-7.509766 a 2.0002,2.0002 0 0 1 3.400391,0.117188 L 30.576172,42.125 42.851562,20.029297 A 2.0002,2.0002 0 0 1 44.431641,19.007812 2.0002,2.0002 0 0 1 46.162109,19.75 L 56.761719,33 H 60 V 32 H 57.242188 L 46.943359,19.125 a 3.0003,3.0003 0 0 0 -2.59375,-1.113281 z"
     id="path5300" />
  <path
     id="rect7287"
     d="M 8 4 C 5.784 4 4 5.784 4 8 L 4 9 C 4 6.784 5.784 5 8 5 L 56 5 C 58.216 5 60 6.784 60 9 L 60 8 C 60 5.784 58.216 4 56 4 L 8 4 z "
     style="fill:#ffffff;fill-opacity:1;opacity:0.1" />
</svg>
