<svg width="16" height="16" version="1" xmlns="http://www.w3.org/2000/svg">
 <defs>
  <style id="current-color-scheme" type="text/css">.ColorScheme-Text {
            color:#31363b;
        }
        .ColorScheme-Background {
            color:#eff0f1;
        }
        .ColorScheme-Highlight {
            color:#3daee9;
        }</style>
 </defs>
 <g transform="translate(2)">
  <rect class="ColorScheme-Text" x="-2" width="16" height="16" rx="1" ry="1" style="fill:currentColor;opacity:.5"/>
 </g>
 <rect class="ColorScheme-Background" x="1" y="1" width="14" height="14" rx=".5" ry=".5" style="fill:currentColor"/>
 <g transform="translate(0 3.5001)">
  <path class="ColorScheme-Text" d="m10.5 1.4999-3 6-2-5.5-2 3h-2.5v5.5c0 0.554 0.446 1 1 1h12c0.554 0 1-0.446 1-1v-5.5h-2.5z" style="fill:currentColor;opacity:.15;stroke-width:.29167"/>
  <path class="ColorScheme-Highlight" d="m10.5 0.9999-3 6.5-2.5-5.5-1.5 3h-2.5v5.5c0 0.554 0.446 1 1 1h12c0.554 0 1-0.446 1-1v-5.5h-2.5z" style="fill:currentColor;opacity:.2;stroke-width:.29167"/>
 </g>
 <path class="ColorScheme-Highlight" d="m1 8.5h2.5l1.5-3 2.5 6 3-7 2 4h2.5" style="fill:none;opacity:.2;stroke-linejoin:round;stroke-width:2;stroke:currentColor"/>
 <path class="ColorScheme-Text" d="m1 8.5h2.5l1.5-3 2.5 6 3-7 2 4h2.5" style="fill:none;stroke-linejoin:round;stroke:currentColor"/>
 <path class="ColorScheme-Highlight" d="m1 8.5h2.5l1.5-3 2.5 6 3-7 2 4h2.5" style="fill:none;opacity:.75;stroke-linejoin:round;stroke:currentColor"/>
</svg>
