<svg width="32" height="32" version="1" xmlns="http://www.w3.org/2000/svg">
 <defs>
  <style id="current-color-scheme" type="text/css">.ColorScheme-Text {
            color:#31363b;
        }
        .ColorScheme-Background {
            color:#eff0f1;
        }
        .ColorScheme-Highlight {
            color:#3daee9;
        }</style>
 </defs>
 <path d="m2 26v1c0 1.108 0.892 2 2 2h24c1.108 0 2-0.892 2-2v-1c0 1.108-0.892 2-2 2h-24c-1.108 0-2-0.892-2-2z" style="opacity:.2"/>
 <rect class="ColorScheme-Text" x="2" y="4" width="28" height="24" rx="2" ry="2" style="fill:currentColor;opacity:.5"/>
 <path d="m4 4c-1.108 0-2 0.892-2 2v1c0-1.108 0.892-2 2-2h24c1.108 0 2 0.892 2 2v-1c0-1.108-0.892-2-2-2h-24z" style="fill:#fff;opacity:.1"/>
 <rect class="ColorScheme-Background" x="4" y="6" width="24" height="20" rx="1" ry="1" style="fill:currentColor"/>
 <path class="ColorScheme-Text" d="m20 10-5 13-4-10-2 4h-5v8c0 0.554 0.446 1 1 1h22c0.554 0 1-0.446 1-1v-8h-5z" style="fill:currentColor;opacity:.15"/>
 <path class="ColorScheme-Highlight" d="m20 10-5 13-4-10-2 4h-5v8c0 0.554 0.446 1 1 1h22c0.554 0 1-0.446 1-1v-8h-5z" style="fill:currentColor;opacity:.2"/>
 <g transform="translate(0,-1)">
  <path class="ColorScheme-Highlight" d="m4 18h5l2-4 4 10 5-13 3 7h5" style="fill:none;opacity:.2;stroke-linejoin:round;stroke-width:2;stroke:currentColor"/>
  <path class="ColorScheme-Text" d="m4 18h5l2-4 4 10 5-13 3 7h5" style="fill:none;stroke-linejoin:round;stroke-width:1.5;stroke:currentColor"/>
  <path class="ColorScheme-Highlight" d="m4 18h5l2-4 4 10 5-13 3 7h5" style="fill:none;opacity:.75;stroke-linejoin:round;stroke-width:1.5;stroke:currentColor"/>
 </g>
</svg>
