<?xml version="1.0" encoding="UTF-8" standalone="no"?>
<svg
   width="22"
   height="22"
   version="1"
   id="svg16"
   sodipodi:docname="software-store.svg"
   inkscape:version="1.1.1 (1:1.1+202109281949+c3084ef5ed)"
   xmlns:inkscape="http://www.inkscape.org/namespaces/inkscape"
   xmlns:sodipodi="http://sodipodi.sourceforge.net/DTD/sodipodi-0.dtd"
   xmlns="http://www.w3.org/2000/svg"
   xmlns:svg="http://www.w3.org/2000/svg">
  <sodipodi:namedview
     id="namedview18"
     pagecolor="#ffffff"
     bordercolor="#666666"
     borderopacity="1.0"
     inkscape:pageshadow="2"
     inkscape:pageopacity="0.0"
     inkscape:pagecheckerboard="0"
     showgrid="true"
     inkscape:zoom="73.9248"
     inkscape:cx="1.6841439"
     inkscape:cy="18.735255"
     inkscape:window-width="1440"
     inkscape:window-height="693"
     inkscape:window-x="0"
     inkscape:window-y="0"
     inkscape:window-maximized="1"
     inkscape:current-layer="svg16">
    <inkscape:grid
       type="xygrid"
       id="grid835" />
  </sodipodi:namedview>
  <defs
     id="defs14">
    <style
       id="current-color-scheme"
       type="text/css">
        .ColorScheme-Text {
            color:#31363b;
        }
        .ColorScheme-Background {
        color:#eff0f1;
        }
    </style>
  </defs>
  <g
     id="g933">
    <path
       fill="currentColor"
       d="m8 1-1 1v2h-6v15c0 0.554 0.446 1 1 1h18c0.554 0 1-0.446 1-1v-15h-6v-2l-1-1zm0 1h6v2h-6z"
       id="path4"
       class="ColorScheme-Text" />
    <path
       fill="currentColor"
       d="m8 1-1 1v2h-6v15c0 0.554 0.446 1 1 1h18c0.554 0 1-0.446 1-1v-15h-6v-2l-1-1zm0 1h6v2h-6z"
       id="path1388"
       class="ColorScheme-Background"
       style="opacity:0.05" />
    <path
       d="m8 1-1 1v2h-6v15c0 0.554 0.446 1 1 1h18c0.554 0 1-0.446 1-1v-15h-6v-2l-1-1zm0 1h6v2h-6z"
       id="path935"
       class="ColorScheme-Background"
       style="opacity:0.15;fill:#ffffff;fill-opacity:1" />
  </g>
  <path
     fill="#fff"
     opacity=".1"
     d="m8 1-1 1v0.5l1-1h6l1 1v-0.5l-1-1h-6zm-7 3v0.5h6v-0.5h-6zm7 0v0.5h6v-0.5h-6zm7 0v0.5h6v-0.5h-6z"
     id="path6" />
  <path
     opacity=".2"
     d="m8 2v0.5h6v-0.5h-6zm-7 17v0.5c0 0.554 0.446 1 1 1h18c0.554 0 1-0.446 1-1v-0.5c0 0.554-0.446 1-1 1h-18c-0.554 0-1-0.446-1-1z"
     id="path8" />
  <circle
     fill="#4ab3e4"
     cx="16"
     cy="16"
     r="6"
     id="circle10" />
  <path
     fill="#fff"
     d="m17 12v3.0155h2l-3 3.984-3-4.0158h2v-2.984h2.2973z"
     id="path12" />
  <path
     fill="#fff"
     d="m13 19h6v1h-6z"
     id="path14" />
</svg>
