<svg width="32" height="32" version="1" xmlns="http://www.w3.org/2000/svg" xmlns:xlink="http://www.w3.org/1999/xlink">
 <defs>
  <style id="current-color-scheme" type="text/css">.ColorScheme-Highlight { color:#3daee9; } .ColorScheme-Text { color:#363636; } .ColorScheme-Background { color:#eff0f1; }</style>
  <linearGradient id="a" x1="8" x2="14" y1="8" y2="14" gradientTransform="translate(-3.796e-4,-7.5919e-4)" gradientUnits="userSpaceOnUse">
   <stop style="stop-opacity:0" offset="0"/>
   <stop offset="1"/>
  </linearGradient>
 </defs>
 <path class="ColorScheme-Background" d="m16 7.818c-4.5327 0-8.1817 3.649-8.1817 8.1817s3.649 8.1817 8.1817 8.1817 8.1817-3.649 8.1817-8.1817-3.649-8.1817-8.1817-8.1817z" style="fill:currentColor;opacity:.25;stroke-width:1.6363"/>
 <g transform="matrix(1.575 0 0 1.575 -1.325 -2.075)" stroke-width="1.25">
  <use transform="matrix(.63492 0 0 .63492 24.333 2.5873)" width="100%" height="100%" style="opacity:.2" xlink:href="#b"/>
  <use class="ColorScheme-Text" transform="matrix(.63492 0 0 .63492 24.333 1.9524)" width="100%" height="100%" style="fill:currentColor" xlink:href="#b"/>
  <use class="ColorScheme-Background" transform="matrix(.63492 0 0 .63492 24.333 1.9524)" width="100%" height="100%" style="fill:currentColor;opacity:.15" xlink:href="#b"/>
  <path d="m10.702 1.9524c-2.3199 0-1.5408 2.238-2.5422 3.0679-0.39528 0.32756-0.85052 0.59037-1.3318 0.76885-1.2195 0.4522-3.1046-0.71524-3.9273 0.66592-0.10178 0.17086-0.1965 0.34585-0.29762 0.51711-0.43224 0.73206-0.51965 1.2449-0.42162 1.6357 0.058833-0.28112 0.19065-0.60955 0.42162-1.0007 0.10112-0.17126 0.19584-0.34625 0.29762-0.51711 0.82275-1.3812 2.7078-0.21372 3.9273-0.66592 0.48132-0.17848 0.93656-0.44129 1.3318-0.76885 1.0014-0.82992 0.22225-3.0679 2.5422-3.0679h0.59524c2.3199 0 1.5408 2.238 2.5422 3.0679 0.39528 0.32756 0.85052 0.59037 1.3318 0.76885 1.2195 0.4522 3.1046-0.71524 3.9273 0.66592 0.10178 0.17086 0.19647 0.34585 0.29762 0.51711 0.23098 0.39119 0.36279 0.71962 0.42163 1.0007 0.09802-0.39079 0.01062-0.9036-0.42163-1.6357-0.10115-0.17126-0.19584-0.34625-0.29762-0.51711-0.82275-1.3812-2.7078-0.21372-3.9273-0.66592-0.48132-0.17848-0.93656-0.44129-1.3318-0.76885-1.0014-0.82992-0.22225-3.0679-2.5422-3.0679h-0.29762zm-6.6629 9.8263c-0.010243 0.15628-0.02594 0.31248-0.052083 0.46627-0.18468 1.0861-2.1326 1.1776-1.8068 2.7344 0.24444-0.97448 1.6512-1.1843 1.8068-2.0994 0.043017-0.25305 0.064477-0.51094 0.064484-0.76885h0.00124c-3.1e-6 -0.11112-0.00566-0.22161-0.013641-0.33234zm12.03 0.0025c-0.04535 0.76191-0.26296 1.5259-0.67212 2.2346-0.87616 1.5188-2.5122 2.5397-4.3985 2.5397-1.8864 0-3.5224-1.0208-4.3985-2.5397-0.4047-0.70097-0.6223-1.4562-0.67088-2.2098-0.00606 0.10176-0.010003 0.20351-0.00992 0.30506h-0.00124c-7.048e-4 0.86184 0.21824 1.7363 0.68204 2.5397 0.87616 1.5188 2.5122 2.5397 4.3985 2.5397 1.8864 0 3.5224-1.0208 4.3985-2.5397 0.4638-0.80333 0.68274-1.6778 0.68204-2.5397h0.0013c9e-5 -0.10981-0.0041-0.21981-0.01116-0.32986zm1.8899 0.02728c-0.0066 0.10088-0.0124 0.20142-0.0124 0.30258h-0.0013c7e-6 0.2579 0.02147 0.51579 0.06448 0.76885 0.15562 0.91519 1.5623 1.125 1.8068 2.0994 0.32581-1.5568-1.6221-1.6483-1.8068-2.7344-0.02448-0.14402-0.04031-0.29024-0.05084-0.43651z" style="fill:#fff;opacity:.1"/>
 </g>
 <g id="b">
  <path d="m-21.469 0c-3.6539 0-2.4267 3.5249-4.0039 4.832-0.62257 0.51591-1.3396 0.92983-2.0977 1.2109-1.9207 0.71222-4.8897-1.1265-6.1855 1.0488-0.16031 0.26911-0.30949 0.54472-0.46875 0.81445-2.3784 4.0282 1.8382 3.8633 2.1816 5.8828 0.067753 0.39856 0.10155 0.80474 0.10156 1.2109h-0.001953c-1.1e-5 0.4062-0.03381 0.81238-0.10156 1.2109-0.3434 2.0195-4.56 1.8546-2.1816 5.8828 0.15926 0.26973 0.30844 0.54534 0.46875 0.81445 1.2958 2.1753 4.2648 0.33661 6.1855 1.0488 0.75808 0.28111 1.4751 0.69503 2.0977 1.2109 1.5772 1.3071 0.35005 4.832 4.0039 4.832h0.9375c3.6539 0 2.4267-3.5249 4.0039-4.832 0.62257-0.51591 1.3396-0.92983 2.0977-1.2109 1.9207-0.71222 4.8897 1.1265 6.1855-1.0488 0.16031-0.26911 0.30949-0.54472 0.46875-0.81445 2.3784-4.0282-1.8382-3.8633-2.1816-5.8828-0.067753-0.39856-0.10155-0.80474-0.10156-1.2109h0.001953c1.1e-5 -0.4062 0.033809-0.81238 0.10156-1.2109 0.3434-2.0195 4.56-1.8546 2.1816-5.8828-0.15926-0.26973-0.30844-0.54534-0.46875-0.81445-1.2958-2.1753-4.2648-0.33661-6.1855-1.0488-0.75808-0.28111-1.4751-0.69503-2.0977-1.2109-1.5772-1.3071-0.35005-4.832-4.0039-4.832h-0.9375zm0.46875 7c2.971 0 5.5478 1.6078 6.9277 4 0.73049 1.2652 1.0753 2.6426 1.0742 4h-0.001953c0.001114 1.3574-0.34373 2.7348-1.0742 4-1.38 2.3922-3.9567 4-6.9277 4s-5.5478-1.6078-6.9277-4c-0.73049-1.2652-1.0753-2.6426-1.0742-4h0.001953c-0.001114-1.3574 0.34373-2.7348 1.0742-4 1.38-2.3922 3.9567-4 6.9277-4z"/>
 </g>
 <g transform="matrix(2 0 0 2 -5.9993 -5.9985)">
  <rect class="ColorScheme-Highlight" x="7.9996" y="7.9992" width="6" height="6" rx="3" ry="3" style="fill:currentColor"/>
  <rect x="7.9996" y="7.9992" width="6" height="6" rx="3" ry="3" style="fill:url(#a);opacity:.1;paint-order:markers stroke fill"/>
 </g>
</svg>
