<svg width="48" height="48" version="1" xmlns="http://www.w3.org/2000/svg" xmlns:xlink="http://www.w3.org/1999/xlink">
 <defs>
  <style id="current-color-scheme" type="text/css">.ColorScheme-Highlight { color:#3daee9; } .ColorScheme-Text { color:#363636; } .ColorScheme-Background { color:#eff0f1; }</style>
  <linearGradient id="a" x1="8" x2="14" y1="8" y2="14" gradientUnits="userSpaceOnUse">
   <stop style="stop-opacity:0" offset="0"/>
   <stop offset="1"/>
  </linearGradient>
 </defs>
 <path class="ColorScheme-Background" d="m24.001 12c-6.648 0-12 5.352-12 12s5.352 12 12 12 12-5.352 12-12-5.352-12-12-12z" style="fill:currentColor;opacity:.25;stroke-width:2.4"/>
 <g transform="matrix(2.1 0 0 2.1 .90081 -.099989)" stroke-width="1.25">
  <use class="ColorScheme-Background" transform="matrix(.47619 0 0 .47619 21.952 .047615)" width="100%" height="100%" style="opacity:.2" xlink:href="#b"/>
  <use class="ColorScheme-Text" transform="matrix(.47619 0 0 .47619 21.952 -.42855)" width="100%" height="100%" style="fill:currentColor" xlink:href="#b"/>
  <use class="ColorScheme-Background" transform="matrix(.47619 0 0 .47619 21.952 -.42855)" width="100%" height="100%" style="fill:currentColor;opacity:.15" xlink:href="#b"/>
  <path d="m10.657 0.5238c-0.50023 0-0.87505 0.090379-1.1616 0.24368-1.2419 0.66428-0.82493 2.5086-1.7606 3.284-0.45458 0.37666-0.97924 0.67923-1.5327 0.88449-1.4024 0.52005-3.4989-0.99664-4.5154 0.76637l-0.17113 0.29762-0.17113 0.29576c-0.32661 0.56567-0.41121 1.0232-0.35156 1.4137 0.04016-0.2776 0.14893-0.58655 0.35156-0.9375l0.17113-0.29576 0.17113-0.29762c1.0165-1.763 3.113-0.24632 4.5154-0.76637 0.5535-0.20525 1.0782-0.50782 1.5327-0.88449 0.93567-0.77545 0.51868-2.6198 1.7606-3.284 0.2866-0.1533 0.66141-0.24368 1.1616-0.24368h0.68452c0.50023 0 0.87505 0.090379 1.1616 0.24368 1.2419 0.66428 0.82493 2.5086 1.7606 3.284 0.45458 0.37666 0.97924 0.67923 1.5327 0.88449 1.4024 0.52005 3.4989-0.99664 4.5154 0.76637l0.17113 0.29762 0.17113 0.29576c0.20332 0.35214 0.31267 0.66197 0.35249 0.94029 0.06046-0.39108-0.02513-0.84951-0.35249-1.4165l-0.17113-0.29576-0.17113-0.29762c-1.0165-1.763-3.113-0.24632-4.5154-0.76637-0.5535-0.20525-1.0782-0.50782-1.5327-0.88449-0.93567-0.77545-0.51868-2.6198-1.7606-3.284-0.2866-0.1533-0.66141-0.24368-1.1616-0.24368h-0.34226zm8.3464 11.057c-0.0087 0.12342-0.01581 0.24717-0.01581 0.37109h0.01116c4e-6 0.2969 0.02493 0.59348 0.07441 0.88449 0.1892 1.1127 1.7588 1.6769 1.9448 2.8795 0.22145-1.5478-1.7322-2.1058-1.9448-3.3557-0.04363-0.25661-0.06456-0.51772-0.06975-0.77939zm-13.213 0.02232c-0.0076 0.11585-0.017671 0.23094-0.017671 0.34877h0.011162c-5e-7 2.8959 2.331 5.2269 5.2269 5.2269 2.8959 2e-6 5.2269-2.331 5.2269-5.2269h-0.01116c0-0.04305-0.0055-0.08462-0.0065-0.12742-0.17918 2.7312-2.4312 4.8782-5.2093 4.8782-2.8529 0-5.1525-2.2636-5.2204-5.0995zm-2.7837 0.24368c-0.012085 0.17229-0.029768 0.34384-0.058594 0.51339-0.21264 1.2506-2.1681 1.8085-1.9438 3.3584 0.18398-1.2044 1.7545-1.7687 1.9438-2.8823 0.049476-0.29101 0.0744-0.58758 0.074405-0.88449h-0.01116c-5e-7 -0.0351-0.00395-0.07002-0.00465-0.1051z" style="fill:#fff;opacity:.1"/>
 </g>
 <g transform="matrix(2.6667 0 0 2.6667 -5.3333 -5.3333)">
  <rect class="ColorScheme-Highlight" x="8" y="8" width="6" height="6" rx="3" ry="3" style="fill:currentColor"/>
  <rect x="8" y="8" width="6" height="6" rx="3" ry="3" style="fill:url(#a);opacity:.2;paint-order:markers stroke fill"/>
 </g>
 <g id="b">
  <path d="m-23.719 2c-1.0505 0-1.8376 0.1898-2.4395 0.51172-2.608 1.395-1.7324 5.268-3.6973 6.8965-0.95461 0.79099-2.0564 1.4264-3.2188 1.8574-2.9451 1.0921-7.3477-2.0929-9.4824 1.6094l-0.35938 0.625-0.35938 0.62109c-2.8014 4.852 2.8172 5.9249 3.3438 9.0215 0.1039 0.61112 0.15624 1.2339 0.15625 1.8574h0.023438c-9e-6 0.6235-0.05235 1.2463-0.15625 1.8574-0.52651 3.0965-6.1452 4.1695-3.3438 9.0215l0.35938 0.62109 0.35938 0.625c2.1348 3.7023 6.5374 0.51727 9.4824 1.6094 1.1623 0.43103 2.2641 1.0664 3.2188 1.8574 1.9649 1.6285 1.0892 5.5015 3.6973 6.8965 0.60186 0.32192 1.389 0.51172 2.4395 0.51172h1.4375c1.0505 0 1.8376-0.1898 2.4395-0.51172 2.608-1.395 1.7324-5.268 3.6973-6.8965 0.95461-0.79099 2.0564-1.4264 3.2188-1.8574 2.9451-1.0921 7.3477 2.0929 9.4824-1.6094l0.35938-0.625 0.35938-0.62109c2.8014-4.852-2.8172-5.9249-3.3438-9.0215-0.1039-0.61112-0.15624-1.2339-0.15625-1.8574h-0.023438c9.2e-6 -0.6235 0.052347-1.2463 0.15625-1.8574 0.52651-3.0965 6.1452-4.1695 3.3438-9.0215l-0.35938-0.62109-0.35938-0.625c-2.1348-3.7023-6.5374-0.51727-9.4824-1.6094-1.1623-0.43103-2.2641-1.0664-3.2188-1.8574-1.9649-1.6285-1.0892-5.5015-3.6973-6.8965-0.60186-0.32192-1.389-0.51172-2.4395-0.51172h-1.4375zm0.71875 12.023c6.0814 0 10.977 4.8951 10.977 10.977h0.023438c1e-6 6.0814-4.8951 10.977-10.977 10.977-6.0814 0-10.977-4.8951-10.977-10.977h-0.023437c-2e-6 -6.0814 4.8951-10.977 10.977-10.977z"/>
 </g>
</svg>
