<svg width="64" height="64" version="1" xmlns="http://www.w3.org/2000/svg" xmlns:xlink="http://www.w3.org/1999/xlink">
 <defs>
  <style id="current-color-scheme" type="text/css">.ColorScheme-Text {
        color:#363636;
      }
.ColorScheme-Background {
        color:#eff0f1;
      }
.ColorScheme-Highlight {
        color:#3daee9;
      }</style>
  <linearGradient id="a" x1="8" x2="14" y1="8" y2="14" gradientUnits="userSpaceOnUse">
   <stop style="stop-opacity:0" offset="0"/>
   <stop offset="1"/>
  </linearGradient>
 </defs>
 <path class="ColorScheme-Background" d="m32.001 16.727c-8.4611 0-15.273 6.8116-15.273 15.273 0 8.4611 6.8116 15.273 15.273 15.273s15.273-6.8116 15.273-15.273c0-8.4611-6.8116-15.273-15.273-15.273z" style="fill:currentColor;opacity:.25;stroke-width:3.0545"/>
 <g transform="matrix(2.94 0 0 2.94 -.33887 -1.74)" stroke-width="1.25">
  <use transform="matrix(.34014 0 0 .34014 25.625 .93197)" width="100%" height="100%" style="opacity:.2" xlink:href="#b"/>
  <use class="ColorScheme-Text" transform="matrix(.34014 0 0 .34014 25.625 .59184)" width="100%" height="100%" style="fill:currentColor" xlink:href="#b"/>
  <use class="ColorScheme-Background" transform="matrix(.34014 0 0 .34014 25.625 .59184)" width="100%" height="100%" style="fill:currentColor;opacity:.15" xlink:href="#b"/>
  <path d="m10.681 1.2721c-2.4852-0.0015306-1.6503 2.3971-2.7231 3.2864-0.42347 0.35098-0.91189 0.63317-1.4276 0.82443-1.3066 0.48461-2.9644-1.4384-4.2072 0.71415l-0.31888 0.55405c-0.2909 0.50316-0.37606 0.91414-0.33482 1.2669 0.030425-0.27221 0.13261-0.57699 0.33482-0.92674l0.31888-0.55405c1.2427-2.1526 2.9006-0.22955 4.2072-0.71415 0.51575-0.19126 1.0042-0.47345 1.4276-0.82443 1.0728-0.88929 0.2379-3.288 2.7231-3.2864h0.63776c2.4856 0 1.6502 2.3972 2.7231 3.2864 0.42352 0.35096 0.91194 0.6332 1.4276 0.82443 1.3066 0.4845 2.9658-1.4388 4.2072 0.71415l0.15944 0.27702 0.15944 0.2757c0.20116 0.34841 0.30331 0.65194 0.33416 0.92342 0.04039-0.35221-0.0444-0.7617-0.33416-1.2636l-0.15944-0.2757-0.15944-0.27702c-1.2414-2.1529-2.9006-0.22965-4.2072-0.71415-0.5157-0.19123-1.0041-0.47347-1.4276-0.82443-1.0729-0.8892-0.23747-3.2864-2.7231-3.2864h-0.31888zm-7.1309 10.374c-0.00752 0.21969-0.025806 0.43886-0.062447 0.65436-0.19578 1.1514-1.9772 1.6712-1.8176 3.0765 0.13308-1.1578 1.6385-1.683 1.8176-2.7364 0.05557-0.32683 0.073863-0.66133 0.062447-0.9945zm2.6965 0c-2e-3 0.05693-0.00864 0.11264-0.00864 0.17007 0 2.6381 2.1237 4.7619 4.7619 4.7619 2.6381 0 4.7619-2.1237 4.7619-4.7619 0-0.05743-0.0066-0.11314-0.0086-0.17007-0.08971 2.5581-2.1726 4.5918-4.7533 4.5918-2.5807 0-4.6636-2.0339-4.7533-4.5918zm12.203 0c-0.01142 0.33318 0.0069 0.66768 0.06245 0.9945 0.17903 1.0525 1.6832 1.5781 1.8183 2.7337 0.15674-1.4024-1.6226-1.9234-1.8183-3.0738-0.03665-0.2155-0.05493-0.43468-0.06245-0.65436z" style="fill:#fff;opacity:.1"/>
 </g>
 <g transform="matrix(3.6667 0 0 3.6667 -8.3333 -8.3333)">
  <rect class="ColorScheme-Highlight" x="8" y="8" width="6" height="6" rx="3" ry="3" style="fill:currentColor"/>
  <rect x="8" y="8" width="6" height="6" rx="3" ry="3" style="fill:url(#a);opacity:.2;paint-order:markers stroke fill"/>
 </g>
 <g id="b" transform="matrix(1.0714 0 0 1.0714 3.0714 -2.2857)">
  <path d="m-43.875 4.0001c-6.8193-0.0042-4.5285 6.5782-7.4723 9.0184-1.162 0.96308-2.5026 1.7372-3.9178 2.2621-3.5853 1.3298-8.1341-3.9478-11.544 1.9588l-0.875 1.5213c-3.4133 5.9038 3.4304 7.2077 4.0716 10.977 0.25308 1.4879 0.25299 3.0361 0 4.5241-0.64098 3.7697-7.482 5.0706-4.0716 10.977l0.875 1.5213c3.406 5.9076 7.9589 0.62934 11.544 1.9588 1.4151 0.52473 2.7557 1.299 3.9178 2.2621 2.9444 2.44 0.6518 9.0184 7.4723 9.0184h1.75c6.8196 0.0044 4.5285-6.5782 7.4723-9.0184 1.162-0.96308 2.5026-1.7372 3.9178-2.2621 3.5856-1.3298 8.1341 3.9428 11.544-1.9638l0.4375-0.7557 0.4375-0.76067c3.4133-5.9038-3.4304-7.2077-4.0716-10.977-0.25308-1.4879-0.25299-3.0361 0-4.5241 0.64098-3.7697 7.482-5.0756 4.0716-10.982l-0.4375-0.7557-0.4375-0.76067c-3.4063-5.9076-7.9589-0.62934-11.544-1.9588-1.4151-0.52473-2.7557-1.299-3.9178-2.2621-2.9441-2.44-0.6518-9.0184-7.4723-9.0184h-0.875zm0.875 14.933c7.2391 0 13.067 5.8279 13.067 13.067 0 7.2391-5.8279 13.067-13.067 13.067-7.2391 0-13.067-5.8279-13.067-13.067 0-7.2391 5.8279-13.067 13.067-13.067z"/>
 </g>
</svg>
