<svg width="22" height="22" version="1" xmlns="http://www.w3.org/2000/svg">
 <defs>
  <linearGradient id="a" x1="1" x2="11" y1="1.5" y2="17.5" gradientTransform="translate(0 -.5)" gradientUnits="userSpaceOnUse">
   <stop style="stop-color:#80d9ab" offset="0"/>
   <stop style="stop-color:#2fa2b8" offset="1"/>
  </linearGradient>
 </defs>
 <rect x="1" y="7.5" width="20" height="10" rx="2" ry="2" opacity=".2"/>
 <path d="m3 1c-1.0965 0-2 0.90353-2 2v12c0 1.0965 0.90353 2 2 2h16c1.0965 0 2-0.90353 2-2v-10c0-1.0965-0.90353-2-2-2h-8c-2 0-1.4979-2-4-2z" style="fill:url(#a)"/>
 <path d="m3 1.5c-1.0965 0-2 0.90353-2 2v4c0-1.0965 0.9035-2 2-2h4c2.5021 0 2-2 4-2-2 0-1.4979-2-4-2h-4z" style="fill:#808080;opacity:.2"/>
 <path d="m11 4c-2 0-1.4979 2-4 2h-4c-1.0965 0-2 0.90353-2 2v7c0 1.0965 0.90353 2 2 2h16c1.0965 0 2-0.90353 2-2v-9c0-1.0965-0.90353-2-2-2z" fill="#fff" opacity=".15"/>
 <path d="m11 4c-2 0-1.4979 2-4 2h-4c-1.0965 0-2 0.90353-2 2v0.5c0-1.0965 0.9035-2 2-2h4c2.5021 0 2-2 4-2h8c1.0965 0 2 0.9035 2 2v-0.5c0-1.0965-0.90353-2-2-2z" style="fill:#fff;opacity:.2"/>
 <path d="m3 1c-1.0965 0-2 0.90353-2 2v0.5c0-1.0965 0.9035-2 2-2h4c2.5021 0 2 2 4 2h8c1.0965 0 2 0.9035 2 2v-0.5c0-1.0965-0.90353-2-2-2h-8c-2 0-1.4979-2-4-2z" style="fill:#fff;opacity:.2"/>
 <path d="m11 3.5c-2 0-1.4979 2-4 2h-4c-1.0965 0-2 0.90353-2 2v0.5c0-1.0965 0.9035-2 2-2h4c2.5021 0 2-2 4-2h8c1.0965 0 2 0.9035 2 2v-0.5c0-1.0965-0.90353-2-2-2z" style="opacity:.25"/>
 <path d="m15.025 5.75a0.25002 0.25002 0 0 0-0.06055 0.00195l-7 1a0.25002 0.25002 0 0 0-0.21484 0.24805v4.791c-0.084248-0.012206-0.16283-0.041016-0.25-0.041016-0.96517 0-1.75 0.78482-1.75 1.75s0.78483 1.75 1.75 1.75 1.75-0.78482 1.75-1.75v-4.4258l4.5-0.64258v2.3594c-0.084248-0.012206-0.16283-0.041016-0.25-0.041016-0.96518 0-1.75 0.78482-1.75 1.75s0.78482 1.75 1.75 1.75 1.75-0.78482 1.75-1.75v-6.5a0.25002 0.25002 0 0 0-0.22461-0.25z" style="opacity:.2"/>
 <path d="m15 6.5-7 1v5.084c-0.15611-0.05477-0.32471-0.08398-0.5-0.08398-0.831 0-1.5 0.669-1.5 1.5s0.669 1.5 1.5 1.5 1.5-0.669 1.5-1.5v-4.6426l5-0.71484v2.9414c-0.15611-0.05477-0.32471-0.08398-0.5-0.08398-0.831 0-1.5 0.669-1.5 1.5s0.669 1.5 1.5 1.5 1.5-0.669 1.5-1.5v-4.5z" style="opacity:.2"/>
 <path d="m15 5.9995-7 1v5.084c-0.15611-0.05477-0.32471-0.08398-0.5-0.08398-0.831 0-1.5 0.669-1.5 1.5s0.669 1.5 1.5 1.5 1.5-0.669 1.5-1.5v-4.6426l5-0.71484v2.9414c-0.15611-0.05477-0.32471-0.08398-0.5-0.08398-0.831 0-1.5 0.669-1.5 1.5s0.669 1.5 1.5 1.5 1.5-0.669 1.5-1.5v-4.5z" style="fill:#fff"/>
</svg>
