<svg width="32" height="32" version="1" xmlns="http://www.w3.org/2000/svg">
 <defs>
  <linearGradient id="a" x1="2" x2="17" y1="2" y2="25" gradientUnits="userSpaceOnUse">
   <stop style="stop-color:#80d9ab" offset="0"/>
   <stop style="stop-color:#2fa2b8" offset="1"/>
  </linearGradient>
 </defs>
 <rect x="2" y="17.5" width="28" height="8" rx="2" ry="2" opacity=".2"/>
 <path d="m4 2c-1.0965 0-2 0.90353-2 2v19c0 1.0965 0.90353 2 2 2h24c1.0965 0 2-0.90353 2-2v-16c0-1.0965-0.90353-2-2-2h-12c-2 0-2-3-5-3z" style="fill:url(#a)"/>
 <path d="m4 2.5c-1.0965 0-2 0.90353-2 2v5c0-1.0965 0.9035-2 2-2h8c2 0 1.4979-2 4-2h12c1.0965 0 2 0.9035 2 2v-0.5c0-1.0965-0.90353-2-2-2h-12c-2 0-2.5-2.5-5-2.5h-7z" style="fill:#808080;opacity:.2"/>
 <path d="m28 6c1.0965 0 2 0.90353 2 2v15c0 1.0965-0.90353 2-2 2h-24c-1.0965 0-2-0.90353-2-2v-13c0-1.0965 0.90353-2 2-2h8c2 0 1.4979-2 4-2z" fill="#fff" opacity=".15"/>
 <path d="m16 5.5c-2.5021 0-2 2-4 2h-8c-1.0965 0-2 0.9035-2 2v0.5c0-1.0965 0.90353-2 2-2h8c2 0 1.4979-2 4-2h12c1.0965 0 2 0.90353 2 2v-0.5c0-1.0965-0.9035-2-2-2z" style="opacity:.25"/>
 <path d="m16 6c-2.5021 0-2 2-4 2h-8c-1.0965 0-2 0.9035-2 2v0.5c0-1.0965 0.90353-2 2-2h8c2 0 1.4979-2 4-2h12c1.0965 0 2 0.90353 2 2v-0.5c0-1.0965-0.9035-2-2-2h-12z" style="fill:#fff;opacity:.2"/>
 <path d="m4 2c-1.0965 0-2 0.90353-2 2v0.5c0-1.0965 0.9035-2 2-2h7c2.5 0 3 2.5 5 2.5-2 0-2-3-5-3z" style="fill:#fff;opacity:.2"/>
 <path d="m20.973 8.752-9 1a0.25002 0.25002 0 0 0-0.22266 0.24805v7.9492c-0.24242-0.088583-0.4775-0.19922-0.75-0.19922-1.2422 0-2.25 1.0078-2.25 2.25s1.0078 2.25 2.25 2.25 2.25-1.0078 2.25-2.25v-6.8867l6.5-0.72266v4.5586c-0.24242-0.088583-0.4775-0.19922-0.75-0.19922-1.2422 0-2.25 1.0078-2.25 2.25s1.0078 2.25 2.25 2.25 2.25-1.0078 2.25-2.25v-10a0.25002 0.25002 0 0 0-0.27734-0.24805z" style="opacity:.2"/>
 <path d="m21 9.5-9 1v8.2656c-0.29376-0.16912-0.63536-0.26562-1-0.26562-1.108 0-2 0.892-2 2s0.892 2 2 2 2-0.892 2-2v-7.1113l7-0.77734v5.1543c-0.29376-0.16912-0.63536-0.26562-1-0.26562-1.108 0-2 0.892-2 2s0.892 2 2 2 2-0.892 2-2v-7z" style="opacity:.2"/>
 <path d="m21 9-9 1v8.2656c-0.29376-0.16912-0.63536-0.26562-1-0.26562-1.108 0-2 0.892-2 2s0.892 2 2 2 2-0.892 2-2v-7.1113l7-0.77734v5.1543c-0.29376-0.16912-0.63536-0.26562-1-0.26562-1.108 0-2 0.892-2 2s0.892 2 2 2 2-0.892 2-2v-10z" style="fill:#fff"/>
</svg>
