<svg width="48" height="48" version="1" xmlns="http://www.w3.org/2000/svg">
 <defs>
  <linearGradient id="a" x1="4" x2="25" y1="7" y2="39" gradientUnits="userSpaceOnUse">
   <stop style="stop-color:#80d9ab" offset="0"/>
   <stop style="stop-color:#2fa2b8" offset="1"/>
  </linearGradient>
 </defs>
 <rect x="4" y="31" width="40" height="9" rx="2.5" ry="2.5" opacity=".2"/>
 <path d="m6.5 7c-1.3706 0-2.5 1.1294-2.5 2.5v27c0 1.3706 1.1294 2.5 2.5 2.5h35c1.3706 0 2.5-1.1294 2.5-2.5v-23c0-1.3706-1.1294-2.5-2.5-2.5h-17.5c-3 0-3-4-7-4z" style="fill:url(#a)"/>
 <path d="m41.5 13c1.3706 0 2.5 1.1294 2.5 2.5v21c0 1.3706-1.1294 2.5-2.5 2.5h-35c-1.3706 0-2.5-1.1294-2.5-2.5v-18c0-1.3706 1.1294-2.5 2.5-2.5h10.5c4 0 3-3 7-3z" fill="#fff" opacity=".15"/>
 <path d="m24 13c-4 0-3 3-7 3h-10.5c-1.3706 0-2.5 1.1294-2.5 2.5v1c0-1.3706 1.1294-2.5 2.5-2.5h10.5c4 0 3-3 7-3h17.5c1.3706 0 2.5 1.1294 2.5 2.5v-1c0-1.3706-1.1294-2.5-2.5-2.5h-17.5z" style="fill:#fff;opacity:.2"/>
 <path d="m6.5 8c-1.3706 0-2.5 1.1294-2.5 2.5v7c0-1.3706 1.1294-2.5 2.5-2.5h10.5c4 0 3-3 7-3h17.5c1.3706 0 2.5 1.1294 2.5 2.5v-1c0-1.3706-1.1294-2.5-2.5-2.5h-17.5c-3 0-3-3-7-3h-10.5z" style="fill:#808080;opacity:.2"/>
 <path d="m24 12c-4 0-3 3-7 3h-10.5c-1.3706 0-2.5 1.1294-2.5 2.5v1c0-1.3706 1.1294-2.5 2.5-2.5h10.5c4 0 3-3 7-3h17.5c1.3706 0 2.5 1.1294 2.5 2.5v-1c0-1.3706-1.1294-2.5-2.5-2.5z" style="opacity:.25"/>
 <path d="m6.5 7c-1.3706 0-2.5 1.1294-2.5 2.5v1c0-1.3706 1.1294-2.5 2.5-2.5h10.5c4 0 4 3 7 3-3 0-3-4-7-4h-10.5z" style="fill:#fff;opacity:.2"/>
 <path d="m30.424 18.088-12 1.8477a0.50005 0.50005 0 0 0-0.42383 0.49414v10.74c-0.21188-0.06382-0.44543-0.08957-0.72266-0.11914s-0.56146-0.05078-0.77734-0.05078c-1.9335 0-3.5 1.3321-3.5 3s1.5665 3 3.5 3 3.5-1.3321 3.5-3v-10.309l9-1.3848v6.8633c-0.21188-0.06382-0.44543-0.08957-0.72266-0.11914s-0.56146-0.05078-0.77734-0.05078c-1.9335 0-3.5 1.3321-3.5 3s1.5665 3 3.5 3 3.5-1.3321 3.5-3v-13.418a0.50005 0.50005 0 0 0-0.57617-0.49414z" style="opacity:.2"/>
 <path d="m30.568 16.586c-0.07229-0.0054-0.14613-0.0037-0.2207 0.0078l-12 1.8477c-0.4841 0.074676-0.84759 0.49847-0.84766 0.98829v10.152c-0.05692-0.0064-0.11185-0.0231-0.16992-0.0293-0.28799-0.030709-0.58144-0.052731-0.83008-0.052731-2.1631 0-4 1.519-4 3.5s1.8369 3.5 4 3.5 4-1.519 4-3.5v-9.8789l8-1.2324v5.6934c-0.05692-0.0064-0.11185-0.0231-0.16992-0.0293-0.28799-0.030709-0.58144-0.052731-0.83008-0.052731-2.1631 0-4 1.519-4 3.5s1.8369 3.5 4 3.5 4-1.519 4-3.5v-13.418c-8.7e-5 -0.52814-0.42563-0.95818-0.93164-0.99609z" style="opacity:.2"/>
 <path d="m30.424 17.088-12 1.8477a0.50005 0.50005 0 0 0-0.42383 0.49414v10.74c-0.21188-0.063817-0.44543-0.089573-0.72266-0.11914-0.27723-0.029568-0.56146-0.050781-0.77734-0.050781-1.9335 0-3.5 1.3321-3.5 3s1.5665 3 3.5 3 3.5-1.3321 3.5-3v-10.309l9-1.3848v6.8633c-0.21188-0.063817-0.44543-0.089573-0.72266-0.11914-0.27723-0.029568-0.56146-0.050781-0.77734-0.050781-1.9335 0-3.5 1.3321-3.5 3s1.5665 3 3.5 3 3.5-1.3321 3.5-3v-13.418a0.50005 0.50005 0 0 0-0.57617-0.49414z" style="fill:#fff"/>
</svg>
