<svg width="64" height="64" version="1" xmlns="http://www.w3.org/2000/svg">
 <defs>
  <linearGradient id="a" x1="4" x2="33" y1="8" y2="55" gradientUnits="userSpaceOnUse">
   <stop style="stop-color:#80d9ab" offset="0"/>
   <stop style="stop-color:#2fa2b8" offset="1"/>
  </linearGradient>
 </defs>
 <rect x="4" y="43" width="56" height="9" rx="2.8" ry="2.8" opacity=".2"/>
 <path d="m6.8008 8c-1.5512 0-2.8008 1.2496-2.8008 2.8008v37.398c0 1.5512 1.2496 2.8008 2.8008 2.8008h50.398c1.5512 0 2.8008-1.2496 2.8008-2.8008v-32.398c0-1.5512-1.2496-2.8008-2.8008-2.8008h-27.199c-4 0-4-5-10-5z" style="fill:url(#a)"/>
 <g transform="translate(1.88e-5)">
  <path d="m6.8008 9c-1.5512 0-2.8008 1.2496-2.8008 2.8008v9c0-1.5512 1.2496-2.8008 2.8008-2.8008h15.199c4 0 4-3 10-3h25.199c1.5512 0 2.8008 1.2496 2.8008 2.8008v-1c0-1.5512-1.2496-2.8008-2.8008-2.8008h-27.199c-4 0-4-5-10-5z" style="fill:#808080;opacity:.2"/>
  <path d="m32 15c-6 0-6 3-10 3h-15.199c-1.5512 0-2.8008 1.2496-2.8008 2.8008v1c0-1.5512 1.2496-2.8008 2.8008-2.8008h15.199c4 0 4-3 10-3h25.199c1.5512 0 2.8008 1.2496 2.8008 2.8008v-1c0-1.5512-1.2496-2.8008-2.8008-2.8008z" style="opacity:.25"/>
  <path d="m6.8008 8c-1.5512 0-2.8008 1.2496-2.8008 2.8008v1c0-1.5512 1.2496-2.8008 2.8008-2.8008h13.199c6 0 6 5 10 5h27.199c1.5512 0 2.8008 1.2496 2.8008 2.8008v-1c0-1.5512-1.2496-2.8008-2.8008-2.8008h-27.199c-4 0-4-5-10-5z" style="fill:#fff;opacity:.2"/>
  <path d="m32 16c-6 0-6 3-10 3h-15.199c-1.5512 0-2.8008 1.2496-2.8008 2.8008v1c0-1.5512 1.2496-2.8008 2.8008-2.8008h15.199c4 0 4-3 10-3h25.199c1.5512 0 2.8008 1.2496 2.8008 2.8008v-1c0-1.5512-1.2496-2.8008-2.8008-2.8008z" style="fill:#fff;opacity:.2"/>
  <path d="m32 16c-6 0-6 3-10 3h-15.199c-1.5512 0-2.8008 1.2496-2.8008 2.8008v26.398c0 1.5512 1.2496 2.8008 2.8008 2.8008h50.398c1.5512 0 2.8008-1.2496 2.8008-2.8008v-29.398c0-1.5512-1.2496-2.8008-2.8008-2.8008z" style="fill:#fff;opacity:.15"/>
 </g>
 <path d="m41.381 23.256-16.199 2.5586c-0.68042 0.1075-1.1816 0.69396-1.1816 1.3828v13.518c-0.7788-0.15895-1.5981-0.13394-2.4043 0.07031-2e-3 6.62e-4 -0.0039 0.0013-0.0059 2e-3 -2.4011 0.61835-4.0328 2.5683-3.498 4.6543 0.53395 2.0877 2.9057 3.0152 5.3125 2.3984 2.1465-0.55029 3.6598-2.0982 3.5938-4.0273l-0.04687-1.3516c0.01668-0.01587 0.03296-0.03215 0.04883-0.04883v-11.888l13-2.0508v10.172c-0.36549-0.07529-0.74231-0.10955-1.125-0.10352-2e-3 -4e-6 -0.0039-4e-6 -0.0059 0-0.42767 0.0084-0.85483 0.0671-1.2734 0.17383-6.67e-4 6.66e-4 -0.0013 0.0013-2e-3 2e-3 -2.4024 0.61758-4.0369 2.5676-3.502 4.6543 0.53395 2.0877 2.9057 3.0152 5.3125 2.3984 2.1465-0.55029 3.6598-2.0982 3.5938-4.0273l-0.04687-1.3516c0.01668-0.01587 0.03296-0.03215 0.04883-0.04883v-15.706c-5.8e-5 -0.86058-0.76915-1.5174-1.6191-1.3828z" style="opacity:.2"/>
 <path d="m41.518 21.74c-0.07025 0.0029-0.14154 0.009905-0.21484 0.021485l-16.199 2.5586c-0.91991 0.14534-1.6034 0.94564-1.6035 1.877v13.045c-0.67232-0.063631-1.3521-0.11247-2.0273 0.058593a0.50005 0.50005 0 0 0-0.007812 0.001953s-0.001953 0.001954-0.001953 0.001954c-1.2959 0.33426-2.3977 1.0269-3.1172 1.9531-0.71993 0.92686-1.0454 2.1108-0.73828 3.3086 0.30699 1.1979 1.1624 2.0804 2.2402 2.5469 1.0784 0.46674 2.3816 0.54406 3.6816 0.21094 2.297-0.58886 4.0191-2.3106 3.9648-4.4922a0.50005 0.50005 0 0 0 0.005859-0.009765v-12.869l12-1.8926v9.041c-0.2078-0.019649-0.4122-0.061573-0.62305-0.058593-0.0026-6e-6 -0.007066-6e-6 -0.009765 0a0.50005 0.50005 0 0 0-0.007813 0c-0.46686 0.0092-0.93174 0.07345-1.3867 0.18945a0.50005 0.50005 0 0 0-0.003906 0.001953c-1.2976 0.33358-2.4022 1.0263-3.123 1.9531s-1.0455 2.1123-0.73828 3.3105c0.30699 1.1979 1.1624 2.0804 2.2402 2.5469 1.0784 0.46674 2.3816 0.54406 3.6816 0.21094 2.297-0.58886 4.0191-2.3106 3.9648-4.4922a0.50005 0.50005 0 0 0 0.005859-0.007813v-17.117c-6.9e-5 -1.0133-0.79729-1.8302-1.7715-1.8945-0.06923-0.0046-0.13873-0.006707-0.20898-0.003907a0.50005 0.50005 0 0 0-0.001953 0z" style="opacity:.2"/>
 <path d="m41.539 22.24c-0.05253 0.0022-0.10508 0.0072-0.1582 0.01563l-16.199 2.5586c-0.68042 0.1075-1.1816 0.69396-1.1816 1.3828v13.518c-0.7788-0.15895-1.5981-0.13394-2.4043 0.07031-2e-3 6.62e-4 -0.0039 0.0013-0.0059 2e-3 -2.4011 0.61835-4.0328 2.5683-3.498 4.6543 0.53395 2.0877 2.9057 3.0152 5.3125 2.3984 2.1436-0.54954 3.6554-2.0941 3.5938-4.0195l2e-3 2e-3v-13.297l13-2.0508v10.172c-0.36549-0.07529-0.74231-0.10955-1.125-0.10352-2e-3 -4e-6 -0.0039-4e-6 -0.0059 0-0.42767 0.0084-0.85483 0.0671-1.2734 0.17383l-2e-3 2e-3c-2.4024 0.61758-4.0369 2.5676-3.502 4.6543 0.53395 2.0877 2.9057 3.0152 5.3125 2.3984 2.1436-0.54954 3.6554-2.0941 3.5938-4.0195 1.6e-5 2.4e-5 2e-3 0.0039 2e-3 0.0039v-17.117c-5.1e-5 -0.75301-0.58805-1.3492-1.3047-1.3965-0.05119-0.0034-0.10371-0.0041-0.15625-2e-3z" style="fill:#fff"/>
</svg>
