<svg width="32" height="32" version="1" xmlns="http://www.w3.org/2000/svg">
 <rect x="2" y="18.5" width="28" height="8" rx="2" ry="2" opacity=".2"/>
 <path class="ColorScheme-Text" d="m4 3c-1.0965 0-2 0.90353-2 2v19c0 1.0965 0.90353 2 2 2h24c1.0965 0 2-0.90353 2-2v-16c0-1.0965-0.90353-2-2-2h-12c-2 0-1.4979-3-4-3z" fill="#ffb004"/>
 <path d="m4 3c-1.0965 0-2 0.90353-2 2v5c0-1.0965 0.90353-2 2-2h8c2 0 1.4979-2 4-2-2 0-1.4979-3-4-3z" fill="#808080" opacity=".2"/>
 <path d="m15.002 5.6445c-1.401 0.45543-1.3264 1.8555-3.002 1.8555h-8c-1.0965 0-2 0.9035-2 2v0.5c0-1.0965 0.90353-2 2-2h8c2 0 1.4979-2 4-2-0.42981 0-0.7447-0.13792-0.99805-0.35547z" opacity=".2"/>
 <path d="m28 6c1.0965 0 2 0.90353 2 2v16c0 1.0965-0.90353 2-2 2h-24c-1.0965 0-2-0.90353-2-2v-14c0-1.0965 0.90353-2 2-2h8c2 0 1.4979-2 4-2z" fill="#fff" opacity=".15"/>
 <path d="m4 3c-1.0965 0-2 0.90353-2 2v1c0-1.0965 0.9035-2 2-2h8c1.7045 0 2.0149 1.3917 2.6719 2.2793-1.0713 0.54905-1.1395 1.7207-2.6719 1.7207h-8c-1.0965 0-2 0.9035-2 2v1c0-1.0965 0.90353-2 2-2h8c2 0 1.4979-2 4-2h12c1.0965 0 2 0.90353 2 2v-1c0-1.0965-0.9035-2-2-2h-12c-2 0-1.4979-3-4-3z" fill="#fff" opacity=".15"/>
</svg>
