<svg width="48" height="48" version="1" xmlns="http://www.w3.org/2000/svg">
 <rect x="4" y="31" width="40" height="9" rx="2" ry="2" opacity=".2"/>
 <path class="ColorScheme-Text" d="m6 7c-1.0965 0-2 0.90353-2 2v28c0 1.0965 0.90353 2 2 2h36c1.0965 0 2-0.90353 2-2v-24c0-1.0965-0.90353-2-2-2h-21c-2 0-2.4979-4-5-4z" fill="#ffb004"/>
 <path d="m6 7c-1.0965 0-2 0.90353-2 2v6c0-1.0965 0.90353-2 2-2h10c2 0 2.4979-2 5-2-2 0-2.4979-4-5-4h-10z" fill="#808080" opacity=".2"/>
 <path d="m20.002 10.625c-1.6831 0.43338-2.3018 1.875-4.002 1.875h-10c-1.0965 0-2 0.9035-2 2v0.5c0-1.0965 0.90353-2 2-2h10c2 0 2.4979-2 5-2-0.37826 0-0.70353-0.14296-0.99805-0.375z" opacity=".2"/>
 <path d="m42 11c1.0965 0 2 0.90353 2 2v24c0 1.0965-0.90353 2-2 2h-36c-1.0965 0-2-0.90353-2-2v-22c0-1.0965 0.90353-2 2-2h10c2 0 2.4979-2 5-2z" fill="#fff" opacity=".15"/>
 <path d="m6 7c-1.0965 0-2 0.90353-2 2v1c0-1.0965 0.9035-2 2-2h10c1.8097 0 2.5719 2.088 3.6113 3.2461-1.402 0.53372-2.0482 1.7539-3.6113 1.7539h-10c-1.0965 0-2 0.9035-2 2v1c0-1.0965 0.90353-2 2-2h10c2 0 2.4979-2 5-2h21c1.0965 0 2 0.9035 2 2v-1c0-1.0965-0.90353-2-2-2h-21c-2 0-2.4979-4-5-4h-10z" fill="#fff" opacity=".2"/>
</svg>
