<svg width="64" height="64" version="1" xmlns="http://www.w3.org/2000/svg">
 <rect x="4" y="43" width="56" height="9" rx="2" ry="2" opacity=".2"/>
 <path class="ColorScheme-Text" d="m6 8c-1.0965 0-2 0.90353-2 2v39c0 1.0965 0.90353 2 2 2h52c1.0965 0 2-0.90353 2-2v-34c0-1.0965-0.90353-2-2-2h-30c-2 0-4.4979-5-7-5z" fill="#ffb004"/>
 <path d="m6 8c-1.0965 0-2 0.90353-2 2v8c0-1.0965 0.90353-2 2-2h15c4 0 4.4979-3 7-3-2 0-4.4979-5-7-5h-15z" fill="#808080" opacity=".2"/>
 <path d="m26.604 12.365c-1.4829 0.79732-2.4693 2.6348-5.6035 2.6348h-15c-1.0965 0-2 0.9035-2 2v1c0-1.0965 0.90353-2 2-2h15c4 0 4.4979-3 7-3-0.44265 0-0.91041-0.25334-1.3965-0.63477z" opacity=".2"/>
 <path d="m58 13c1.0965 0 2 0.90353 2 2v34c0 1.0965-0.90353 2-2 2h-52c-1.0965 0-2-0.90353-2-2v-31c0-1.0965 0.90353-2 2-2h15c4 0 4.4979-3 7-3z" fill="#fff" opacity=".15"/>
 <path d="m6 8c-1.0965 0-2 0.90353-2 2v1c0-1.0965 0.9035-2 2-2h15c1.9483 0 3.8934 3.0233 5.6035 4.3652-1.4829 0.79732-2.4693 2.6348-5.6035 2.6348h-15c-1.0965 0-2 0.9035-2 2v1c0-1.0965 0.90353-2 2-2h15c4 0 4.4979-3 7-3h30c1.0965 0 2 0.90353 2 2v-1c0-1.0965-0.9035-2-2-2h-30c-2 0-4.4979-5-7-5h-15z" fill="#fff" opacity=".2"/>
</svg>
