<?xml version="1.0" encoding="UTF-8" standalone="no"?>
<svg
   width="22"
   height="22"
   version="1"
   id="svg14"
   sodipodi:docname="folder-videos.svg"
   inkscape:version="1.1.1 (3bf5ae0d25, 2021-09-20, custom)"
   xmlns:inkscape="http://www.inkscape.org/namespaces/inkscape"
   xmlns:sodipodi="http://sodipodi.sourceforge.net/DTD/sodipodi-0.dtd"
   xmlns:xlink="http://www.w3.org/1999/xlink"
   xmlns="http://www.w3.org/2000/svg"
   xmlns:svg="http://www.w3.org/2000/svg">
  <defs
     id="defs18">
    <linearGradient
       inkscape:collect="always"
       id="linearGradient13434">
      <stop
         style="stop-color:#ffba00;stop-opacity:1"
         offset="0"
         id="stop13430" />
      <stop
         style="stop-color:#ee7700;stop-opacity:1"
         offset="1"
         id="stop13432" />
    </linearGradient>
    <linearGradient
       inkscape:collect="always"
       xlink:href="#linearGradient13434"
       id="linearGradient905"
       x1="33"
       y1="-6"
       x2="0"
       y2="19"
       gradientUnits="userSpaceOnUse" />
  </defs>
  <sodipodi:namedview
     id="namedview16"
     pagecolor="#ffffff"
     bordercolor="#666666"
     borderopacity="1.0"
     inkscape:pageshadow="2"
     inkscape:pageopacity="0.0"
     inkscape:pagecheckerboard="0"
     showgrid="true"
     inkscape:zoom="27.181818"
     inkscape:cx="9.6204013"
     inkscape:cy="12.710702"
     inkscape:window-width="1440"
     inkscape:window-height="823"
     inkscape:window-x="0"
     inkscape:window-y="768"
     inkscape:window-maximized="1"
     inkscape:current-layer="svg14"
     inkscape:snap-smooth-nodes="true">
    <inkscape:grid
       type="xygrid"
       id="grid847" />
  </sodipodi:namedview>
  <rect
     x="1"
     y="7.5"
     width="20"
     height="10"
     rx="2"
     ry="2"
     opacity="0.2"
     id="rect2" />
  <path
     class="ColorScheme-Text"
     d="M 3,1 C 1.9035,1 1,1.90353 1,3 v 12 c 0,1.0965 0.90353,2 2,2 h 16 c 1.0965,0 2,-0.90353 2,-2 V 5 C 21,3.9035 20.09647,3 19,3 H 11 C 9,3 9.5021,1 7,1 Z"
     id="path4"
     sodipodi:nodetypes="sssssssssss"
     style="fill:url(#linearGradient905);fill-opacity:1" />
  <path
     id="path2674"
     style="opacity:0.2;fill:#808080;fill-opacity:1"
     class="ColorScheme-Text"
     d="m 3,1.5 c -1.0965,0 -2,0.90353 -2,2 V 8 C 1,6.90353 1.9035,6 3,6 H 7 C 9.5021,6 9,4 11,4 h 8 c 1.09647,0 2,0.9035 2,2 V 5.5 c 0,-1.0965 -0.90353,-2 -2,-2 h -8 c -2,0 -1.4979,-2 -4,-2 z" />
  <path
     d="M 11,4 C 9,4 9.5021,6 7,6 H 3 C 1.9035,6 1,6.90353 1,8 v 7 c 0,1.0965 0.90353,2 2,2 h 16 c 1.0965,0 2,-0.90353 2,-2 V 6 C 21,4.9035 20.09647,4 19,4 Z"
     fill="#ffffff"
     opacity="0.15"
     id="path10"
     sodipodi:nodetypes="sssssssssss" />
  <path
     id="path1763"
     d="M 11,4 C 9,4 9.5021,6 7,6 H 3 C 1.9035,6 1,6.90353 1,8 v 0.5 c 0,-1.09647 0.9035,-2 2,-2 h 4 c 2.5021,0 2,-2 4,-2 h 8 c 1.09647,0 2,0.9035 2,2 V 6 C 21,4.9035 20.09647,4 19,4 Z"
     style="opacity:0.2;fill:#ffffff;fill-opacity:1" />
  <path
     id="path1903"
     class="ColorScheme-Text"
     d="M 3,1 C 1.9035,1 1,1.90353 1,3 v 0.5 c 0,-1.09647 0.9035,-2 2,-2 h 4 c 2.5021,0 2,2 4,2 h 8 c 1.09647,0 2,0.9035 2,2 V 5 C 21,3.9035 20.09647,3 19,3 H 11 C 9,3 9.5021,1 7,1 Z"
     style="opacity:0.2;fill:#ffffff;fill-opacity:1" />
  <path
     id="path2348"
     d="m 11,3.5 c -2,0 -1.4979,2 -4,2 H 3 c -1.0965,0 -2,0.90353 -2,2 V 8 C 1,6.90353 1.9035,6 3,6 H 7 C 9.5021,6 9,4 11,4 h 8 c 1.09647,0 2,0.9035 2,2 V 5.5 c 0,-1.0965 -0.90353,-2 -2,-2 z"
     style="opacity:0.2" />
  <g
     id="rect1226"
     style="opacity:0.9">
    <path
       id="path2653"
       style="opacity:0.2"
       d="M 5 6.75 C 4.311825 6.75 3.75 7.311825 3.75 8 C 3.75 8.688175 4.311825 9.25 5 9.25 C 5.688175 9.25 6.25 8.688175 6.25 8 C 6.25 7.311825 5.688175 6.75 5 6.75 z M 17 6.75 C 16.311825 6.75 15.75 7.311825 15.75 8 C 15.75 8.688175 16.311825 9.25 17 9.25 C 17.688175 9.25 18.25 8.688175 18.25 8 C 18.25 7.311825 17.688175 6.75 17 6.75 z M 5 7 C 5.554 7 6 7.446 6 8 C 6 8.554 5.554 9 5 9 C 4.446 9 4 8.554 4 8 C 4 7.446 4.446 7 5 7 z M 17 7 C 17.554 7 18 7.446 18 8 C 18 8.554 17.554 9 17 9 C 16.446 9 16 8.554 16 8 C 16 7.446 16.446 7 17 7 z M 5 9.75 C 4.311825 9.75 3.75 10.311825 3.75 11 C 3.75 11.688175 4.311825 12.25 5 12.25 C 5.688175 12.25 6.25 11.688175 6.25 11 C 6.25 10.311825 5.688175 9.75 5 9.75 z M 17 9.75 C 16.311825 9.75 15.75 10.311825 15.75 11 C 15.75 11.688175 16.311825 12.25 17 12.25 C 17.688175 12.25 18.25 11.688175 18.25 11 C 18.25 10.311825 17.688175 9.75 17 9.75 z M 5 10 C 5.554 10 6 10.446 6 11 C 6 11.554 5.554 12 5 12 C 4.446 12 4 11.554 4 11 C 4 10.446 4.446 10 5 10 z M 17 10 C 17.554 10 18 10.446 18 11 C 18 11.554 17.554 12 17 12 C 16.446 12 16 11.554 16 11 C 16 10.446 16.446 10 17 10 z M 5 12.75 C 4.311825 12.75 3.75 13.311825 3.75 14 C 3.75 14.688175 4.311825 15.25 5 15.25 C 5.688175 15.25 6.25 14.688175 6.25 14 C 6.25 13.311825 5.688175 12.75 5 12.75 z M 17 12.75 C 16.311825 12.75 15.75 13.311825 15.75 14 C 15.75 14.688175 16.311825 15.25 17 15.25 C 17.688175 15.25 18.25 14.688175 18.25 14 C 18.25 13.311825 17.688175 12.75 17 12.75 z M 5 13 C 5.554 13 6 13.446 6 14 C 6 14.554 5.554 15 5 15 C 4.446 15 4 14.554 4 14 C 4 13.446 4.446 13 5 13 z M 17 13 C 17.554 13 18 13.446 18 14 C 18 14.554 17.554 15 17 15 C 16.446 15 16 14.554 16 14 C 16 13.446 16.446 13 17 13 z " />
    <path
       d="M 5,7 C 4.446,7 4,7.446 4,8 4,8.554 4.446,9 5,9 5.554,9 6,8.554 6,8 6,7.446 5.554,7 5,7 Z m 12,0 c -0.554,0 -1,0.446 -1,1 0,0.554 0.446,1 1,1 0.554,0 1,-0.446 1,-1 C 18,7.446 17.554,7 17,7 Z M 5,10 c -0.554,0 -1,0.446 -1,1 0,0.554 0.446,1 1,1 0.554,0 1,-0.446 1,-1 0,-0.554 -0.446,-1 -1,-1 z m 12,0 c -0.554,0 -1,0.446 -1,1 0,0.554 0.446,1 1,1 0.554,0 1,-0.446 1,-1 0,-0.554 -0.446,-1 -1,-1 z M 5,13 c -0.554,0 -1,0.446 -1,1 0,0.554 0.446,1 1,1 0.554,0 1,-0.446 1,-1 0,-0.554 -0.446,-1 -1,-1 z m 12,0 c -0.554,0 -1,0.446 -1,1 0,0.554 0.446,1 1,1 0.554,0 1,-0.446 1,-1 0,-0.554 -0.446,-1 -1,-1 z"
       id="path2655"
       style="fill:#ffffff;fill-opacity:1" />
  </g>
  <g
     id="rect10712">
    <path
       id="path1207"
       style="opacity:0.2"
       d="M 8.9882812 7.2519531 C 8.9540792 7.2535717 8.9204131 7.2614605 8.8886719 7.2773438 C 8.8041008 7.3194101 8.750455 7.4055455 8.75 7.5 L 8.75 13.5 C 8.7504425 13.705986 8.9858185 13.8231 9.1503906 13.699219 L 14.150391 10.699219 C 14.282322 10.59917 14.282322 10.40083 14.150391 10.300781 L 9.1503906 7.3007812 C 9.1030338 7.2653308 9.0452847 7.2492555 8.9882812 7.2519531 z M 9 7.5 L 14 10.5 L 9 13.5 L 9 7.5 z " />
    <path
       d="m 9,7.5 5,3 -5,3 z"
       id="path1209"
       style="fill:#ffffff;fill-opacity:1;opacity:0.9"
       sodipodi:nodetypes="cccc" />
  </g>
</svg>
