<?xml version="1.0" encoding="UTF-8" standalone="no"?>
<svg
   xmlns:dc="http://purl.org/dc/elements/1.1/"
   xmlns:cc="http://creativecommons.org/ns#"
   xmlns:rdf="http://www.w3.org/1999/02/22-rdf-syntax-ns#"
   xmlns:svg="http://www.w3.org/2000/svg"
   xmlns="http://www.w3.org/2000/svg"
   xmlns:sodipodi="http://sodipodi.sourceforge.net/DTD/sodipodi-0.dtd"
   xmlns:inkscape="http://www.inkscape.org/namespaces/inkscape"
   inkscape:version="1.0 (1.0+r73+1)"
   sodipodi:docname="edit-cut.svg"
   id="svg13"
   viewBox="0 0 22 22"
   version="1.1">
  <metadata
     id="metadata17">
    <rdf:RDF>
      <cc:Work
         rdf:about="">
        <dc:format>image/svg+xml</dc:format>
        <dc:type
           rdf:resource="http://purl.org/dc/dcmitype/StillImage" />
      </cc:Work>
    </rdf:RDF>
  </metadata>
  <sodipodi:namedview
     inkscape:current-layer="svg13"
     inkscape:window-maximized="1"
     inkscape:window-y="0"
     inkscape:window-x="0"
     inkscape:cy="11.224684"
     inkscape:cx="9.1185702"
     inkscape:zoom="32.5"
     showgrid="true"
     id="namedview15"
     inkscape:window-height="1003"
     inkscape:window-width="1920"
     inkscape:pageshadow="2"
     inkscape:pageopacity="0"
     guidetolerance="10"
     gridtolerance="10"
     objecttolerance="10"
     borderopacity="1"
     bordercolor="#666666"
     pagecolor="#ffffff">
    <inkscape:grid
       id="grid842"
       type="xygrid" />
  </sodipodi:namedview>
  <defs
     id="defs3">
    <style
       type="text/css"
       id="current-color-scheme">.ColorScheme-Text {
        color:#363636;
}
.ColorScheme-Highlight {
	color:#3daeff;
}</style>
  </defs>
  <path
     class="ColorScheme-Text"
     sodipodi:nodetypes="cccccccccccccccccccccccc"
     d="m 6.4707031,3 c -0.01633,5.035e-4 -0.032626,0.00181 -0.048828,0.00391 v 0.00195 c -0.068101,0.010638 -0.1332672,0.035242 -0.1914062,0.072266 -0.231595,0.1478449 -0.3005001,0.4548651 -0.1542969,0.6875 l 4.3320311,6.804687 -1.8359374,2.882813 c 0.2926513,0.180499 0.5456825,0.410626 0.7597656,0.677734 l 1.6699218,-2.626953 1.669922,2.623047 c 0.21306,-0.26483 0.463422,-0.494436 0.753906,-0.673828 L 6.9238281,3.234375 C 6.8270012,3.0792765 6.6532369,2.9893984 6.4707031,3 Z m 9.0156249,0.00195 c -0.01698,4.386e-4 -0.03393,0.00174 -0.05078,0.00391 -0.145724,0.020441 -0.275045,0.1040347 -0.353516,0.2285156 l -3.490234,5.4785156 0.59375,0.9335938 3.738281,-5.8808594 c 0.145841,-0.2331413 0.07603,-0.540296 -0.15625,-0.6875 -0.08411,-0.052751 -0.182017,-0.079267 -0.28125,-0.076172 z M 8.7011719,14.960938 c 6.51e-4,10e-7 0.0013,10e-7 0.00195,0 -0.1647102,-0.269893 -0.1666431,-0.269801 -0.00195,0 z"
     style="fill:currentColor"
     id="path1106-1" />
  <path
     class="ColorScheme-Highlight"
     d="M 7 13 C 5.33799 13 4 14.33799 4 16 C 4 17.66197 5.33799 19 7 19 C 8.66201 19 10 17.66197 10 16 C 10 14.33799 8.66201 13 7 13 z M 15 13 C 13.33803 13 12 14.33799 12 16 C 12 17.66197 13.33803 19 15 19 C 16.66201 19 18 17.66197 18 16 C 18 14.33799 16.66201 13 15 13 z M 7 14 C 8.10797 14 9 14.89203 9 16 C 9 17.10797 8.10797 18 7 18 C 5.89203 18 5 17.10797 5 16 C 5 14.89203 5.89203 14 7 14 z M 15 14 C 16.10797 14 17 14.89203 17 16 C 17 17.10797 16.10797 18 15 18 C 13.89203 18 13 17.10797 13 16 C 13 14.89203 13.89203 14 15 14 z "
     style="opacity:1;fill:currentColor"
     id="rect918-2-4" />
</svg>
