<?xml version="1.0" encoding="UTF-8" standalone="no"?>
<svg
   xmlns:dc="http://purl.org/dc/elements/1.1/"
   xmlns:cc="http://creativecommons.org/ns#"
   xmlns:rdf="http://www.w3.org/1999/02/22-rdf-syntax-ns#"
   xmlns:svg="http://www.w3.org/2000/svg"
   xmlns="http://www.w3.org/2000/svg"
   xmlns:sodipodi="http://sodipodi.sourceforge.net/DTD/sodipodi-0.dtd"
   xmlns:inkscape="http://www.inkscape.org/namespaces/inkscape"
   inkscape:version="1.0 (1.0+r73+1)"
   sodipodi:docname="trash-empty.svg"
   id="svg7"
   viewBox="0 0 22 22"
   version="1.1">
  <metadata
     id="metadata11">
    <rdf:RDF>
      <cc:Work
         rdf:about="">
        <dc:format>image/svg+xml</dc:format>
        <dc:type
           rdf:resource="http://purl.org/dc/dcmitype/StillImage" />
      </cc:Work>
    </rdf:RDF>
  </metadata>
  <sodipodi:namedview
     inkscape:current-layer="svg7"
     inkscape:window-maximized="1"
     inkscape:window-y="0"
     inkscape:window-x="0"
     inkscape:cy="13.227283"
     inkscape:cx="12.693298"
     inkscape:zoom="32"
     showgrid="true"
     id="namedview9"
     inkscape:window-height="993"
     inkscape:window-width="1920"
     inkscape:pageshadow="2"
     inkscape:pageopacity="0"
     guidetolerance="10"
     gridtolerance="10"
     objecttolerance="10"
     borderopacity="1"
     bordercolor="#666666"
     pagecolor="#ffffff"
     inkscape:document-rotation="0">
    <inkscape:grid
       id="grid836"
       type="xygrid" />
  </sodipodi:namedview>
  <defs
     id="defs3">
    <style
       type="text/css"
       id="current-color-scheme">.ColorScheme-Text {
	color:#363636;
}
.ColorScheme-Background {
	color:#f3f3f3;
}</style>
  </defs>
  <path
     id="rect832"
     style="fill:currentColor;stroke-width:8;stroke-linejoin:round;opacity:0.5"
     d="M 11 4 C 10.378403 3.9923762 9.789037 4.4101902 9.5878906 4.9980469 L 12.414062 5 C 12.213749 4.4108094 11.622489 3.99237 11 4 z M 16.439453 5.9980469 L 5.5644531 6 C 5.692957 7.0987843 5.8226679 8.1980911 5.9511719 9.296875 C 6.2364506 11.575515 6.4380733 13.865474 6.8046875 16.132812 C 7.0056831 16.752505 6.9403389 17.792566 7.6914062 17.990234 C 9.4970762 18.016694 11.303252 17.994333 13.109375 18.001953 C 13.607593 17.965663 14.145136 18.093963 14.609375 17.890625 C 15.075618 17.21477 15.126101 16.350394 15.287109 15.566406 C 15.709849 12.382003 16.0519 9.1870988 16.439453 5.9980469 z "
     class="ColorScheme-Background" />
  <path
     id="rect1062-4-5"
     style="opacity:1;fill:currentColor"
     d="M 11,3 C 9.8463267,2.9811124 8.7631516,3.8636883 8.5527344,4.9980469 V 5 H 4.546875 c -0.707147,-0.081146 -0.6905176,1.096378 0.011719,1 0.1829669,1.5588283 0.3658981,3.1169161 0.5488281,4.675781 0.264755,2.049826 0.4182685,4.116638 0.8046875,6.148438 0.1875779,0.879647 0.5397526,2.038005 1.5878906,2.158203 1.1662202,0.02159 2.3327226,0.01284 3.5,0.0098 v 0.002 c 1.16793,0.0031 2.335082,0.01183 3.501953,-0.0098 1.048138,-0.120189 1.400313,-1.278556 1.587891,-2.158203 0.386419,-2.0318 0.539932,-4.098612 0.804687,-6.148438 0.18293,-1.5588644 0.365861,-3.1169526 0.548828,-4.6757809 0.702236,0.096378 0.718866,-1.0811464 0.01172,-1 H 13.449219 V 5 h -0.002 C 13.237738,3.8647433 12.154306,2.981102 11,3 Z m 0,1 C 11.622489,3.99237 12.213748,4.4108094 12.414062,5 11.94347,4.9996605 11.470603,4.9983671 11,4.9980469 H 9.5878906 C 9.789037,4.4101902 10.378403,3.9923762 11,4 Z M 5.5625,5.9960938 11,5.9980469 V 6 l 5.439453,-0.00195 c -0.387553,3.1890519 -0.729604,6.3839561 -1.152344,9.5683591 -0.161008,0.783988 -0.211491,1.648364 -0.677734,2.324219 -0.464239,0.203339 -1.001782,0.07504 -1.5,0.111328 -0.702525,-0.003 -1.404792,-0.0054 -2.107422,-0.0039 v -0.002 C 10.298671,17.994632 9.5957541,17.997 8.8925781,18 8.3943601,17.96371 7.8500107,18.021797 7.3857717,17.818459 6.9195287,17.142604 6.8758517,16.348441 6.7148438,15.564453 6.2921037,12.38005 5.950053,9.1851457 5.5625,5.9960938 Z M 9.5,9 C 9.223,9 9,9.223 9,9.5 v 5 C 9,14.777 9.223,15 9.5,15 9.777,15 10,14.777 10,14.5 v -5 C 10,9.223 9.777,9 9.5,9 Z m 3,0 C 12.223,9 12,9.223 12,9.5 v 5 c 0,0.277 0.223,0.5 0.5,0.5 0.277,0 0.5,-0.223 0.5,-0.5 v -5 C 13,9.223 12.777,9 12.5,9 Z"
     sodipodi:nodetypes="cccccccccccccccccccccccccccccccccccccssssssssssssss"
     class="ColorScheme-Text" />
</svg>
