<?xml version="1.0" encoding="UTF-8" standalone="no"?>
<svg
   xmlns:dc="http://purl.org/dc/elements/1.1/"
   xmlns:cc="http://creativecommons.org/ns#"
   xmlns:rdf="http://www.w3.org/1999/02/22-rdf-syntax-ns#"
   xmlns:svg="http://www.w3.org/2000/svg"
   xmlns="http://www.w3.org/2000/svg"
   xmlns:sodipodi="http://sodipodi.sourceforge.net/DTD/sodipodi-0.dtd"
   xmlns:inkscape="http://www.inkscape.org/namespaces/inkscape"
   version="1.1"
   viewBox="0 0 22 22"
   id="svg11"
   sodipodi:docname="view-right-close.svg"
   inkscape:version="1.0 (1.0+r73+1)">
  <metadata
     id="metadata15">
    <rdf:RDF>
      <cc:Work
         rdf:about="">
        <dc:format>image/svg+xml</dc:format>
        <dc:type
           rdf:resource="http://purl.org/dc/dcmitype/StillImage" />
        <dc:title />
      </cc:Work>
    </rdf:RDF>
  </metadata>
  <sodipodi:namedview
     inkscape:snap-smooth-nodes="true"
     inkscape:document-rotation="0"
     pagecolor="#ffffff"
     bordercolor="#666666"
     borderopacity="1"
     objecttolerance="10"
     gridtolerance="10"
     guidetolerance="10"
     inkscape:pageopacity="0"
     inkscape:pageshadow="2"
     inkscape:window-width="1920"
     inkscape:window-height="1003"
     id="namedview13"
     showgrid="true"
     inkscape:zoom="28.963094"
     inkscape:cx="10.017315"
     inkscape:cy="9.4620082"
     inkscape:window-x="0"
     inkscape:window-y="0"
     inkscape:window-maximized="1"
     inkscape:current-layer="svg11">
    <inkscape:grid
       type="xygrid"
       id="grid840" />
  </sodipodi:namedview>
  <defs
     id="defs3">
    <style
       id="current-color-scheme"
       type="text/css">.ColorScheme-Text {
        color:#363636;
      }
.ColorScheme-Highlight {
        color:#3daee9;
      }
.ColorScheme-Background {
        color:#eff0f1;
      }
.ColorScheme-NegativeText {
        color:#da4453;
      }</style>
  </defs>
  <path
     id="path882"
     d="M 11 3 C 9.892 3 9 3.892 9 5 L 9 16 C 9 17.108 9.892 18 11 18 L 18 18 C 19.108 18 20 17.108 20 16 L 20 5 C 20 3.892 19.108 3 18 3 L 11 3 z M 11 4 L 18 4 C 18.554 4 19 4.446 19 5 L 19 16 C 19 16.554 18.554 17 18 17 L 11 17 C 10.446 17 10 16.554 10 16 L 10 5 C 10 4.446 10.446 4 11 4 z "
     class="ColorScheme-NegativeText"
     fill="currentColor" />
  <rect
     style="opacity:0.5;fill:currentColor"
     id="rect835"
     width="9"
     height="13"
     x="10"
     y="4"
     rx="1"
     ry="1"
     class="ColorScheme-Background" />
  <path
     d="M 4,3 C 2.892,3 2,3.892 2,5 v 11 c 0,1.108 0.892,2 2,2 H 7.5 C 7.777,18 8,17.777 8,17.5 8,17.223 7.777,17 7.5,17 H 4 C 3.446,17 3,16.554 3,16 V 5 C 3,4.446 3.446,4 4,4 H 7.5 C 7.777,4 8,3.777 8,3.5 8,3.223 7.777,3 7.5,3 Z"
     id="path9"
     fill="currentColor"
     class="ColorScheme-Text" />
  <path
     sodipodi:nodetypes="sscssscssscssscss"
     id="path833"
     d="M 16.974874,8.0251263 C 16.779005,7.8292577 16.436894,7.8559989 16.208381,8.0845122 L 14.5,9.7928932 12.791619,8.0845119 C 12.563106,7.8559991 12.220995,7.8292577 12.025126,8.0251263 11.829258,8.2209948 11.855999,8.5631058 12.084512,8.7916187 L 13.792893,10.5 12.084512,12.208381 c -0.228513,0.228513 -0.255254,0.570624 -0.05939,0.766493 0.195869,0.195868 0.53798,0.169127 0.766493,-0.05939 L 14.5,11.207107 l 1.708381,1.708381 c 0.228513,0.228513 0.570624,0.255254 0.766493,0.05939 0.195868,-0.195869 0.169127,-0.53798 -0.05939,-0.766493 L 15.207107,10.5 16.915488,8.791619 c 0.228513,-0.2285133 0.255254,-0.5706242 0.05939,-0.7664927 z"
     class="ColorScheme-NegativeText"
     fill="currentColor" />
</svg>
