<?xml version="1.0" encoding="UTF-8" standalone="no"?>
<svg
   width="22"
   height="22"
   version="1"
   id="svg20"
   sodipodi:docname="utilities-tweak-tool.svg"
   inkscape:version="1.1.1 (3bf5ae0d25, 2021-09-20, custom)"
   xmlns:inkscape="http://www.inkscape.org/namespaces/inkscape"
   xmlns:sodipodi="http://sodipodi.sourceforge.net/DTD/sodipodi-0.dtd"
   xmlns="http://www.w3.org/2000/svg"
   xmlns:svg="http://www.w3.org/2000/svg">
  <defs
     id="defs24" />
  <sodipodi:namedview
     id="namedview22"
     pagecolor="#ffffff"
     bordercolor="#666666"
     borderopacity="1.0"
     inkscape:pageshadow="2"
     inkscape:pageopacity="0.0"
     inkscape:pagecheckerboard="0"
     showgrid="true"
     inkscape:snap-bbox="true"
     inkscape:snap-bbox-edge-midpoints="true"
     inkscape:zoom="22.627417"
     inkscape:cx="11.998718"
     inkscape:cy="10.451922"
     inkscape:window-width="1440"
     inkscape:window-height="823"
     inkscape:window-x="0"
     inkscape:window-y="768"
     inkscape:window-maximized="1"
     inkscape:current-layer="svg20">
    <inkscape:grid
       type="xygrid"
       id="grid841" />
  </sodipodi:namedview>
  <path
     d="M 10.687144,1.500025 C 8.2516475,1.498525 9.0710214,3.8491469 8.0196478,4.7206458 7.6046483,5.0646078 7.1246114,5.3417075 6.6192745,5.5291447 5.3387763,6.0040693 3.7141535,4.1195215 2.49628,6.229019 L 2.3400301,6.5000186 2.1831679,6.7710183 c -1.21896111,2.1084973 1.2265235,2.5742467 1.4554982,3.9204947 0.090379,0.531375 0.090354,1.085624 0,1.616998 -0.2289247,1.346373 -2.67287182,1.810998 -1.4548733,3.920495 l 0.3124997,0.541987 c 1.216511,2.109872 2.8426213,0.225062 4.1229945,0.699874 0.5053744,0.187412 0.9853863,0.464562 1.4003733,0.808499 C 9.0711839,19.15079 8.2518725,20 10.687782,20 h 0.624999 c 2.435497,0.0015 1.616748,-0.849135 2.668122,-1.720634 0.414999,-0.343962 0.895036,-0.621062 1.400373,-0.808499 1.280497,-0.474924 2.90512,1.408998 4.122994,-0.700487 l 0.15625,-0.270387 0.156249,-0.270999 c 1.218961,-2.108498 -1.225911,-2.574247 -1.454873,-3.920495 -0.09038,-0.531375 -0.09035,-1.085624 0,-1.616998 0.228925,-1.3463735 2.672872,-1.8116229 1.454873,-3.9211202 L 19.66052,6.4999936 19.50427,6.228994 C 18.287759,4.1191215 16.661648,6.0039318 15.381276,5.5291197 14.875901,5.3417075 14.39589,5.0645578 13.980903,4.7206208 12.929379,3.8491969 13.74869,1.5 11.312781,1.5 h -0.3125 z"
     id="path4802"
     style="opacity:0.2"
     sodipodi:nodetypes="ccccccsccsscscccccccsccsscscc" />
  <path
     d="M 10.687144,1.000025 C 8.2516475,0.99852502 9.0710214,3.3491469 8.0196478,4.2206458 7.6046483,4.5646078 7.1246114,4.8417075 6.6192745,5.0291447 5.3387763,5.5040693 3.7141535,3.6195215 2.49628,5.729019 L 2.3400301,6.0000186 2.1831679,6.2710183 c -1.21896111,2.1084973 1.2265235,2.5742467 1.4554982,3.9204947 0.090379,0.531375 0.090354,1.085624 0,1.616998 -0.2289247,1.346373 -2.67287182,1.810998 -1.4548733,3.920495 l 0.3124997,0.541987 c 1.216511,2.109872 2.8426213,0.225062 4.1229945,0.699874 0.5053744,0.187412 0.9853863,0.464562 1.4003733,0.808499 1.0515236,0.871424 0.2322122,3.220621 2.6681217,3.220621 h 0.624999 c 2.435497,0.0015 1.616748,-2.349122 2.668122,-3.220621 0.414999,-0.343962 0.895036,-0.621062 1.400373,-0.808499 1.280497,-0.474924 2.90512,1.408998 4.122994,-0.700487 l 0.15625,-0.270387 0.156249,-0.270999 c 1.218961,-2.108498 -1.225911,-2.574247 -1.454873,-3.920495 -0.09038,-0.531375 -0.09035,-1.085624 0,-1.616998 0.228925,-1.3463735 2.672872,-1.8116229 1.454873,-3.9211202 L 19.66052,5.9999936 19.50427,5.728994 C 18.287759,3.6191215 16.661648,5.5039318 15.381276,5.0291197 14.875901,4.8417075 14.39589,4.5645578 13.980903,4.2206208 12.929379,3.3491969 13.74869,1 11.312781,1 h -0.3125 z"
     style="fill:#008374;fill-opacity:1;stroke-width:1.25"
     id="path2-6"
     class="ColorScheme-Text" />
  <rect
     style="opacity:.2"
     width="6"
     height="8"
     x="8"
     y="13.5"
     rx="2.4"
     ry="2"
     id="rect2" />
  <rect
     style="fill:#e4e4e4"
     width="6"
     height="8"
     x="8"
     y="13"
     rx="2.4"
     ry="2"
     id="rect8" />
  <rect
     style="opacity:.4"
     width="2"
     height="6"
     x="10"
     y="14"
     rx="1"
     ry="1"
     id="rect10" />
  <path
     style="opacity:.2"
     d="m12.99953 6.9199196v3.5800784l-2 1.5-2.0000005-1.5v-3.5761724c-1.820005 0.7943135-2.997456 2.5903865-3 4.5761724 0 2.761423 2.2385765 5 5.0000005 5 2.761423 0 5-2.238577 5-5-1e-3 -1.9872039-1.178697-3.7851969-3-4.5800784z"
     id="path12" />
  <path
     style="fill:#ffffff"
     d="m12.99953 6.4199196v3.5800785l-2 1.4999999-2.0000005-1.4999999v-3.5761725c-1.820005 0.7943135-2.997456 2.5903865-3 4.5761724 0 2.761423 2.2385765 5 5.0000005 5 2.761423 0 5-2.238577 5-5-1e-3 -1.9872039-1.178697-3.7851969-3-4.5800784z"
     id="path14" />
  <path
     style="fill:#ffffff;opacity:.1"
     d="m12.99953 6.4199196v0.5c1.733 0.7563425 2.880928 2.4213895 2.989257 4.2929684 3e-3 -0.0712 0.01074-0.140949 0.01074-0.21289-1e-3 -1.9872049-1.178697-3.7851969-3-4.5800784zm-4.0000005 0.0039c-1.820005 0.7943135-2.997456 2.5903855-3 4.5761714 0 0.07194 0.00774 0.141689 0.01074 0.212891 0.109636-1.8701809 1.2574955-3.5332544 2.98926-4.2890564v-0.5zm0 3.5761725v0.4999999l2.0000005 1.5 2-1.5v-0.4999999l-2 1.4999999z"
     id="path16" />
  <g
     id="g951"
     transform="matrix(1.2499984,0,0,1.2499984,26.50001,0.31397215)">
    <path
       d="M 7.7495,0 C 5.8011,-0.0012 6.4566,1.8793 5.6155,2.5765 5.2835,2.85167 4.89947,3.07335 4.4952,3.2233 3.4708,3.60324 2.1711,2.0956 1.1968,3.7832 L 1.0718,4 0.94631,4.2168 c -0.97517,1.6868 0.98122,2.0594 1.1644,3.1364 0.072303,0.4251 0.072283,0.8685 0,1.2936 -0.18314,1.0771 -2.1383,1.4488 -1.1639,3.1364 l 0.25,0.43359 c 0.97321,1.6879 2.2741,0.18005 3.2984,0.5599 0.4043,0.14993 0.78831,0.37165 1.1203,0.6468 0.84122,0.69714 0.18577,2.5765 2.1345,2.5765 h 0.5 c 1.9484,0.0012 1.2934,-1.8793 2.1345,-2.5765 0.332,-0.27517 0.71603,-0.49685 1.1203,-0.6468 1.0244,-0.37994 2.3241,1.1272 3.2984,-0.56039 l 0.125,-0.21631 0.125,-0.2168 c 0.97517,-1.6868 -0.98073,-2.0594 -1.1639,-3.1364 -0.0723,-0.4251 -0.07228,-0.8685 0,-1.2936 0.18314,-1.0771 2.1383,-1.4493 1.1639,-3.1369 l -0.125,-0.21631 -0.125,-0.2168 C 13.83,2.09528 12.52911,3.60313 11.50481,3.22328 11.10051,3.07335 10.7165,2.85163 10.38451,2.57648 9.54329,1.87934 10.19874,-2e-5 8.25001,-2e-5 h -0.25 z"
       style="fill:#474747;fill-opacity:1"
       id="path2"
       class="ColorScheme-Text" />
    <path
       d="M 7.7495,0 C 5.8011,-0.0012 6.4566,1.8793 5.6155,2.5765 5.2835,2.85167 4.89947,3.07335 4.4952,3.2233 3.4708,3.60324 2.1711,2.0956 1.1968,3.7832 L 1.0718,4 0.94631,4.2168 c -0.97517,1.6868 0.98122,2.0594 1.1644,3.1364 0.072303,0.4251 0.072283,0.8685 0,1.2936 -0.18314,1.0771 -2.1383,1.4488 -1.1639,3.1364 l 0.25,0.43359 c 0.97321,1.6879 2.2741,0.18005 3.2984,0.5599 0.4043,0.14993 0.78831,0.37165 1.1203,0.6468 0.84122,0.69714 0.18577,2.5765 2.1345,2.5765 h 0.5 c 1.9484,0.0012 1.2934,-1.8793 2.1345,-2.5765 0.332,-0.27517 0.71603,-0.49685 1.1203,-0.6468 1.0244,-0.37994 2.3241,1.1272 3.2984,-0.56039 l 0.125,-0.21631 0.125,-0.2168 c 0.97517,-1.6868 -0.98073,-2.0594 -1.1639,-3.1364 -0.0723,-0.4251 -0.07228,-0.8685 0,-1.2936 0.18314,-1.0771 2.1383,-1.4493 1.1639,-3.1369 l -0.125,-0.21631 -0.125,-0.2168 C 13.83,2.09528 12.52911,3.60313 11.50481,3.22328 11.10051,3.07335 10.7165,2.85163 10.38451,2.57648 9.54329,1.87934 10.19874,-2e-5 8.25001,-2e-5 h -0.25 z"
       style="opacity:0.12;fill:currentColor;fill-opacity:1"
       id="path12842"
       class="ColorScheme-Text" />
  </g>
  <path
     id="path32435"
     style="opacity:0.1;fill:#ffffff;fill-opacity:1;stroke-width:1.25"
     d="M 36.187497,0.31397215 C 33.752,0.31247215 34.570417,2.662684 33.519043,3.5341829 33.104044,3.878145 32.625457,4.15485 32.12012,4.3422872 30.839622,4.8172116 29.214464,2.9334727 27.99659,5.04297 l -0.15625,0.2709957 -0.156249,0.2709958 c -0.322739,0.5582556 -0.384604,0.999737 -0.302735,1.3745099 0.04709,-0.2256753 0.142897,-0.473034 0.302735,-0.7495107 L 27.84034,5.9389649 27.99659,5.6679692 C 29.214464,3.5584719 30.839622,5.4422108 32.12012,4.9672864 32.625457,4.7798493 33.104044,4.5031442 33.519043,4.1591821 34.570417,3.2876832 33.752,0.93747135 36.187497,0.93897135 h 0.3125 0.312499 c 2.43591,0 1.616931,2.34878685 2.668454,3.22021075 0.414987,0.3439371 0.893549,0.6206922 1.398924,0.8081043 1.280373,0.4748119 2.907018,-1.4091895 4.123529,0.7006828 l 0.15625,0.2709958 0.15625,0.2709957 c 0.159844,0.2768382 0.255743,0.5236006 0.302735,0.7495107 0.08185,-0.3748668 0.01975,-0.8159896 -0.302735,-1.3745099 L 45.159653,5.3139657 45.003403,5.04297 C 43.786892,2.9330977 42.160247,4.8170993 40.879874,4.3422872 40.374499,4.1548751 39.895937,3.87812 39.48095,3.5341829 38.429427,2.662759 39.248406,0.31397215 36.812496,0.31397215 H 36.499997 Z M 29.192877,10.626459 c -0.01075,0.166234 -0.02595,0.332362 -0.05371,0.495605 -0.198902,1.169807 -2.069382,1.675622 -1.75781,3.171383 0.227284,-1.040804 1.589496,-1.556483 1.75781,-2.546384 0.0626,-0.368132 0.07785,-0.745727 0.05371,-1.120604 z m 14.614239,0 c -0.02414,0.374853 -0.0089,0.752497 0.05371,1.120604 0.168466,0.990548 1.532174,1.506539 1.75781,2.548825 0.314129,-1.496893 -1.558787,-2.003599 -1.757812,-3.173824 -0.02777,-0.163267 -0.04301,-0.329346 -0.05371,-0.495605 z" />
  <g
     id="g19119"
     transform="matrix(1.2499984,0,0,1.2499984,26.50001,0.31397215)">
    <path
       id="rect4-3"
       style="fill:#e5e5e5;fill-opacity:1"
       d="M 10,4.546875 V 7 L 8,8.5 6,7 V 4.5488281 C 4.7763,5.2568981 4.0018,6.5637 4,8 c 0,1.480193 0.804859,2.771144 2,3.462891 v 2.9375 C 6,15.286791 6.713209,16 7.599609,16 H 8.400391 C 9.286791,16 10,15.286791 10,14.400391 v -2.9375 C 11.195141,10.771144 12,9.480193 12,8 11.999277,6.5627 11.22443,5.255575 10,4.546875 Z"
       class="ColorScheme-Background" />
    <path
       id="rect4-3-2"
       style="opacity:0.1;fill:currentColor;fill-opacity:1"
       d="M 10,4.546875 V 7 L 8,8.5 6,7 V 4.5488281 C 4.7763,5.2568981 4.0018,6.5637 4,8 c 0,1.480193 0.804859,2.771144 2,3.462891 v 2.9375 C 6,15.286791 6.713209,16 7.599609,16 H 8.400391 C 9.286791,16 10,15.286791 10,14.400391 v -2.9375 C 11.195141,10.771144 12,9.480193 12,8 11.999277,6.5627 11.22443,5.255575 10,4.546875 Z"
       class="ColorScheme-Background" />
    <path
       id="rect33413"
       d="m 7,11.873047 v 2.326172 C 7,14.642419 7.446,15 8,15 8.554,15 9,14.642419 9,14.199219 V 11.873047 C 8.680427,11.955747 8.345472,12 8,12 7.654528,12 7.319573,11.95575 7,11.873047 Z"
       style="opacity:0.5;fill:currentColor" />
    <path
       id="rect33192"
       style="opacity:0.2;fill:currentColor;fill-opacity:1"
       d="m 6,11.462891 v 2.9375 C 6,15.286791 6.7132094,16 7.5996094,16 H 8.4003906 C 9.2867906,16 10,15.286791 10,14.400391 v -2.9375 c -0.3095938,0.179192 -0.6453107,0.318368 -1,0.410156 v 2.326172 C 9,14.642419 8.554,15 8,15 7.446,15 7,14.642419 7,14.199219 V 11.873047 C 6.6453107,11.781259 6.3095938,11.642083 6,11.462891 Z"
       sodipodi:nodetypes="cssssccssscc" />
    <path
       id="path19402"
       d="m 7,11.873047 v 2.326172 C 7,14.642419 7.446,15 8,15 8.554,15 9,14.642419 9,14.199219 V 11.873047 C 8.680427,11.955747 8.345472,12 8,12 7.654528,12 7.319573,11.95575 7,11.873047 Z"
       style="opacity:0.1;fill:currentColor"
       class="ColorScheme-Text" />
    <path
       id="path18756"
       style="opacity:0.1;fill:#ffffff;fill-opacity:1"
       d="M 10,4.546875 V 7 L 8,8.5 6,7 V 4.5488281 C 4.9292625,5.1683894 4.2032896,6.2467305 4.0371094,7.46875 c -0.010643,0.078265 -0.019404,0.1569638 -0.025391,0.2363281 -0.00118,0.015601 -9.589e-4,0.031235 -0.00195,0.046875 C 4.0045356,7.8342173 4.0001043,7.916775 4,8 c 0,0.081349 0.00302,0.1620498 0.00781,0.2421875 0.00175,0.029538 0.00544,0.058532 0.00781,0.087891 0.00435,0.053157 0.00921,0.1056581 0.015625,0.1582031 0.00361,0.029938 0.00745,0.060118 0.011719,0.089844 0.024196,0.166708 0.057443,0.3308782 0.1015624,0.4902344 0.023532,0.084997 0.049216,0.1693355 0.078125,0.2519531 C 4.54066,10.229106 5.1783406,10.987315 6,11.462891 v 0.0039 C 6.5877059,11.805342 7.2703698,12 8,12 c 0.7296302,0 1.4122941,-0.194658 2,-0.533203 v -0.0039 c 0.821659,-0.475576 1.45934,-1.233785 1.777344,-2.1425785 0.02891,-0.082618 0.05459,-0.1669563 0.07813,-0.2519531 0.04412,-0.1593562 0.07737,-0.3235264 0.101562,-0.4902344 0.0043,-0.029726 0.0081,-0.059906 0.01172,-0.089844 0.0064,-0.052545 0.01127,-0.1050458 0.01563,-0.1582031 0.0024,-0.029358 0.0061,-0.058352 0.0078,-0.087891 C 11.996981,8.1620498 12,8.0813489 12,8 11.999958,7.916717 11.9954,7.8342708 11.9902,7.7519531 c -3.94e-4,-0.00652 4.26e-4,-0.013023 0,-0.019531 -8.91e-4,-0.013145 -0.0029,-0.025945 -0.0039,-0.039063 C 11.9819,7.6363411 11.9775,7.5798937 11.97067,7.5234372 11.96717,7.4934722 11.96317,7.4633482 11.95895,7.4335932 11.784325,6.2254343 11.06103,5.1609992 10,4.546875 Z" />
  </g>
  <path
     id="path4454"
     style="fill:#ffffff;fill-opacity:1;stroke-width:1.25;opacity:0.1"
     class="ColorScheme-Text"
     d="M 10.6875 1 C 8.2520035 0.99850002 9.0709048 3.3492042 8.0195312 4.2207031 C 7.6045318 4.5646651 7.1244775 4.8418597 6.6191406 5.0292969 C 5.3386424 5.5042215 3.7139673 3.6190181 2.4960938 5.7285156 L 2.3398438 6 L 2.1835938 6.2714844 C 1.8748285 6.8055709 1.8012965 7.2333647 1.8671875 7.5976562 C 1.9071228 7.3517263 2.0053739 7.0797601 2.1835938 6.7714844 L 2.3398438 6.5 L 2.4960938 6.2285156 C 3.7139673 4.1190181 5.3386424 6.0042215 6.6191406 5.5292969 C 7.1244775 5.3418597 7.6045318 5.0646651 8.0195312 4.7207031 C 9.0709048 3.8492042 8.2520035 1.4985 10.6875 1.5 L 11 1.5 L 11.3125 1.5 C 13.748409 1.5 12.928945 3.8492792 13.980469 4.7207031 C 14.395456 5.0646401 14.875484 5.3418847 15.380859 5.5292969 C 16.661231 6.004109 18.287395 4.1186431 19.503906 6.2285156 L 19.660156 6.5 L 19.816406 6.7695312 C 19.993577 7.0763794 20.092518 7.3487097 20.132812 7.59375 C 20.197341 7.2302887 20.123717 6.8017738 19.816406 6.2695312 L 19.660156 6 L 19.503906 5.7285156 C 18.287395 3.6186431 16.661231 5.504109 15.380859 5.0292969 C 14.875484 4.8418847 14.395456 4.5646401 13.980469 4.2207031 C 12.928945 3.3492792 13.748409 1 11.3125 1 L 11 1 L 10.6875 1 z M 3.6953125 11.25 C 3.6856853 11.437508 3.6699461 11.624669 3.6386719 11.808594 C 3.4431271 12.95865 1.6342049 13.466243 1.8691406 14.904297 C 2.0620331 13.829025 3.467634 13.314517 3.6386719 12.308594 C 3.6977517 11.961144 3.7134933 11.60422 3.6953125 11.25 z M 18.304688 11.25 C 18.286504 11.604209 18.302233 11.961154 18.361328 12.308594 C 18.532294 13.313835 19.938749 13.828464 20.132812 14.902344 C 20.366152 13.466199 18.556814 12.958012 18.361328 11.808594 C 18.330043 11.624658 18.31431 11.43752 18.304688 11.25 z " />
</svg>
