<?xml version="1.0" encoding="UTF-8" standalone="no"?>
<svg
   width="32"
   height="32"
   version="1"
   id="svg18"
   sodipodi:docname="utilities-tweak-tool.svg"
   inkscape:version="1.1.1 (3bf5ae0d25, 2021-09-20, custom)"
   xmlns:inkscape="http://www.inkscape.org/namespaces/inkscape"
   xmlns:sodipodi="http://sodipodi.sourceforge.net/DTD/sodipodi-0.dtd"
   xmlns="http://www.w3.org/2000/svg"
   xmlns:svg="http://www.w3.org/2000/svg">
  <defs
     id="defs22" />
  <sodipodi:namedview
     id="namedview20"
     pagecolor="#ffffff"
     bordercolor="#666666"
     borderopacity="1.0"
     inkscape:pageshadow="2"
     inkscape:pageopacity="0.0"
     inkscape:pagecheckerboard="0"
     showgrid="true"
     inkscape:snap-bbox="true"
     inkscape:snap-bbox-edge-midpoints="true"
     inkscape:zoom="26.428116"
     inkscape:cx="16.365147"
     inkscape:cy="23.592298"
     inkscape:window-width="1440"
     inkscape:window-height="823"
     inkscape:window-x="0"
     inkscape:window-y="768"
     inkscape:window-maximized="1"
     inkscape:current-layer="svg18"
     inkscape:snap-global="false"
     inkscape:lockguides="false">
    <inkscape:grid
       type="xygrid"
       id="grid839" />
  </sodipodi:namedview>
  <path
     d="M 15.562005,3.000035 C 12.15232,2.997935 13.333739,6.4247699 11.880371,7.6292896 11.306741,8.1047275 10.643214,8.4877483 9.9447039,8.7468347 8.1747619,9.4033093 5.7998479,6.6673188 4.0946549,9.6206583 l -0.218749,0.3793987 -0.219606,0.379398 c -1.70654,2.951887 1.851841,3.642084 2.168415,5.503026 0.124932,0.734489 0.124897,1.500601 0,2.23509 -0.316416,1.860942 -3.872733,2.549739 -2.16754,5.503026 l 0.437498,0.758779 c 1.70311,2.953812 4.080107,0.217506 5.850049,0.873823 0.6985621,0.259052 1.3620361,0.642143 1.9356661,1.117545 1.453456,1.20452 0.272194,4.629255 3.682509,4.629255 h 0.874996 c 3.409685,0.0021 2.22914,-3.424735 3.682509,-4.629255 0.57363,-0.475437 1.237157,-0.858458 1.935666,-1.117545 1.769943,-0.656474 4.144857,2.078641 5.85005,-0.874681 l 0.218749,-0.378541 0.218749,-0.379398 c 1.70654,-2.951887 -1.850967,-3.642084 -2.167541,-5.503026 -0.124914,-0.734489 -0.124879,-1.500601 0,-2.23509 0.316416,-1.860942 3.872733,-2.550614 2.167541,-5.5039 L 28.124867,10.000022 27.906118,9.6206233 C 26.203008,6.6668113 23.826011,9.4031168 22.056068,8.7467997 21.357507,8.4877483 20.694032,8.1046575 20.120402,7.6292546 18.666946,6.4247349 19.848208,3 16.437893,3 h -0.437498 z"
     stroke-linecap="round"
     stroke-linejoin="round"
     stroke-width="0.611832"
     style="fill:#000000;fill-opacity:1;paint-order:markers stroke fill;opacity:0.2"
     id="path1169" />
  <path
     d="M 15.562005,2.000035 C 12.15232,1.997935 13.333739,5.4247699 11.880371,6.6292896 11.306741,7.1047275 10.643214,7.4877483 9.9447039,7.7468347 8.1747619,8.4033093 5.7998479,5.6673188 4.0946549,8.6206583 L 3.8759059,9.0000566 3.6562999,9.379455 c -1.70654,2.951887 1.851841,3.642084 2.168415,5.503026 0.124932,0.734489 0.124897,1.500601 0,2.23509 -0.316416,1.860942 -3.872733,2.549739 -2.16754,5.503026 l 0.437498,0.758779 c 1.70311,2.953812 4.080107,0.217506 5.850049,0.873823 0.6985621,0.259052 1.3620361,0.642143 1.9356661,1.117545 1.453456,1.20452 2.2207,4.629255 3.904055,4.629255 h 0.431904 c 1.683044,0.0021 2.450686,-3.424735 3.904055,-4.629255 0.57363,-0.475437 1.237157,-0.858458 1.935666,-1.117545 1.769943,-0.656474 4.144857,2.078641 5.85005,-0.874681 l 0.218749,-0.378541 0.218749,-0.379398 c 1.70654,-2.951887 -1.850967,-3.642084 -2.167541,-5.503026 -0.124914,-0.734489 -0.124879,-1.500601 0,-2.23509 0.316416,-1.860942 3.872733,-2.550614 2.167541,-5.5039005 L 28.124867,9.0000216 27.906118,8.6206233 C 26.203008,5.6668113 23.826011,8.4031168 22.056068,7.7467997 21.357507,7.4877483 20.694032,7.1046575 20.120402,6.6292546 18.666946,5.4247349 19.848208,2 16.437893,2 h -0.437498 z"
     fill="#008374"
     stroke-linecap="round"
     stroke-linejoin="round"
     stroke-width="0.611832"
     style="paint-order:markers stroke fill"
     id="path2"
     sodipodi:nodetypes="cccccccccsccsccccccccccsccscc" />
  <path
     id="path3374"
     style="fill:#ffffff"
     d="m 19,9.6933594 v 5.2070316 l -3,2.199218 -3,-2.199218 V 9.6992188 C 10.570203,10.854673 9.0034641,13.296013 9,16 c 0,2.792349 1.635117,5.202683 4,6.326172 V 27.25 c 0,1.5235 1.070791,2.75 2.400391,2.75 h 1.199218 C 17.929209,30 19,28.7735 19,27.25 V 22.326172 C 21.364883,21.202683 23,18.792349 23,16 22.9986,13.293954 21.431683,10.849618 19,9.6933594 Z"
     sodipodi:nodetypes="cccccccssssccc" />
  <path
     id="rect8"
     style="fill:#000000;fill-opacity:1;opacity:0.1"
     d="M 13 22.326172 L 13 27.25 C 13 28.7735 14.070791 30 15.400391 30 L 16.599609 30 C 17.929209 30 19 28.7735 19 27.25 L 19 22.326172 C 18.090714 22.758148 17.073644 23 16 23 C 14.926356 23 13.909286 22.758148 13 22.326172 z " />
  <path
     id="rect10"
     style="opacity:.4"
     d="M 15 22.927734 L 15 27 C 15 27.554 15.446 28 16 28 C 16.554 28 17 27.554 17 27 L 17 22.927734 C 16.673298 22.97448 16.339629 23 16 23 C 15.660371 23 15.326702 22.97448 15 22.927734 z " />
  <path
     id="path12"
     style="opacity:.2"
     d="M 22.980469 16.482422 C 22.731943 20.122705 19.703353 23 16 23 C 12.301266 23 9.2746778 20.129929 9.0195312 16.496094 C 9.0072726 16.662791 9.0002165 16.831001 9 17 C 9 20.865993 12.134007 24 16 24 C 19.865993 24 23 20.865993 23 17 C 22.99991 16.826195 22.993289 16.653796 22.980469 16.482422 z " />
  <path
     style="fill:#ffffff;opacity:0.1"
     d="m19 9.6933594v5.2070316l-3 2.199218-3-2.199218v-5.2011722c-2.429797 1.1554542-3.9965359 3.5967942-4 6.3007812 0 3.865993 3.134007 7 7 7s7-3.134007 7-7c-0.0014-2.706046-1.568317-5.150382-4-6.3066406z"
     id="path14" />
  <path
     id="path1935"
     style="paint-order:markers stroke fill;fill:#ffffff;fill-opacity:1;opacity:0.1"
     d="M 15.5625 2 C 12.152815 1.9979 13.334227 5.4243866 11.880859 6.6289062 C 11.307229 7.1043442 10.643823 7.4870073 9.9453125 7.7460938 C 8.1753705 8.4025683 5.798943 5.6677542 4.09375 8.6210938 L 3.875 9 L 3.65625 9.3789062 C 3.1989922 10.169848 3.1266377 10.795907 3.2617188 11.328125 C 3.3307886 11.038796 3.4562648 10.724831 3.65625 10.378906 L 3.875 10 L 4.09375 9.6210938 C 5.798943 6.6677543 8.1753705 9.4025683 9.9453125 8.7460938 C 10.643823 8.4870073 11.307229 8.1043441 11.880859 7.6289062 C 13.334227 6.4243866 12.152815 2.9979 15.5625 3 L 16 3 L 16.4375 3 C 19.847815 3 18.667638 6.4243865 20.121094 7.6289062 C 20.694724 8.1043091 21.35808 8.4870423 22.056641 8.7460938 C 23.826584 9.4024109 26.20314 6.6672817 27.90625 9.6210938 L 28.125 10 L 28.34375 10.378906 C 28.543577 10.724994 28.669284 11.038681 28.738281 11.328125 C 28.873336 10.795761 28.800647 10.170223 28.34375 9.3789062 L 28.125 9 L 27.90625 8.6210938 C 26.20314 5.6672817 23.826584 8.4024109 22.056641 7.7460938 C 21.35808 7.4870423 20.694724 7.1043091 20.121094 6.6289062 C 18.667638 5.4243865 19.847815 2 16.4375 2 L 16 2 L 15.5625 2 z M 5.8964844 16.5 C 5.8810617 16.70754 5.8589109 16.913172 5.8242188 17.117188 C 5.5448778 18.76008 2.7437653 19.491465 3.2636719 21.671875 C 3.6327565 20.217747 5.5925928 19.479452 5.8242188 18.117188 C 5.9144236 17.586714 5.9365807 17.039637 5.8964844 16.5 z M 26.103516 16.5 C 26.06342 17.039637 26.085564 17.586714 26.175781 18.117188 C 26.407531 19.479501 28.369475 20.217792 28.738281 21.671875 C 29.258767 19.492263 26.455257 18.76005 26.175781 17.117188 C 26.141084 16.913172 26.118934 16.70754 26.103516 16.5 z " />
</svg>
