<?xml version="1.0" encoding="UTF-8" standalone="no"?>
<svg
   width="48"
   height="48"
   version="1"
   id="svg20"
   sodipodi:docname="utilities-tweak-tool.svg"
   inkscape:version="1.1.1 (3bf5ae0d25, 2021-09-20, custom)"
   xmlns:inkscape="http://www.inkscape.org/namespaces/inkscape"
   xmlns:sodipodi="http://sodipodi.sourceforge.net/DTD/sodipodi-0.dtd"
   xmlns="http://www.w3.org/2000/svg"
   xmlns:svg="http://www.w3.org/2000/svg">
  <defs
     id="defs24" />
  <sodipodi:namedview
     id="namedview22"
     pagecolor="#ffffff"
     bordercolor="#666666"
     borderopacity="1.0"
     inkscape:pageshadow="2"
     inkscape:pageopacity="0.0"
     inkscape:pagecheckerboard="0"
     showgrid="true"
     inkscape:snap-bbox="true"
     inkscape:snap-bbox-edge-midpoints="true"
     inkscape:zoom="12.458333"
     inkscape:cx="25.645485"
     inkscape:cy="25.886288"
     inkscape:window-width="1440"
     inkscape:window-height="823"
     inkscape:window-x="0"
     inkscape:window-y="768"
     inkscape:window-maximized="1"
     inkscape:current-layer="svg20">
    <inkscape:grid
       type="xygrid"
       id="grid841" />
  </sodipodi:namedview>
  <path
     id="path1030"
     style="opacity:0.2"
     d="M 23.375 5 C 18.504004 4.99703 20.141811 9.6984074 18.039062 11.441406 C 17.209063 12.129331 16.248955 12.683718 15.238281 13.058594 C 12.677283 14.008443 9.4279358 10.239988 6.9921875 14.458984 L 6.6796875 15 L 6.3671875 15.542969 C 3.9292641 19.759966 8.8193938 20.690314 9.2773438 23.382812 C 9.4580928 24.445562 9.4580428 25.55444 9.2773438 26.617188 C 8.8194928 29.309936 3.9311898 30.239986 6.3671875 34.458984 L 6.9921875 35.542969 C 9.4252106 39.762717 12.677533 35.991781 15.238281 36.941406 C 16.249031 37.31623 17.209087 37.870718 18.039062 38.558594 C 18.509865 38.94876 18.789213 39.491261 19 40.091797 L 19 41 C 19 43.216 20.784 45 23 45 L 23.375 45 L 24.625 45 L 25 45 C 27.216 45 29 43.216 29 41 L 29 40.09375 C 29.210902 39.492158 29.489652 38.949249 29.960938 38.558594 C 30.790937 37.870669 31.751044 37.31628 32.761719 36.941406 C 35.322718 35.991556 38.572063 39.759989 41.007812 35.541016 L 41.320312 35 L 41.632812 34.457031 C 44.070735 30.240033 39.182534 29.309686 38.724609 26.617188 C 38.54386 25.55444 38.54391 24.445562 38.724609 23.382812 C 39.18246 20.690065 44.068811 19.760014 41.632812 15.541016 L 41.320312 15 L 41.007812 14.457031 C 38.57479 10.237284 35.322467 14.008218 32.761719 13.058594 C 31.750969 12.683768 30.790912 12.12928 29.960938 11.441406 C 27.857889 9.6985567 29.496822 5 24.625 5 L 24 5 L 23.375 5 z " />
  <path
     d="m 23.374288,4.0000503 c -4.870996,-0.00297 -3.232248,4.6982468 -5.334996,6.4412457 -0.83,0.687925 -1.790075,1.242123 -2.800749,1.616999 -2.560998,0.949849 -5.8102462,-2.8192482 -8.2459945,1.399748 l -0.3124994,0.542 -0.3137246,0.542 c -2.4379234,4.216997 2.4530483,5.148496 2.9109983,7.840995 0.180749,1.062749 0.180699,2.171249 0,3.233997 -0.457851,2.692749 -5.3457468,3.621998 -2.9097491,7.840996 l 0.625,1.083973 c 2.4330231,4.219748 5.6852463,0.450125 8.2459943,1.39975 1.01075,0.374824 1.970774,0.929123 2.800749,1.616999 2.103048,1.742848 0.464424,6.441246 5.336245,6.441246 h 1.25 c 4.870997,0.003 3.233498,-4.698247 5.336246,-6.441246 0.83,-0.687925 1.790074,-1.242125 2.800749,-1.616999 2.560999,-0.94985 5.810245,2.817998 8.245994,-1.400975 l 0.3125,-0.540773 0.3125,-0.542 c 2.437923,-4.216998 -2.451824,-5.148498 -2.909749,-7.840996 -0.180749,-1.062748 -0.180699,-2.171248 0,-3.233998 0.457851,-2.692747 5.345748,-3.623246 2.909749,-7.842244 l -0.3125,-0.540775 -0.3125,-0.541999 C 38.575528,9.2382468 35.323305,13.007869 32.762557,12.058245 31.751807,11.683419 30.791783,11.12912 29.961808,10.441246 27.85876,8.6983965 29.497384,4 24.625562,4 h -0.625 z"
     fill="#008374"
     stroke-linecap="round"
     stroke-linejoin="round"
     stroke-width="0.874049"
     style="paint-order:markers stroke fill"
     id="path2" />
  <path
     id="rect8"
     style="fill:#ffffff;fill-opacity:1"
     d="M 28 14.839844 L 28 22 L 24 25 L 20 22 L 20 14.847656 C 16.35999 16.436283 14.005088 20.028428 14 24 C 14 27.700508 16.0122 30.928845 19 32.658203 L 19 40 C 19 42.216 20.784 44 23 44 L 25 44 C 27.216 44 29 42.216 29 40 L 29 32.658203 C 31.9878 30.928845 34 27.700508 34 24 C 33.998 20.025592 31.642606 16.429607 28 14.839844 z " />
  <g
     id="g2869">
    <path
       id="path12"
       style="opacity:.2"
       d="M 14.025391 24.664062 A 10 10 0 0 0 14 25 A 10 10 0 0 0 24 35 A 10 10 0 0 0 34 25 A 10 10 0 0 0 33.974609 24.664062 C 33.631984 29.876501 29.299127 34 24 34 C 18.700873 34 14.368016 29.876501 14.025391 24.664062 z " />
    <path
       style="fill:#ffffff;opacity:0.1"
       d="m28 14.839843v7.160156l-4 3-4-3v-7.152344c-3.64001 1.588627-5.994912 5.180772-6 9.152344 0 5.522847 4.477153 10 10 10s10-4.477153 10-10c-2e-3 -3.974408-2.357394-7.570393-6-9.160156z"
       id="path14" />
    <path
       style="fill:#ffffff;opacity:.1"
       d="m28 14.839843v1c3.465999 1.512685 5.761859 4.842779 5.978516 8.585937 0.006017-0.142404 0.021484-0.281897 0.021484-0.425781-2e-3 -3.974408-2.357394-7.570393-6-9.160156zm-8 0.0078c-3.64001 1.588627-5.994912 5.180772-6 9.152344 0 0.143884 0.01547 0.283377 0.02148 0.425781 0.219272-3.740362 2.514991-7.066509 5.97852-8.578113v-1zm0 7.152344v1l4 3 4-3v-1l-4 3-4-3z"
       id="path16" />
    <path
       id="rect1876"
       d="M 19 32.658203 L 19 40 C 19 42.216 20.784 44 23 44 L 25 44 C 27.216 44 29 42.216 29 40 L 29 32.658203 C 27.528639 33.509837 25.822339 34 24 34 C 22.177661 34 20.471361 33.509837 19 32.658203 z "
       style="opacity:0.1" />
    <path
       id="rect2079"
       style="opacity:.4"
       d="M 22 33.798828 L 22 40 C 22 41.108 22.892 42 24 42 C 25.108 42 26 41.108 26 40 L 26 33.798828 C 25.353784 33.930002 24.684928 34 24 34 C 23.315072 34 22.646216 33.930002 22 33.798828 z " />
  </g>
  <path
     id="path1418"
     style="fill:#ffffff;opacity:0.1"
     d="M 23.375 4 C 18.504004 3.99703 20.141811 8.6984074 18.039062 10.441406 C 17.209063 11.129331 16.248955 11.683718 15.238281 12.058594 C 12.677283 13.008443 9.4279358 9.2399882 6.9921875 13.458984 L 6.6796875 14 L 6.3671875 14.542969 C 5.7514024 15.608123 5.6045403 16.462203 5.734375 17.189453 C 5.8147867 16.698895 6.0119584 16.157426 6.3671875 15.542969 L 6.6796875 15 L 6.9921875 14.458984 C 9.4279358 10.239988 12.677283 14.008443 15.238281 13.058594 C 16.248955 12.683718 17.209063 12.129331 18.039062 11.441406 C 20.141811 9.6984074 18.504004 4.99703 23.375 5 L 24 5 L 24.625 5 C 29.496822 5 27.857889 9.6985567 29.960938 11.441406 C 30.790912 12.12928 31.750969 12.683768 32.761719 13.058594 C 35.322467 14.008218 38.57479 10.237284 41.007812 14.457031 L 41.320312 15 L 41.632812 15.541016 C 41.98872 16.157425 42.185734 16.701592 42.265625 17.193359 C 42.396626 16.465103 42.249178 15.608522 41.632812 14.541016 L 41.320312 14 L 41.007812 13.457031 C 38.57479 9.2372841 35.322467 13.008218 32.761719 12.058594 C 31.750969 11.683768 30.790912 11.12928 29.960938 10.441406 C 27.857889 8.6985567 29.496822 4 24.625 4 L 24 4 L 23.375 4 z M 9.3925781 24.5 C 9.3733271 24.875056 9.3398954 25.249301 9.2773438 25.617188 C 8.8862061 27.917577 5.2654224 28.931696 5.7363281 31.808594 C 6.1217585 29.6577 8.9352397 28.629197 9.2773438 26.617188 C 9.3954911 25.922326 9.4289276 25.208403 9.3925781 24.5 z M 38.609375 24.5 C 38.573011 25.208413 38.606428 25.922316 38.724609 26.617188 C 39.066869 28.629598 41.881784 29.658576 42.265625 31.810547 C 42.737336 28.934422 39.11581 27.917362 38.724609 25.617188 C 38.662042 25.249311 38.62862 24.875045 38.609375 24.5 z " />
</svg>
