<?xml version="1.0" encoding="UTF-8" standalone="no"?>
<svg
   width="64"
   height="64"
   version="1"
   id="svg18"
   sodipodi:docname="utilities-tweak-tool.svg"
   inkscape:version="1.1.1 (3bf5ae0d25, 2021-09-20, custom)"
   xmlns:inkscape="http://www.inkscape.org/namespaces/inkscape"
   xmlns:sodipodi="http://sodipodi.sourceforge.net/DTD/sodipodi-0.dtd"
   xmlns="http://www.w3.org/2000/svg"
   xmlns:svg="http://www.w3.org/2000/svg">
  <defs
     id="defs22" />
  <sodipodi:namedview
     id="namedview20"
     pagecolor="#ffffff"
     bordercolor="#666666"
     borderopacity="1.0"
     inkscape:pageshadow="2"
     inkscape:pageopacity="0.0"
     inkscape:pagecheckerboard="0"
     showgrid="true"
     inkscape:snap-bbox="true"
     inkscape:snap-bbox-edge-midpoints="true"
     inkscape:zoom="4.671875"
     inkscape:cx="26.648829"
     inkscape:cy="41.204013"
     inkscape:window-width="1440"
     inkscape:window-height="823"
     inkscape:window-x="0"
     inkscape:window-y="768"
     inkscape:window-maximized="1"
     inkscape:current-layer="svg18"
     inkscape:snap-global="false">
    <inkscape:grid
       type="xygrid"
       id="grid839" />
  </sodipodi:namedview>
  <path
     d="m 31.124017,4.00007 c -6.819394,-0.0042 -4.153083,8.053034 -6.89417,10.325161 -1.081967,0.896762 -2.333494,1.619199 -3.650983,2.107877 -3.338449,1.238199 -8.979234,-5.098442 -12.3892835,0.808152 l -0.437498,0.7588 -0.439215,0.7588 c -3.413092,5.903796 4.8981355,7.62344 5.4951065,11.13331 0.235621,1.385371 0.235556,2.830385 0,4.215754 -0.596842,3.510197 -8.9037535,5.226722 -5.4933565,11.133319 l 0.875,1.517562 c 3.4062325,5.907647 9.0511545,-0.429757 12.3892795,0.80815 1.317587,0.48861 2.569049,1.21118 3.650983,2.107877 2.741477,2.27193 0.07537,10.325166 6.895921,10.325166 h 1.75 c 6.819395,0.0042 4.154836,-8.053039 6.895922,-10.325166 1.081967,-0.896761 2.333493,-1.619201 3.650983,-2.107877 3.338451,-1.2382 8.979231,5.096697 12.389279,-0.809865 l 0.4375,-0.757082 0.4375,-0.7588 c 3.413092,-5.903797 -4.896418,-7.623447 -5.493358,-11.133316 -0.235619,-1.38537 -0.235554,-2.830383 0,-4.215756 0.596842,-3.510193 8.903757,-5.228464 5.493358,-11.135061 l -0.4375,-0.757085 -0.4375,-0.758798 C 52.405753,11.333546 46.76083,17.670947 43.422706,16.433043 42.105119,15.94443 40.853656,15.221861 39.771723,14.325166 37.030246,12.053233 39.696351,4 32.875801,4 h -0.875 z"
     id="path2-3"
     class="ColorScheme-Text"
     style="color:#31363b;fill:#008374;fill-opacity:1;stroke-width:1.4"
     sodipodi:nodetypes="cccccccscsscsccccccssccsscscc" />
  <rect
     style="opacity:.2"
     width="14"
     height="22.4"
     x="25"
     y="38.6"
     rx="5.6"
     ry="5.6"
     id="rect4" />
  <path
     id="path3574"
     style="fill:#e4e4e4"
     d="M 38,19.367188 V 29 l -6,4 -6,-4 V 19.380859 C 21.135647,21.690125 18.006932,26.588939 18,32 c 0,5.181341 2.816238,9.702162 7,12.123047 V 54.400391 C 25,57.502791 27.497209,60 30.599609,60 h 2.800782 C 36.502791,60 39,57.502791 39,54.400391 V 44.123047 C 43.183762,41.702162 46,37.181341 46,32 45.997275,26.584538 42.868564,21.677908 38,19.367188 Z"
     sodipodi:nodetypes="cccccccssssccc" />
  <path
     id="rect8"
     d="M 25 44.123047 L 25 54.400391 C 25 57.502791 27.497209 60 30.599609 60 L 33.400391 60 C 36.502791 60 39 57.502791 39 54.400391 L 39 44.123047 C 36.940439 45.314788 34.550644 46 32 46 C 29.449356 46 27.059561 45.314788 25 44.123047 z "
     style="opacity:0.1" />
  <path
     id="rect10"
     style="opacity:.4"
     d="M 29 45.673828 L 29 54.199219 C 29 55.750419 30.338 57 32 57 C 33.662 57 35 55.750419 35 54.199219 L 35 45.673828 C 34.03328 45.884948 33.030041 46 32 46 C 30.969959 46 29.96672 45.884948 29 45.673828 z " />
  <path
     id="path12"
     style="opacity:.2"
     d="M 18.015625 32.601562 C 18.011662 32.734621 18.000171 32.866285 18 33 C 18 40.731985 24.268014 47 32 47 C 39.731986 47 46 40.731985 46 33 C 45.999933 32.866434 45.988224 32.734478 45.984375 32.601562 C 45.669086 40.054292 39.530297 46 32 46 C 24.469703 46 18.330914 40.054292 18.015625 32.601562 z " />
  <path
     style="fill:#ffffff;opacity:0.1"
     d="m38 19.367188v9.632812l-6 4-6-4v-9.619141c-4.864353 2.309266-7.993068 7.20808-8 12.619141 0 7.731985 6.268014 14 14 14s14-6.268015 14-14c-0.002725-5.415462-3.131436-10.322092-8-12.632812z"
     id="path14" />
</svg>
