<svg width="48" height="48" version="1" xmlns="http://www.w3.org/2000/svg" xmlns:xlink="http://www.w3.org/1999/xlink">
 <defs>
  <linearGradient id="a" x1="4" x2="25" y1="7" y2="39" gradientUnits="userSpaceOnUse">
   <stop style="stop-color:#80d9ab" offset="0"/>
   <stop style="stop-color:#2fa2b8" offset="1"/>
  </linearGradient>
 </defs>
 <rect x="4" y="31" width="40" height="9" rx="2.5" ry="2.5" opacity=".2"/>
 <path d="m6.5 7c-1.3706 0-2.5 1.1294-2.5 2.5v27c0 1.3706 1.1294 2.5 2.5 2.5h35c1.3706 0 2.5-1.1294 2.5-2.5v-23c0-1.3706-1.1294-2.5-2.5-2.5h-17.5c-3 0-3-4-7-4z" style="fill:url(#a)"/>
 <path d="m41.5 13c1.3706 0 2.5 1.1294 2.5 2.5v21c0 1.3706-1.1294 2.5-2.5 2.5h-35c-1.3706 0-2.5-1.1294-2.5-2.5v-18c0-1.3706 1.1294-2.5 2.5-2.5h10.5c4 0 3-3 7-3z" fill="#fff" opacity=".15"/>
 <path d="m24 13c-4 0-3 3-7 3h-10.5c-1.3706 0-2.5 1.1294-2.5 2.5v1c0-1.3706 1.1294-2.5 2.5-2.5h10.5c4 0 3-3 7-3h17.5c1.3706 0 2.5 1.1294 2.5 2.5v-1c0-1.3706-1.1294-2.5-2.5-2.5h-17.5z" style="fill:#fff;opacity:.2"/>
 <path d="m6.5 8c-1.3706 0-2.5 1.1294-2.5 2.5v8c0-1.3706 1.1294-2.5 2.5-2.5h10.5c4 0 3-3 7-3h17.5c1.3706 0 2.5 1.1294 2.5 2.5v-2c0-1.3706-1.1294-2.5-2.5-2.5h-17.5c-3 0-3-3-7-3z" style="fill:#808080;opacity:.2"/>
 <path d="m24 12c-4 0-3 3-7 3h-10.5c-1.3706 0-2.5 1.1294-2.5 2.5v1c0-1.3706 1.1294-2.5 2.5-2.5h10.5c4 0 3-3 7-3h17.5c1.3706 0 2.5 1.1294 2.5 2.5v-1c0-1.3706-1.1294-2.5-2.5-2.5z" style="opacity:.2"/>
 <path d="m6.5 7c-1.3706 0-2.5 1.1294-2.5 2.5v1c0-1.3706 1.1294-2.5 2.5-2.5h10.5c4 0 4 3 7 3-3 0-3-4-7-4h-10.5z" style="fill:#fff;opacity:.2"/>
 <path d="m31 18-13 2v11.17c-0.3126-0.10984-0.64893-0.16992-1-0.16992-1.662 0-3 1.338-3 3s1.338 3 3 3 3-1.338 3-3v-10.309l9-1.3848v6.8633c-0.3126-0.10984-0.64893-0.16992-1-0.16992-1.662 0-3 1.338-3 3s1.338 3 3 3 3-1.338 3-3v-10z" style="opacity:.2"/>
 <path d="m31.5 16.418-0.57617 0.08789-13.424 2.0645v4.4297 6.584c-0.16837-0.024811-0.32503-0.083984-0.5-0.083984-1.9303 0-3.5 1.5697-3.5 3.5s1.5697 3.5 3.5 3.5 3.5-1.5697 3.5-3.5v-9.8789l8-1.2324v5.6953c-0.16837-0.024811-0.32503-0.083984-0.5-0.083984-1.9303 0-3.5 1.5697-3.5 3.5s1.5697 3.5 3.5 3.5 3.5-1.5697 3.5-3.5v-10-4.582z" style="opacity:.2"/>
 <path d="m31 17-13 2v4 7.1699c-0.3126-0.10984-0.64893-0.16992-1-0.16992-1.662 0-3 1.338-3 3s1.338 3 3 3 3-1.338 3-3v-10.309l9-1.3848v6.8633c-0.3126-0.10984-0.64893-0.16992-1-0.16992-1.662 0-3 1.338-3 3s1.338 3 3 3 3-1.338 3-3v-10-4z" style="fill:#fff"/>
</svg>
