<?xml version="1.0" encoding="UTF-8" standalone="no"?>
<svg
   width="64"
   height="64"
   version="1"
   id="svg14"
   sodipodi:docname="folder-music.svg"
   inkscape:version="1.1.1 (3bf5ae0d25, 2021-09-20, custom)"
   xmlns:inkscape="http://www.inkscape.org/namespaces/inkscape"
   xmlns:sodipodi="http://sodipodi.sourceforge.net/DTD/sodipodi-0.dtd"
   xmlns:xlink="http://www.w3.org/1999/xlink"
   xmlns="http://www.w3.org/2000/svg"
   xmlns:svg="http://www.w3.org/2000/svg">
  <defs
     id="defs18">
    <linearGradient
       inkscape:collect="always"
       id="linearGradient3630">
      <stop
         style="stop-color:#80d9ab;stop-opacity:1;"
         offset="0"
         id="stop3626" />
      <stop
         style="stop-color:#2fa2b8;stop-opacity:1"
         offset="1"
         id="stop3628" />
    </linearGradient>
    <linearGradient
       inkscape:collect="always"
       xlink:href="#linearGradient3630"
       id="linearGradient1040"
       x1="4"
       y1="8"
       x2="33"
       y2="55"
       gradientUnits="userSpaceOnUse" />
  </defs>
  <sodipodi:namedview
     id="namedview16"
     pagecolor="#ffffff"
     bordercolor="#666666"
     borderopacity="1.0"
     inkscape:pageshadow="2"
     inkscape:pageopacity="0.0"
     inkscape:pagecheckerboard="0"
     showgrid="true"
     inkscape:zoom="6.607029"
     inkscape:cx="21.416585"
     inkscape:cy="26.259912"
     inkscape:window-width="1440"
     inkscape:window-height="823"
     inkscape:window-x="0"
     inkscape:window-y="768"
     inkscape:window-maximized="1"
     inkscape:current-layer="svg14"
     inkscape:snap-global="true"
     inkscape:snap-bbox="true"
     inkscape:snap-bbox-edge-midpoints="true"
     inkscape:bbox-nodes="true"
     inkscape:snap-smooth-nodes="true">
    <inkscape:grid
       type="xygrid"
       id="grid835" />
  </sodipodi:namedview>
  <rect
     x="4"
     y="43"
     width="56"
     height="9"
     rx="2.8"
     ry="2.8"
     opacity="0.2"
     id="rect2" />
  <path
     id="path4"
     d="M 6.8007812,8 C 5.2495813,8 4,9.2495819 4,10.800781 V 48.199219 C 4,49.750419 5.2495813,51 6.8007812,51 H 57.199219 C 58.750419,51 60,49.750419 60,48.199219 V 15.800781 C 60,14.249581 58.750419,13 57.199219,13 H 35 C 28,13 29,8 23,8 Z"
     sodipodi:nodetypes="sssssssssss"
     style="fill:url(#linearGradient1040);fill-opacity:1" />
  <path
     id="path4-3"
     style="opacity:0.15;fill:#ffffff;fill-opacity:1"
     d="m 34,16 c -6,0 -6,5 -10,5 H 6.800781 C 5.2495811,21 3.9999998,22.249581 3.9999998,23.800781 V 48.199219 C 3.9999998,49.750419 5.2495811,51 6.800781,51 H 57.199219 C 58.750419,51 60,49.750419 60,48.199219 V 18.800781 C 60,17.249582 58.750419,16 57.199219,16 Z"
     sodipodi:nodetypes="sssssssssss" />
  <path
     id="path5525"
     style="opacity:0.2;fill:#ffffff;fill-opacity:1"
     d="m 34,16 c -6,0 -6,5 -10,5 H 6.8007812 C 5.2495814,21 4,22.249581 4,23.800781 v 1 C 4,23.249581 5.2495814,22 6.8007812,22 H 24 c 4,0 4,-5 10,-5 H 57.199219 C 58.750419,17 60,18.249582 60,19.800781 v -1 C 60,17.249582 58.750419,16 57.199219,16 Z"
     sodipodi:nodetypes="sssscsssscsss" />
  <path
     id="path5548"
     d="m 34,15 c -6,0 -6,5 -10,5 H 6.8007812 C 5.2495814,20 4,21.249581 4,22.800781 v 1 C 4,22.249581 5.2495814,21 6.8007812,21 H 24 c 4,0 4,-5 10,-5 H 57.199219 C 58.750419,16 60,17.249582 60,18.800781 v -1 C 60,16.249582 58.750419,15 57.199219,15 Z"
     style="opacity:0.2"
     sodipodi:nodetypes="sssscsssscsss" />
  <path
     id="path4-60"
     style="opacity:0.2;fill:#808080;fill-opacity:1"
     d="M 6.8007812,9 C 5.2495813,9 4,10.249582 4,11.800781 v 12 C 4,22.249581 5.2495815,21 6.8007812,21 H 24 c 4,0 4,-5 10,-5 H 57.199219 C 58.750419,16 60,17.249582 60,18.800781 v -2 C 60,15.249581 58.750419,14 57.199219,14 H 35 C 28,14 29,9 23,9 Z"
     sodipodi:nodetypes="sscsssscsssss" />
  <path
     id="path9972"
     style="opacity:0.2;fill:#ffffff;fill-opacity:1"
     d="M 6.8007812 8 C 5.2495813 8 4 9.2495825 4 10.800781 L 4 11.800781 C 4 10.249582 5.2495813 9 6.8007812 9 L 23 9 C 29 9 28 14 35 14 L 57.199219 14 C 58.750419 14 60 15.249581 60 16.800781 L 60 15.800781 C 60 14.249581 58.750419 13 57.199219 13 L 35 13 C 28 13 29 8 23 8 L 6.8007812 8 z " />
  <path
     id="path7570"
     d="m 41.380902,23.256233 -16.199218,2.558594 a 1.40014,1.40014 0 0 0 -1.181641,1.382813 v 3.802734 10.402344 c -0.778802,-0.158946 -1.598121,-0.133941 -2.404297,0.07031 a 1.40014,1.40014 0 0 0 -0.0059,0.002 c -2.401126,0.618352 -4.032844,2.568268 -3.498047,4.654297 0.533947,2.087735 2.905711,3.015152 5.3125,2.398438 2.146497,-0.55029 3.659841,-2.098227 3.59375,-4.027344 l -0.04687,-1.351562 a 1.40014,1.40014 0 0 0 0.04886,-0.04887 V 30.525765 l 13,-2.050782 v 10.927735 c -0.365486,-0.07529 -0.74231,-0.109554 -1.125,-0.103516 a 1.40014,1.40014 0 0 0 -0.0059,0 c -0.427673,0.0084 -0.854829,0.0671 -1.273438,0.173828 a 1.40014,1.40014 0 0 0 -0.002,0.002 c -2.402374,0.617583 -4.036916,2.56762 -3.501953,4.654297 0.533947,2.087735 2.905711,3.015152 5.3125,2.398438 2.146497,-0.55029 3.659841,-2.098227 3.59375,-4.027344 l -0.04687,-1.351562 a 1.40014,1.40014 0 0 0 0.04891,-0.04888 V 24.639046 a 1.40014,1.40014 0 0 0 -1.619141,-1.382813 z"
     style="opacity:0.2" />
  <path
     id="path7612"
     d="m 41.515668,21.740234 c -0.07057,0.0031 -0.141378,0.01016 -0.212891,0.02148 l -16.199218,2.558593 c -0.919909,0.145338 -1.603401,0.945635 -1.603516,1.876954 V 30 39.929688 c -0.672324,-0.06363 -1.352113,-0.112479 -2.027344,0.05859 l -0.0078,0.002 c -1.296992,0.334009 -2.399211,1.02822 -3.119141,1.955078 -0.719929,0.92686 -1.045365,2.110781 -0.738281,3.308594 0.30699,1.197926 1.162375,2.080363 2.240234,2.546875 1.078388,0.466741 2.381612,0.544056 3.681641,0.210938 2.310224,-0.592264 4.044097,-2.330003 3.96875,-4.529297 l -0.03906,-1.140625 0.04102,-0.04297 V 29.953125 l 12,-1.892578 v 9.796875 c -0.2078,-0.01965 -0.412205,-0.06157 -0.623047,-0.05859 h -0.0098 -0.0039 -0.0039 c -0.466862,0.0092 -0.931735,0.07345 -1.386719,0.189453 l -0.0039,0.002 -0.128906,0.03125 -0.04102,0.04102 c -1.217528,0.350096 -2.266763,0.998358 -2.953125,1.880859 -0.720833,0.926824 -1.045489,2.112251 -0.738281,3.310547 0.30699,1.197926 1.162375,2.080363 2.240234,2.546875 1.078388,0.466741 2.381612,0.544056 3.681641,0.210938 2.310224,-0.592264 4.044097,-2.330003 3.96875,-4.529297 l -0.03906,-1.140625 0.04102,-0.04297 v -16.66021 c -7.2e-5,-1.086057 -0.925897,-1.944656 -1.984375,-1.898438 z"
     style="opacity:0.2" />
  <path
     id="path7104"
     d="m 41.380902,22.255859 -16.199218,2.558594 a 1.40014,1.40014 0 0 0 -1.181641,1.382813 V 30 40.402344 c -0.778802,-0.158946 -1.598121,-0.133941 -2.404297,0.07031 a 1.40014,1.40014 0 0 0 -0.0059,0.002 c -2.401126,0.618352 -4.032844,2.568268 -3.498047,4.654297 0.533947,2.087735 2.905711,3.015152 5.3125,2.398438 2.146497,-0.55029 3.659841,-2.098227 3.59375,-4.027344 l -0.04687,-1.351562 a 1.40014,1.40014 0 0 0 0.04883,-0.04883 V 29.525391 l 13,-2.050782 v 10.927735 c -0.365486,-0.07529 -0.74231,-0.109554 -1.125,-0.103516 a 1.40014,1.40014 0 0 0 -0.0059,0 c -0.427673,0.0084 -0.854829,0.0671 -1.273438,0.173828 a 1.40014,1.40014 0 0 0 -0.002,0.002 c -2.402374,0.617583 -4.036916,2.56762 -3.501953,4.654297 0.533947,2.087735 2.905711,3.015152 5.3125,2.398438 2.146497,-0.55029 3.659841,-2.098227 3.59375,-4.027344 l -0.04687,-1.351562 a 1.40014,1.40014 0 0 0 0.04883,-0.04883 V 23.638672 a 1.40014,1.40014 0 0 0 -1.619141,-1.382813 z"
     style="fill:#ffffff;fill-opacity:1" />
</svg>
