<?xml version="1.0" encoding="UTF-8" standalone="no"?>
<svg
   width="48"
   height="48"
   version="1"
   id="svg14"
   sodipodi:docname="folder-music.svg"
   inkscape:version="1.1.1 (3bf5ae0d25, 2021-09-20, custom)"
   xmlns:inkscape="http://www.inkscape.org/namespaces/inkscape"
   xmlns:sodipodi="http://sodipodi.sourceforge.net/DTD/sodipodi-0.dtd"
   xmlns:xlink="http://www.w3.org/1999/xlink"
   xmlns="http://www.w3.org/2000/svg"
   xmlns:svg="http://www.w3.org/2000/svg">
  <defs
     id="defs18">
    <linearGradient
       inkscape:collect="always"
       id="linearGradient3630">
      <stop
         style="stop-color:#80d9ab;stop-opacity:1;"
         offset="0"
         id="stop3626" />
      <stop
         style="stop-color:#2fa2b8;stop-opacity:1"
         offset="1"
         id="stop3628" />
    </linearGradient>
    <linearGradient
       inkscape:collect="always"
       xlink:href="#linearGradient3630"
       id="linearGradient1031"
       x1="4"
       y1="7"
       x2="25"
       y2="39"
       gradientUnits="userSpaceOnUse" />
  </defs>
  <sodipodi:namedview
     id="namedview16"
     pagecolor="#ffffff"
     bordercolor="#666666"
     borderopacity="1.0"
     inkscape:pageshadow="2"
     inkscape:pageopacity="0.0"
     inkscape:pagecheckerboard="0"
     showgrid="true"
     inkscape:zoom="4.4046859"
     inkscape:cx="0.11351547"
     inkscape:cy="21.227393"
     inkscape:window-width="1440"
     inkscape:window-height="823"
     inkscape:window-x="0"
     inkscape:window-y="768"
     inkscape:window-maximized="1"
     inkscape:current-layer="svg14"
     inkscape:snap-smooth-nodes="true"
     inkscape:snap-global="true">
    <inkscape:grid
       type="xygrid"
       id="grid835" />
    <inkscape:grid
       type="xygrid"
       id="grid6060"
       spacingx="0.5"
       spacingy="0.5"
       enabled="false" />
  </sodipodi:namedview>
  <rect
     x="4"
     y="31"
     width="40"
     height="9"
     rx="2.5"
     ry="2.5"
     opacity="0.2"
     id="rect2" />
  <path
     d="M 6.5,7 C 5.129375,7 4,8.1294125 4,9.5 v 27 C 4,37.870625 5.1294125,39 6.5,39 l 35,0 c 1.370625,0 2.5,-1.129413 2.5,-2.5 v -23 C 44,12.129375 42.870587,11 41.5,11 H 24 C 21,11 21,7 17,7 Z"
     id="path4"
     sodipodi:nodetypes="sssssssssss"
     style="fill-opacity:1;fill:url(#linearGradient1031)" />
  <g
     id="g7909">
    <path
       d="m 41.5,13 c 1.370625,0 2.5,1.129413 2.5,2.5 v 21 C 44,37.870625 42.870587,39 41.5,39 H 6.5 C 5.129375,39 4,37.870587 4,36.5 v -18 C 4,17.129375 5.1294125,16 6.5,16 H 17 c 4,0 3,-3 7,-3 z"
       fill="#ffffff"
       opacity="0.15"
       id="path10"
       sodipodi:nodetypes="sssssssssss" />
    <path
       id="path6655"
       d="M 24 13 C 20 13 21 16 17 16 L 6.5 16 C 5.1294125 16 4 17.129375 4 18.5 L 4 19.5 C 4 18.129375 5.1294125 17 6.5 17 L 17 17 C 21 17 20 14 24 14 L 41.5 14 C 42.870625 14 44 15.129413 44 16.5 L 44 15.5 C 44 14.129413 42.870625 13 41.5 13 L 24 13 z "
       style="fill:#ffffff;fill-opacity:1;opacity:0.2" />
    <path
       id="path4-6"
       style="opacity:0.2;fill:#808080;fill-opacity:1"
       d="M 6.5,8 C 5.129375,8 4,9.1294125 4,10.5 v 8 C 4,17.129375 5.1294125,16 6.5,16 H 17 c 4,0 3,-3 7,-3 h 17.5 c 1.370625,0 2.5,1.129413 2.5,2.5 v -2 C 44,12.129375 42.870587,11 41.5,11 H 24 C 21,11 21,8 17,8 Z"
       sodipodi:nodetypes="sscsssscsssss" />
    <path
       id="path6945"
       d="m 24,12 c -4,0 -3,3 -7,3 H 6.5 C 5.1294125,15 4,16.129375 4,17.5 v 1 C 4,17.129375 5.1294125,16 6.5,16 H 17 c 4,0 3,-3 7,-3 h 17.5 c 1.370625,0 2.5,1.129413 2.5,2.5 v -1 C 44,13.129413 42.870625,12 41.5,12 Z"
       style="opacity:0.2" />
    <path
       id="path7106"
       style="opacity:0.2;fill:#ffffff;fill-opacity:1"
       d="M 6.5 7 C 5.129375 7 4 8.1294125 4 9.5 L 4 10.5 C 4 9.1294125 5.129375 8 6.5 8 L 17 8 C 21 8 21 11 24 11 C 21 11 21 7 17 7 L 6.5 7 z " />
  </g>
  <g
     id="path3803">
    <path
       id="path4248"
       d="M -3.5,16.417969 -4.076172,16.505859 -17.5,18.570312 V 29.722656 C -17.830439,29.635147 -18.14307,29.5 -18.5,29.5 c -2.207349,0 -4,1.792651 -4,4 0,2.207349 1.792651,4 4,4 2.207349,0 4,-1.792651 4,-4 V 23.121094 l 8,-1.230469 v 5.832031 C -6.830439,27.635147 -7.14307,27.5 -7.5,27.5 c -2.207349,0 -4,1.792651 -4,4 0,2.207349 1.792651,4 4,4 2.207349,0 4,-1.792651 4,-4 z"
       style="opacity:0.2" />
    <path
       style="color:#000000;fill:#ffffff;-inkscape-stroke:none"
       d="m -4,17 -13,2 V 30.333984 C -17.454237,30.119247 -17.962455,30 -18.5,30 c -1.939,0 -3.5,1.561 -3.5,3.5 0,1.939 1.561,3.5 3.5,3.5 1.939,0 3.5,-1.561 3.5,-3.5 V 22.691406 l 9,-1.382812 v 7.02539 C -6.454237,28.119247 -6.962455,28 -7.5,28 c -1.939,0 -3.5,1.561 -3.5,3.5 0,1.939 1.561,3.5 3.5,3.5 1.939,0 3.5,-1.561 3.5,-3.5 z"
       id="path4250" />
  </g>
  <path
     id="path4246"
     d="m -4,18 -13,2 V 31.333984 C -17.454237,31.119247 -17.962455,31 -18.5,31 c -1.939,0 -3.5,1.561 -3.5,3.5 0,1.939 1.561,3.5 3.5,3.5 1.939,0 3.5,-1.561 3.5,-3.5 V 23.691406 l 9,-1.382812 v 7.02539 C -6.454237,29.119247 -6.962455,29 -7.5,29 c -1.939,0 -3.5,1.561 -3.5,3.5 0,1.939 1.561,3.5 3.5,3.5 1.939,0 3.5,-1.561 3.5,-3.5 z"
     sodipodi:nodetypes="cccsssscccssssc"
     style="opacity:0.2" />
  <path
     id="path4951"
     d="m 31,18 -13,2 v 4 7.169922 C 17.6874,31.060077 17.351071,31 17,31 c -1.662,0 -3,1.338 -3,3 0,1.662 1.338,3 3,3 1.662,0 3,-1.338 3,-3 V 23.691406 l 9,-1.384765 v 6.863281 C 28.6874,29.060077 28.351071,29 28,29 c -1.662,0 -3,1.338 -3,3 0,1.662 1.338,3 3,3 1.662,0 3,-1.338 3,-3 V 22 Z"
     style="opacity:0.2" />
  <path
     id="path5074"
     d="M 31.5 16.417969 L 30.923828 16.505859 L 17.5 18.570312 L 17.5 23 L 17.5 29.583984 C 17.331629 29.559173 17.174968 29.5 17 29.5 C 15.069651 29.5 13.5 31.069651 13.5 33 C 13.5 34.930349 15.069651 36.5 17 36.5 C 18.930349 36.5 20.5 34.930349 20.5 33 L 20.5 23.121094 L 28.5 21.888672 L 28.5 27.583984 C 28.331629 27.559173 28.174968 27.5 28 27.5 C 26.069651 27.5 24.5 29.069651 24.5 31 C 24.5 32.930349 26.069651 34.5 28 34.5 C 29.930349 34.5 31.5 32.930349 31.5 31 L 31.5 21 L 31.5 16.417969 z "
     style="opacity:0.2" />
  <path
     id="rect1535"
     d="M 31 17 L 18 19 L 18 23 L 18 30.169922 C 17.6874 30.060077 17.351071 30 17 30 C 15.338 30 14 31.338 14 33 C 14 34.662 15.338 36 17 36 C 18.662 36 20 34.662 20 33 L 20 22.691406 L 29 21.306641 L 29 28.169922 C 28.6874 28.060077 28.351071 28 28 28 C 26.338 28 25 29.338 25 31 C 25 32.662 26.338 34 28 34 C 29.662 34 31 32.662 31 31 L 31 21 L 31 17 z "
     style="fill:#ffffff;fill-opacity:1" />
</svg>
