<?xml version="1.0" encoding="UTF-8" standalone="no"?>
<svg
   width="22"
   height="22"
   version="1"
   id="svg14"
   sodipodi:docname="folder-music.svg"
   inkscape:version="1.1.1 (3bf5ae0d25, 2021-09-20, custom)"
   xmlns:inkscape="http://www.inkscape.org/namespaces/inkscape"
   xmlns:sodipodi="http://sodipodi.sourceforge.net/DTD/sodipodi-0.dtd"
   xmlns:xlink="http://www.w3.org/1999/xlink"
   xmlns="http://www.w3.org/2000/svg"
   xmlns:svg="http://www.w3.org/2000/svg">
  <defs
     id="defs18">
    <linearGradient
       inkscape:collect="always"
       id="linearGradient3630">
      <stop
         style="stop-color:#80d9ab;stop-opacity:1;"
         offset="0"
         id="stop3626" />
      <stop
         style="stop-color:#2fa2b8;stop-opacity:1"
         offset="1"
         id="stop3628" />
    </linearGradient>
    <linearGradient
       inkscape:collect="always"
       xlink:href="#linearGradient3630"
       id="linearGradient3632"
       x1="6"
       y1="6"
       x2="22"
       y2="22"
       gradientUnits="userSpaceOnUse" />
  </defs>
  <sodipodi:namedview
     id="namedview16"
     pagecolor="#ffffff"
     bordercolor="#666666"
     borderopacity="1.0"
     inkscape:pageshadow="2"
     inkscape:pageopacity="0.0"
     inkscape:pagecheckerboard="0"
     showgrid="true"
     inkscape:snap-bbox="true"
     inkscape:bbox-nodes="true"
     inkscape:snap-grids="true"
     inkscape:snap-smooth-nodes="true"
     inkscape:object-paths="true"
     inkscape:snap-intersection-paths="true"
     inkscape:snap-midpoints="true"
     inkscape:zoom="22.627417"
     inkscape:cx="13.457126"
     inkscape:cy="13.633903"
     inkscape:window-width="1440"
     inkscape:window-height="823"
     inkscape:window-x="0"
     inkscape:window-y="768"
     inkscape:window-maximized="1"
     inkscape:current-layer="svg14">
    <inkscape:grid
       type="xygrid"
       id="grid835" />
  </sodipodi:namedview>
  <rect
     style="opacity:1;fill:url(#linearGradient3632);stroke-width:2;stroke-linecap:round;stroke-linejoin:round;paint-order:markers stroke fill;fill-opacity:1"
     id="rect1057"
     width="16"
     height="16"
     x="3"
     y="3"
     rx="8"
     ry="8" />
  <g
     id="rect3066-6">
    <path
       d="m 14.964844,5.7519531 -7.0000003,1 A 0.250025,0.250025 0 0 0 7.75,7 v 1 3.791016 C 7.665752,11.77881 7.5871679,11.75 7.5,11.75 c -0.9651747,0 -1.75,0.784825 -1.75,1.75 0,0.965175 0.7848253,1.75 1.75,1.75 0.9651747,0 1.75,-0.784825 1.75,-1.75 V 9.0742188 l 4.5,-0.6425782 V 10.791016 C 13.665752,10.77881 13.587168,10.75 13.5,10.75 c -0.965175,0 -1.75,0.784825 -1.75,1.75 0,0.965175 0.784825,1.75 1.75,1.75 0.965175,0 1.75,-0.784825 1.75,-1.75 V 8 6 A 0.250025,0.250025 0 0 0 14.964844,5.7519531 Z M 14.75,6.2890625 V 8 12.5 c 0,0.696824 -0.553176,1.25 -1.25,1.25 -0.696824,0 -1.25,-0.553176 -1.25,-1.25 0,-0.696824 0.553176,-1.25 1.25,-1.25 0.147517,0 0.288715,0.02496 0.417969,0.07031 A 0.250025,0.250025 0 0 0 14.25,11.083984 V 8.1425781 A 0.250025,0.250025 0 0 0 13.964844,7.8945312 L 8.9648438,8.609375 A 0.250025,0.250025 0 0 0 8.75,8.8574219 V 13.5 c 0,0.696824 -0.5531764,1.25 -1.25,1.25 -0.6968236,0 -1.25,-0.553176 -1.25,-1.25 0,-0.696824 0.5531764,-1.25 1.25,-1.25 0.1475167,0 0.2887147,0.02496 0.4179687,0.07031 A 0.250025,0.250025 0 0 0 8.25,12.083984 V 8 7.2167969 Z"
       id="path5310"
       style="opacity:0.2" />
    <path
       style="color:#000000;fill:#ffffff;stroke-width:0.5;stroke-linecap:round;stroke-linejoin:round;-inkscape-stroke:none;paint-order:markers stroke fill"
       d="M 15,6 8,7 v 1 4.083984 C 7.8438857,12.029209 7.6752891,12 7.5,12 6.669,12 6,12.669 6,13.5 6,14.331 6.669,15 7.5,15 8.331,15 9,14.331 9,13.5 V 8.8574219 L 14,8.1425781 V 11.083984 C 13.843886,11.029209 13.675289,11 13.5,11 12.669,11 12,11.669 12,12.5 12,13.331 12.669,14 13.5,14 14.331,14 15,13.331 15,12.5 V 8 Z"
       id="path5312" />
  </g>
</svg>
