<?xml version="1.0" encoding="UTF-8" standalone="no"?>
<svg
   xmlns:dc="http://purl.org/dc/elements/1.1/"
   xmlns:cc="http://creativecommons.org/ns#"
   xmlns:rdf="http://www.w3.org/1999/02/22-rdf-syntax-ns#"
   xmlns:svg="http://www.w3.org/2000/svg"
   xmlns="http://www.w3.org/2000/svg"
   xmlns:sodipodi="http://sodipodi.sourceforge.net/DTD/sodipodi-0.dtd"
   xmlns:inkscape="http://www.inkscape.org/namespaces/inkscape"
   version="1.1"
   viewBox="0 0 22 22"
   id="svg7"
   sodipodi:docname="edit-paste.svg"
   inkscape:version="1.0 (1.0+r73+1)">
  <metadata
     id="metadata11">
    <rdf:RDF>
      <cc:Work
         rdf:about="">
        <dc:format>image/svg+xml</dc:format>
        <dc:type
           rdf:resource="http://purl.org/dc/dcmitype/StillImage" />
      </cc:Work>
    </rdf:RDF>
  </metadata>
  <sodipodi:namedview
     showguides="false"
     inkscape:document-rotation="0"
     pagecolor="#ffffff"
     bordercolor="#666666"
     borderopacity="1"
     objecttolerance="10"
     gridtolerance="10"
     guidetolerance="10"
     inkscape:pageopacity="0"
     inkscape:pageshadow="2"
     inkscape:window-width="1920"
     inkscape:window-height="993"
     id="namedview9"
     showgrid="true"
     inkscape:zoom="45.254834"
     inkscape:cx="11.721137"
     inkscape:cy="10.373271"
     inkscape:window-x="0"
     inkscape:window-y="0"
     inkscape:window-maximized="1"
     inkscape:current-layer="svg7">
    <inkscape:grid
       type="xygrid"
       id="grid836" />
  </sodipodi:namedview>
  <defs
     id="defs3">
    <style
       id="current-color-scheme"
       type="text/css">.ColorScheme-Text {
        color:#363636;
      }
.ColorScheme-Highlight {
	color:#3daeff;
}
.ColorScheme-Background {
	color:#f3f3f3;
}</style>
  </defs>
  <path
     id="rect899-7-2"
     style="opacity:1;fill:currentColor"
     d="m 12.999905,7.9999932 c -1.107968,0 -2.000012,0.8919685 -2.000012,1.9999752 v 7.0000246 c 0,1.108006 0.892044,1.999975 2.000012,1.999975 h 3.999988 c 1.108006,0 2.000012,-0.891969 2.000012,-1.999975 V 9.9999684 c 0,-1.1080067 -0.892006,-1.9999752 -2.000012,-1.9999752 z m 0,0.9999874 h 3.999988 c 0.554041,0 1.000025,0.4459848 1.000025,0.9999878 v 7.0000246 c 0,0.554041 -0.445984,0.999987 -1.000025,0.999987 h -3.999988 c -0.554041,0 -0.999987,-0.445946 -0.999987,-0.999987 V 9.9999684 c 0,-0.554003 0.445946,-0.9999878 0.999987,-0.9999878 z"
     class="ColorScheme-Highlight" />
  <path
     d="M 9.5,4 C 9.223,4 9,4.22296 9,4.5 9,4.777 9.22296,5 9.5,5 h 3 C 12.777,5 13,4.77704 13,4.5 13,4.22296 12.77704,4 12.5,4 Z M 7,5 C 6.5845,5 6.2295312,5.2502188 6.078125,5.609375 6.0276562,5.7290938 6,5.8615 6,6 v 11 c 0,0.55404 0.446,1 1,1 H 9.5 L 10,18.5 10,10 C 10,8.338 11.338,7 13,7 L 16.5,7 16,6.5 V 6 C 16,5.8615 15.972344,5.7290937 15.921875,5.609375 15.770469,5.2502187 15.4155,5 15,5 h -1 c 0,0.554 -0.446,1 -1,1 H 9 C 8.44603,6 8,5.554 8,5 Z m 6,4 c -0.554,0 -1,0.446 -1,1 v 7 c 0,0.554 0.446,1 1,1 h 4 c 0.554,0 1,-0.446 1,-1 V 10 C 18,9.446 17.554,9 17,9 Z"
     style="fill:currentColor;stroke-width:8;stroke-linejoin:round;opacity:0.5"
     id="rect851"
     sodipodi:nodetypes="ssssssssssssccssccssscsscssssssssss"
     class="ColorScheme-Background" />
  <path
     sodipodi:nodetypes="scssssssssssscsscssssssscsssssssss"
     d="m 8.9999389,2.9999923 c -0.55397,0 -1,0.446 -1,1 h -1 c -1.10797,0 -2,0.89203 -2,2 V 16.999992 c 0,1.10801 0.89203,2 2,2 h 2.5 c 0.27614,0 0.5,-0.22386 0.5,-0.5 0,-0.27614 -0.22386,-0.5 -0.5,-0.5 h -2.5 c -0.554,0 -1,-0.44596 -1,-1 V 5.9999923 c 0,-0.554 0.446,-1 1,-1 h 1 c 0,0.554 0.44603,1 1,1 h 4.0000001 c 0.554,0 1,-0.446 1,-1 h 1 c 0.554,0 1,0.446 1,1 v 0.5 c 0,0.27614 0.22386,0.5 0.5,0.5 0.27614,0 0.5,-0.22386 0.5,-0.5 v -0.5 c 0,-1.10797 -0.89203,-2 -2,-2 h -1 c 0,-0.554 -0.446,-1 -1,-1 z m 0.5,1 h 3.0000001 c 0.27704,0 0.5,0.22296 0.5,0.5 0,0.27704 -0.223,0.5 -0.5,0.5 H 9.4999389 c -0.27704,0 -0.5,-0.223 -0.5,-0.5 0,-0.27704 0.223,-0.5 0.5,-0.5 z"
     style="opacity:1;fill:currentColor"
     id="rect904-5-9"
     class="ColorScheme-Text" />
</svg>
