<?xml version="1.0" encoding="UTF-8" standalone="no"?>
<svg
   xmlns:dc="http://purl.org/dc/elements/1.1/"
   xmlns:cc="http://creativecommons.org/ns#"
   xmlns:rdf="http://www.w3.org/1999/02/22-rdf-syntax-ns#"
   xmlns:svg="http://www.w3.org/2000/svg"
   xmlns="http://www.w3.org/2000/svg"
   xmlns:sodipodi="http://sodipodi.sourceforge.net/DTD/sodipodi-0.dtd"
   xmlns:inkscape="http://www.inkscape.org/namespaces/inkscape"
   viewBox="0 0 22 22"
   version="1.1"
   id="svg6"
   sodipodi:docname="go-previous.svg"
   inkscape:version="1.0 (1.0+r73+1)">
  <metadata
     id="metadata10">
    <rdf:RDF>
      <cc:Work
         rdf:about="">
        <dc:format>image/svg+xml</dc:format>
        <dc:type
           rdf:resource="http://purl.org/dc/dcmitype/StillImage" />
      </cc:Work>
    </rdf:RDF>
  </metadata>
  <sodipodi:namedview
     inkscape:snap-smooth-nodes="true"
     inkscape:document-rotation="0"
     pagecolor="#ffffff"
     bordercolor="#666666"
     borderopacity="1"
     objecttolerance="10"
     gridtolerance="10"
     guidetolerance="10"
     inkscape:pageopacity="0"
     inkscape:pageshadow="2"
     inkscape:window-width="1920"
     inkscape:window-height="1003"
     id="namedview8"
     showgrid="true"
     inkscape:zoom="32.499999"
     inkscape:cx="14.473228"
     inkscape:cy="11.022034"
     inkscape:window-x="0"
     inkscape:window-y="0"
     inkscape:window-maximized="1"
     inkscape:current-layer="svg6">
    <inkscape:grid
       type="xygrid"
       id="grid835" />
  </sodipodi:namedview>
  <defs
     id="defs3051">
    <style
       type="text/css"
       id="current-color-scheme">
      .ColorScheme-Text {
        color:#363636;
      }
      </style>
  </defs>
  <path
     sodipodi:nodetypes="ccccssscccccccc"
     class="ColorScheme-Text"
     d="m 10.982422,4.0507812 c 0.282976,-0.00544 0.553643,0.1155693 0.738281,0.3300782 0.342016,0.3980089 0.296541,0.9979369 -0.101562,1.3398437 L 6.626953,10 H 18 c 0.552285,0 1,0.447715 1,1 0,0.552285 -0.447715,1 -1,1 H 6.626953 l 4.992188,4.279297 c 0.398103,0.341907 0.443578,0.941835 0.101562,1.339844 -0.341907,0.398103 -0.941835,0.443578 -1.339844,0.101562 l -7,-6 c -0.4413451,-0.379117 -0.4413451,-1.062289 0,-1.441406 l 7,-6.0000001 c 0.167831,-0.1438342 0.380564,-0.224645 0.601563,-0.2285157 z"
     style="fill:currentColor"
     id="path849" />
</svg>
