<?xml version="1.0" encoding="UTF-8" standalone="no"?>
<svg
   xmlns:dc="http://purl.org/dc/elements/1.1/"
   xmlns:cc="http://creativecommons.org/ns#"
   xmlns:rdf="http://www.w3.org/1999/02/22-rdf-syntax-ns#"
   xmlns:svg="http://www.w3.org/2000/svg"
   xmlns="http://www.w3.org/2000/svg"
   xmlns:sodipodi="http://sodipodi.sourceforge.net/DTD/sodipodi-0.dtd"
   xmlns:inkscape="http://www.inkscape.org/namespaces/inkscape"
   inkscape:version="1.0 (1.0+r73+1)"
   sodipodi:docname="go-up.svg"
   id="svg6"
   version="1.1"
   viewBox="0 0 22 22">
  <metadata
     id="metadata10">
    <rdf:RDF>
      <cc:Work
         rdf:about="">
        <dc:format>image/svg+xml</dc:format>
        <dc:type
           rdf:resource="http://purl.org/dc/dcmitype/StillImage" />
      </cc:Work>
    </rdf:RDF>
  </metadata>
  <sodipodi:namedview
     inkscape:snap-smooth-nodes="true"
     inkscape:current-layer="svg6"
     inkscape:window-maximized="1"
     inkscape:window-y="0"
     inkscape:window-x="0"
     inkscape:cy="11"
     inkscape:cx="11"
     inkscape:zoom="32.5"
     showgrid="true"
     id="namedview8"
     inkscape:window-height="1003"
     inkscape:window-width="1920"
     inkscape:pageshadow="2"
     inkscape:pageopacity="0"
     guidetolerance="10"
     gridtolerance="10"
     objecttolerance="10"
     borderopacity="1"
     bordercolor="#666666"
     pagecolor="#ffffff"
     inkscape:document-rotation="0">
    <inkscape:grid
       id="grid835"
       type="xygrid" />
  </sodipodi:namedview>
  <defs
     id="defs3051">
    <style
       id="current-color-scheme"
       type="text/css">
      .ColorScheme-Text {
        color:#363636;
      }
      </style>
  </defs>
  <path
     sodipodi:nodetypes="ccccssscccccccc"
     id="path849"
     style="fill:currentColor"
     d="m 4.0507813,10.982422 c -0.00544,0.282976 0.1155693,0.553643 0.3300782,0.738281 0.3980088,0.342016 0.9979364,0.296541 1.3398432,-0.101562 L 9.9999997,6.626953 V 18 c 0,0.552285 0.4477153,1 1.0000003,1 0.552285,0 1,-0.447715 1,-1 V 6.626953 l 4.279297,4.992188 c 0.341907,0.398103 0.941835,0.443578 1.339844,0.101562 0.398103,-0.341907 0.443578,-0.941835 0.101562,-1.339844 l -6,-7 c -0.379117,-0.4413451 -1.062289,-0.4413451 -1.441406,0 l -6,7 C 4.1354628,10.54869 4.054652,10.761423 4.0507813,10.982422 Z"
     class="ColorScheme-Text" />
</svg>
