<svg width="22" height="22" version="1" xmlns="http://www.w3.org/2000/svg">
 <defs>
  <style id="current-color-scheme" type="text/css">.ColorScheme-Text {
            color:#31363b;
        }
        .ColorScheme-Background {
        color:#eff0f1;
        }
        .ColorScheme-Highlight {
        color:#3daeff;
        }</style>
 </defs>
 <path d="m1 4.5v14c0 1.108 0.892 2 2 2h17c0.554 0 1-0.446 1-1v-15z" style="opacity:.2"/>
 <path class="ColorScheme-Text" d="m1 4v14c0 1.108 0.892 2 2 2h16c1.108 0 2-0.892 2-2v-14z" style="fill:currentColor"/>
 <path class="ColorScheme-Highlight" d="m1 4v14c0 1.108 0.892 2 2 2h17c0.554 0 1-0.446 1-1v-15z" style="fill:currentColor;opacity:.4"/>
 <path d="m8 1.5a1 1 0 0 0-1 1v3.5254c0.012912 0.25637 0.21824 0.4617 0.47461 0.47461h0.050781c0.25637-0.012912 0.4617-0.21824 0.47461-0.47461v-3.5254h6v3.5254c0.012912 0.25637 0.21824 0.4617 0.47461 0.47461h0.05078c0.25637-0.012912 0.4617-0.21824 0.47461-0.47461v-3.5254a1 1 0 0 0-1-1z" style="opacity:.2"/>
 <path class="ColorScheme-Highlight" d="m8 1a1 1 0 0 0-1 1v3.5254c0.012912 0.25637 0.21824 0.4617 0.47461 0.47461h0.050781c0.25637-0.012912 0.4617-0.21824 0.47461-0.47461v-3.5254h6v3.5254c0.012912 0.25637 0.21824 0.4617 0.47461 0.47461h0.050782c0.25637-0.012912 0.4617-0.21824 0.47461-0.47461v-3.5254a1 1 0 0 0-1-1h-6z" style="fill:currentColor"/>
 <path class="ColorScheme-Text" d="m8 1a1 1 0 0 0-1 1v3.5254c0.012912 0.25637 0.21824 0.4617 0.47461 0.47461h0.050781c0.25637-0.012912 0.4617-0.21824 0.47461-0.47461v-3.5254h6v3.5254c0.012912 0.25637 0.21824 0.4617 0.47461 0.47461h0.050782c0.25637-0.012912 0.4617-0.21824 0.47461-0.47461v-3.5254a1 1 0 0 0-1-1h-6z" style="fill:currentColor;opacity:.15"/>
 <circle class="ColorScheme-Background" cx="16" cy="16" r="6" style="fill:currentColor"/>
 <circle class="ColorScheme-Highlight" cx="16" cy="16" r="6" style="fill:currentColor;opacity:.5"/>
 <path class="ColorScheme-Text" d="m15 12v2.9844h-2l3 4.0156 3-3.9844h-2v-3.0156h-1-1zm1 7h-3v1h6v-1h-3z" style="fill:currentColor"/>
 <path class="ColorScheme-Highlight" d="m15 12v2.9844h-2l3 4.0156 3-3.9844h-2v-3.0156h-1-1zm1 7h-3v1h6v-1h-3z" style="fill:currentColor;opacity:.15"/>
 <path d="m8 1a1 1 0 0 0-1 1v0.5a1 1 0 0 1 1-1h6a1 1 0 0 1 1 1v-0.5a1 1 0 0 0-1-1h-6zm-7 3v0.5h6v-0.5h-6zm7 0v0.5h6v-0.5h-6zm7 0v0.5h6v-0.5h-6z" style="fill:#fff;opacity:.1"/>
</svg>
