<svg width="32" height="32" version="1" xmlns="http://www.w3.org/2000/svg">
 <defs>
  <style id="current-color-scheme" type="text/css">.ColorScheme-Highlight { color:#3daee9; } .ColorScheme-Text { color:#363636; } .ColorScheme-Background { color:#eff0f1; }</style>
 </defs>
 <path d="m2 8v18c0 1.108 0.892 2 2 2h24c1.108 0 2-0.892 2-2v-18z" style="opacity:.2"/>
 <path class="ColorScheme-Text" d="m2 6v19c0 1.108 0.892 2 2 2h24c1.108 0 2-0.892 2-2v-19z" style="fill:currentColor"/>
 <path class="ColorScheme-Highlight" d="m2 6v19c0 1.108 0.892 2 2 2h24c1.108 0 2-0.892 2-2v-19z" style="fill:currentColor;opacity:.4"/>
 <rect x="2" y="6" width="28" height="1" style="fill:#fff;opacity:.1;paint-order:markers stroke fill;stroke-linecap:round;stroke-linejoin:round;stroke-width:2"/>
 <g transform="matrix(1.1667,0,0,1.1667,6.3333,4.3333)">
  <g transform="matrix(1.0714,0,0,1.0714,-1.5714,-1.5714)">
   <circle cx="16" cy="16.8" r="6" style="opacity:.2"/>
   <circle class="ColorScheme-Background" cx="16" cy="16" r="6" style="fill:currentColor"/>
   <circle class="ColorScheme-Highlight" cx="16" cy="16" r="6" style="fill:currentColor;opacity:.5"/>
  </g>
  <path class="ColorScheme-Text" d="m14.286 11.714v3.4286h-1.7143l3 3.4286 3-3.4286h-1.7143v-3.4286zm-2.5714 6.8571v0.85714h7.7143v-0.85714z" style="fill:currentColor"/>
  <path class="ColorScheme-Highlight" d="m14.286 11.714v3.4286h-1.7143l3 3.4286 3-3.4286h-1.7143v-3.4286zm-2.5714 6.8571v0.85714h7.7143v-0.85714z" style="fill:currentColor;opacity:.15"/>
 </g>
 <g transform="translate(-28,2)">
  <path d="m40 1c-1.1046 0-2 0.89543-2 2v5c0 0.554 0.446 1 1 1s1-0.446 1-1v-5h8v5c0 0.554 0.446 1 1 1s1-0.446 1-1v-5c0-1.1046-0.89543-2-2-2z" style="opacity:.2"/>
  <path class="ColorScheme-Highlight" transform="translate(28,-3)" d="m12 3c-1.1046 0-2 0.89543-2 2v5c0 0.554 0.446 1 1 1s1-0.446 1-1v-5h8v5c0 0.554 0.446 1 1 1s1-0.446 1-1v-5c0-1.1046-0.89543-2-2-2z" style="fill:currentColor"/>
  <path class="ColorScheme-Text" transform="translate(28,-3)" d="m12 3c-1.1046 0-2 0.89543-2 2v5c0 0.554 0.446 1 1 1s1-0.446 1-1v-5h8v5c0 0.554 0.446 1 1 1s1-0.446 1-1v-5c0-1.1046-0.89543-2-2-2z" style="fill:currentColor;opacity:.15"/>
  <path transform="translate(28,-4)" d="m12 4c-1.1046 0-2 0.89543-2 2v1c0-1.1046 0.89543-2 2-2h8c1.1046 0 2 0.89543 2 2v-1c0-1.1046-0.89543-2-2-2z" style="fill:#fff;opacity:.1"/>
 </g>
</svg>
