<svg width="48" height="48" version="1" xmlns="http://www.w3.org/2000/svg">
 <defs>
  <style id="current-color-scheme" type="text/css">.ColorScheme-Highlight { color:#3daee9; } .ColorScheme-Text { color:#363636; } .ColorScheme-Background { color:#eff0f1; }</style>
 </defs>
 <path d="m4 9v29c0 1.662 1.338 3 3 3h34c1.662 0 3-1.338 3-3v-29z" style="opacity:.2"/>
 <path class="ColorScheme-Text" d="m4 8v29c0 1.662 1.338 3 3 3h34c1.662 0 3-1.338 3-3v-29z" style="fill:currentColor"/>
 <path class="ColorScheme-Highlight" d="m4 8v29c0 1.662 1.338 3 3 3h34c1.662 0 3-1.338 3-3v-29z" style="fill:currentColor;opacity:.4"/>
 <rect x="4" y="8" width="40" height="1" style="fill:#fff;opacity:.1;paint-order:markers stroke fill;stroke-linecap:round;stroke-linejoin:round;stroke-width:2.3905"/>
 <g transform="matrix(1.7111,0,0,1.7111,9.3556,7.3556)">
  <g transform="matrix(1.0227 0 0 1.0227 -.5 -1.0844)">
   <circle cx="16" cy="16.572" r="6" style="opacity:.2"/>
   <circle class="ColorScheme-Background" cx="16" cy="16" r="6" style="fill:currentColor"/>
   <circle class="ColorScheme-Highlight" cx="16" cy="16" r="6" style="fill:currentColor;opacity:.5"/>
  </g>
  <path class="ColorScheme-Text" d="m14.987 11.481v3.5065h-1.7532l2.6299 2.9221 2.6299-2.9221h-1.7532v-3.5065zm-2.3377 6.4286v1.1688h6.4286v-1.1688z" style="fill:currentColor"/>
  <path class="ColorScheme-Highlight" d="m14.987 11.481v3.5065h-1.7532l2.6299 2.9221 2.6299-2.9221h-1.7532v-3.5065zm-2.3377 6.4286v1.1688h6.4286v-1.1688z" style="fill:currentColor;opacity:.15"/>
 </g>
 <g transform="translate(-22,3)">
  <path d="m40 1c-1.1046 0-2 0.89543-2 2v7c0 0.554 0.446 1 1 1s1-0.446 1-1v-7h12v7c0 0.554 0.446 1 1 1s1-0.446 1-1v-7c0-1.1046-0.89543-2-2-2z" style="opacity:.2"/>
  <path class="ColorScheme-Highlight" transform="translate(28,-3)" d="m12 3c-1.1046 0-2 0.89543-2 2v7c0 0.554 0.446 1 1 1s1-0.446 1-1v-7h12v7c0 0.554 0.446 1 1 1s1-0.446 1-1v-7c0-1.1046-0.89543-2-2-2z" style="fill:currentColor"/>
  <path class="ColorScheme-Text" transform="translate(28,-3)" d="m12 3c-1.1046 0-2 0.89543-2 2v7c0 0.554 0.446 1 1 1s1-0.446 1-1v-7h12v7c0 0.554 0.446 1 1 1s1-0.446 1-1v-7c0-1.1046-0.89543-2-2-2z" style="fill:currentColor;opacity:.15"/>
  <path transform="translate(28,-4)" d="m12 4c-1.1046 0-2 0.89543-2 2v1c0-1.1046 0.89543-2 2-2h12c1.1046 0 2 0.89543 2 2v-1c0-1.1046-0.89543-2-2-2z" style="fill:#fff;opacity:.1"/>
 </g>
</svg>
