<svg width="22" height="22" version="1" xmlns="http://www.w3.org/2000/svg">
 <defs>
  <linearGradient id="a" x1="33" x2="0" y1="-6" y2="19" gradientUnits="userSpaceOnUse">
   <stop style="stop-color:#ffa100" offset="0"/>
   <stop style="stop-color:#ff5900" offset="1"/>
  </linearGradient>
 </defs>
 <rect x="1" y="7.5" width="20" height="10" rx="2" ry="2" opacity=".2"/>
 <path d="m3 1c-1.0965 0-2 0.90353-2 2v12c0 1.0965 0.90353 2 2 2h16c1.0965 0 2-0.90353 2-2v-10c0-1.0965-0.90353-2-2-2h-8c-2 0-1.4979-2-4-2z" style="fill:url(#a)"/>
 <path d="m3 1.5c-1.0965 0-2 0.90353-2 2v4c0-1.0965 0.9035-2 2-2h4c2.5021 0 2-2 4-2-2 0-1.4979-2-4-2h-4z" style="fill:#808080;opacity:.2"/>
 <path d="m11 4c-2 0-1.4979 2-4 2h-4c-1.0965 0-2 0.90353-2 2v7c0 1.0965 0.90353 2 2 2h16c1.0965 0 2-0.90353 2-2v-9c0-1.0965-0.90353-2-2-2z" fill="#fff" opacity=".15"/>
 <path d="m11 4c-2 0-1.4979 2-4 2h-4c-1.0965 0-2 0.90353-2 2v0.5c0-1.0965 0.9035-2 2-2h4c2.5021 0 2-2 4-2h8c1.0965 0 2 0.9035 2 2v-0.5c0-1.0965-0.90353-2-2-2z" style="fill:#fff;opacity:.2"/>
 <path d="m3 1c-1.0965 0-2 0.90353-2 2v0.5c0-1.0965 0.9035-2 2-2h4c2.5021 0 2 2 4 2h8c1.0965 0 2 0.9035 2 2v-0.5c0-1.0965-0.90353-2-2-2h-8c-2 0-1.4979-2-4-2z" style="fill:#fff;opacity:.2"/>
 <path d="m11 3.5c-2 0-1.4979 2-4 2h-4c-1.0965 0-2 0.90353-2 2v0.5c0-1.0965 0.9035-2 2-2h4c2.5021 0 2-2 4-2h8c1.0965 0 2 0.9035 2 2v-0.5c0-1.0965-0.90353-2-2-2z" style="opacity:.25"/>
 <path d="m3.5 6.75c-0.41118 0-0.75 0.33882-0.75 0.75v1c0 0.41118 0.33882 0.75 0.75 0.75h1c0.41118 0 0.75-0.33882 0.75-0.75v-1c0-0.41118-0.33882-0.75-0.75-0.75zm14 0c-0.41118 0-0.75 0.33882-0.75 0.75v1c0 0.41118 0.33882 0.75 0.75 0.75h1c0.41118 0 0.75-0.33882 0.75-0.75v-1c0-0.41118-0.33882-0.75-0.75-0.75zm-8.4961 0.5c-0.044518-4.325e-4 -0.088344 0.01103-0.12695 0.033203-0.078189 0.044215-0.12665 0.12698-0.12695 0.2168v6c-4.702e-4 0.19474 0.21204 0.31523 0.37891 0.21484l5-3c0.16286-0.09693 0.16286-0.33276 0-0.42969l-5-3c-0.037843-0.022523-0.080964-0.034651-0.125-0.035156zm-5.5039 2.5c-0.41118 0-0.75 0.33882-0.75 0.75v1c0 0.41118 0.33882 0.75 0.75 0.75h1c0.41118 0 0.75-0.33882 0.75-0.75v-1c0-0.41118-0.33882-0.75-0.75-0.75zm14 0c-0.41118 0-0.75 0.33882-0.75 0.75v1c0 0.41118 0.33882 0.75 0.75 0.75h1c0.41118 0 0.75-0.33882 0.75-0.75v-1c0-0.41118-0.33882-0.75-0.75-0.75zm-14 3c-0.41118 0-0.75 0.33882-0.75 0.75v1c0 0.41118 0.33882 0.75 0.75 0.75h1c0.41118 0 0.75-0.33882 0.75-0.75v-1c0-0.41118-0.33882-0.75-0.75-0.75zm14 0c-0.41118 0-0.75 0.33882-0.75 0.75v1c0 0.41118 0.33882 0.75 0.75 0.75h1c0.41118 0 0.75-0.33882 0.75-0.75v-1c0-0.41118-0.33882-0.75-0.75-0.75z" style="opacity:.2"/>
 <path d="m3.5 7.5c-0.277 0-0.5 0.223-0.5 0.5v1c0 0.277 0.223 0.5 0.5 0.5h1c0.277 0 0.5-0.223 0.5-0.5v-1c0-0.277-0.223-0.5-0.5-0.5zm14 0c-0.277 0-0.5 0.223-0.5 0.5v1c0 0.277 0.223 0.5 0.5 0.5h1c0.277 0 0.5-0.223 0.5-0.5v-1c0-0.277-0.223-0.5-0.5-0.5zm-8.5 0.5v6l5-3zm-5.5 2.5c-0.277 0-0.5 0.223-0.5 0.5v1c0 0.277 0.223 0.5 0.5 0.5h1c0.277 0 0.5-0.223 0.5-0.5v-1c0-0.277-0.223-0.5-0.5-0.5zm14 0c-0.277 0-0.5 0.223-0.5 0.5v1c0 0.277 0.223 0.5 0.5 0.5h1c0.277 0 0.5-0.223 0.5-0.5v-1c0-0.277-0.223-0.5-0.5-0.5zm-14 3c-0.277 0-0.5 0.223-0.5 0.5v1c0 0.277 0.223 0.5 0.5 0.5h1c0.277 0 0.5-0.223 0.5-0.5v-1c0-0.277-0.223-0.5-0.5-0.5zm14 0c-0.277 0-0.5 0.223-0.5 0.5v1c0 0.277 0.223 0.5 0.5 0.5h1c0.277 0 0.5-0.223 0.5-0.5v-1c0-0.277-0.223-0.5-0.5-0.5z" style="opacity:.2"/>
 <path d="m3.5 7c-0.277 0-0.5 0.223-0.5 0.5v1c0 0.277 0.223 0.5 0.5 0.5h1c0.277 0 0.5-0.223 0.5-0.5v-1c0-0.277-0.223-0.5-0.5-0.5zm14 0c-0.277 0-0.5 0.223-0.5 0.5v1c0 0.277 0.223 0.5 0.5 0.5h1c0.277 0 0.5-0.223 0.5-0.5v-1c0-0.277-0.223-0.5-0.5-0.5zm-8.5 0.5v6l5-3zm-5.5 2.5c-0.277 0-0.5 0.223-0.5 0.5v1c0 0.277 0.223 0.5 0.5 0.5h1c0.277 0 0.5-0.223 0.5-0.5v-1c0-0.277-0.223-0.5-0.5-0.5zm14 0c-0.277 0-0.5 0.223-0.5 0.5v1c0 0.277 0.223 0.5 0.5 0.5h1c0.277 0 0.5-0.223 0.5-0.5v-1c0-0.277-0.223-0.5-0.5-0.5zm-14 3c-0.277 0-0.5 0.223-0.5 0.5v1c0 0.277 0.223 0.5 0.5 0.5h1c0.277 0 0.5-0.223 0.5-0.5v-1c0-0.277-0.223-0.5-0.5-0.5zm14 0c-0.277 0-0.5 0.223-0.5 0.5v1c0 0.277 0.223 0.5 0.5 0.5h1c0.277 0 0.5-0.223 0.5-0.5v-1c0-0.277-0.223-0.5-0.5-0.5z" style="fill:#fff"/>
</svg>
