<svg width="32" height="32" version="1" xmlns="http://www.w3.org/2000/svg">
 <defs>
  <linearGradient id="a" x1="47" x2="1" y1="-8" y2="28" gradientUnits="userSpaceOnUse">
   <stop style="stop-color:#ffa100" offset="0"/>
   <stop style="stop-color:#ff5900" offset="1"/>
  </linearGradient>
 </defs>
 <rect x="2" y="17.5" width="28" height="8" rx="2" ry="2" opacity=".2"/>
 <path d="m4 2c-1.0965 0-2 0.90353-2 2v19c0 1.0965 0.90353 2 2 2h24c1.0965 0 2-0.90353 2-2v-16c0-1.0965-0.90353-2-2-2h-12c-2 0-2-3-5-3z" style="fill:url(#a)"/>
 <path d="m4 2.5c-1.0965 0-2 0.90353-2 2v5c0-1.0965 0.9035-2 2-2h8c2 0 1.4979-2 4-2h12c1.0965 0 2 0.9035 2 2v-0.5c0-1.0965-0.90353-2-2-2h-12c-2 0-2.5-2.5-5-2.5h-7z" style="fill:#808080;opacity:.2"/>
 <path d="m16 5.5c-2.5021 0-2 2-4 2h-8c-1.0965 0-2 0.9035-2 2v0.5c0-1.0965 0.90353-2 2-2h8c2 0 1.4979-2 4-2h12c1.0965 0 2 0.90353 2 2v-0.5c0-1.0965-0.9035-2-2-2z" style="opacity:.25"/>
 <path d="m28 6c1.0965 0 2 0.90353 2 2v15c0 1.0965-0.90353 2-2 2h-24c-1.0965 0-2-0.90353-2-2v-13c0-1.0965 0.90353-2 2-2h8c2 0 1.4979-2 4-2z" fill="#fff" opacity=".15"/>
 <path d="m16 6c-2.5021 0-2 2-4 2h-8c-1.0965 0-2 0.9035-2 2v0.5c0-1.0965 0.90353-2 2-2h8c2 0 1.4979-2 4-2h12c1.0965 0 2 0.90353 2 2v-0.5c0-1.0965-0.9035-2-2-2h-12z" style="fill:#fff;opacity:.2"/>
 <path d="m4 2c-1.0965 0-2 0.90353-2 2v0.5c0-1.0965 0.9035-2 2-2h7c2.5 0 3 2.5 5 2.5-2 0-2-3-5-3z" style="fill:#fff;opacity:.2"/>
 <path d="m5 10.5c-0.554 0-1 0.446-1 1v1c0 0.554 0.446 1 1 1h1c0.554 0 1-0.446 1-1v-1c0-0.554-0.446-1-1-1zm21 0c-0.554 0-1 0.446-1 1v1c0 0.554 0.446 1 1 1h1c0.554 0 1-0.446 1-1v-1c0-0.554-0.446-1-1-1zm-13.191 1.4922a0.70007 0.70007 0 0 0-0.80859 0.69141v8.6328a0.70007 0.70007 0 0 0 1.0371 0.61328l7.8477-4.3164a0.70007 0.70007 0 0 0 0-1.2266l-7.8477-4.3164a0.70007 0.70007 0 0 0-0.22852-0.07812zm-7.8086 3.5078c-0.554 0-1 0.446-1 1v1c0 0.554 0.446 1 1 1h1c0.554 0 1-0.446 1-1v-1c0-0.554-0.446-1-1-1zm21 0c-0.554 0-1 0.446-1 1v1c0 0.554 0.446 1 1 1h1c0.554 0 1-0.446 1-1v-1c0-0.554-0.446-1-1-1zm-21 5c-0.554 0-1 0.446-1 1v1c0 0.554 0.446 1 1 1h1c0.554 0 1-0.446 1-1v-1c0-0.554-0.446-1-1-1zm21 0c-0.554 0-1 0.446-1 1v1c0 0.554 0.446 1 1 1h1c0.554 0 1-0.446 1-1v-1c0-0.554-0.446-1-1-1z" style="opacity:.2"/>
 <path d="m5 9.75c-0.68818 0-1.25 0.56182-1.25 1.25v1c0 0.68818 0.56182 1.25 1.25 1.25h1c0.68818 0 1.25-0.56182 1.25-1.25v-1c0-0.68818-0.56182-1.25-1.25-1.25zm21 0c-0.68818 0-1.25 0.56182-1.25 1.25v1c0 0.68818 0.56182 1.25 1.25 1.25h1c0.68818 0 1.25-0.56182 1.25-1.25v-1c0-0.68818-0.56182-1.25-1.25-1.25zm-13.363 1.4863c-0.4836 0.03368-0.88657 0.44097-0.88672 0.94727v8.6328c3.21e-4 0.71077 0.78523 1.1742 1.4082 0.83203l7.8477-4.3164c0.64429-0.35468 0.64429-1.3094 0-1.6641l-7.8477-4.3164c-0.09645-0.05304-0.20181-0.08836-0.31055-0.10547-0.07145-0.01121-0.14185-0.01458-0.21094-0.0098zm-7.6367 3.5137c-0.68818 0-1.25 0.56182-1.25 1.25v1c0 0.68818 0.56182 1.25 1.25 1.25h1c0.68818 0 1.25-0.56182 1.25-1.25v-1c0-0.68818-0.56182-1.25-1.25-1.25zm21 0c-0.68818 0-1.25 0.56182-1.25 1.25v1c0 0.68818 0.56182 1.25 1.25 1.25h1c0.68818 0 1.25-0.56182 1.25-1.25v-1c0-0.68818-0.56182-1.25-1.25-1.25zm-21 5c-0.68818 0-1.25 0.56182-1.25 1.25v1c0 0.68818 0.56182 1.25 1.25 1.25h1c0.68818 0 1.25-0.56182 1.25-1.25v-1c0-0.68818-0.56182-1.25-1.25-1.25zm21 0c-0.68818 0-1.25 0.56182-1.25 1.25v1c0 0.68818 0.56182 1.25 1.25 1.25h1c0.68818 0 1.25-0.56182 1.25-1.25v-1c0-0.68818-0.56182-1.25-1.25-1.25z" style="opacity:.2"/>
 <path d="m5 10c-0.554 0-1 0.446-1 1v1c0 0.554 0.446 1 1 1h1c0.554 0 1-0.446 1-1v-1c0-0.554-0.446-1-1-1h-1zm21 0c-0.554 0-1 0.446-1 1v1c0 0.554 0.446 1 1 1h1c0.554 0 1-0.446 1-1v-1c0-0.554-0.446-1-1-1h-1zm-13.191 1.4922a0.70007 0.70007 0 0 0-0.80859 0.69141v8.6328a0.70007 0.70007 0 0 0 1.0371 0.61328l7.8477-4.3164a0.70007 0.70007 0 0 0 0-1.2266l-7.8477-4.3164a0.70007 0.70007 0 0 0-0.22852-0.078124zm-7.8086 3.5078c-0.554 0-1 0.446-1 1v1c0 0.554 0.446 1 1 1h1c0.554 0 1-0.446 1-1v-1c0-0.554-0.446-1-1-1h-1zm21 0c-0.554 0-1 0.446-1 1v1c0 0.554 0.446 1 1 1h1c0.554 0 1-0.446 1-1v-1c0-0.554-0.446-1-1-1h-1zm-21 5c-0.554 0-1 0.446-1 1v1c0 0.554 0.446 1 1 1h1c0.554 0 1-0.446 1-1v-1c0-0.554-0.446-1-1-1h-1zm21 0c-0.554 0-1 0.446-1 1v1c0 0.554 0.446 1 1 1h1c0.554 0 1-0.446 1-1v-1c0-0.554-0.446-1-1-1h-1z" style="fill:#fff"/>
</svg>
