<svg width="48" height="48" version="1" xmlns="http://www.w3.org/2000/svg">
 <defs>
  <linearGradient id="a" x1="68" x2="2.5" y1="-7.5" y2="45" gradientUnits="userSpaceOnUse">
   <stop style="stop-color:#ffa100" offset="0"/>
   <stop style="stop-color:#ff5900" offset="1"/>
  </linearGradient>
 </defs>
 <rect x="4" y="31" width="40" height="9" rx="2.5" ry="2.5" opacity=".2"/>
 <path d="m6.5 7c-1.3706 0-2.5 1.1294-2.5 2.5v27c0 1.3706 1.1294 2.5 2.5 2.5h35c1.3706 0 2.5-1.1294 2.5-2.5v-23c0-1.3706-1.1294-2.5-2.5-2.5h-17.5c-3 0-3-4-7-4z" style="fill:url(#a)"/>
 <path d="m41.5 13c1.3706 0 2.5 1.1294 2.5 2.5v21c0 1.3706-1.1294 2.5-2.5 2.5h-35c-1.3706 0-2.5-1.1294-2.5-2.5v-18c0-1.3706 1.1294-2.5 2.5-2.5h10.5c4 0 3-3 7-3z" fill="#fff" opacity=".15"/>
 <path d="m24 13c-4 0-3 3-7 3h-10.5c-1.3706 0-2.5 1.1294-2.5 2.5v1c0-1.3706 1.1294-2.5 2.5-2.5h10.5c4 0 3-3 7-3h17.5c1.3706 0 2.5 1.1294 2.5 2.5v-1c0-1.3706-1.1294-2.5-2.5-2.5h-17.5z" style="fill:#fff;opacity:.2"/>
 <path d="m6.5 8c-1.3706 0-2.5 1.1294-2.5 2.5v7c0-1.3706 1.1294-2.5 2.5-2.5h10.5c4 0 3-3 7-3h17.5c1.3706 0 2.5 1.1294 2.5 2.5v-1c0-1.3706-1.1294-2.5-2.5-2.5h-17.5c-3 0-3-3-7-3h-10.5z" style="fill:#808080;opacity:.2"/>
 <path d="m24 12c-4 0-3 3-7 3h-10.5c-1.3706 0-2.5 1.1294-2.5 2.5v1c0-1.3706 1.1294-2.5 2.5-2.5h10.5c4 0 3-3 7-3h17.5c1.3706 0 2.5 1.1294 2.5 2.5v-1c0-1.3706-1.1294-2.5-2.5-2.5z" style="opacity:.25"/>
 <path d="m6.5 7c-1.3706 0-2.5 1.1294-2.5 2.5v1c0-1.3706 1.1294-2.5 2.5-2.5h10.5c4 0 4 3 7 3-3 0-3-4-7-4h-10.5z" style="fill:#fff;opacity:.2"/>
 <path d="m8 19c-0.554 0-1 0.446-1 1v2c0 0.554 0.446 1 1 1h2c0.554 0 1-0.446 1-1v-2c0-0.554-0.446-1-1-1zm30 0c-0.554 0-1 0.446-1 1v2c0 0.554 0.446 1 1 1h2c0.554 0 1-0.446 1-1v-2c0-0.554-0.446-1-1-1zm-18.848 2.0117a1.0001 1.0001 0 0 0-1.1523 0.98828v13a1.0001 1.0001 0 0 0 1.4766 0.87891l12-6.5a1.0001 1.0001 0 0 0 0-1.7578l-12-6.5a1.0001 1.0001 0 0 0-0.32422-0.10938zm-11.152 4.9883c-0.554 0-1 0.446-1 1v2c0 0.554 0.446 1 1 1h2c0.554 0 1-0.446 1-1v-2c0-0.554-0.446-1-1-1zm30 0c-0.554 0-1 0.446-1 1v2c0 0.554 0.446 1 1 1h2c0.554 0 1-0.446 1-1v-2c0-0.554-0.446-1-1-1zm-30 7c-0.554 0-1 0.446-1 1v2c0 0.554 0.446 1 1 1h2c0.554 0 1-0.446 1-1v-2c0-0.554-0.446-1-1-1zm30 0c-0.554 0-1 0.446-1 1v2c0 0.554 0.446 1 1 1h2c0.554 0 1-0.446 1-1v-2c0-0.554-0.446-1-1-1z" style="opacity:.2"/>
 <path d="m8 17.5c-0.82235 0-1.5 0.67765-1.5 1.5v2c0 0.82235 0.67765 1.5 1.5 1.5h2c0.82235 0 1.5-0.67765 1.5-1.5v-2c0-0.82235-0.67765-1.5-1.5-1.5zm30 0c-0.82235 0-1.5 0.67765-1.5 1.5v2c0 0.82235 0.67765 1.5 1.5 1.5h2c0.82235 0 1.5-0.67765 1.5-1.5v-2c0-0.82235-0.67765-1.5-1.5-1.5zm-19.104 2.0039c-0.76123 0.055701-1.3964 0.69978-1.3965 1.4961v13c4.49e-4 1.114 1.2354 1.8491 2.2148 1.3184l12-6.5c1.0219-0.55486 1.0219-2.0819 0-2.6367l-12-6.5c-0.15147-0.08221-0.31601-0.13772-0.48633-0.16406-0.11243-0.01732-0.22328-0.02163-0.33203-0.01367zm-10.896 4.9961c-0.82235 0-1.5 0.67765-1.5 1.5v2c0 0.82235 0.67765 1.5 1.5 1.5h2c0.82235 0 1.5-0.67765 1.5-1.5v-2c0-0.82235-0.67765-1.5-1.5-1.5zm30 0c-0.82235 0-1.5 0.67765-1.5 1.5v2c0 0.82235 0.67765 1.5 1.5 1.5h2c0.82235 0 1.5-0.67765 1.5-1.5v-2c0-0.82235-0.67765-1.5-1.5-1.5zm-30 7c-0.82235 0-1.5 0.67765-1.5 1.5v2c0 0.82235 0.67765 1.5 1.5 1.5h2c0.82235 0 1.5-0.67765 1.5-1.5v-2c0-0.82235-0.67765-1.5-1.5-1.5zm30 0c-0.82235 0-1.5 0.67765-1.5 1.5v2c0 0.82235 0.67765 1.5 1.5 1.5h2c0.82235 0 1.5-0.67765 1.5-1.5v-2c0-0.82235-0.67765-1.5-1.5-1.5z" style="opacity:.2"/>
 <path d="m8 18c-0.554 0-1 0.446-1 1v2c0 0.554 0.446 1 1 1h2c0.554 0 1-0.446 1-1v-2c0-0.554-0.446-1-1-1h-2zm30 0c-0.554 0-1 0.446-1 1v2c0 0.554 0.446 1 1 1h2c0.554 0 1-0.446 1-1v-2c0-0.554-0.446-1-1-1h-2zm-18.848 2.0117a1.0001 1.0001 0 0 0-1.1523 0.98828v13a1.0001 1.0001 0 0 0 1.4766 0.87891l12-6.5a1.0001 1.0001 0 0 0 0-1.7578l-12-6.5a1.0001 1.0001 0 0 0-0.32422-0.10938zm-11.152 4.9883c-0.554 0-1 0.446-1 1v2c0 0.554 0.446 1 1 1h2c0.554 0 1-0.446 1-1v-2c0-0.554-0.446-1-1-1h-2zm30 0c-0.554 0-1 0.446-1 1v2c0 0.554 0.446 1 1 1h2c0.554 0 1-0.446 1-1v-2c0-0.554-0.446-1-1-1h-2zm-30 7c-0.554 0-1 0.446-1 1v2c0 0.554 0.446 1 1 1h2c0.554 0 1-0.446 1-1v-2c0-0.554-0.446-1-1-1h-2zm30 0c-0.554 0-1 0.446-1 1v2c0 0.554 0.446 1 1 1h2c0.554 0 1-0.446 1-1v-2c0-0.554-0.446-1-1-1h-2z" style="fill:#fff"/>
</svg>
