<svg width="64" height="64" version="1" xmlns="http://www.w3.org/2000/svg">
 <defs>
  <linearGradient id="a" x1="94" x2="1" y1="-14" y2="62" gradientUnits="userSpaceOnUse">
   <stop style="stop-color:#ffa100" offset="0"/>
   <stop style="stop-color:#ff5900" offset="1"/>
  </linearGradient>
 </defs>
 <rect x="4" y="43" width="56" height="9" rx="2.8" ry="2.8" opacity=".2"/>
 <path d="m6.8008 8c-1.5512 0-2.8008 1.2496-2.8008 2.8008v37.398c0 1.5512 1.2496 2.8008 2.8008 2.8008h50.398c1.5512 0 2.8008-1.2496 2.8008-2.8008v-32.398c0-1.5512-1.2496-2.8008-2.8008-2.8008h-27.199c-4 0-4-5-10-5z" style="fill:url(#a)"/>
 <path d="m6.8008 9c-1.5512 0-2.8008 1.2496-2.8008 2.8008v9c0-1.5512 1.2496-2.8008 2.8008-2.8008h15.199c4 0 4-3 10-3h25.199c1.5512 0 2.8008 1.2496 2.8008 2.8008v-1c0-1.5512-1.2496-2.8008-2.8008-2.8008h-27.199c-4 0-4-5-10-5z" style="fill:#808080;opacity:.2"/>
 <path d="m32 15c-6 0-6 3-10 3h-15.199c-1.5512 0-2.8008 1.2496-2.8008 2.8008v1c0-1.5512 1.2496-2.8008 2.8008-2.8008h15.199c4 0 4-3 10-3h25.199c1.5512 0 2.8008 1.2496 2.8008 2.8008v-1c0-1.5512-1.2496-2.8008-2.8008-2.8008z" style="opacity:.25"/>
 <path d="m6.8008 8c-1.5512 0-2.8008 1.2496-2.8008 2.8008v1c0-1.5512 1.2496-2.8008 2.8008-2.8008h13.199c6 0 6 5 10 5h27.199c1.5512 0 2.8008 1.2496 2.8008 2.8008v-1c0-1.5512-1.2496-2.8008-2.8008-2.8008h-27.199c-4 0-4-5-10-5h-13.199z" style="fill:#fff;opacity:.2"/>
 <path d="m32 16c-6 0-6 3-10 3h-15.199c-1.5512 0-2.8008 1.2496-2.8008 2.8008v1c0-1.5512 1.2496-2.8008 2.8008-2.8008h15.199c4 0 4-3 10-3h25.199c1.5512 0 2.8008 1.2496 2.8008 2.8008v-1c0-1.5512-1.2496-2.8008-2.8008-2.8008z" style="fill:#fff;opacity:.2"/>
 <path d="m32 16c-6 0-6 3-10 3h-15.199c-1.5512 0-2.8008 1.2496-2.8008 2.8008v26.398c0 1.5512 1.2496 2.8008 2.8008 2.8008h50.398c1.5512 0 2.8008-1.2496 2.8008-2.8008v-29.398c0-1.5512-1.2496-2.8008-2.8008-2.8008z" style="fill:#fff;opacity:.15"/>
 <path d="m8.5 23c-0.831 0-1.5 0.669-1.5 1.5v3c0 0.831 0.669 1.5 1.5 1.5h3c0.831 0 1.5-0.669 1.5-1.5v-3c0-0.831-0.669-1.5-1.5-1.5zm44 0c-0.831 0-1.5 0.669-1.5 1.5v3c0 0.831 0.669 1.5 1.5 1.5h3c0.831 0 1.5-0.669 1.5-1.5v-3c0-0.831-0.669-1.5-1.5-1.5zm-27.037 3.002c-0.78675-0.032574-1.4628 0.59583-1.4629 1.4043l0.02734 1.1055-0.02734 17.186c4.29e-4 1.0661 1.1408 1.7442 2.0781 1.2363l16.883-9.1445c0.98089-0.53258 0.98089-1.9401 0-2.4727l-16.883-9.1465c-0.14208-0.07712-0.29727-0.12763-0.45703-0.15234-0.05327-0.0082-0.10575-0.01345-0.1582-0.01563zm-16.963 6.998c-0.831 0-1.5 0.669-1.5 1.5v3c0 0.831 0.669 1.5 1.5 1.5h3c0.831 0 1.5-0.669 1.5-1.5v-3c0-0.831-0.669-1.5-1.5-1.5zm44 0c-0.831 0-1.5 0.669-1.5 1.5v3c0 0.831 0.669 1.5 1.5 1.5h3c0.831 0 1.5-0.669 1.5-1.5v-3c0-0.831-0.669-1.5-1.5-1.5zm-44 10c-0.831 0-1.5 0.669-1.5 1.5v3c0 0.831 0.669 1.5 1.5 1.5h3c0.831 0 1.5-0.669 1.5-1.5v-3c0-0.831-0.669-1.5-1.5-1.5zm44 0c-0.831 0-1.5 0.669-1.5 1.5v3c0 0.831 0.669 1.5 1.5 1.5h3c0.831 0 1.5-0.669 1.5-1.5v-3c0-0.831-0.669-1.5-1.5-1.5z" style="opacity:.2"/>
 <path d="m8.5 21.5c-1.0994 0-2 0.90065-2 2v3c0 1.0994 0.90065 2 2 2h3c1.0994 0 2-0.90065 2-2v-3c0-1.0994-0.90065-2-2-2h-3zm44 0c-1.0994 0-2 0.90065-2 2v3c0 1.0994 0.90065 2 2 2h3c1.0994 0 2-0.90065 2-2v-3c0-1.0994-0.90065-2-2-2h-3zm-27.016 3.002c-1.0641-0.044059-1.9842 0.81715-1.9844 1.9043v0.005859l0.027344 1.1055-0.027344 17.18c5.72e-4 1.4225 1.5658 2.3534 2.8164 1.6758l16.883-9.1445c1.3055-0.70884 1.3055-2.6427 0-3.3516l-16.883-9.1465c-0.19579-0.10627-0.406-0.17406-0.61914-0.20703-0.0704-0.010841-0.14095-0.018515-0.21289-0.021485zm-16.984 6.998c-1.0994 0-2 0.90065-2 2v3c0 1.0994 0.90065 2 2 2h3c1.0994 0 2-0.90065 2-2v-3c0-1.0994-0.90065-2-2-2h-3zm44 0c-1.0994 0-2 0.90065-2 2v3c0 1.0994 0.90065 2 2 2h3c1.0994 0 2-0.90065 2-2v-3c0-1.0994-0.90065-2-2-2h-3zm-44 10c-1.0994 0-2 0.90065-2 2v3c0 1.0994 0.90065 2 2 2h3c1.0994 0 2-0.90065 2-2v-3c0-1.0994-0.90065-2-2-2h-3zm44 0c-1.0994 0-2 0.90065-2 2v3c0 1.0994 0.90065 2 2 2h3c1.0994 0 2-0.90065 2-2v-3c0-1.0994-0.90065-2-2-2h-3z" style="opacity:.2"/>
 <path d="m8.5 22c-0.831 0-1.5 0.669-1.5 1.5v3c0 0.831 0.669 1.5 1.5 1.5h3c0.831 0 1.5-0.669 1.5-1.5v-3c0-0.831-0.669-1.5-1.5-1.5h-3zm44 0c-0.831 0-1.5 0.669-1.5 1.5v3c0 0.831 0.669 1.5 1.5 1.5h3c0.831 0 1.5-0.669 1.5-1.5v-3c0-0.831-0.669-1.5-1.5-1.5h-3zm-27.037 3.002c-0.78675-0.032574-1.4628 0.59583-1.4629 1.4043l0.027344 1.1055-0.027344 17.186c4.29e-4 1.0661 1.1408 1.7442 2.0781 1.2363l16.883-9.1445c0.98089-0.53258 0.98089-1.9401 0-2.4727l-16.883-9.1465c-0.14208-0.07712-0.29727-0.12763-0.45703-0.15234-0.05327-0.008205-0.10575-0.013453-0.1582-0.015625zm-16.963 6.998c-0.831 0-1.5 0.669-1.5 1.5v3c0 0.831 0.669 1.5 1.5 1.5h3c0.831 0 1.5-0.669 1.5-1.5v-3c0-0.831-0.669-1.5-1.5-1.5h-3zm44 0c-0.831 0-1.5 0.669-1.5 1.5v3c0 0.831 0.669 1.5 1.5 1.5h3c0.831 0 1.5-0.669 1.5-1.5v-3c0-0.831-0.669-1.5-1.5-1.5h-3zm-44 10c-0.831 0-1.5 0.669-1.5 1.5v3c0 0.831 0.669 1.5 1.5 1.5h3c0.831 0 1.5-0.669 1.5-1.5v-3c0-0.831-0.669-1.5-1.5-1.5h-3zm44 0c-0.831 0-1.5 0.669-1.5 1.5v3c0 0.831 0.669 1.5 1.5 1.5h3c0.831 0 1.5-0.669 1.5-1.5v-3c0-0.831-0.669-1.5-1.5-1.5h-3z" style="fill:#fff"/>
</svg>
