<?xml version="1.0" encoding="UTF-8" standalone="no"?>
<svg
   width="16"
   height="16"
   version="1"
   id="svg41"
   sodipodi:docname="16.svg"
   inkscape:version="1.1.2 (0a00cf5339, 2022-02-04)"
   xmlns:inkscape="http://www.inkscape.org/namespaces/inkscape"
   xmlns:sodipodi="http://sodipodi.sourceforge.net/DTD/sodipodi-0.dtd"
   xmlns="http://www.w3.org/2000/svg"
   xmlns:svg="http://www.w3.org/2000/svg">
  <sodipodi:namedview
     id="namedview43"
     pagecolor="#ffffff"
     bordercolor="#666666"
     borderopacity="1.0"
     inkscape:pageshadow="2"
     inkscape:pageopacity="0.0"
     inkscape:pagecheckerboard="0"
     showgrid="true"
     inkscape:snap-bbox="true"
     inkscape:bbox-nodes="true"
     inkscape:zoom="16"
     inkscape:cx="12.65625"
     inkscape:cy="2.09375"
     inkscape:window-width="1440"
     inkscape:window-height="823"
     inkscape:window-x="0"
     inkscape:window-y="768"
     inkscape:window-maximized="1"
     inkscape:current-layer="g27288">
    <inkscape:grid
       type="xygrid"
       id="grid860" />
  </sodipodi:namedview>
  <defs
     id="defs15">
    <style
       id="current-color-scheme"
       type="text/css">.ColorScheme-Highlight { color:#3daee9; } .ColorScheme-Background { color:#eff0f1; } .ColorScheme-Text { color:#31363b; }</style>
    <g
       class="ColorScheme-Highlight"
       id="g13">
      <linearGradient
         id="a"
         x2="16"
         y1="12"
         y2="12"
         gradientUnits="userSpaceOnUse">
        <stop
           style="stop-color:currentColor"
           offset="0"
           id="stop3" />
        <stop
           style="stop-color:currentColor;stop-opacity:.3"
           offset="1"
           id="stop5" />
      </linearGradient>
      <linearGradient
         id="b"
         x2="16"
         y1="2"
         y2="14"
         gradientUnits="userSpaceOnUse">
        <stop
           style="stop-color:currentColor;stop-opacity:.75"
           offset="0"
           id="stop8" />
        <stop
           style="stop-color:currentColor;stop-opacity:.25"
           offset="1"
           id="stop10" />
      </linearGradient>
    </g>
  </defs>
  <g
     id="g27288"
     transform="matrix(0.74468337,0,0,0.74468337,-0.22866158,-0.63835088)">
    <path
       id="rect1551-3-7"
       style="opacity:0.85;fill:#d3d9df;fill-opacity:1;stroke-width:2;stroke-linecap:round;stroke-linejoin:round;paint-order:markers stroke fill"
       d="m 3,3.5429163 16.106995,0 -1.342852,16.1142317 H 4.3356166 Z"
       sodipodi:nodetypes="ccccc" />
    <path
       id="rect1551"
       style="opacity:1;fill:#d3d9df;fill-opacity:1;stroke-width:2;stroke-linecap:round;stroke-linejoin:round;paint-order:markers stroke fill"
       d="M 2.992764,3.5429163 4.3356166,19.657148 H 5.6784692 L 4.3356166,3.5429163 Z m 14.771379,0 -1.342853,16.1142317 h 1.342853 L 19.106995,3.5429163 Z"
       sodipodi:nodetypes="cccccccccc" />
    <path
       id="path10208"
       style="opacity:0.1;fill:#d3d9df;fill-opacity:1;stroke-width:2;stroke-linecap:round;stroke-linejoin:round;paint-order:markers stroke fill"
       d="M 2.992764,3.5429163 H 19.106995 L 17.764143,19.657148 H 4.3356166 Z"
       sodipodi:nodetypes="ccccc" />
  </g>
  <g
     id="g27294"
     transform="matrix(0.74468337,0,0,0.75,-0.22866158,-1)">
    <path
       id="path42115-3"
       style="opacity:1;fill:#0253de;fill-opacity:1;stroke-width:2;stroke-linecap:round;stroke-linejoin:round;paint-order:markers stroke fill"
       d="M 9.3007812,8 8.7050781,9.2148438 10.460938,10.078125 11,9 12.199219,11.400391 13.941406,10.529297 12.699219,8 Z M 8.0585938,10.529297 6.6992188,13.300781 8,16 h 2.013672 L 10,14 H 8.5 l 1.3007812,-2.599609 z m 6.5273442,1.316406 -1.72461,0.878906 L 13.5,14 H 12 v 2 h 2 l 1.300781,-2.699219 z"
       sodipodi:nodetypes="cccccccccccccccccccccccc" />
    <path
       id="path42115-3-3"
       style="fill:#0460ff;fill-opacity:1;stroke-width:2;stroke-linecap:round;stroke-linejoin:round;paint-order:markers stroke fill"
       d="m 10.509766,8 1.689453,3.400391 1.291821,0.469488 0.450366,-1.340582 L 12.699219,8 Z"
       sodipodi:nodetypes="cccccc" />
    <path
       id="path42115-3-6"
       style="fill:#0460ff;fill-opacity:1;stroke-width:2;stroke-linecap:round;stroke-linejoin:round;paint-order:markers stroke fill"
       d="m 12,14 -1,1 1,1 h 2 l 0.962891,-2 z"
       sodipodi:nodetypes="cccccc" />
    <path
       id="path2488-7"
       style="opacity:1;fill:#0460ff;fill-opacity:1;stroke-width:2;stroke-linecap:round;stroke-linejoin:round;paint-order:markers stroke fill"
       d="m 8.0585938,10.529297 -1.359375,2.771484 1.0625,2.205078 2.0390624,-4.105468 -0.4013793,-1.320798 z"
       sodipodi:nodetypes="cccccc" />
  </g>
  <path
     id="rect1284"
     style="fill:#9f9f9f;fill-opacity:1;stroke:none;stroke-width:1.48938;stroke-linecap:round;stroke-linejoin:round;paint-order:markers stroke fill"
     d="M 1.5 1 C 1.223 1 1 1.223 1 1.5 C 1 1.777 1.223 2 1.5 2 L 14.5 2 C 14.777 2 15 1.777 15 1.5 C 15 1.223 14.777 1 14.5 1 L 1.5 1 z M 3 14 C 3 14.554001 3.4459992 15 4 15 L 12 15 C 12.554001 15 13 14.554001 13 14 L 3 14 z " />
</svg>
