<?xml version="1.0" encoding="UTF-8" standalone="no"?>
<svg
   width="22"
   height="22"
   version="1"
   id="svg59"
   sodipodi:docname="22.svg"
   inkscape:version="1.1.2 (0a00cf5339, 2022-02-04)"
   xmlns:inkscape="http://www.inkscape.org/namespaces/inkscape"
   xmlns:sodipodi="http://sodipodi.sourceforge.net/DTD/sodipodi-0.dtd"
   xmlns="http://www.w3.org/2000/svg"
   xmlns:svg="http://www.w3.org/2000/svg">
  <sodipodi:namedview
     id="namedview61"
     pagecolor="#ffffff"
     bordercolor="#666666"
     borderopacity="1.0"
     inkscape:pageshadow="2"
     inkscape:pageopacity="0.0"
     inkscape:pagecheckerboard="0"
     showgrid="true"
     inkscape:snap-bbox="true"
     inkscape:snap-bbox-edge-midpoints="true"
     inkscape:zoom="8.0000004"
     inkscape:cx="25.687499"
     inkscape:cy="-6.1874997"
     inkscape:window-width="1440"
     inkscape:window-height="823"
     inkscape:window-x="0"
     inkscape:window-y="768"
     inkscape:window-maximized="1"
     inkscape:current-layer="svg59"
     inkscape:snap-smooth-nodes="true"
     inkscape:snap-grids="true"
     inkscape:snap-page="false"
     inkscape:snap-center="true"
     inkscape:bbox-nodes="true"
     inkscape:snap-global="true">
    <inkscape:grid
       type="xygrid"
       id="grid878" />
  </sodipodi:namedview>
  <defs
     id="defs15">
    <inkscape:path-effect
       effect="interpolate_points"
       id="path-effect13302"
       is_visible="true"
       lpeversion="1"
       interpolator_type="CentripetalCatmullRom" />
    <inkscape:path-effect
       effect="interpolate_points"
       id="path-effect13179"
       is_visible="true"
       lpeversion="1"
       interpolator_type="CentripetalCatmullRom" />
    <style
       id="current-color-scheme"
       type="text/css">.ColorScheme-Highlight { color:#3daee9; } .ColorScheme-Background { color:#eff0f1; } .ColorScheme-Text { color:#31363b; }</style>
  </defs>
  <g
     id="g27288">
    <path
       id="rect1551-3-7"
       style="opacity:0.85;fill:#d3d9df;fill-opacity:1;stroke-width:2;stroke-linecap:round;stroke-linejoin:round;paint-order:markers stroke fill"
       d="M 3,3.9999999 H 19 L 18,19 H 4 Z"
       sodipodi:nodetypes="ccccc" />
    <path
       id="rect1551"
       style="opacity:1;fill:#d3d9df;fill-opacity:1;stroke-width:2;stroke-linecap:round;stroke-linejoin:round;paint-order:markers stroke fill"
       d="M 3 4 L 4 19 L 5 19 L 4 4 L 3 4 z M 18 4 L 17 19 L 18 19 L 19 4 L 18 4 z " />
    <path
       id="path10208"
       style="opacity:0.1;fill:#d3d9df;fill-opacity:1;stroke-width:2;stroke-linecap:round;stroke-linejoin:round;paint-order:markers stroke fill"
       d="M 3,4 H 19 L 18,19 H 4 Z"
       sodipodi:nodetypes="ccccc" />
  </g>
  <g
     id="g27294">
    <path
       id="path42115-3"
       style="opacity:1;fill:#0253de;fill-opacity:1;stroke-width:2;stroke-linecap:round;stroke-linejoin:round;paint-order:markers stroke fill"
       d="M 9.3007812,8 8.7050781,9.2148438 10.460938,10.078125 11,9 12.199219,11.400391 13.941406,10.529297 12.699219,8 Z M 8.0585938,10.529297 6.6992188,13.300781 8,16 h 2.013672 L 10,14 H 8.5 l 1.3007812,-2.599609 z m 6.5273442,1.316406 -1.72461,0.878906 L 13.5,14 H 12 v 2 h 2 l 1.300781,-2.699219 z"
       sodipodi:nodetypes="cccccccccccccccccccccccc" />
    <path
       id="path42115-3-3"
       style="fill:#0460ff;fill-opacity:1;stroke-width:2;stroke-linecap:round;stroke-linejoin:round;paint-order:markers stroke fill"
       d="m 10.509766,8 1.689453,3.400391 1.291821,0.469488 0.450366,-1.340582 L 12.699219,8 Z"
       sodipodi:nodetypes="cccccc" />
    <path
       id="path42115-3-6"
       style="fill:#0460ff;fill-opacity:1;stroke-width:2;stroke-linecap:round;stroke-linejoin:round;paint-order:markers stroke fill"
       d="m 12,14 -1,1 1,1 h 2 l 0.962891,-2 z"
       sodipodi:nodetypes="cccccc" />
    <path
       id="path2488-7"
       style="opacity:1;fill:#0460ff;fill-opacity:1;stroke-width:2;stroke-linecap:round;stroke-linejoin:round;paint-order:markers stroke fill"
       d="m 8.0585938,10.529297 -1.359375,2.771484 1.0625,2.205078 2.0390624,-4.105468 -0.4013793,-1.320798 z"
       sodipodi:nodetypes="cccccc" />
  </g>
  <path
     id="rect1284"
     style="opacity:1;fill:#9f9f9f;fill-opacity:1;stroke:none;stroke-width:2;stroke-linecap:round;stroke-linejoin:round;paint-order:markers stroke fill"
     d="M 3 2 C 2.446 2 2 2.446 2 3 C 2 3.554 2.446 4 3 4 L 19 4 C 19.554 4 20 3.554 20 3 C 20 2.446 19.554 2 19 2 L 3 2 z M 4 19 L 4 20 C 4 20.554 4.446 21 5 21 L 17 21 C 17.554 21 18 20.554 18 20 L 18 19 L 4 19 z " />
</svg>
