<?xml version="1.0" encoding="UTF-8" standalone="no"?>
<svg
   xmlns:dc="http://purl.org/dc/elements/1.1/"
   xmlns:cc="http://creativecommons.org/ns#"
   xmlns:rdf="http://www.w3.org/1999/02/22-rdf-syntax-ns#"
   xmlns:svg="http://www.w3.org/2000/svg"
   xmlns="http://www.w3.org/2000/svg"
   xmlns:sodipodi="http://sodipodi.sourceforge.net/DTD/sodipodi-0.dtd"
   xmlns:inkscape="http://www.inkscape.org/namespaces/inkscape"
   width="32"
   height="32"
   viewBox="0 0 32 32"
   version="1.1"
   id="svg867"
   inkscape:version="1.0 (1.0+r73+1)"
   sodipodi:docname="redshift.svg">
  <defs
     id="defs3871">
    <style
       type="text/css"
       id="current-color-scheme">
      .ColorScheme-Text {
        color:#31363b;
      }
      </style>
  </defs>
  <sodipodi:namedview
     inkscape:object-paths="true"
     guideopacity="0.62745098"
     guidecolor="#0000ff"
     inkscape:bbox-nodes="true"
     inkscape:snap-intersection-paths="true"
     inkscape:snap-bbox="true"
     id="base"
     pagecolor="#ffffff"
     bordercolor="#666666"
     borderopacity="1.0"
     inkscape:pageopacity="0.0"
     inkscape:pageshadow="2"
     inkscape:zoom="22.4"
     inkscape:cx="20.299742"
     inkscape:cy="19.471378"
     inkscape:document-units="px"
     inkscape:current-layer="layer1"
     inkscape:document-rotation="0"
     showgrid="true"
     inkscape:window-width="1920"
     inkscape:window-height="1003"
     inkscape:window-x="0"
     inkscape:window-y="0"
     inkscape:window-maximized="1"
     units="px"
     inkscape:snap-bbox-edge-midpoints="false"
     inkscape:snap-smooth-nodes="true"
     inkscape:snap-center="true"
     inkscape:snap-midpoints="true"
     inkscape:snap-grids="true"
     inkscape:snap-nodes="true">
    <inkscape:grid
       opacity="0.41960784"
       color="#3f3fff"
       type="xygrid"
       id="grid1448" />
  </sodipodi:namedview>
  <metadata
     id="metadata864">
    <rdf:RDF>
      <cc:Work
         rdf:about="">
        <dc:format>image/svg+xml</dc:format>
        <dc:type
           rdf:resource="http://purl.org/dc/dcmitype/StillImage" />
        <dc:title />
      </cc:Work>
    </rdf:RDF>
  </metadata>
  <g
     inkscape:label="Layer 1"
     inkscape:groupmode="layer"
     id="layer1">
    <g
       transform="translate(41,-28)"
       id="redshift-status-on">
      <rect
         y="32"
         x="-47"
         height="22"
         width="22"
         id="rect1467-9-7-9-9-4"
         style="opacity:0.003;fill-opacity:1" />
      <path
         d="M -31.5,35.5 -31.728516,36.271484 -33,36.5 -31.728516,36.728516 -31.5,38 -31.271484,36.728516 -30.5,36.5 -31.271484,36.271484 Z m -10,1 -0.228516,0.771484 L -43,37.5 -41.728516,37.728516 -41.5,39 -41.271484,37.728516 -40.5,37.5 -41.271484,37.271484 Z m 5.439453,2.5 A 4,4 0 0 0 -36.332031,39.01367 3.5,3.5 0 0 1 -36,40.5 3.5,3.5 0 0 1 -39.5,44 3.5,3.5 0 0 1 -39.876953,43.978516 4,4 0 0 0 -36,47 a 4,4 0 0 0 4,-4 4,4 0 0 0 -4,-4 4,4 0 0 0 -0.06055,0 z M -39.5,39.5 -39.728516,40.271484 -40.5,40.5 -39.728516,40.728516 -39.5,42 -39.271484,40.728516 -38,40.5 -39.271484,40.271484 Z m -3,5 -0.228516,0.771484 L -44,45.5 -42.728516,45.728516 -42.5,47 -42.271484,45.728516 -41.5,45.5 -42.271484,45.271484 Z m 12,0 -0.228516,0.771484 L -31.5,45.5 -30.728516,45.728516 -30.5,47 -30.271484,45.728516 -29,45.5 -30.271484,45.271484 Z m -4,4 -0.228516,0.771484 L -36,49.5 -34.728516,49.728516 -34.5,51 -34.271484,49.728516 -33.5,49.5 -34.271484,49.271484 Z"
         style="fill:currentColor"
         id="path1009-0"
         class="ColorScheme-Text" />
    </g>
    <g
       id="redshift-status-off"
       transform="translate(63,-28)">
      <rect
         style="opacity:0.003;fill-opacity:1"
         id="rect1467-9-7-9-9-4-67"
         width="22"
         height="22"
         x="-47"
         y="32" />
      <path
         class="ColorScheme-Text"
         transform="translate(-63,28)"
         d="M 26.5 8 L 27 10 L 27.5 8 L 26.5 8 z M 22.404297 9.6972656 L 21.697266 10.404297 L 23.464844 11.464844 L 22.404297 9.6972656 z M 31.595703 9.6972656 L 30.535156 11.464844 L 32.302734 10.404297 L 31.595703 9.6972656 z M 26.939453 11 C 24.753995 11.03308 22.99975 12.814292 23 15 C 23 17.209139 24.790861 19 27 19 C 29.209139 19 31 17.209139 31 15 C 31 12.790861 29.209139 11 27 11 C 26.97982 10.999847 26.959633 10.999847 26.939453 11 z M 26.947266 12 L 26.949219 12 C 26.966149 11.999857 26.98307 11.999857 27 12 C 27.734436 12.000232 28.443274 12.269869 28.992188 12.757812 C 28.861029 15.039859 27.039859 16.861028 24.757812 16.992188 C 24.26983 16.443272 24.000232 15.734436 24 15 C 23.999747 13.363523 25.311042 12.028766 26.947266 12 z M 20 14.5 L 20 15.5 L 22 15 L 20 14.5 z M 34 14.5 L 32 15 L 34 15.5 L 34 14.5 z M 23.464844 18.535156 L 21.697266 19.595703 L 22.404297 20.302734 L 23.464844 18.535156 z M 30.535156 18.535156 L 31.595703 20.302734 L 32.302734 19.595703 L 30.535156 18.535156 z M 27 20 L 26.5 22 L 27.5 22 L 27 20 z "
         style="opacity:1;fill:currentColor"
         id="path875-6" />
    </g>
  </g>
</svg>
