<?xml version="1.0" encoding="UTF-8" standalone="no"?>
<svg
   xmlns:dc="http://purl.org/dc/elements/1.1/"
   xmlns:cc="http://creativecommons.org/ns#"
   xmlns:rdf="http://www.w3.org/1999/02/22-rdf-syntax-ns#"
   xmlns:svg="http://www.w3.org/2000/svg"
   xmlns="http://www.w3.org/2000/svg"
   xmlns:xlink="http://www.w3.org/1999/xlink"
   xmlns:sodipodi="http://sodipodi.sourceforge.net/DTD/sodipodi-0.dtd"
   xmlns:inkscape="http://www.inkscape.org/namespaces/inkscape"
   inkscape:version="1.0 (1.0+r73+1)"
   sodipodi:docname="start.svg"
   id="svg12"
   version="1.1"
   height="32"
   width="32">
  <metadata
     id="metadata16">
    <rdf:RDF>
      <cc:Work
         rdf:about="">
        <dc:format>image/svg+xml</dc:format>
        <dc:type
           rdf:resource="http://purl.org/dc/dcmitype/StillImage" />
        <dc:title />
      </cc:Work>
    </rdf:RDF>
  </metadata>
  <sodipodi:namedview
     inkscape:pagecheckerboard="0"
     inkscape:snap-midpoints="true"
     inkscape:snap-smooth-nodes="true"
     inkscape:snap-intersection-paths="true"
     inkscape:object-paths="true"
     inkscape:document-rotation="0"
     inkscape:snap-nodes="true"
     inkscape:snap-bbox-edge-midpoints="true"
     inkscape:bbox-nodes="true"
     inkscape:snap-bbox="true"
     inkscape:current-layer="svg12"
     inkscape:window-maximized="1"
     inkscape:window-y="0"
     inkscape:window-x="0"
     inkscape:cy="12.83467"
     inkscape:cx="46.473765"
     inkscape:zoom="8.4375"
     showgrid="false"
     id="namedview14"
     inkscape:window-height="1003"
     inkscape:window-width="1920"
     inkscape:pageshadow="2"
     inkscape:pageopacity="0"
     guidetolerance="10"
     gridtolerance="10"
     objecttolerance="10"
     borderopacity="1"
     bordercolor="#666666"
     pagecolor="#c8c8c8">
    <inkscape:grid
       id="grid4539"
       type="xygrid" />
  </sodipodi:namedview>
  <defs
     id="defs7386">
      <style
       type="text/css"
       id="current-color-scheme">      .ColorScheme-Text {
        color:#31363b;
        stop-color:#31363b;
      }
      .ColorScheme-Background {
        color:#eff0f1;
        stop-color:#eff0f1;
      }</style>
  <g class="ColorScheme-Background">
    <linearGradient
       id="inverse"
       inkscape:collect="always">
      <stop
         id="stop1012"
         offset="0"
         style="stop-color:currentColor;stop-opacity:0;" />
      <stop
         id="stop1014"
         offset="1"
         style="stop-color:currentColor;stop-opacity:1;" />
    </linearGradient>
     </g>   
    <linearGradient
       gradientUnits="userSpaceOnUse"
       y2="3"
       x2="3"
       y1="30"
       x1="30"
       id="linearGradient1018"
       xlink:href="#inverse"
       inkscape:collect="always" />
    <linearGradient
       gradientUnits="userSpaceOnUse"
       y2="12"
       x2="41"
       y1="31"
       x1="60"
       id="linearGradient1028"
       xlink:href="#inverse"
       inkscape:collect="always" />
  </defs>
  <g
     id="start-here-kde">
    <rect
       style="opacity:0.003"
       y="0"
       x="0"
       height="32"
       width="32"
       id="rect6336-6" />
    <path
       class="ColorScheme-Text"
       sodipodi:nodetypes="sscccscccssccsscccccsscc"
       d="M 5,3 C 3.892,3 3,3.892 3,5 V 15.996094 L 16,16 V 3 Z M 17,3 V 16 H 30 V 5 C 30,3.892 29.108,3 28,3 Z M 3,17 v 11 c 0,1.108 0.892,2 2,2 H 16 V 17 Z m 14,0 v 13 h 11 c 1.108,0 2,-0.892 2,-2 V 17 Z"
       style="fill:currentColor;fill-opacity:1;stroke-width:1.08333;stroke-linejoin:round"
       id="rect913" />
    <path
       id="path1002"
       style="fill:url(#linearGradient1018);fill-opacity:1;stroke-width:1.08333;stroke-linejoin:round;opacity:0.3"
       d="M 5,3 C 3.892,3 3,3.892 3,5 V 15.996094 L 16,16 V 3 Z M 17,3 V 16 H 30 V 5 C 30,3.892 29.108,3 28,3 Z M 3,17 v 11 c 0,1.108 0.892,2 2,2 H 16 V 17 Z m 14,0 v 13 h 11 c 1.108,0 2,-0.892 2,-2 V 17 Z"
       sodipodi:nodetypes="sscccscccssccsscccccsscc" />
  </g>
  <g
     id="22-22-start-here-kde">
    <circle
       style="opacity:0.003"
       id="path822"
       cx="49.972176"
       cy="21"
       r="12" />
    <g
       transform="translate(1,-28)"
       id="g266308">
      <path
         class="ColorScheme-Text"
         sodipodi:nodetypes="sscccscccssccsscccccsscc"
         transform="translate(-1,28)"
         d="M 42.125,12 C 41.50175,12 41,12.50175 41,13.125 V 21 h 9 V 12 Z M 51,12 v 9 h 8.994141 L 60,13.125 C 60,12.50175 59.49825,12 58.875,12 Z M 41,22 v 7.875 C 41,30.49825 41.50175,31 42.125,31 H 50 v -9 z m 10,0 v 9 h 7.875 C 59.49825,31 60,30.49825 60,29.875 L 59.9941,22 Z"
         style="opacity:1;fill:currentColor;fill-opacity:1;stroke-width:1.125;stroke-linejoin:round"
         id="rect264457" />
      <path
         id="path1020"
         style="opacity:0.3;fill:url(#linearGradient1028);fill-opacity:1;stroke-width:1.125;stroke-linejoin:round"
         d="M 42.125,12 C 41.50175,12 41,12.50175 41,13.125 V 21 h 9 V 12 Z M 51,12 v 9 h 8.994141 L 60,13.125 C 60,12.50175 59.49825,12 58.875,12 Z M 41,22 v 7.875 C 41,30.49825 41.50175,31 42.125,31 H 50 v -9 z m 10,0 v 9 h 7.875 C 59.49825,31 60,30.49825 60,29.875 L 59.9941,22 Z"
         transform="translate(-1,28)"
         sodipodi:nodetypes="sscccscccssccsscccccsscc" />
    </g>
  </g>
</svg>
