<?xml version="1.0" encoding="UTF-8" standalone="no"?>
<svg
   xmlns:dc="http://purl.org/dc/elements/1.1/"
   xmlns:cc="http://creativecommons.org/ns#"
   xmlns:rdf="http://www.w3.org/1999/02/22-rdf-syntax-ns#"
   xmlns:svg="http://www.w3.org/2000/svg"
   xmlns="http://www.w3.org/2000/svg"
   xmlns:xlink="http://www.w3.org/1999/xlink"
   xmlns:sodipodi="http://sodipodi.sourceforge.net/DTD/sodipodi-0.dtd"
   xmlns:inkscape="http://www.inkscape.org/namespaces/inkscape"
   inkscape:version="1.0 (1.0+r73+1)"
   sodipodi:docname="start.svg"
   id="svg12"
   version="1.1"
   height="32"
   width="32">
  <metadata
     id="metadata16">
    <rdf:RDF>
      <cc:Work
         rdf:about="">
        <dc:format>image/svg+xml</dc:format>
        <dc:type
           rdf:resource="http://purl.org/dc/dcmitype/StillImage" />
        <dc:title></dc:title>
      </cc:Work>
    </rdf:RDF>
  </metadata>
  <sodipodi:namedview
     inkscape:pagecheckerboard="0"
     inkscape:snap-midpoints="true"
     inkscape:snap-smooth-nodes="true"
     inkscape:snap-intersection-paths="true"
     inkscape:object-paths="true"
     inkscape:document-rotation="0"
     inkscape:snap-nodes="true"
     inkscape:snap-bbox-edge-midpoints="true"
     inkscape:bbox-nodes="true"
     inkscape:snap-bbox="true"
     inkscape:current-layer="svg12"
     inkscape:window-maximized="1"
     inkscape:window-y="0"
     inkscape:window-x="0"
     inkscape:cy="8.6250715"
     inkscape:cx="13.426473"
     inkscape:zoom="11.313709"
     showgrid="true"
     id="namedview14"
     inkscape:window-height="1001"
     inkscape:window-width="1920"
     inkscape:pageshadow="2"
     inkscape:pageopacity="0"
     guidetolerance="10"
     gridtolerance="10"
     objecttolerance="10"
     borderopacity="1"
     bordercolor="#666666"
     pagecolor="#d5d5d5">
    <inkscape:grid
       id="grid4539"
       type="xygrid" />
    <inkscape:grid
       opacity="1"
       color="#ff10d8"
       spacingx="0.5"
       spacingy="0.5"
       id="grid846"
       type="xygrid" />
  </sodipodi:namedview>
  <defs
     id="defs7386">
    <linearGradient
       inkscape:collect="always"
       id="dark">
      <stop
         style="stop-color:#000000;stop-opacity:1;"
         offset="0"
         id="stop1216" />
      <stop
         style="stop-color:#000000;stop-opacity:0;"
         offset="1"
         id="stop1218" />
    </linearGradient>
    <linearGradient
       inkscape:collect="always"
       id="light">
      <stop
         id="stop1204"
         offset="0"
         style="stop-color:#ffffff;stop-opacity:0;" />
      <stop
         id="stop1202"
         offset="1"
         style="stop-color:#ffffff;stop-opacity:1" />
    </linearGradient>
    <style
       type="text/css"
       id="current-color-scheme">      .ColorScheme-Text {
        color:#31363b;
        stop-color:#31363b;
      }
      .ColorScheme-Background {
        color:#eff0f1;
        stop-color:#eff0f1;
      }</style>
    <g
       class="ColorScheme-Background"
       id="g9" />
    <linearGradient
       inkscape:collect="always"
       xlink:href="#light"
       id="linearGradient1208"
       x1="27"
       y1="27"
       x2="6"
       y2="6"
       gradientUnits="userSpaceOnUse" />
    <linearGradient
       inkscape:collect="always"
       xlink:href="#dark"
       id="linearGradient1222"
       x1="27"
       y1="27"
       x2="6"
       y2="6"
       gradientUnits="userSpaceOnUse" />
  </defs>
  <g
     id="start-here-kde">
    <rect
       style="opacity:0.003"
       y="0"
       x="0"
       height="32"
       width="32"
       id="rect6336-6" />
    <path
       class="ColorScheme-Text"
       sodipodi:nodetypes="sscccscccssccsscccccsscc"
       d="M 7.4999996,6 C 6.6689998,6 6,6.6689998 6,7.4999996 V 16 H 16 V 6 Z M 17,6 V 16 H 27 V 7.4999996 C 27,6.6689998 26.331,6 25.5,6 Z M 6,17 v 8.5 C 6,26.331 6.669,27 7.5,27 H 16 V 17 Z m 11,0 v 10 l 8.5,0 C 26.331,27 27,26.331 27,25.5 L 27,17 Z"
       style="fill:currentColor;fill-opacity:1;stroke-width:1.08333;stroke-linejoin:round"
       id="rect913" />
    <g
       id="blend"
       style="opacity:0.75">
      <path
         id="path1212"
         style="opacity:0.4;fill:url(#linearGradient1222);fill-opacity:1;stroke-width:1.08333;stroke-linejoin:round"
         d="M 7.5,6 C 6.669,6 6,6.669 6,7.5 V 16 H 16 V 6 Z M 17,6 V 16 H 27 V 7.4999996 C 27,6.6689998 26.331,6 25.5,6 Z M 6,17 v 8.5 C 6,26.331 6.6689999,27 7.4999997,27 H 16 V 17 Z m 11,0 v 10 l 8.5,0 C 26.331,27 27,26.331 27,25.5 L 27,17 Z"
         sodipodi:nodetypes="sscccscccssccsscccccsscc"
         class="ColorScheme-Text" />
      <path
         class="ColorScheme-Text"
         sodipodi:nodetypes="sscccscccssccsscccccsscc"
         d="M 7.5,6 C 6.669,6 6,6.669 6,7.5 V 16 H 16 V 6 Z M 17,6 V 16 H 27 V 7.5 C 27,6.669 26.331,6 25.5,6 Z M 6,17 v 8.5 C 6,26.331 6.669,27 7.5,27 H 16 V 17 Z m 11,0 v 10 l 8.5,0 C 26.331,27 27,26.331 27,25.5 L 27,17 Z"
         style="opacity:0.3;fill:url(#linearGradient1208);fill-opacity:1;stroke-width:1.08333;stroke-linejoin:round"
         id="path908" />
    </g>
  </g>
</svg>
