<svg width="16" height="16" version="1.1" xmlns="http://www.w3.org/2000/svg" xmlns:xlink="http://www.w3.org/1999/xlink">
 <defs>
  <style id="current-color-scheme" type="text/css">.ColorScheme-Highlight { color:#3daee9; }</style>
  <linearGradient id="a">
   <stop offset="0"/>
   <stop style="stop-opacity:.5" offset="1"/>
  </linearGradient>
  <linearGradient id="b" x1="11" x2="11" y1="19" y2="13" gradientTransform="translate(-3,-6)" gradientUnits="userSpaceOnUse" xlink:href="#a"/>
  <linearGradient id="c" x1="11" x2="11" y1="15" y2="17" gradientTransform="translate(-3,-6)" gradientUnits="userSpaceOnUse" xlink:href="#a"/>
 </defs>
 <rect x="1" y="3.5" width="14" height="10" rx="2" ry="2" opacity=".2"/>
 <path d="m3 0c-1.0965 0-2 0.90353-2 2v9c0 1.0965 0.90353 2 2 2h10c1.0965 0 2-0.90353 2-2v-7c0-1.0965-0.90353-2-2-2h-3.5c-2 0-2-2-4-2z" fill="#ffb004"/>
 <path d="m3 0c-1.0965 0-2 0.90353-2 2v3c0-1.0965 0.9035-2 2-2h3.5c2 0 1-1 3-1-2 0-2-2-4-2z" fill="#808080" opacity=".2"/>
 <path d="m9.5 2c-2 0-1 1-3 1h-3.5c-1.0965 0-2 0.9035-2 2v6c0 1.0965 0.90353 2 2 2h10c1.0965 0 2-0.90353 2-2v-7c0-1.0965-0.90353-2-2-2z" fill="#fff" opacity=".1"/>
 <path d="m3 0c-1.0965 0-2 0.90353-2 2v0.5c0-1.0965 0.9035-2 2-2h2.5c1.5241 0 1.888 1.1602 2.8594 1.7129-0.52744 0.29343-0.45166 0.78711-1.8594 0.78711h-3.5c-1.0965 0-2 0.9035-2 2v0.5c0-1.0965 0.9035-2 2-2h3.5c2 0 1-1 3-1h3.5c1.0965 0 2 0.9035 2 2v-0.5c0-1.0965-0.90353-2-2-2h-3.5c-2 0-2-2-4-2z" fill="#fff" opacity=".2"/>
 <path d="m8.3574 1.7109c-0.52817 0.29338-0.44911 0.78906-1.8574 0.78906h-3.5c-1.0965 0-2 0.9035-2 2v0.5c0-1.0965 0.9035-2 2-2h3.5c2 0 1-1 3-1-0.4772 0-0.83876-0.11568-1.1426-0.28906z" opacity=".1"/>
 <path class="ColorScheme-Highlight" d="m5 7h6c1.108 0 2 0.892 2 2v4h-10v-4c0-1.108 0.892-2 2-2z" style="fill:currentColor"/>
 <path class="ColorScheme-Text" d="m5 7h6c1.108 0 2 0.892 2 2v4h-10v-4c0-1.108 0.892-2 2-2z" style="fill:url(#b);opacity:.25"/>
 <rect x="5" y="9" width="6" height="2" rx=".5" ry=".5" style="fill:url(#c);opacity:.25"/>
</svg>
