<svg width="22" height="22" version="1" xmlns="http://www.w3.org/2000/svg" xmlns:xlink="http://www.w3.org/1999/xlink">
 <defs>
  <style id="current-color-scheme" type="text/css">.ColorScheme-Highlight { color:#3daee9; }</style>
  <linearGradient id="c" x1="11" x2="11" y1="19" y2="12" gradientTransform="translate(0,-1)" gradientUnits="userSpaceOnUse" xlink:href="#a"/>
  <linearGradient id="a">
   <stop offset="0"/>
   <stop style="stop-opacity:.5" offset="1"/>
  </linearGradient>
  <linearGradient id="b" x1="11" x2="11" y1="14" y2="17" gradientTransform="translate(0,-1)" gradientUnits="userSpaceOnUse" xlink:href="#a"/>
 </defs>
 <rect x="1" y="8.5" width="20" height="10" rx="2" ry="2" opacity=".2"/>
 <path d="m3 2c-1.0965 0-2 0.90353-2 2v12c0 1.0965 0.90353 2 2 2h16c1.0965 0 2-0.90353 2-2v-10c0-1.0965-0.90353-2-2-2h-8c-2 0-1.4979-2-4-2z" fill="#ffb004"/>
 <path d="m3 2.5c-1.0965 0-2 0.90353-2 2v4.5c0-1.0965 0.9035-2 2-2h4c2.5021 0 2-2 4-2h8c1.0965 0 2 0.9035 2 2v-0.5c0-1.0965-0.90353-2-2-2h-8c-2 0-1.4979-2-4-2z" style="fill:#808080;opacity:.2"/>
 <path d="m11 5c-2 0-1.4979 2-4 2h-4c-1.0965 0-2 0.90353-2 2v7c0 1.0965 0.90353 2 2 2h16c1.0965 0 2-0.90353 2-2v-9c0-1.0965-0.90353-2-2-2z" fill="#fff" opacity=".15"/>
 <path d="m11 5c-2 0-1.4979 2-4 2h-4c-1.0965 0-2 0.90353-2 2v0.5c0-1.0965 0.9035-2 2-2h4c2.5021 0 2-2 4-2h8c1.0965 0 2 0.9035 2 2v-0.5c0-1.0965-0.90353-2-2-2z" style="fill:#fff;opacity:.2"/>
 <path d="m3 2c-1.0965 0-2 0.90353-2 2v0.5c0-1.0965 0.9035-2 2-2h4c2.5021 0 2 2 4 2h8c1.0965 0 2 0.9035 2 2v-0.5c0-1.0965-0.90353-2-2-2h-8c-2 0-1.4979-2-4-2z" style="fill:#fff;opacity:.2"/>
 <path d="m11 4.5c-2 0-1.4979 2-4 2h-4c-1.0965 0-2 0.90353-2 2v0.5c0-1.0965 0.9035-2 2-2h4c2.5021 0 2-2 4-2h8c1.0965 0 2 0.9035 2 2v-0.5c0-1.0965-0.90353-2-2-2z" style="opacity:.2"/>
 <path class="ColorScheme-Highlight" d="m7 11h8c1.108 0 2 0.892 2 2v5h-12v-5c0-1.108 0.892-2 2-2z" style="fill:currentColor"/>
 <path class="ColorScheme-Text" d="m7 11h8c1.108 0 2 0.892 2 2v5h-12v-5c0-1.108 0.892-2 2-2z" style="fill:url(#c);opacity:.25"/>
 <rect x="7" y="13" width="8" height="3" rx="1" ry="1" style="fill:url(#b);opacity:.25"/>
</svg>
