<svg width="32" height="32" version="1" xmlns="http://www.w3.org/2000/svg" xmlns:xlink="http://www.w3.org/1999/xlink">
 <defs>
  <style id="current-color-scheme" type="text/css">.ColorScheme-Highlight { color:#3daee9; }</style>
  <linearGradient id="c" x1="11" x2="11" y1="19" y2="9" gradientTransform="translate(5,8)" gradientUnits="userSpaceOnUse" xlink:href="#a"/>
  <linearGradient id="a">
   <stop offset="0"/>
   <stop style="stop-opacity:.5" offset="1"/>
  </linearGradient>
  <linearGradient id="b" x1="11" x2="11" y1="13" y2="17" gradientTransform="translate(5,7)" gradientUnits="userSpaceOnUse" xlink:href="#a"/>
 </defs>
 <rect x="2" y="19.5" width="28" height="8" rx="2" ry="2" opacity=".2"/>
 <path d="m4 4c-1.0965 0-2 0.90353-2 2v19c0 1.0965 0.90353 2 2 2h24c1.0965 0 2-0.90353 2-2v-16c0-1.0965-0.90353-2-2-2h-12c-2 0-2-3-5-3z" fill="#ffb004"/>
 <path d="m4 4.5c-1.0965 0-2 0.90353-2 2v5c0-1.0965 0.9035-2 2-2h8c2 0 1.4979-2 4-2h12c1.0965 0 2 0.9035 2 2v-0.5c0-1.0965-0.90353-2-2-2h-12c-2 0-2.5-2.5-5-2.5h-7z" style="fill:#808080;opacity:.2"/>
 <path d="m28 8c1.0965 0 2 0.90353 2 2v15c0 1.0965-0.90353 2-2 2h-24c-1.0965 0-2-0.90353-2-2v-13c0-1.0965 0.90353-2 2-2h8c2 0 1.4979-2 4-2z" fill="#fff" opacity=".15"/>
 <path d="m16 7.5c-2.5021 0-2 2-4 2h-8c-1.0965 0-2 0.9035-2 2v0.5c0-1.0965 0.90353-2 2-2h8c2 0 1.4979-2 4-2h12c1.0965 0 2 0.90353 2 2v-0.5c0-1.0965-0.9035-2-2-2z" style="opacity:.25"/>
 <path class="ColorScheme-Highlight" d="m10 17h12c1.662 0 3 1.338 3 3v7h-18v-7c0-1.662 1.338-3 3-3z" style="fill:currentColor"/>
 <path class="ColorScheme-Text" d="m10 17h12c1.662 0 3 1.338 3 3v7h-18v-7c0-1.662 1.338-3 3-3z" style="fill:url(#c);opacity:.25"/>
 <rect x="10" y="20" width="12" height="4" rx="1.5" ry="1.5" style="fill:url(#b);opacity:.25"/>
 <path d="m16 8c-2.5021 0-2 2-4 2h-8c-1.0965 0-2 0.9035-2 2v0.5c0-1.0965 0.90353-2 2-2h8c2 0 1.4979-2 4-2h12c1.0965 0 2 0.90353 2 2v-0.5c0-1.0965-0.9035-2-2-2z" style="fill:#fff;opacity:.2"/>
 <path d="m4 4c-1.0965 0-2 0.90353-2 2v0.5c0-1.0965 0.9035-2 2-2h7c2.5 0 3 2.5 5 2.5-2 0-2-3-5-3z" style="fill:#fff;opacity:.2"/>
</svg>
