<svg width="48" height="48" version="1" xmlns="http://www.w3.org/2000/svg" xmlns:xlink="http://www.w3.org/1999/xlink">
 <defs>
  <style id="current-color-scheme" type="text/css">.ColorScheme-Highlight { color:#3daee9; }</style>
  <linearGradient id="a">
   <stop offset="0"/>
   <stop style="stop-opacity:.5" offset="1"/>
  </linearGradient>
  <linearGradient id="b" x1="11" x2="11" y1="19" y2="5" gradientTransform="translate(13,20)" gradientUnits="userSpaceOnUse" xlink:href="#a"/>
  <linearGradient id="c" x1="11" x2="11" y1="11" y2="17" gradientTransform="translate(13,18)" gradientUnits="userSpaceOnUse" xlink:href="#a"/>
 </defs>
 <rect x="4" y="31" width="40" height="9" rx="2.5" ry="2.5" opacity=".2"/>
 <path d="m6.5 7c-1.3706 0-2.5 1.1294-2.5 2.5v27c0 1.3706 1.1294 2.5 2.5 2.5h35c1.3706 0 2.5-1.1294 2.5-2.5v-23c0-1.3706-1.1294-2.5-2.5-2.5h-17.5c-3 0-3-4-7-4z" fill="#ffb004"/>
 <path d="m41.5 13c1.3706 0 2.5 1.1294 2.5 2.5v21c0 1.3706-1.1294 2.5-2.5 2.5h-35c-1.3706 0-2.5-1.1294-2.5-2.5v-18c0-1.3706 1.1294-2.5 2.5-2.5h10.5c4 0 3-3 7-3z" fill="#fff" opacity=".15"/>
 <path d="m24 13c-4 0-3 3-7 3h-10.5c-1.3706 0-2.5 1.1294-2.5 2.5v1c0-1.3706 1.1294-2.5 2.5-2.5h10.5c4 0 3-3 7-3h17.5c1.3706 0 2.5 1.1294 2.5 2.5v-1c0-1.3706-1.1294-2.5-2.5-2.5h-17.5z" style="fill:#fff;opacity:.2"/>
 <path d="m6.5 8c-1.3706 0-2.5 1.1294-2.5 2.5v7c0-1.3706 1.1294-2.5 2.5-2.5h10.5c4 0 3-3 7-3h17.5c1.3706 0 2.5 1.1294 2.5 2.5v-1c0-1.3706-1.1294-2.5-2.5-2.5h-17.5c-3 0-3-3-7-3h-10.5z" style="fill:#808080;opacity:.2"/>
 <path d="m24 12c-4 0-3 3-7 3h-10.5c-1.3706 0-2.5 1.1294-2.5 2.5v1c0-1.3706 1.1294-2.5 2.5-2.5h10.5c4 0 3-3 7-3h17.5c1.3706 0 2.5 1.1294 2.5 2.5v-1c0-1.3706-1.1294-2.5-2.5-2.5z" style="opacity:.25"/>
 <path d="m6.5 7c-1.3706 0-2.5 1.1294-2.5 2.5v1c0-1.3706 1.1294-2.5 2.5-2.5h10.5c4 0 4 3 7 3-3 0-3-4-7-4h-10.5z" style="fill:#fff;opacity:.2"/>
 <path class="ColorScheme-Highlight" d="m16 25h16c2.216 0 4 1.784 4 4v10h-24v-10c0-2.216 1.784-4 4-4z" style="fill:currentColor"/>
 <path class="ColorScheme-Text" d="m16 25h16c2.216 0 4 1.784 4 4v10h-24v-10c0-2.216 1.784-4 4-4z" style="fill:url(#b);opacity:.25"/>
 <rect x="16" y="29" width="16" height="6" rx="2" ry="2" style="fill:url(#c);opacity:.25"/>
</svg>
