<?xml version="1.0" encoding="UTF-8" standalone="no"?>
<svg
   width="64"
   height="64"
   version="1"
   id="svg14"
   sodipodi:docname="folder-desktop.svg"
   inkscape:version="1.1.1 (3bf5ae0d25, 2021-09-20, custom)"
   xmlns:inkscape="http://www.inkscape.org/namespaces/inkscape"
   xmlns:sodipodi="http://sodipodi.sourceforge.net/DTD/sodipodi-0.dtd"
   xmlns:xlink="http://www.w3.org/1999/xlink"
   xmlns="http://www.w3.org/2000/svg"
   xmlns:svg="http://www.w3.org/2000/svg">
  <defs
     id="defs18">
    <linearGradient
       inkscape:collect="always"
       id="panel">
      <stop
         style="stop-color:#3daee9;stop-opacity:1;"
         offset="0"
         id="stop23336" />
      <stop
         style="stop-color:#3daee9;stop-opacity:0.5"
         offset="1"
         id="stop23338" />
    </linearGradient>
    <linearGradient
       inkscape:collect="always"
       id="wallpaper">
      <stop
         style="stop-color:#3daee9;stop-opacity:1;"
         offset="0"
         id="stop12000" />
      <stop
         style="stop-color:#3daee9;stop-opacity:0;"
         offset="1"
         id="stop12002" />
    </linearGradient>
    <linearGradient
       inkscape:collect="always"
       xlink:href="#wallpaper"
       id="linearGradient12006"
       x1="4"
       y1="16"
       x2="60"
       y2="51"
       gradientUnits="userSpaceOnUse" />
    <linearGradient
       inkscape:collect="always"
       xlink:href="#panel"
       id="linearGradient12006-3"
       x1="4"
       y1="44"
       x2="60"
       y2="44"
       gradientUnits="userSpaceOnUse" />
    <linearGradient
       inkscape:collect="always"
       xlink:href="#wallpaper"
       id="linearGradient24162"
       x1="4"
       y1="19"
       x2="60"
       y2="45"
       gradientUnits="userSpaceOnUse" />
  </defs>
  <sodipodi:namedview
     id="namedview16"
     pagecolor="#ffffff"
     bordercolor="#666666"
     borderopacity="1.0"
     inkscape:pageshadow="2"
     inkscape:pageopacity="0.0"
     inkscape:pagecheckerboard="0"
     showgrid="true"
     inkscape:zoom="4.671875"
     inkscape:cx="42.274247"
     inkscape:cy="34.782609"
     inkscape:window-width="1440"
     inkscape:window-height="823"
     inkscape:window-x="0"
     inkscape:window-y="768"
     inkscape:window-maximized="1"
     inkscape:current-layer="g3766"
     inkscape:snap-global="true"
     inkscape:snap-bbox="true"
     inkscape:snap-bbox-edge-midpoints="false"
     inkscape:bbox-nodes="true"
     inkscape:snap-smooth-nodes="true"
     inkscape:snap-nodes="true">
    <inkscape:grid
       type="xygrid"
       id="grid835" />
  </sodipodi:namedview>
  <rect
     x="4"
     y="43"
     width="56"
     height="9"
     rx="2.8"
     ry="2.8"
     opacity="0.2"
     id="rect2" />
  <path
     id="path4"
     d="M 6.8007812,8 C 5.2495813,8 4,9.2495819 4,10.800781 V 48.199219 C 4,49.750419 5.2495813,51 6.8007812,51 H 57.199219 C 58.750419,51 60,49.750419 60,48.199219 V 15.800781 C 60,14.249581 58.750419,13 57.199219,13 H 35 C 28,13 29,8 23,8 Z"
     sodipodi:nodetypes="sssssssssss"
     style="fill:#343434;fill-opacity:1" />
  <g
     id="g4870">
    <g
       id="g3766">
      <path
         id="path4-60-6"
         style="opacity:0.2;fill:#808080;fill-opacity:1"
         d="M 6.8007812,9 C 5.2495813,9 4,10.249582 4,11.800781 v 10 C 4,20.249581 5.2495815,19 6.8007812,19 H 24 c 4,0 4,-3 10,-3 H 57.199219 C 58.750419,16 60,17.249582 60,18.800781 v -2 C 60,15.249581 58.750419,14 57.199219,14 H 35 C 28,14 29,9 23,9 Z"
         sodipodi:nodetypes="sscsssscsssss" />
      <path
         id="path5548-2"
         d="m 34,15 c -6,0 -6,3 -10,3 H 6.8007812 C 5.2495814,18 4,19.249581 4,20.800781 v 1 C 4,20.249581 5.2495814,19 6.8007812,19 H 24 c 4,0 4,-3 10,-3 H 57.199219 C 58.750419,16 60,17.249582 60,18.800781 v -1 C 60,16.249582 58.750419,15 57.199219,15 Z"
         style="opacity:0.2"
         sodipodi:nodetypes="sssscsssscsss" />
      <g
         id="g11825">
        <path
           id="path4-3-6"
           style="opacity:0.15;fill:#ffffff;fill-opacity:1"
           d="m 34,16 c -6,0 -6,3 -10,3 H 6.800781 C 5.2495811,19 3.9999998,20.249581 3.9999998,21.800781 V 48.199219 C 3.9999998,49.750419 5.2495811,51 6.800781,51 H 57.199219 C 58.750419,51 60,49.750419 60,48.199219 V 18.800781 C 60,17.249582 58.750419,16 57.199219,16 Z"
           sodipodi:nodetypes="sssssssssss" />
        <path
           id="path11846"
           style="opacity:1;fill:url(#linearGradient12006);fill-opacity:1"
           d="m 34,16 c -6,0 -6,3 -10,3 H 6.800781 C 5.2495811,19 3.9999998,20.249581 3.9999998,21.800781 L 4,45 H 60 L 60,18.800781 C 60,17.249582 58.750419,16 57.199219,16 Z"
           sodipodi:nodetypes="ssssccsss" />
        <path
           id="path11846-5"
           style="opacity:1;fill:url(#linearGradient12006-3);fill-opacity:1"
           d="m 4,45 v 3.199219 C 4,49.750419 5.2495813,51 6.8007812,51 H 57.199219 C 58.750419,51 60,49.750419 60,48.199219 V 45 Z" />
        <path
           id="path1204"
           d="m 4,45 v 3.199219 C 4,49.750419 5.2495813,51 6.8007812,51 H 57.199219 C 58.750419,51 60,49.750419 60,48.199219 V 45 Z"
           style="opacity:0.5;fill:#191919;fill-opacity:1" />
      </g>
      <path
         id="path5525-3"
         style="opacity:0.2;fill:#ffffff;fill-opacity:1"
         d="m 34,16 c -6,0 -6,3 -10,3 H 6.8007809 c -1.5512,0 -2.800781,1.249581 -2.800781,2.800781 v 1 C 3.9999999,21.249581 5.2495809,20 6.8007809,20 H 24 c 4,0 4,-3 10,-3 H 57.199219 C 58.750419,17 60,18.249582 60,19.800781 v -1 C 60,17.249582 58.750419,16 57.199219,16 Z"
         sodipodi:nodetypes="ccccccccccccc" />
      <path
         id="path9972-1"
         style="opacity:0.2;fill:#ffffff;fill-opacity:1"
         d="M 6.8007812,8 C 5.2495813,8 4,9.2495825 4,10.800781 v 1 C 4,10.249582 5.2495813,9 6.8007812,9 H 23 c 6,0 5,5 12,5 H 57.199219 C 58.750419,14 60,15.249581 60,16.800781 v -1 C 60,14.249581 58.750419,13 57.199219,13 H 35 C 28,13 29,8 23,8 Z" />
      <rect
         style="opacity:1;fill:#ffffff;fill-opacity:1;stroke:none;stroke-width:0.5;stroke-linecap:round;stroke-linejoin:round;paint-order:markers stroke fill"
         id="rect1409"
         width="2"
         height="2"
         x="56"
         y="47" />
      <rect
         style="opacity:1;fill:#ffffff;fill-opacity:1;stroke:none;stroke-width:0.5;stroke-linecap:round;stroke-linejoin:round;paint-order:markers stroke fill"
         id="rect1829"
         width="2"
         height="2"
         x="52"
         y="47" />
      <rect
         style="opacity:1;fill:#ffffff;fill-opacity:1;stroke:none;stroke-width:0.5;stroke-linecap:round;stroke-linejoin:round;paint-order:markers stroke fill"
         id="rect1847"
         width="3"
         height="3"
         x="7"
         y="23"
         rx="1"
         ry="1" />
      <rect
         style="opacity:1;fill:#ffffff;fill-opacity:1;stroke:none;stroke-width:0.5;stroke-linecap:round;stroke-linejoin:round;paint-order:markers stroke fill"
         id="rect2028"
         width="3"
         height="3"
         x="7"
         y="28"
         rx="1"
         ry="1" />
      <rect
         style="opacity:1;fill:#ffffff;fill-opacity:1;stroke:none;stroke-width:0.5;stroke-linecap:round;stroke-linejoin:round;paint-order:markers stroke fill"
         id="rect2048"
         width="2"
         height="2"
         x="6"
         y="47" />
      <g
         id="g2218">
        <rect
           style="opacity:1;fill:#ffffff;fill-opacity:1;stroke:none;stroke-width:0.5;stroke-linecap:round;stroke-linejoin:round;paint-order:markers stroke fill"
           id="rect2069"
           width="2"
           height="2"
           x="31"
           y="47" />
        <rect
           style="opacity:1;fill:#ffffff;fill-opacity:1;stroke:none;stroke-width:0.5;stroke-linecap:round;stroke-linejoin:round;paint-order:markers stroke fill"
           id="rect2071"
           width="2"
           height="2"
           x="35"
           y="47" />
        <rect
           style="opacity:1;fill:#ffffff;fill-opacity:1;stroke:none;stroke-width:0.5;stroke-linecap:round;stroke-linejoin:round;paint-order:markers stroke fill"
           id="rect2073"
           width="2"
           height="2"
           x="27"
           y="47" />
        <rect
           style="opacity:1;fill:#ffffff;fill-opacity:1;stroke:none;stroke-width:0.5;stroke-linecap:round;stroke-linejoin:round;paint-order:markers stroke fill"
           id="rect2075"
           width="2"
           height="2"
           x="23"
           y="47" />
        <rect
           style="opacity:1;fill:#ffffff;fill-opacity:1;stroke:none;stroke-width:0.5;stroke-linecap:round;stroke-linejoin:round;paint-order:markers stroke fill"
           id="rect2079"
           width="2"
           height="2"
           x="39"
           y="47" />
      </g>
      <g
         id="g2230"
         style="opacity:0.48216696">
        <rect
           style="opacity:1;fill:#ffed00;fill-opacity:1;stroke:none;stroke-width:0.5;stroke-linecap:round;stroke-linejoin:round;paint-order:markers stroke fill"
           id="rect2220"
           width="2"
           height="2"
           x="31"
           y="47" />
        <rect
           style="opacity:1;fill:#43ff00;fill-opacity:1;stroke:none;stroke-width:0.5;stroke-linecap:round;stroke-linejoin:round;paint-order:markers stroke fill"
           id="rect2222"
           width="2"
           height="2"
           x="35"
           y="47" />
        <rect
           style="opacity:1;fill:#ff9f00;fill-opacity:1;stroke:none;stroke-width:0.5;stroke-linecap:round;stroke-linejoin:round;paint-order:markers stroke fill"
           id="rect2224"
           width="2"
           height="2"
           x="27"
           y="47" />
        <rect
           style="opacity:1;fill:#ff0000;fill-opacity:1;stroke:none;stroke-width:0.5;stroke-linecap:round;stroke-linejoin:round;paint-order:markers stroke fill"
           id="rect2226"
           width="2"
           height="2"
           x="23"
           y="47" />
        <rect
           style="opacity:1;fill:#0f00ff;fill-opacity:1;stroke:none;stroke-width:0.5;stroke-linecap:round;stroke-linejoin:round;paint-order:markers stroke fill"
           id="rect2228"
           width="2"
           height="2"
           x="39"
           y="47" />
      </g>
      <path
         id="path24154"
         style="opacity:0.5;fill:url(#linearGradient24162);fill-opacity:1"
         d="M 6.8007812,9 C 5.2495813,9 4,10.249582 4,11.800781 v 10 C 4,20.249581 5.2495815,19 6.8007812,19 H 24 c 4,0 4,-3 10,-3 H 57.199219 C 58.750419,16 60,17.249582 60,18.800781 v -2 C 60,15.249581 58.750419,14 57.199219,14 H 35 C 28,14 29,9 23,9 Z"
         sodipodi:nodetypes="sscsssscsssss" />
    </g>
  </g>
</svg>
