<?xml version="1.0" encoding="UTF-8" standalone="no"?>
<svg
   width="64"
   height="64"
   version="1"
   id="svg73"
   sodipodi:docname="user-desktop.svg"
   inkscape:version="1.1.1 (3bf5ae0d25, 2021-09-20, custom)"
   xmlns:inkscape="http://www.inkscape.org/namespaces/inkscape"
   xmlns:sodipodi="http://sodipodi.sourceforge.net/DTD/sodipodi-0.dtd"
   xmlns="http://www.w3.org/2000/svg"
   xmlns:svg="http://www.w3.org/2000/svg">
  <sodipodi:namedview
     id="namedview75"
     pagecolor="#ffffff"
     bordercolor="#666666"
     borderopacity="1.0"
     inkscape:pageshadow="2"
     inkscape:pageopacity="0.0"
     inkscape:pagecheckerboard="0"
     showgrid="false"
     inkscape:zoom="9.34375"
     inkscape:cx="32.053512"
     inkscape:cy="32.053512"
     inkscape:window-width="1440"
     inkscape:window-height="823"
     inkscape:window-x="0"
     inkscape:window-y="768"
     inkscape:window-maximized="1"
     inkscape:current-layer="svg73" />
  <defs
     id="defs15">
    <style
       id="current-color-scheme"
       type="text/css">.ColorScheme-Highlight { color:#3daee9; } .ColorScheme-Background { color:#eff0f1; } .ColorScheme-Text { color:#31363b; }</style>
    <g
       class="ColorScheme-Highlight"
       id="g13">
      <linearGradient
         id="b"
         x1="4"
         x2="60"
         y1="44"
         y2="44"
         gradientUnits="userSpaceOnUse">
        <stop
           style="stop-color:currentColor"
           offset="0"
           id="stop3" />
        <stop
           style="stop-color:currentColor;stop-opacity:.30"
           offset="1"
           id="stop5" />
      </linearGradient>
      <linearGradient
         id="a"
         x1="4"
         x2="60"
         y1="8"
         y2="45"
         gradientUnits="userSpaceOnUse">
        <stop
           style="stop-color:currentColor;stop-opacity:0.75"
           offset="0"
           id="stop8" />
        <stop
           style="stop-color:currentColor;stop-opacity:0.25"
           offset="1"
           id="stop10" />
      </linearGradient>
    </g>
  </defs>
  <rect
     x="4"
     y="43"
     width="56"
     height="9"
     rx="2.8"
     ry="2.8"
     opacity=".2"
     id="rect17" />
  <path
     class="ColorScheme-Background"
     d="M 6.8008,8 C 5.2496,8 4,9.2496 4,10.8008 v 37.398 c 0,1.5512 1.2496,2.8008 2.8008,2.8008 h 50.398 c 1.5512,0 2.8008,-1.2496 2.8008,-2.8008 V 15.8008 C 59.9996,14.2496 58.75,13 57.1988,13 h -22.199 c -7,0 -6,-5 -12,-5 z"
     style="fill:currentColor"
     id="path19" />
  <path
     class="ColorScheme-Text"
     d="M 6.8008,8 C 5.2496,8 4,9.2496 4,10.8008 v 37.398 c 0,1.5512 1.2496,2.8008 2.8008,2.8008 h 50.398 c 1.5512,0 2.8008,-1.2496 2.8008,-2.8008 V 15.8008 C 59.9996,14.2496 58.75,13 57.1988,13 h -22.199 c -7,0 -6,-5 -12,-5 z"
     style="opacity:0.025;fill:currentColor"
     id="path1072" />
  <path
     d="m6.8008 8c-1.5512 0-2.8008 1.2496-2.8008 2.8008v37.398c0 1.5512 1.2496 2.8008 2.8008 2.8008h50.398c1.5512 0 2.8008-1.2496 2.8008-2.8008v-32.398c0-1.5512-1.2496-2.8008-2.8008-2.8008h-22.199c-7 0-6-5-12-5z"
     style="fill:url(#a);opacity:1"
     id="path21" />
  <path
     d="m6.8008 9c-1.5512 0-2.8008 1.2496-2.8008 2.8008v10c0-1.5512 1.2496-2.8008 2.8008-2.8008h17.199c4 0 4-3 10-3h23.199c1.5512 0 2.8008 1.2496 2.8008 2.8008v-2c0-1.5512-1.2496-2.8008-2.8008-2.8008h-22.199c-7 0-6-5-12-5z"
     style="fill:#808080;opacity:.2"
     id="path23" />
  <path
     d="m34 15c-6 0-6 3-10 3h-17.199c-1.5512 0-2.8008 1.2496-2.8008 2.8008v1c0-1.5512 1.2496-2.8008 2.8008-2.8008h17.199c4 0 4-3 10-3h23.199c1.5512 0 2.8008 1.2496 2.8008 2.8008v-1c0-1.5512-1.2496-2.8008-2.8008-2.8008z"
     style="opacity:.2"
     id="path25" />
  <path
     d="m34 16c-6 0-6 3-10 3h-17.199c-1.5512 0-2.8008 1.2496-2.8008 2.8008v26.398c0 1.5512 1.2496 2.8008 2.8008 2.8008h50.398c1.5512 0 2.8008-1.2496 2.8008-2.8008v-29.398c0-1.5512-1.2496-2.8008-2.8008-2.8008z"
     style="fill:#fff;opacity:.15"
     id="path27" />
  <path
     d="m34 16c-6 0-6 3-10 3h-17.199c-1.5512 0-2.8008 1.2496-2.8008 2.8008v1c0-1.5512 1.2496-2.8008 2.8008-2.8008h17.199c4 0 4-3 10-3h23.199c1.5512 0 2.8008 1.2496 2.8008 2.8008v-1c0-1.5512-1.2496-2.8008-2.8008-2.8008z"
     style="fill:#fff;opacity:.2"
     id="path29" />
  <path
     d="m6.8008 8c-1.5512 0-2.8008 1.2496-2.8008 2.8008v1c0-1.5512 1.2496-2.8008 2.8008-2.8008h16.199c6 0 5 5 12 5h22.199c1.5512 0 2.8008 1.2496 2.8008 2.8008v-1c0-1.5512-1.2496-2.8008-2.8008-2.8008h-22.199c-7 0-6-5-12-5z"
     style="fill:#fff;opacity:.2"
     id="path31" />
  <path
     class="ColorScheme-Background"
     d="m4 45v3.1992c0 1.5512 1.2496 2.8008 2.8008 2.8008h50.398c1.5512 0 2.8008-1.2496 2.8008-2.8008v-3.1992z"
     style="fill:currentColor;opacity:.9"
     id="path33" />
  <path
     d="m4 45v3.1992c0 1.5512 1.2496 2.8008 2.8008 2.8008h50.398c1.5512 0 2.8008-1.2496 2.8008-2.8008v-3.1992z"
     style="fill:url(#b);opacity:0.2"
     id="path35" />
  <path
     d="m8 24c-0.554 0-1 0.446-1 1v1c0 0.554 0.446 1 1 1h1c0.554 0 1-0.446 1-1v-1c0-0.554-0.446-1-1-1zm0 5c-0.554 0-1 0.446-1 1v1c0 0.554 0.446 1 1 1h1c0.554 0 1-0.446 1-1v-1c0-0.554-0.446-1-1-1z"
     style="opacity:.2"
     id="path37" />
  <path
     d="m8 22.5c-0.82235 0-1.5 0.67765-1.5 1.5v1c0 0.82235 0.67765 1.5 1.5 1.5h1c0.82235 0 1.5-0.67765 1.5-1.5v-1c0-0.82235-0.67765-1.5-1.5-1.5h-1zm0 5c-0.82235 0-1.5 0.67765-1.5 1.5v1c0 0.82235 0.67765 1.5 1.5 1.5h1c0.82235 0 1.5-0.67765 1.5-1.5v-1c0-0.82235-0.67765-1.5-1.5-1.5h-1z"
     style="opacity:.2"
     id="path39" />
  <path
     d="m8 23c-0.554 0-1 0.446-1 1v1c0 0.554 0.446 1 1 1h1c0.554 0 1-0.446 1-1v-1c0-0.554-0.446-1-1-1h-1zm0 5c-0.554 0-1 0.446-1 1v1c0 0.554 0.446 1 1 1h1c0.554 0 1-0.446 1-1v-1c0-0.554-0.446-1-1-1h-1z"
     style="fill:#fff"
     id="path41" />
  <g
     class="ColorScheme-Text"
     style="fill:currentColor"
     id="g59">
    <rect
       x="52"
       y="47"
       width="2"
       height="2"
       id="rect43" />
    <rect
       x="6"
       y="47"
       width="2"
       height="2"
       id="rect45" />
    <rect
       x="31"
       y="47"
       width="2"
       height="2"
       id="rect47" />
    <rect
       x="35"
       y="47"
       width="2"
       height="2"
       id="rect49" />
    <rect
       x="27"
       y="47"
       width="2"
       height="2"
       id="rect51" />
    <rect
       x="23"
       y="47"
       width="2"
       height="2"
       id="rect53" />
    <rect
       x="39"
       y="47"
       width="2"
       height="2"
       id="rect55" />
    <rect
       x="56"
       y="47"
       width="2"
       height="2"
       id="rect57" />
  </g>
  <g
     style="opacity:.8"
     id="g71">
    <rect
       x="31"
       y="47"
       width="2"
       height="2"
       style="fill:#ffed00;opacity:1;paint-order:markers stroke fill"
       id="rect61" />
    <rect
       x="35"
       y="47"
       width="2"
       height="2"
       style="fill:#43ff00;opacity:1;paint-order:markers stroke fill"
       id="rect63" />
    <rect
       x="27"
       y="47"
       width="2"
       height="2"
       style="fill:#ff9f00;opacity:1;paint-order:markers stroke fill"
       id="rect65" />
    <rect
       x="23"
       y="47"
       width="2"
       height="2"
       style="fill:#f00;opacity:1;paint-order:markers stroke fill"
       id="rect67" />
    <rect
       x="39"
       y="47"
       width="2"
       height="2"
       style="fill:#0f00ff;opacity:1;paint-order:markers stroke fill"
       id="rect69" />
  </g>
</svg>
