<?xml version="1.0" encoding="UTF-8" standalone="no"?>
<svg
   width="64"
   height="64"
   version="1"
   id="svg14"
   sodipodi:docname="folder-downloads.svg"
   inkscape:version="1.1.1 (3bf5ae0d25, 2021-09-20, custom)"
   xmlns:inkscape="http://www.inkscape.org/namespaces/inkscape"
   xmlns:sodipodi="http://sodipodi.sourceforge.net/DTD/sodipodi-0.dtd"
   xmlns:xlink="http://www.w3.org/1999/xlink"
   xmlns="http://www.w3.org/2000/svg"
   xmlns:svg="http://www.w3.org/2000/svg">
  <defs
     id="defs18">
    <linearGradient
       inkscape:collect="always"
       id="linearGradient15018">
      <stop
         style="stop-color:#8841e6;stop-opacity:1"
         offset="0"
         id="stop15014" />
      <stop
         style="stop-color:#db1f8c;stop-opacity:1"
         offset="0.44736841"
         id="stop24106" />
      <stop
         style="stop-color:#f7723b;stop-opacity:1"
         offset="1"
         id="stop15016" />
    </linearGradient>
    <linearGradient
       inkscape:collect="always"
       xlink:href="#linearGradient15018"
       id="linearGradient1046"
       x1="4"
       y1="5"
       x2="27"
       y2="58"
       gradientUnits="userSpaceOnUse" />
  </defs>
  <sodipodi:namedview
     id="namedview16"
     pagecolor="#ffffff"
     bordercolor="#666666"
     borderopacity="1.0"
     inkscape:pageshadow="2"
     inkscape:pageopacity="0.0"
     inkscape:pagecheckerboard="0"
     showgrid="true"
     inkscape:zoom="2.3359375"
     inkscape:cx="14.769231"
     inkscape:cy="64"
     inkscape:window-width="1440"
     inkscape:window-height="823"
     inkscape:window-x="0"
     inkscape:window-y="768"
     inkscape:window-maximized="1"
     inkscape:current-layer="svg14"
     inkscape:snap-global="false"
     inkscape:snap-bbox="true"
     inkscape:snap-bbox-edge-midpoints="false"
     inkscape:bbox-nodes="true"
     inkscape:snap-smooth-nodes="true"
     inkscape:snap-center="true"
     inkscape:snap-grids="false"
     inkscape:snap-object-midpoints="true">
    <inkscape:grid
       type="xygrid"
       id="grid835" />
  </sodipodi:namedview>
  <rect
     x="4"
     y="43"
     width="56"
     height="9"
     rx="2.8"
     ry="2.8"
     opacity="0.2"
     id="rect2" />
  <path
     id="path4"
     d="M 6.8007812,8 C 5.2495813,8 4,9.2495819 4,10.800781 V 48.199219 C 4,49.750419 5.2495813,51 6.8007812,51 H 57.199219 C 58.750419,51 60,49.750419 60,48.199219 V 15.800781 C 60,14.249581 58.750419,13 57.199219,13 H 35 C 28,13 29,8 23,8 Z"
     sodipodi:nodetypes="sssssssssss"
     style="fill:url(#linearGradient1046);fill-opacity:1" />
  <path
     id="path4-3"
     style="opacity:0.15;fill:#ffffff;fill-opacity:1"
     d="m 34,16 c -6,0 -6,5 -10,5 H 6.800781 C 5.2495811,21 3.9999998,22.249581 3.9999998,23.800781 V 48.199219 C 3.9999998,49.750419 5.2495811,51 6.800781,51 H 57.199219 C 58.750419,51 60,49.750419 60,48.199219 V 18.800781 C 60,17.249582 58.750419,16 57.199219,16 Z"
     sodipodi:nodetypes="sssssssssss" />
  <path
     id="path5525"
     style="opacity:0.2;fill:#ffffff;fill-opacity:1"
     d="m 34,16 c -6,0 -6,5 -10,5 H 6.8007812 C 5.2495814,21 4,22.249581 4,23.800781 v 1 C 4,23.249581 5.2495814,22 6.8007812,22 H 24 c 4,0 4,-5 10,-5 H 57.199219 C 58.750419,17 60,18.249582 60,19.800781 v -1 C 60,17.249582 58.750419,16 57.199219,16 Z"
     sodipodi:nodetypes="sssscsssscsss" />
  <path
     id="path5548"
     d="m 34,15 c -6,0 -6,5 -10,5 H 6.8007812 C 5.2495814,20 4,21.249581 4,22.800781 v 1 C 4,22.249581 5.2495814,21 6.8007812,21 H 24 c 4,0 4,-5 10,-5 H 57.199219 C 58.750419,16 60,17.249582 60,18.800781 v -1 C 60,16.249582 58.750419,15 57.199219,15 Z"
     style="opacity:0.2"
     sodipodi:nodetypes="sssscsssscsss" />
  <path
     id="path4-60"
     style="opacity:0.2;fill:#808080;fill-opacity:1"
     d="M 6.8007812,9 C 5.2495813,9 4,10.249582 4,11.800781 v 12 C 4,22.249581 5.2495815,21 6.8007812,21 H 24 c 4,0 4,-5 10,-5 H 57.199219 C 58.750419,16 60,17.249582 60,18.800781 v -2 C 60,15.249581 58.750419,14 57.199219,14 H 35 C 28,14 29,9 23,9 Z"
     sodipodi:nodetypes="sscsssscsssss" />
  <path
     id="path9972"
     style="opacity:0.2;fill:#ffffff;fill-opacity:1"
     d="M 6.8007812 8 C 5.2495813 8 4 9.2495825 4 10.800781 L 4 11.800781 C 4 10.249582 5.2495813 9 6.8007812 9 L 23 9 C 29 9 28 14 35 14 L 57.199219 14 C 58.750419 14 60 15.249581 60 16.800781 L 60 15.800781 C 60 14.249581 58.750419 13 57.199219 13 L 35 13 C 28 13 29 8 23 8 L 6.8007812 8 z " />
  <path
     id="path2683"
     d="m 32.500456,20.999883 c -1.000979,-0.03519 -1.655011,0.988449 -1.5,1.910463 v 13.968443 c -1.352258,-1.324927 -2.652897,-2.708398 -4.038481,-3.995542 -1.028002,-0.761048 -2.608221,0.300781 -2.298507,1.539484 0.245649,0.877733 1.104773,1.365788 1.670872,2.03213 1.741804,1.735439 3.901115,3.997545 4.757603,4.854033 0.856488,0.856488 2.094272,0.626294 2.744136,-0.02357 0.649864,-0.649864 4.138821,-4.124331 6.1915,-6.20241 0.863763,-0.948736 -0.0416,-2.630556 -1.307427,-2.440712 -0.946892,0.140895 -1.442439,1.070304 -2.126292,1.643161 l -2.593404,2.593426 c -0.0051,-4.844168 0.01029,-9.688851 -0.0077,-14.532696 -0.06078,-0.747096 -0.74272,-1.362121 -1.4923,-1.34621 z m -9,24 c -1.286548,-0.07209 -2.017236,1.702259 -1.061625,2.561625 0.730939,0.694754 1.798666,0.358162 2.703478,0.438375 5.503914,-0.0051 11.008345,0.01029 16.511937,-0.0077 1.281717,-0.06016 1.830907,-1.889682 0.801418,-2.650588 -0.769179,-0.570023 -1.776818,-0.263223 -2.665471,-0.341712 z"
     style="opacity:0.2"
     sodipodi:nodetypes="cccccczzccccccccccccc" />
  <path
     id="path2994"
     d="m 32.506315,19.505859 c -0.668115,-0.01818 -1.243905,0.321044 -1.591797,0.794922 -0.336858,0.458852 -0.492489,1.041901 -0.414062,1.623047 V 34.681641 C 29.447849,33.62404 28.411109,32.546783 27.30319,31.517578 l -0.02148,-0.01953 -0.02148,-0.01758 c -1.403694,-1.039179 -3.505133,0.372257 -3.082032,2.064453 l 0.002,0.0059 0.002,0.0059 c 0.314229,1.122778 1.289,1.654735 1.771484,2.222656 l 0.01367,0.01563 0.01367,0.01367 c 1.740068,1.733709 3.470137,3.482924 5.222656,5.21289 l 0.01367,0.01367 0.01367,0.01172 c 0.923512,0.786552 2.298266,0.490451 2.976562,-0.425781 2.054594,-2.06164 4.126262,-4.11262 6.175781,-6.1875 l 0.0078,-0.0059 0.0059,-0.0078 c 1.178882,-1.294855 -0.02125,-3.530756 -1.75,-3.271484 -0.619189,0.09213 -1.079819,0.443998 -1.439453,0.796874 -0.359634,0.352877 -0.650083,0.717902 -0.935547,0.957032 l -0.01563,0.01367 -1.755975,1.755807 c -0.0019,-4.440953 0.0087,-8.884421 -0.0078,-13.328125 v -0.01953 l -0.002,-0.01953 c -0.08301,-1.020337 -0.962626,-1.811131 -1.984375,-1.798829 z m 8.666016,23.980469 c -0.503842,-0.0048 -0.966936,0.04839 -1.337891,0.01563 L 39.812956,43.5 H 23.5278 c -1.751455,-0.09814 -2.721305,2.250697 -1.427735,3.425781 0.481978,0.454802 1.087142,0.57179 1.611329,0.585938 0.526074,0.0142 1.012821,-0.04682 1.386718,-0.01367 l 0.02148,0.002 h 0.02344 c 5.502668,-0.0051 11.008064,0.01017 16.513672,-0.0078 h 0.0098 0.01172 c 1.749266,-0.0821 2.480137,-2.513606 1.074219,-3.552735 -0.502978,-0.372747 -1.076236,-0.448336 -1.580078,-0.453125 z"
     style="opacity:0.2" />
  <path
     id="rect1274"
     d="m 32.500456,20 c -0.831,0 -1.5,0.669 -1.5,1.5 v 14.378906 l -3.802734,-3.802734 c -0.587606,-0.587606 -1.533488,-0.587606 -2.121094,0 -0.587606,0.587606 -0.587606,1.533488 0,2.121094 l 6.330078,6.330078 c 0.04354,0.04636 0.08956,0.09036 0.138672,0.130859 0.0025,0.0021 0.0053,0.0038 0.0078,0.0059 l 0.002,0.002 c 0.03878,0.03144 0.07923,0.0604 0.121093,0.08789 0.0015,9.97e-4 0.0024,0.0029 0.0039,0.0039 0.0385,0.02509 0.07828,0.04878 0.11914,0.07031 0.01404,0.0075 0.02875,0.01255 0.04297,0.01953 0.0045,0.0022 0.0092,0.0037 0.01367,0.0059 0.02435,0.01158 0.04916,0.02292 0.07422,0.0332 0.01161,0.0048 0.02345,0.0092 0.03516,0.01367 0.0071,0.0027 0.01439,0.0052 0.02148,0.0078 0.02741,0.01 0.05389,0.02091 0.08203,0.0293 0.233489,0.07041 0.480625,0.0834 0.71875,0.03711 0.04921,-0.0096 0.09628,-0.02256 0.144532,-0.03711 0.02814,-0.0084 0.05462,-0.01933 0.08203,-0.0293 0.01911,-0.0069 0.0379,-0.0138 0.05664,-0.02148 0.0025,-10e-4 0.0054,-9.27e-4 0.0078,-0.002 0.02262,-0.0095 0.04417,-0.02062 0.06641,-0.03125 0.0045,-0.0022 0.0092,-0.0037 0.01367,-0.0059 0.01272,-0.0062 0.02655,-0.01103 0.03906,-0.01758 0.0013,-6.75e-4 0.0026,-0.0013 0.0039,-0.002 0.04086,-0.02154 0.08064,-0.04522 0.11914,-0.07031 0.04585,-0.0301 0.09167,-0.06396 0.134766,-0.09961 0.04911,-0.0405 0.09513,-0.0845 0.138672,-0.130859 l 6.330078,-6.330078 c 0.587606,-0.587606 0.587606,-1.533488 0,-2.121094 -0.587606,-0.587606 -1.533488,-0.587606 -2.121094,0 l -3.802734,3.802734 V 21.5 c 0,-0.831 -0.669,-1.5 -1.5,-1.5 z m -9,24 c -0.831,0 -1.5,0.669 -1.5,1.5 0,0.831 0.669,1.5 1.5,1.5 h 18 c 0.831,0 1.5,-0.669 1.5,-1.5 0,-0.831 -0.669,-1.5 -1.5,-1.5 z"
     style="fill:#ffffff;fill-opacity:1" />
</svg>
