<?xml version="1.0" encoding="UTF-8" standalone="no"?>
<svg
   width="22"
   height="22"
   version="1"
   id="svg14"
   sodipodi:docname="folder-downloads.svg"
   inkscape:version="1.1.1 (3bf5ae0d25, 2021-09-20, custom)"
   xmlns:inkscape="http://www.inkscape.org/namespaces/inkscape"
   xmlns:sodipodi="http://sodipodi.sourceforge.net/DTD/sodipodi-0.dtd"
   xmlns:xlink="http://www.w3.org/1999/xlink"
   xmlns="http://www.w3.org/2000/svg"
   xmlns:svg="http://www.w3.org/2000/svg"
   xmlns:rdf="http://www.w3.org/1999/02/22-rdf-syntax-ns#"
   xmlns:cc="http://creativecommons.org/ns#"
   xmlns:dc="http://purl.org/dc/elements/1.1/">
  <metadata
     id="metadata847">
    <rdf:RDF>
      <cc:Work
         rdf:about="">
        <dc:format>image/svg+xml</dc:format>
        <dc:type
           rdf:resource="http://purl.org/dc/dcmitype/StillImage" />
      </cc:Work>
    </rdf:RDF>
  </metadata>
  <defs
     id="defs18">
    <linearGradient
       inkscape:collect="always"
       id="linearGradient15018">
      <stop
         style="stop-color:#8841e6;stop-opacity:1"
         offset="0"
         id="stop15014" />
      <stop
         style="stop-color:#db1f8c;stop-opacity:1"
         offset="0.42935538"
         id="stop24106" />
      <stop
         style="stop-color:#f7723b;stop-opacity:1"
         offset="1"
         id="stop15016" />
    </linearGradient>
    <radialGradient
       inkscape:collect="always"
       xlink:href="#linearGradient15018"
       id="radialGradient27413"
       cx="12.303492"
       cy="11.944257"
       fx="12.303492"
       fy="11.944257"
       r="6"
       gradientTransform="matrix(-1.735905,0.77176576,-1.4931804,-3.3585573,70.233541,32.468713)"
       gradientUnits="userSpaceOnUse" />
    <linearGradient
       inkscape:collect="always"
       xlink:href="#linearGradient15018"
       id="linearGradient957"
       x1="1"
       y1="1"
       x2="21"
       y2="17"
       gradientUnits="userSpaceOnUse" />
  </defs>
  <sodipodi:namedview
     id="namedview16"
     pagecolor="#ffffff"
     bordercolor="#666666"
     borderopacity="1.0"
     inkscape:pageshadow="2"
     inkscape:pageopacity="0.0"
     inkscape:pagecheckerboard="0"
     showgrid="true"
     inkscape:snap-grids="true"
     inkscape:snap-bbox="true"
     inkscape:bbox-nodes="true"
     inkscape:object-paths="false"
     inkscape:snap-intersection-paths="true"
     inkscape:snap-smooth-nodes="true"
     showguides="false"
     inkscape:snap-global="true"
     inkscape:zoom="32"
     inkscape:cx="11.015625"
     inkscape:cy="14.046875"
     inkscape:window-width="1440"
     inkscape:window-height="823"
     inkscape:window-x="0"
     inkscape:window-y="768"
     inkscape:window-maximized="1"
     inkscape:current-layer="g5968"
     inkscape:document-rotation="0"
     inkscape:snap-center="true">
    <inkscape:grid
       type="xygrid"
       id="grid835"
       empcolor="#3f3fff"
       empopacity="0.2627451"
       color="#3f3fff"
       opacity="0.37254902" />
    <inkscape:grid
       type="xygrid"
       id="grid3283"
       spacingy="0.5"
       spacingx="0.5" />
  </sodipodi:namedview>
  <rect
     x="1"
     y="7.5"
     width="20"
     height="10"
     rx="2"
     ry="2"
     opacity="0.2"
     id="rect2" />
  <path
     class="ColorScheme-Text"
     d="M 3,1 C 1.9035,1 1,1.90353 1,3 v 12 c 0,1.0965 0.90353,2 2,2 h 16 c 1.0965,0 2,-0.90353 2,-2 V 5 C 21,3.9035 20.09647,3 19,3 H 11 C 9,3 9.5021,1 7,1 Z"
     id="path4"
     sodipodi:nodetypes="sssssssssss"
     style="fill-opacity:1;fill:url(#linearGradient957)" />
  <path
     id="path2674"
     style="opacity:0.2;fill:#808080;fill-opacity:1"
     class="ColorScheme-Text"
     d="m 3,1.5 c -1.0965,0 -2,0.90353 -2,2 V 8 C 1,6.90353 1.9035,6 3,6 H 7 C 9.5021,6 9,4 11,4 h 8 c 1.09647,0 2,0.9035 2,2 V 5.5 c 0,-1.0965 -0.90353,-2 -2,-2 h -8 c -2,0 -1.4979,-2 -4,-2 z" />
  <path
     d="M 11,4 C 9,4 9.5021,6 7,6 H 3 C 1.9035,6 1,6.90353 1,8 v 7 c 0,1.0965 0.90353,2 2,2 h 16 c 1.0965,0 2,-0.90353 2,-2 V 6 C 21,4.9035 20.09647,4 19,4 Z"
     fill="#ffffff"
     opacity="0.15"
     id="path10"
     sodipodi:nodetypes="sssssssssss" />
  <path
     id="path1763"
     d="M 11,4 C 9,4 9.5021,6 7,6 H 3 C 1.9035,6 1,6.90353 1,8 v 0.5 c 0,-1.09647 0.9035,-2 2,-2 h 4 c 2.5021,0 2,-2 4,-2 h 8 c 1.09647,0 2,0.9035 2,2 V 6 C 21,4.9035 20.09647,4 19,4 Z"
     style="opacity:0.2;fill:#ffffff;fill-opacity:1" />
  <path
     id="path1903"
     class="ColorScheme-Text"
     d="M 3,1 C 1.9035,1 1,1.90353 1,3 v 0.5 c 0,-1.09647 0.9035,-2 2,-2 h 4 c 2.5021,0 2,2 4,2 h 8 c 1.09647,0 2,0.9035 2,2 V 5 C 21,3.9035 20.09647,3 19,3 H 11 C 9,3 9.5021,1 7,1 Z"
     style="opacity:0.2;fill:#ffffff;fill-opacity:1" />
  <path
     id="path2348"
     d="m 11,3.5 c -2,0 -1.4979,2 -4,2 H 3 c -1.0965,0 -2,0.90353 -2,2 V 8 C 1,6.90353 1.9035,6 3,6 H 7 C 9.5021,6 9,4 11,4 h 8 c 1.09647,0 2,0.9035 2,2 V 5.5 c 0,-1.0965 -0.90353,-2 -2,-2 z"
     style="opacity:0.2" />
  <rect
     style="opacity:0.9;fill:#ffffff;stroke-width:0.5;stroke-linecap:round;stroke-linejoin:round;paint-order:markers stroke fill"
     id="rect1245"
     width="9"
     height="1"
     x="25.607651"
     y="29.610533"
     rx="0.5"
     ry="0.5" />
  <path
     id="path8029"
     d="m 31,1 c -0.554,0 -1,0.446 -1,1 v 8.585938 L 27.414062,8 C 27.022325,7.6082629 26.391737,7.6082629 26,8 25.608263,8.391737 25.608263,9.022326 26,9.414062 l 4.242188,4.242188 0.002,-0.002 C 30.427322,13.865617 30.697372,14 31,14 c 0.302628,0 0.572631,-0.13443 0.755859,-0.345703 l 0.002,0.002 L 36,9.414062 C 36.391737,9.022327 36.391737,8.391737 36,8 35.608263,7.6082629 34.977674,7.6082629 34.585938,8 L 32,10.585938 V 2 C 32,1.446 31.554,1 31,1 Z m -5,14 c -0.554,0 -1,0.446 -1,1 0,0.554 0.446,1 1,1 h 10 c 0.554,0 1,-0.446 1,-1 0,-0.554 -0.446,-1 -1,-1 z"
     style="opacity:1;fill:url(#radialGradient27413);fill-opacity:1;stroke-width:0.73598;stroke-linecap:round;stroke-linejoin:round;paint-order:markers stroke fill" />
  <path
     id="rect3177"
     style="opacity:0.9;fill:#ffffff;stroke:none;stroke-width:1;stroke-linecap:round;stroke-linejoin:round;stroke-miterlimit:4;stroke-dasharray:none;stroke-opacity:1;paint-order:normal"
     d="m 30.107652,20.610533 c -0.277,0 -0.5,0.223 -0.5,0.5 v 5.617188 l -1.886719,-1.886719 c -0.243306,-0.243306 -0.639506,-0.243307 -0.882813,0 -0.243306,0.243306 -0.243306,0.639506 0,0.882812 l 2.828126,2.828125 c 0.06083,0.06083 0.13177,0.106306 0.207031,0.136719 0.03763,0.01521 0.0758,0.02755 0.115234,0.03516 0.01972,0.0038 0.03865,0.0059 0.05859,0.0078 0.03989,0.0038 0.08121,0.0038 0.121094,0 0.01991,-0.0019 0.03891,-0.004 0.05859,-0.0078 0.03885,-0.0075 0.07812,-0.02028 0.115234,-0.03516 0.07516,-0.03041 0.146205,-0.07589 0.207031,-0.136719 l 2.830078,-2.828125 c 0.243307,-0.243306 0.243307,-0.639505 0,-0.882812 -0.243306,-0.243306 -0.641459,-0.243306 -0.884765,0 l -1.886719,1.886719 v -5.617188 c 0,-0.277 -0.223,-0.5 -0.5,-0.5 z" />
  <g
     id="rect3201"
     inkscape:transform-center-x="-1.4142135"
     inkscape:transform-center-y="-1.4142135"
     style="opacity:0.8"
     transform="rotate(45)" />
  <g
     id="rect3285"
     inkscape:transform-center-x="1.4142136"
     inkscape:transform-center-y="-1.4142136"
     style="opacity:0.8"
     transform="matrix(-0.70710678,0.70710678,0.70710678,0.70710678,0,0)" />
  <g
     id="g5968">
    <path
       id="path9629"
       style="opacity:0.2"
       d="M 11.054688 4.7519531 C 11.01333 4.7513926 10.971793 4.7539591 10.929688 4.7578125 C 10.549251 4.7563222 10.220708 4.9466684 10.015625 5.21875 C 9.8112611 5.4898778 9.7094648 5.8361621 9.75 6.1816406 L 9.75 9.8398438 C 9.3074948 9.5820092 8.8695942 9.3109376 8.3945312 9.0761719 A 0.250025 0.250025 0 0 0 8.3789062 9.0683594 C 7.5370847 8.7255842 6.6264205 9.4852997 6.7128906 10.357422 C 6.7331206 10.700227 6.9109222 10.970572 7.1230469 11.158203 C 7.3372308 11.347655 7.5848889 11.476251 7.7910156 11.589844 C 8.5987615 12.056577 9.4081137 12.520555 10.212891 12.988281 C 10.704658 13.390353 11.413179 13.319693 11.873047 12.935547 C 12.827164 12.381969 13.789974 11.838665 14.744141 11.275391 A 0.250025 0.250025 0 0 0 14.753906 11.269531 C 15.402228 10.850692 15.456432 9.9204825 14.939453 9.3847656 C 14.705886 9.1197551 14.37875 8.9993236 14.064453 9 C 13.757085 9.0006614 13.456064 9.1042704 13.208984 9.28125 L 12.25 9.8339844 C 12.249113 8.5227455 12.256194 7.2106317 12.246094 5.8964844 A 0.250025 0.250025 0 0 0 12.244141 5.8789062 C 12.19875 5.254521 11.675044 4.7603609 11.054688 4.7519531 z M 11.039062 4.9941406 C 11.534715 4.9944282 11.959703 5.3982743 11.996094 5.8984375 C 12.007336 7.3549124 11.996801 8.8109139 12 10.267578 L 13.333984 9.4980469 C 13.750378 9.1867089 14.393712 9.1284824 14.759766 9.5527344 C 15.170969 9.9741975 15.126095 10.731759 14.617188 11.060547 C 13.660464 11.625332 12.693435 12.170773 11.732422 12.728516 C 11.353826 13.059072 10.737761 13.118721 10.345703 12.775391 C 9.5362367 12.304895 8.7230399 11.839681 7.9121094 11.371094 C 7.4941895 11.140786 6.9860114 10.88205 6.9589844 10.337891 C 6.8874474 9.6563042 7.6251987 9.0328552 8.2832031 9.3007812 C 8.8710732 9.5912938 9.4260857 9.9491477 10 10.267578 L 10 6.1699219 C 9.9243691 5.6076368 10.335657 4.9868038 10.939453 5 C 10.973043 4.9963545 11.006019 4.9941215 11.039062 4.9941406 z M 14.361328 13.742188 C 14.296178 13.741949 14.230925 13.745133 14.167969 13.75 L 7.5117188 13.75 C 6.6140162 13.70526 5.9835376 14.698676 6.3515625 15.5 C 6.4731776 15.804574 6.7103595 16.014833 6.9746094 16.128906 C 7.2413327 16.244047 7.5349514 16.27412 7.8085938 16.248047 L 7.7851562 16.25 C 10.056896 16.2467 12.329415 16.255841 14.603516 16.244141 A 0.250025 0.250025 0 0 0 14.615234 16.244141 C 15.510866 16.198771 16.038147 15.150071 15.59375 14.390625 C 15.449986 14.113103 15.208708 13.931553 14.953125 13.839844 C 14.758602 13.770041 14.556778 13.742904 14.361328 13.742188 z M 14.359375 13.994141 C 14.764103 13.996351 15.183713 14.122821 15.378906 14.511719 C 15.729918 15.104057 15.301597 15.958681 14.601562 15.994141 C 12.329051 16.005841 10.057873 15.9967 7.7851562 16 C 7.3103131 16.045243 6.7670244 15.887102 6.578125 15.402344 C 6.2832493 14.775471 6.7959862 13.964916 7.5 14 L 14.1875 14 C 14.243966 13.995636 14.301557 13.993825 14.359375 13.994141 z " />
    <path
       d="M 10.939453,5 C 10.335657,4.9868038 9.9243691,5.608267 10,6.1705521 10,7.5362274 10,8.9019027 10,10.267578 9.4260857,9.9491476 8.8720301,9.5909495 8.28416,9.3004369 7.6261556,9.0325108 6.8878145,9.6560686 6.9593515,10.337655 c 0.027027,0.544159 0.5347531,0.802809 0.952673,1.033117 0.8109305,0.468587 1.6242061,0.934116 2.4336725,1.404612 0.392058,0.34333 1.007777,0.284066 1.386373,-0.04649 0.961013,-0.557743 1.928793,-1.104378 2.885517,-1.669163 0.508908,-0.328788 0.552978,-1.0856904 0.141775,-1.5071535 -0.366054,-0.424252 -1.008724,-0.36557 -1.425118,-0.054232 C 12.889496,9.7547566 12.444748,10.011167 12,10.267578 11.996801,8.8109138 12.006412,7.353948 11.99517,5.8974731 11.956353,5.3639657 11.476891,4.9416721 10.939453,5 Z M 7.5,14 C 6.7959862,13.964916 6.283468,14.77606 6.5783437,15.402933 6.7672431,15.887691 7.3094103,16.045243 7.7842534,16 10.05697,15.9967 12.330016,16.0067 14.602527,15.995 15.302562,15.95954 15.730663,15.103878 15.379651,14.51154 15.156573,14.067085 14.639046,13.965087 14.187321,14 11.958214,14 9.7291071,14 7.5,14 Z"
       id="path9631"
       style="fill:#ffffff;fill-opacity:1;opacity:0.9" />
  </g>
</svg>
