<?xml version="1.0" encoding="UTF-8" standalone="no"?>
<svg
   width="22"
   height="22"
   version="1"
   id="svg14"
   sodipodi:docname="folder-downloads.svg"
   inkscape:version="1.1.1 (3bf5ae0d25, 2021-09-20, custom)"
   xmlns:inkscape="http://www.inkscape.org/namespaces/inkscape"
   xmlns:sodipodi="http://sodipodi.sourceforge.net/DTD/sodipodi-0.dtd"
   xmlns:xlink="http://www.w3.org/1999/xlink"
   xmlns="http://www.w3.org/2000/svg"
   xmlns:svg="http://www.w3.org/2000/svg"
   xmlns:rdf="http://www.w3.org/1999/02/22-rdf-syntax-ns#"
   xmlns:cc="http://creativecommons.org/ns#"
   xmlns:dc="http://purl.org/dc/elements/1.1/">
  <metadata
     id="metadata847">
    <rdf:RDF>
      <cc:Work
         rdf:about="">
        <dc:format>image/svg+xml</dc:format>
        <dc:type
           rdf:resource="http://purl.org/dc/dcmitype/StillImage" />
      </cc:Work>
    </rdf:RDF>
  </metadata>
  <defs
     id="defs18">
    <linearGradient
       inkscape:collect="always"
       id="linearGradient15018">
      <stop
         style="stop-color:#7a00ac;stop-opacity:1"
         offset="0"
         id="stop15014" />
      <stop
         style="stop-color:#db1f8c;stop-opacity:1"
         offset="0.42935538"
         id="stop24106" />
      <stop
         style="stop-color:#f89065;stop-opacity:1"
         offset="1"
         id="stop15016" />
    </linearGradient>
    <radialGradient
       inkscape:collect="always"
       xlink:href="#linearGradient15018"
       id="radialGradient27413"
       cx="12.303492"
       cy="11.944257"
       fx="12.303492"
       fy="11.944257"
       r="6"
       gradientTransform="matrix(-1.6452178,0.9498668,-1.8318338,-3.1728298,53.162734,30.059072)"
       gradientUnits="userSpaceOnUse" />
  </defs>
  <sodipodi:namedview
     id="namedview16"
     pagecolor="#ffffff"
     bordercolor="#666666"
     borderopacity="1.0"
     inkscape:pageshadow="2"
     inkscape:pageopacity="0.0"
     inkscape:pagecheckerboard="0"
     showgrid="true"
     inkscape:snap-grids="true"
     inkscape:snap-bbox="true"
     inkscape:bbox-nodes="true"
     inkscape:object-paths="false"
     inkscape:snap-intersection-paths="true"
     inkscape:snap-smooth-nodes="true"
     showguides="false"
     inkscape:snap-global="true"
     inkscape:zoom="22.627417"
     inkscape:cx="14.164233"
     inkscape:cy="12.529048"
     inkscape:window-width="1440"
     inkscape:window-height="823"
     inkscape:window-x="0"
     inkscape:window-y="768"
     inkscape:window-maximized="1"
     inkscape:current-layer="svg14"
     inkscape:document-rotation="0">
    <inkscape:grid
       type="xygrid"
       id="grid835" />
  </sodipodi:namedview>
  <path
     id="path8029"
     style="opacity:1;fill:url(#radialGradient27413);stroke-width:0.73598;stroke-linecap:round;stroke-linejoin:round;paint-order:markers stroke fill;fill-opacity:1"
     d="M 11 3 C 10.446 3 10 3.446 10 4 L 10 12.585938 L 7.4140625 10 C 7.0223255 9.6082629 6.391737 9.6082629 6 10 C 5.608263 10.391737 5.608263 11.022326 6 11.414062 L 10.242188 15.65625 L 10.244141 15.654297 C 10.427322 15.865617 10.697372 16 11 16 C 11.302628 16 11.572631 15.86557 11.755859 15.654297 L 11.757812 15.65625 L 16 11.414062 C 16.391737 11.022327 16.391737 10.391737 16 10 C 15.608263 9.6082629 14.977674 9.6082629 14.585938 10 L 12 12.585938 L 12 4 C 12 3.446 11.554 3 11 3 z M 6 17 C 5.446 17 5 17.446 5 18 C 5 18.554 5.446 19 6 19 L 16 19 C 16.554 19 17 18.554 17 18 C 17 17.446 16.554 17 16 17 L 6 17 z " />
</svg>
