<?xml version="1.0" encoding="UTF-8" standalone="no"?>
<svg
   width="22"
   height="22"
   version="1"
   id="svg33"
   sodipodi:docname="folder-downloadsTHIN.svg"
   inkscape:version="1.1.1 (3bf5ae0d25, 2021-09-20, custom)"
   xmlns:inkscape="http://www.inkscape.org/namespaces/inkscape"
   xmlns:sodipodi="http://sodipodi.sourceforge.net/DTD/sodipodi-0.dtd"
   xmlns:xlink="http://www.w3.org/1999/xlink"
   xmlns="http://www.w3.org/2000/svg"
   xmlns:svg="http://www.w3.org/2000/svg">
  <sodipodi:namedview
     id="namedview35"
     pagecolor="#ffffff"
     bordercolor="#666666"
     borderopacity="1.0"
     inkscape:pageshadow="2"
     inkscape:pageopacity="0.0"
     inkscape:pagecheckerboard="0"
     showgrid="false"
     inkscape:zoom="27.181818"
     inkscape:cx="11.018395"
     inkscape:cy="10.981605"
     inkscape:window-width="1440"
     inkscape:window-height="823"
     inkscape:window-x="0"
     inkscape:window-y="768"
     inkscape:window-maximized="1"
     inkscape:current-layer="svg33" />
  <defs
     id="defs11">
    <linearGradient
       id="a">
      <stop
         style="stop-color:#8841e6"
         offset="0"
         id="stop2" />
      <stop
         style="stop-color:#db1f8c"
         offset=".42936"
         id="stop4" />
      <stop
         style="stop-color:#f7723b"
         offset="1"
         id="stop6" />
    </linearGradient>
    <radialGradient
       id="b"
       cx="12.303"
       cy="11.944"
       r="6"
       gradientTransform="matrix(-1.7359 .77177 -1.4932 -3.3586 70.234 32.469)"
       gradientUnits="userSpaceOnUse"
       xlink:href="#a" />
    <linearGradient
       id="c"
       x1="1"
       x2="21"
       y1="1"
       y2="17"
       gradientUnits="userSpaceOnUse"
       xlink:href="#a" />
  </defs>
  <rect
     x="1"
     y="7.5"
     width="20"
     height="10"
     rx="2"
     ry="2"
     opacity=".2"
     id="rect13" />
  <path
     class="ColorScheme-Text"
     d="m3 1c-1.0965 0-2 0.90353-2 2v12c0 1.0965 0.90353 2 2 2h16c1.0965 0 2-0.90353 2-2v-10c0-1.0965-0.90353-2-2-2h-8c-2 0-1.4979-2-4-2z"
     style="fill:url(#c)"
     id="path15" />
  <path
     class="ColorScheme-Text"
     d="m3 1.5c-1.0965 0-2 0.90353-2 2v4.5c0-1.0965 0.9035-2 2-2h4c2.5021 0 2-2 4-2h8c1.0965 0 2 0.9035 2 2v-0.5c0-1.0965-0.90353-2-2-2h-8c-2 0-1.4979-2-4-2z"
     style="fill:#808080;opacity:.2"
     id="path17" />
  <path
     d="m11 4c-2 0-1.4979 2-4 2h-4c-1.0965 0-2 0.90353-2 2v7c0 1.0965 0.90353 2 2 2h16c1.0965 0 2-0.90353 2-2v-9c0-1.0965-0.90353-2-2-2z"
     fill="#fff"
     opacity=".15"
     id="path19" />
  <path
     d="m11 4c-2 0-1.4979 2-4 2h-4c-1.0965 0-2 0.90353-2 2v0.5c0-1.0965 0.9035-2 2-2h4c2.5021 0 2-2 4-2h8c1.0965 0 2 0.9035 2 2v-0.5c0-1.0965-0.90353-2-2-2z"
     style="fill:#fff;opacity:.2"
     id="path21" />
  <path
     class="ColorScheme-Text"
     d="m3 1c-1.0965 0-2 0.90353-2 2v0.5c0-1.0965 0.9035-2 2-2h4c2.5021 0 2 2 4 2h8c1.0965 0 2 0.9035 2 2v-0.5c0-1.0965-0.90353-2-2-2h-8c-2 0-1.4979-2-4-2z"
     style="fill:#fff;opacity:.2"
     id="path23" />
  <path
     d="m11 3.5c-2 0-1.4979 2-4 2h-4c-1.0965 0-2 0.90353-2 2v0.5c0-1.0965 0.9035-2 2-2h4c2.5021 0 2-2 4-2h8c1.0965 0 2 0.9035 2 2v-0.5c0-1.0965-0.90353-2-2-2z"
     style="opacity:.2"
     id="path25" />
  <path
     id="path951"
     d="M 11.5 5.7539062 C 11.253692 5.7494314 11.0372 5.8744137 10.908203 6.046875 C 10.783634 6.2134154 10.723886 6.4230785 10.75 6.6367188 L 10.75 11.513672 C 10.248808 11.011697 9.7496983 10.508953 9.2421875 10.009766 A 0.250025 0.250025 0 0 0 9.2324219 10.001953 C 8.7174297 9.5405872 7.8477637 9.9033949 7.8066406 10.591797 C 7.7782906 10.872664 7.9007236 11.109246 8.0410156 11.273438 C 8.1829928 11.439599 8.339879 11.564061 8.4355469 11.671875 A 0.250025 0.250025 0 0 0 8.4472656 11.683594 C 9.2748975 12.508126 10.095813 13.33915 10.929688 14.162109 A 0.250025 0.250025 0 0 0 10.941406 14.173828 C 11.342422 14.522382 11.923714 14.384785 12.224609 14.011719 L 12.226562 14.009766 C 13.146745 13.087205 14.07381 12.170633 14.992188 11.242188 A 0.250025 0.250025 0 0 0 15 11.232422 C 15.461839 10.71689 15.0971 9.8468922 14.408203 9.8066406 C 14.128115 9.7788806 13.890327 9.9009982 13.726562 10.041016 C 13.56041 10.183073 13.436013 10.339713 13.328125 10.435547 A 0.250025 0.250025 0 0 0 13.316406 10.445312 L 12.25 11.511719 C 12.249708 9.8245729 12.253447 8.1376747 12.248047 6.4492188 A 0.250025 0.250025 0 0 0 12.248047 6.4472656 A 0.250025 0.250025 0 0 0 12.248047 6.4453125 A 0.250025 0.250025 0 0 0 12.248047 6.4433594 A 0.250025 0.250025 0 0 0 12.248047 6.4414062 A 0.250025 0.250025 0 0 0 12.248047 6.4394531 A 0.250025 0.250025 0 0 0 12.248047 6.4335938 A 0.250025 0.250025 0 0 0 12.248047 6.4316406 A 0.250025 0.250025 0 0 0 12.248047 6.4296875 A 0.250025 0.250025 0 0 0 12.248047 6.4277344 C 12.21598 6.0416103 11.886596 5.7497177 11.5 5.7539062 z M 11.5 6 C 11.75052 5.9951535 11.977332 6.199585 11.998047 6.4492188 C 12.004047 8.3385776 11.9983 10.227721 12 12.117188 L 13.494141 10.623047 C 13.758653 10.388087 13.982543 10.004121 14.388672 10.050781 C 14.868153 10.072371 15.134098 10.709599 14.814453 11.066406 C 13.896733 11.994188 12.968522 12.911891 12.046875 13.835938 C 11.831956 14.122869 11.392919 14.23422 11.105469 13.984375 C 10.273099 13.1629 9.4516215 12.33133 8.6230469 11.505859 C 8.3884751 11.241506 8.0045493 11.01696 8.0507812 10.611328 C 8.072988 10.132263 8.7098534 9.8680867 9.0664062 10.1875 C 9.7155316 10.825979 10.354584 11.474805 11 12.117188 L 11 6.6289062 C 10.949821 6.3238602 11.171132 5.9884192 11.5 6 z M 7.5 14.75 C 7.0888247 14.75 6.75 15.088825 6.75 15.5 C 6.75 15.911175 7.0888247 16.25 7.5 16.25 L 15.5 16.25 C 15.911175 16.25 16.25 15.911175 16.25 15.5 C 16.25 15.088825 15.911175 14.75 15.5 14.75 L 7.5 14.75 z M 7.5 15 L 15.5 15 C 15.777 15 16 15.223 16 15.5 C 16 15.777 15.777 16 15.5 16 L 7.5 16 C 7.223 16 7 15.777 7 15.5 C 7 15.223 7.223 15 7.5 15 z "
     style="opacity:0.2" />
  <path
     style="color:#000000;opacity:0.9;fill:#ffffff;stroke-width:0.5;stroke-linecap:round;stroke-linejoin:round;-inkscape-stroke:none;paint-order:markers stroke fill"
     d="M 11.5,6 C 11.171132,5.9884192 10.949821,6.3238602 11,6.6289062 V 12.117188 C 10.354584,11.474806 9.7155315,10.825979 9.0664062,10.1875 8.7098533,9.8680867 8.0729879,10.132263 8.0507812,10.611328 c -0.046232,0.405632 0.3376939,0.630178 0.5722657,0.894531 0.8285746,0.825471 1.6500521,1.657041 2.4824221,2.478516 0.28745,0.249845 0.726487,0.138495 0.941406,-0.148437 0.921647,-0.924047 1.849858,-1.84175 2.767578,-2.769532 0.319645,-0.356807 0.0537,-0.994035 -0.425781,-1.015625 -0.406129,-0.04666 -0.630019,0.337306 -0.894531,0.572266 L 12,12.117188 C 11.9983,10.227721 12.004,8.3385776 11.998,6.4492188 11.977285,6.199585 11.75052,5.9951535 11.5,6 Z m -4,9 C 7.223,15 7,15.223 7,15.5 7,15.777 7.223,16 7.5,16 h 8 C 15.777,16 16,15.777 16,15.5 16,15.223 15.777,15 15.5,15 Z"
     id="path953" />
  <path
     d="m31 1c-0.554 0-1 0.446-1 1v8.5859l-2.5859-2.5859c-0.39174-0.39174-1.0223-0.39174-1.4141 0-0.39174 0.39174-0.39174 1.0223 0 1.4141l4.2422 4.2422 2e-3 -2e-3c0.18313 0.21137 0.45318 0.34575 0.75581 0.34575s0.57263-0.13443 0.75586-0.3457l2e-3 2e-3 4.2421-4.2422c0.39174-0.39174 0.39174-1.0223 0-1.4141-0.39174-0.39174-1.0223-0.39174-1.4141 0l-2.5859 2.5859v-8.5859c0-0.554-0.446-1-1-1zm-5 14c-0.554 0-1 0.446-1 1s0.446 1 1 1h10c0.554 0 1-0.446 1-1s-0.446-1-1-1z"
     style="fill:url(#b);paint-order:markers stroke fill;stroke-linecap:round;stroke-linejoin:round;stroke-width:.73598"
     id="path29" />
</svg>
