<svg width="22" height="22" version="1" xmlns="http://www.w3.org/2000/svg">
 <defs>
  <style id="current-color-scheme" type="text/css">.ColorScheme-Highlight { color:#3daee9; } .ColorScheme-Background { color:#eff0f1; } .ColorScheme-Text { color:#31363b; }</style>
  <g class="ColorScheme-Highlight">
   <linearGradient id="a" x1="1" x2="21" y1="1" y2="17" gradientUnits="userSpaceOnUse">
    <stop style="stop-color:currentColor;stop-opacity:.75" offset="0"/>
    <stop style="stop-color:currentColor;stop-opacity:.25" offset="1"/>
   </linearGradient>
   <linearGradient id="b" x1="1" x2="21" y1="16" y2="16" gradientUnits="userSpaceOnUse">
    <stop style="stop-color:currentColor" offset="0"/>
    <stop style="stop-color:currentColor;stop-opacity:.3" offset="1"/>
   </linearGradient>
  </g>
 </defs>
 <rect x="1" y="7.5" width="20" height="10" rx="2" ry="2" opacity=".2"/>
 <path class="ColorScheme-Background" d="m3 1c-1.0965 0-2 0.90353-2 2v12c0 1.0965 0.90353 2 2 2h16c1.0965 0 2-0.90353 2-2v-10c0-1.0965-0.90353-2-2-2h-8c-2 0-1.4979-2-4-2z" style="fill:currentColor"/>
 <path class="ColorScheme-Text" d="m3 1c-1.0965 0-2 0.90353-2 2v12c0 1.0965 0.90353 2 2 2h16c1.0965 0 2-0.90353 2-2v-10c0-1.0965-0.90353-2-2-2h-8c-2 0-1.4979-2-4-2z" style="fill:currentColor;opacity:.025"/>
 <path d="m3 1c-1.0965 0-2 0.90353-2 2v12c0 1.0965 0.90353 2 2 2h16c1.0965 0 2-0.90353 2-2v-10c0-1.0965-0.90353-2-2-2h-8c-2 0-1.4979-2-4-2z" style="fill:url(#a)"/>
 <path class="ColorScheme-Text" d="m3 1.5c-1.0965 0-2 0.90353-2 2v4c0-1.0965 0.9035-2 2-2h4c2.5021 0 2-2 4-2-2 0-1.4979-2-4-2h-4z" style="fill:#808080;opacity:.2"/>
 <path d="m11 4c-2 0-1.4979 2-4 2h-4c-1.0965 0-2 0.90353-2 2v7c0 1.0965 0.90353 2 2 2h16c1.0965 0 2-0.90353 2-2v-9c0-1.0965-0.90353-2-2-2z" fill="#fff" opacity=".15"/>
 <path d="m11 4c-2 0-1.4979 2-4 2h-4c-1.0965 0-2 0.90353-2 2v0.5c0-1.0965 0.9035-2 2-2h4c2.5021 0 2-2 4-2h8c1.0965 0 2 0.9035 2 2v-0.5c0-1.0965-0.90353-2-2-2z" style="fill:#fff;opacity:.2"/>
 <path class="ColorScheme-Text" d="m3 1c-1.0965 0-2 0.90353-2 2v0.5c0-1.0965 0.9035-2 2-2h4c2.5021 0 2 2 4 2h8c1.0965 0 2 0.9035 2 2v-0.5c0-1.0965-0.90353-2-2-2h-8c-2 0-1.4979-2-4-2z" style="fill:#fff;opacity:.2"/>
 <path d="m11 3.5c-2 0-1.4979 2-4 2h-4c-1.0965 0-2 0.90353-2 2v0.5c0-1.0965 0.9035-2 2-2h4c2.5021 0 2-2 4-2h8c1.0965 0 2 0.9035 2 2v-0.5c0-1.0965-0.90353-2-2-2z" style="opacity:.25"/>
 <path d="m3.6328 8.5003c-0.35322 0.01779-0.63281 0.30822-0.63281 0.66602v0.66797c0 0.36933 0.29668 0.66602 0.66602 0.66602h0.66797c0.36933 0 0.66602-0.29668 0.66602-0.66602v-0.66797c0-0.36933-0.29668-0.66602-0.66602-0.66602h-0.66797c-0.011542 0-0.021809-5.74e-4 -0.033203 0zm0 2.9997c-0.35367 0-0.63281 0.30822-0.63281 0.66602v0.66797c0 0.36933 0.29668 0.66602 0.66602 0.66602h0.66797c0.36933 0 0.66602-0.29668 0.66602-0.66602v-0.66797c0-0.36933-0.29668-0.66602-0.66602-0.66602h-0.70117z" style="opacity:.2"/>
 <path d="m3.6211 7.75c-0.48312 0.024332-0.87109 0.42798-0.87109 0.91602v0.66797c0 0.50321 0.41279 0.91602 0.91602 0.91602h0.66797c0.50321 0 0.91602-0.41279 0.91602-0.91602v-0.66797c0-0.50321-0.41279-0.91602-0.91602-0.91602h-0.66797c-0.00325 0-0.017626-0.00138-0.044922 0zm0.011719 3c-0.49892 0-0.88281 0.42819-0.88281 0.91602v0.66797c0 0.50321 0.41279 0.91602 0.91602 0.91602h0.66797c0.50321 0 0.91602-0.41279 0.91602-0.91602v-0.66797c0-0.50321-0.41279-0.91602-0.91602-0.91602h-0.66797z" style="opacity:.2"/>
 <path d="m3.6328 8.0003c-0.35322 0.01779-0.63281 0.30822-0.63281 0.66602v0.66797c0 0.36933 0.29668 0.66602 0.66602 0.66602h0.66797c0.36933 0 0.66602-0.29668 0.66602-0.66602v-0.66797c0-0.36933-0.29668-0.66602-0.66602-0.66602h-0.66797c-0.011542 0-0.021809-5.74e-4 -0.033203 0zm0 2.9997c-0.35367 0-0.63281 0.30822-0.63281 0.66602v0.66797c0 0.36933 0.29668 0.66602 0.66602 0.66602h0.66797c0.36933 0 0.66602-0.29668 0.66602-0.66602v-0.66797c0-0.36933-0.29668-0.66602-0.66602-0.66602h-0.70117z" style="fill:#fff"/>
 <path class="ColorScheme-Background" d="m3 15h-2c0 1.0965 0.9035 2 2 2h16c1.0965 0 2-0.9035 2-2h-2z" style="fill:currentColor;opacity:.9"/>
 <path d="m3 15h-2c0 1.0965 0.9035 2 2 2h16c1.0965 0 2-0.9035 2-2h-2z" style="fill:url(#b);opacity:.2"/>
 <g class="ColorScheme-Text" transform="translate(-21,-33)" style="fill:currentColor">
  <rect x="37" y="48" width="1" height="1"/>
  <rect x="39" y="48" width="1" height="1"/>
  <rect x="24" y="48" width="1" height="1"/>
  <rect x="31" y="48" width="1" height="1"/>
  <rect x="33" y="48" width="1" height="1"/>
  <rect x="29" y="48" width="1" height="1"/>
 </g>
</svg>
